<svg id="el_2e3LEP0B8" data-name="Layer 1" xmlns="http://www.w3.org/2000/svg" xmlns:xlink="http://www.w3.org/1999/xlink" viewBox="0 0 506 399"><style>@-webkit-keyframes el_ZWCJV2_80KS_sxAQD9jzZ_Animation{25%{-webkit-transform: translate(235.47000122070312px, 365.5px) rotate(0deg) translate(-235.47000122070312px, -365.5px);transform: translate(235.47000122070312px, 365.5px) rotate(0deg) translate(-235.47000122070312px, -365.5px);}50%{-webkit-transform: translate(235.47000122070312px, 365.5px) rotate(10deg) translate(-235.47000122070312px, -365.5px);transform: translate(235.47000122070312px, 365.5px) rotate(10deg) translate(-235.47000122070312px, -365.5px);}75%{-webkit-transform: translate(235.47000122070312px, 365.5px) rotate(0deg) translate(-235.47000122070312px, -365.5px);transform: translate(235.47000122070312px, 365.5px) rotate(0deg) translate(-235.47000122070312px, -365.5px);}0%{-webkit-transform: translate(235.47000122070312px, 365.5px) rotate(0deg) translate(-235.47000122070312px, -365.5px);transform: translate(235.47000122070312px, 365.5px) rotate(0deg) translate(-235.47000122070312px, -365.5px);}100%{-webkit-transform: translate(235.47000122070312px, 365.5px) rotate(0deg) translate(-235.47000122070312px, -365.5px);transform: translate(235.47000122070312px, 365.5px) rotate(0deg) translate(-235.47000122070312px, -365.5px);}}@keyframes el_ZWCJV2_80KS_sxAQD9jzZ_Animation{25%{-webkit-transform: translate(235.47000122070312px, 365.5px) rotate(0deg) translate(-235.47000122070312px, -365.5px);transform: translate(235.47000122070312px, 365.5px) rotate(0deg) translate(-235.47000122070312px, -365.5px);}50%{-webkit-transform: translate(235.47000122070312px, 365.5px) rotate(10deg) translate(-235.47000122070312px, -365.5px);transform: translate(235.47000122070312px, 365.5px) rotate(10deg) translate(-235.47000122070312px, -365.5px);}75%{-webkit-transform: translate(235.47000122070312px, 365.5px) rotate(0deg) translate(-235.47000122070312px, -365.5px);transform: translate(235.47000122070312px, 365.5px) rotate(0deg) translate(-235.47000122070312px, -365.5px);}0%{-webkit-transform: translate(235.47000122070312px, 365.5px) rotate(0deg) translate(-235.47000122070312px, -365.5px);transform: translate(235.47000122070312px, 365.5px) rotate(0deg) translate(-235.47000122070312px, -365.5px);}100%{-webkit-transform: translate(235.47000122070312px, 365.5px) rotate(0deg) translate(-235.47000122070312px, -365.5px);transform: translate(235.47000122070312px, 365.5px) rotate(0deg) translate(-235.47000122070312px, -365.5px);}}@-webkit-keyframes el_3-LKn354iC5_wS0KyOgMX_Animation{25%{-webkit-transform: translate(263.6600036621094px, 365.5px) rotate(0deg) translate(-263.6600036621094px, -365.5px);transform: translate(263.6600036621094px, 365.5px) rotate(0deg) translate(-263.6600036621094px, -365.5px);}50%{-webkit-transform: translate(263.6600036621094px, 365.5px) rotate(-10deg) translate(-263.6600036621094px, -365.5px);transform: translate(263.6600036621094px, 365.5px) rotate(-10deg) translate(-263.6600036621094px, -365.5px);}75%{-webkit-transform: translate(263.6600036621094px, 365.5px) rotate(0deg) translate(-263.6600036621094px, -365.5px);transform: translate(263.6600036621094px, 365.5px) rotate(0deg) translate(-263.6600036621094px, -365.5px);}0%{-webkit-transform: translate(263.6600036621094px, 365.5px) rotate(0deg) translate(-263.6600036621094px, -365.5px);transform: translate(263.6600036621094px, 365.5px) rotate(0deg) translate(-263.6600036621094px, -365.5px);}100%{-webkit-transform: translate(263.6600036621094px, 365.5px) rotate(0deg) translate(-263.6600036621094px, -365.5px);transform: translate(263.6600036621094px, 365.5px) rotate(0deg) translate(-263.6600036621094px, -365.5px);}}@keyframes el_3-LKn354iC5_wS0KyOgMX_Animation{25%{-webkit-transform: translate(263.6600036621094px, 365.5px) rotate(0deg) translate(-263.6600036621094px, -365.5px);transform: translate(263.6600036621094px, 365.5px) rotate(0deg) translate(-263.6600036621094px, -365.5px);}50%{-webkit-transform: translate(263.6600036621094px, 365.5px) rotate(-10deg) translate(-263.6600036621094px, -365.5px);transform: translate(263.6600036621094px, 365.5px) rotate(-10deg) translate(-263.6600036621094px, -365.5px);}75%{-webkit-transform: translate(263.6600036621094px, 365.5px) rotate(0deg) translate(-263.6600036621094px, -365.5px);transform: translate(263.6600036621094px, 365.5px) rotate(0deg) translate(-263.6600036621094px, -365.5px);}0%{-webkit-transform: translate(263.6600036621094px, 365.5px) rotate(0deg) translate(-263.6600036621094px, -365.5px);transform: translate(263.6600036621094px, 365.5px) rotate(0deg) translate(-263.6600036621094px, -365.5px);}100%{-webkit-transform: translate(263.6600036621094px, 365.5px) rotate(0deg) translate(-263.6600036621094px, -365.5px);transform: translate(263.6600036621094px, 365.5px) rotate(0deg) translate(-263.6600036621094px, -365.5px);}}@-webkit-keyframes el_J3exINdLI10_OCYuLBFAb_Animation{50%{-webkit-transform: translate(364.3399906158447px, 186.6699924468994px) rotate(0deg) translate(-364.3399906158447px, -186.6699924468994px);transform: translate(364.3399906158447px, 186.6699924468994px) rotate(0deg) translate(-364.3399906158447px, -186.6699924468994px);}75%{-webkit-transform: translate(364.3399906158447px, 186.6699924468994px) rotate(10deg) translate(-364.3399906158447px, -186.6699924468994px);transform: translate(364.3399906158447px, 186.6699924468994px) rotate(10deg) translate(-364.3399906158447px, -186.6699924468994px);}100%{-webkit-transform: translate(364.3399906158447px, 186.6699924468994px) rotate(0deg) translate(-364.3399906158447px, -186.6699924468994px);transform: translate(364.3399906158447px, 186.6699924468994px) rotate(0deg) translate(-364.3399906158447px, -186.6699924468994px);}0%{-webkit-transform: translate(364.3399906158447px, 186.6699924468994px) rotate(0deg) translate(-364.3399906158447px, -186.6699924468994px);transform: translate(364.3399906158447px, 186.6699924468994px) rotate(0deg) translate(-364.3399906158447px, -186.6699924468994px);}}@keyframes el_J3exINdLI10_OCYuLBFAb_Animation{50%{-webkit-transform: translate(364.3399906158447px, 186.6699924468994px) rotate(0deg) translate(-364.3399906158447px, -186.6699924468994px);transform: translate(364.3399906158447px, 186.6699924468994px) rotate(0deg) translate(-364.3399906158447px, -186.6699924468994px);}75%{-webkit-transform: translate(364.3399906158447px, 186.6699924468994px) rotate(10deg) translate(-364.3399906158447px, -186.6699924468994px);transform: translate(364.3399906158447px, 186.6699924468994px) rotate(10deg) translate(-364.3399906158447px, -186.6699924468994px);}100%{-webkit-transform: translate(364.3399906158447px, 186.6699924468994px) rotate(0deg) translate(-364.3399906158447px, -186.6699924468994px);transform: translate(364.3399906158447px, 186.6699924468994px) rotate(0deg) translate(-364.3399906158447px, -186.6699924468994px);}0%{-webkit-transform: translate(364.3399906158447px, 186.6699924468994px) rotate(0deg) translate(-364.3399906158447px, -186.6699924468994px);transform: translate(364.3399906158447px, 186.6699924468994px) rotate(0deg) translate(-364.3399906158447px, -186.6699924468994px);}}@-webkit-keyframes el_chsLQj5mTQ6_rjHALh-TE_Animation{40%{-webkit-transform: translate(69.59000396728516px, 271.3600158691406px) translate(-69.59000396728516px, -271.3600158691406px) translate(0px, 0px);transform: translate(69.59000396728516px, 271.3600158691406px) translate(-69.59000396728516px, -271.3600158691406px) translate(0px, 0px);}100%{-webkit-transform: translate(69.59000396728516px, 271.3600158691406px) translate(-69.59000396728516px, -271.3600158691406px) translate(0px, -140px);transform: translate(69.59000396728516px, 271.3600158691406px) translate(-69.59000396728516px, -271.3600158691406px) translate(0px, -140px);}0%{-webkit-transform: translate(69.59000396728516px, 271.3600158691406px) translate(-69.59000396728516px, -271.3600158691406px) translate(0px, 0px);transform: translate(69.59000396728516px, 271.3600158691406px) translate(-69.59000396728516px, -271.3600158691406px) translate(0px, 0px);}}@keyframes el_chsLQj5mTQ6_rjHALh-TE_Animation{40%{-webkit-transform: translate(69.59000396728516px, 271.3600158691406px) translate(-69.59000396728516px, -271.3600158691406px) translate(0px, 0px);transform: translate(69.59000396728516px, 271.3600158691406px) translate(-69.59000396728516px, -271.3600158691406px) translate(0px, 0px);}100%{-webkit-transform: translate(69.59000396728516px, 271.3600158691406px) translate(-69.59000396728516px, -271.3600158691406px) translate(0px, -140px);transform: translate(69.59000396728516px, 271.3600158691406px) translate(-69.59000396728516px, -271.3600158691406px) translate(0px, -140px);}0%{-webkit-transform: translate(69.59000396728516px, 271.3600158691406px) translate(-69.59000396728516px, -271.3600158691406px) translate(0px, 0px);transform: translate(69.59000396728516px, 271.3600158691406px) translate(-69.59000396728516px, -271.3600158691406px) translate(0px, 0px);}}@-webkit-keyframes el_2Z2DhxZWe80_sWZ_XBNwU_Animation{0%{-webkit-transform: translate(69.59000396728516px, 273.69000244140625px) translate(-69.59000396728516px, -273.69000244140625px) translate(0px, 0px);transform: translate(69.59000396728516px, 273.69000244140625px) translate(-69.59000396728516px, -273.69000244140625px) translate(0px, 0px);}100%{-webkit-transform: translate(69.59000396728516px, 273.69000244140625px) translate(-69.59000396728516px, -273.69000244140625px) translate(0px, -235px);transform: translate(69.59000396728516px, 273.69000244140625px) translate(-69.59000396728516px, -273.69000244140625px) translate(0px, -235px);}}@keyframes el_2Z2DhxZWe80_sWZ_XBNwU_Animation{0%{-webkit-transform: translate(69.59000396728516px, 273.69000244140625px) translate(-69.59000396728516px, -273.69000244140625px) translate(0px, 0px);transform: translate(69.59000396728516px, 273.69000244140625px) translate(-69.59000396728516px, -273.69000244140625px) translate(0px, 0px);}100%{-webkit-transform: translate(69.59000396728516px, 273.69000244140625px) translate(-69.59000396728516px, -273.69000244140625px) translate(0px, -235px);transform: translate(69.59000396728516px, 273.69000244140625px) translate(-69.59000396728516px, -273.69000244140625px) translate(0px, -235px);}}@-webkit-keyframes el_eV_QUksczV5_oCEz3BUv-_Animation{0%{-webkit-transform: translate(69.59000396728516px, 133.97999572753906px) translate(-69.59000396728516px, -133.97999572753906px) translate(0px, 0px);transform: translate(69.59000396728516px, 133.97999572753906px) translate(-69.59000396728516px, -133.97999572753906px) translate(0px, 0px);}100%{-webkit-transform: translate(69.59000396728516px, 133.97999572753906px) translate(-69.59000396728516px, -133.97999572753906px) translate(0px, -250px);transform: translate(69.59000396728516px, 133.97999572753906px) translate(-69.59000396728516px, -133.97999572753906px) translate(0px, -250px);}}@keyframes el_eV_QUksczV5_oCEz3BUv-_Animation{0%{-webkit-transform: translate(69.59000396728516px, 133.97999572753906px) translate(-69.59000396728516px, -133.97999572753906px) translate(0px, 0px);transform: translate(69.59000396728516px, 133.97999572753906px) translate(-69.59000396728516px, -133.97999572753906px) translate(0px, 0px);}100%{-webkit-transform: translate(69.59000396728516px, 133.97999572753906px) translate(-69.59000396728516px, -133.97999572753906px) translate(0px, -250px);transform: translate(69.59000396728516px, 133.97999572753906px) translate(-69.59000396728516px, -133.97999572753906px) translate(0px, -250px);}}@-webkit-keyframes el_AKhGLq4moR_FIs5IKuOO_Animation{0%{-webkit-transform: translate(69.59000396728516px, 40.79999923706055px) translate(-69.59000396728516px, -40.79999923706055px) translate(0px, 0px);transform: translate(69.59000396728516px, 40.79999923706055px) translate(-69.59000396728516px, -40.79999923706055px) translate(0px, 0px);}100%{-webkit-transform: translate(69.59000396728516px, 40.79999923706055px) translate(-69.59000396728516px, -40.79999923706055px) translate(0px, -250px);transform: translate(69.59000396728516px, 40.79999923706055px) translate(-69.59000396728516px, -40.79999923706055px) translate(0px, -250px);}}@keyframes el_AKhGLq4moR_FIs5IKuOO_Animation{0%{-webkit-transform: translate(69.59000396728516px, 40.79999923706055px) translate(-69.59000396728516px, -40.79999923706055px) translate(0px, 0px);transform: translate(69.59000396728516px, 40.79999923706055px) translate(-69.59000396728516px, -40.79999923706055px) translate(0px, 0px);}100%{-webkit-transform: translate(69.59000396728516px, 40.79999923706055px) translate(-69.59000396728516px, -40.79999923706055px) translate(0px, -250px);transform: translate(69.59000396728516px, 40.79999923706055px) translate(-69.59000396728516px, -40.79999923706055px) translate(0px, -250px);}}#el_2e3LEP0B8 *{-webkit-animation-duration: 2s;animation-duration: 2s;-webkit-animation-iteration-count: infinite;animation-iteration-count: infinite;-webkit-animation-timing-function: cubic-bezier(0, 0, 1, 1);animation-timing-function: cubic-bezier(0, 0, 1, 1);}#el_8jWcfgoAj1{fill: #2d2c56;-webkit-transform: translate(0px, 0.04px);transform: translate(0px, 0.04px);}#el_MRVG0rxZyn{fill: #f7f7f7;-webkit-transform: translate(0px, 0.04px);transform: translate(0px, 0.04px);}#el_oGVjyyEAaA{fill: #1f1e3c;}#el_59tCG0oArM{fill: #2d2c56;}#el_Dv_nkRoNan{fill: #f3590f;-webkit-transform: translate(0px, 0.04px);transform: translate(0px, 0.04px);}#el_7zCJQmbNvu{fill: #f3590f;opacity: 0.3;isolation: isolate;}#el_WNt3EfAzlq{fill: #f3590f;opacity: 0.3;isolation: isolate;}#el_9qkNqPS9Pz{fill: #f3590f;opacity: 0.3;isolation: isolate;}#el_j-KOv-ngSu{fill: #f3590f;opacity: 0.3;isolation: isolate;}#el_7FjBFF9glG{fill: #f3590f;opacity: 0.3;isolation: isolate;}#el_aLg3Sue3e9{fill: #f3590f;opacity: 0.3;isolation: isolate;}#el_WfbIvzhTfi{fill: #fbfbfb;-webkit-transform: translate(0px, 0.04px);transform: translate(0px, 0.04px);}#el_f0cB5lPyyb{-webkit-clip-path: url(#clip-path);clip-path: url(#clip-path);}#el_AKhGLq4moR{opacity: 0.25;}#el_4lAkmPKuALG{fill: #d98e9d;}#el_OKcBs4zO6vb{fill: #fff;}#el_xQnNKwERjZs{fill: #fff;}#el_Cy_UiZlu06u{fill: #fff;}#el_InVF6OMQLpE{fill: #fff;}#el_XlOypbjiYMD{fill: #fff;}#el_hJdKMSmB0rK{fill: #fff;}#el_0TlP3B3lfRt{fill: #e0e4ed;}#el_zHxZZrEF6Em{fill: #d98e9d;}#el_yIeTO_CMbMT{fill: #e0e4ed;}#el_-xDFV8i6R0h{fill: #d98e9d;}#el_5rfFRew3Btf{fill: #e0e4ed;}#el_9hdS3-9xBoD{fill: #d98e9d;}#el_aaFYf_CM7Qp{fill: #e0e4ed;}#el_fhPzIzPoa5s{fill: #d98e9d;}#el_3hTbitI2nH8{fill: #e0e4ed;}#el_GcCn-hMi5qN{fill: #d98e9d;}#el_8Fvb-Ogx5oJ{fill: #e0e4ed;}#el_2Z2DhxZWe80{opacity: 0.25;}#el_1qSn-Qt6uq4{fill: #d98e9d;}#el_hoftLFHXNu1{fill: #fff;}#el_xkSneUG_njm{fill: #fff;}#el_e2XKrzidTBe{fill: #fff;}#el_rpnJfFEs2DI{fill: #fff;}#el_QXQVsoqiSN0{fill: #fff;}#el_JrX_50lx__j{fill: #fff;}#el_D4_AreXvekv{fill: #e0e4ed;}#el_rSFoQ8daXea{fill: #d98e9d;}#el_ewWRvKdQq3h{fill: #e0e4ed;}#el_EisSCAnBwzx{fill: #d98e9d;}#el_y8neqA82rFf{fill: #e0e4ed;}#el_EaooiZQk8KU{fill: #d98e9d;}#el_YIlNMk5ea4g{fill: #e0e4ed;}#el_n37jKWmRXr_{fill: #d98e9d;}#el_3ENfMHRbF6B{fill: #e0e4ed;}#el_vQMJABeuI7N{fill: #d98e9d;}#el_1hz_HUiTyG4{fill: #e0e4ed;}#el_eV_QUksczV5{opacity: 0.25;}#el_nk10peWXA2E{fill: #d98e9d;}#el_KmaMMkWOtVt{fill: #fff;}#el_dn0MuiqQihc{fill: #fff;}#el_fU855SNRfAY{fill: #fff;}#el_2zBjYZ_p3NX{fill: #fff;}#el_2OWRwUuVeS9{fill: #fff;}#el_pko8Mj3GOov{fill: #fff;}#el_32VxHyO22CC{fill: #e0e4ed;}#el_0PE_J1FjZ05{fill: #d98e9d;}#el_xiZk0pWW9vw{fill: #e0e4ed;}#el_2VeJgJxFTPC{fill: #d98e9d;}#el_9R7zQXzJd5e{fill: #e0e4ed;}#el_5_xfomH45YT{fill: #d98e9d;}#el_26SCwaScVBl{fill: #fff;}#el_wZ2AOP1pYD_{fill: #fff;}#el_m8lAmPjMIcW{fill: #fff;}#el__E_vv3q5flj{fill: #e0e4ed;}#el_gnm60NUtVSI{fill: #d98e9d;}#el_VprEjOrN0U7{fill: #e0e4ed;}#el_pTLAwgR-JmV{fill: #d98e9d;}#el_ygnNDYPQxvR{fill: #e0e4ed;}#el_GfYIES5yIaG{fill: #d98e9d;}#el_NSsfIVsYZKP{fill: #e0e4ed;}#el_8Ov9V8pev_E{fill: #d98e9d;}#el_wxvAYJdG4uF{fill: #e0e4ed;}#el_Jl3zner7oPJ{fill: #d98e9d;}#el_KfezqZTsJ-Q{fill: #e0e4ed;}#el_chsLQj5mTQ6{opacity: 0.25;}#el_c0Yi0eun9sB{fill: #d98e9d;}#el_MoaOCVQHEXe{fill: #fff;}#el_fg1vksnwHd8{fill: #fff;}#el_x9GQstY_nDw{fill: #fff;}#el_vItmW5BGoCX{fill: #fff;}#el_HAiE77Kxr0k{fill: #fff;}#el_ciE5nPUq2iD{fill: #fff;}#el_gLlrQdwmIMr{fill: #e0e4ed;}#el_BW_DMPN4fG2{fill: #d98e9d;}#el_VM1skxG_dhx{fill: #e0e4ed;}#el_aILnj0mCzWN{fill: #d98e9d;}#el_jyOSqLPOKuU{fill: #e0e4ed;}#el_tYY9dwfM88H{fill: #d98e9d;}#el_l-QQ2cG84Ve{fill: #fff;}#el_-bNWXwYmJbU{fill: #fff;}#el_YmLEI4PJ2Eg{fill: #fff;}#el_ERGc6ZeBWx8{fill: #e0e4ed;}#el_CwGDXrzMJ2Q{fill: #d98e9d;}#el_5Dn6p9jK6Gl{fill: #e0e4ed;}#el_Zjt8qzCkNZU{fill: #d98e9d;}#el_5s5X3X_vOB-{fill: #e0e4ed;}#el_uzfWj8cPhVA{fill: #d98e9d;}#el_HoSBDFUvYAl{fill: #e0e4ed;}#el_R7dBbzMgNAp{fill: #d98e9d;}#el_tgfIPCXVum4{fill: #e0e4ed;}#el_hN-POD32ZCZ{fill: #d98e9d;}#el_FEP86vJY0iY{fill: #e0e4ed;}#el_czKtp8B2JF3{fill: #2d2c56;-webkit-transform: translate(0px, 0.04px);transform: translate(0px, 0.04px);}#el_MTixnpdG472{fill: #2d2c56;-webkit-transform: translate(0px, 0.04px);transform: translate(0px, 0.04px);}#el_66p81dLqHBo{fill: #37354c;-webkit-transform: translate(0px, 0.04px);transform: translate(0px, 0.04px);}#el_nUqk34RAVo-{fill: #ead18c;-webkit-transform: translate(0px, 0.04px);transform: translate(0px, 0.04px);}#el_I8dgGEFe7OT{isolation: isolate;opacity: 0.5;fill: url(#linear-gradient);-webkit-transform: translate(0px, 0.04px);transform: translate(0px, 0.04px);}#el_Yf4DcQJ8boO{fill: #fff;-webkit-transform: translate(0px, 0.04px);transform: translate(0px, 0.04px);}#el_CuCipGaGOcZ{fill: url(#linear-gradient-2);}#el_LuSqcf7lwVp{fill: #eebcc5;-webkit-transform: translate(0px, 0.04px);transform: translate(0px, 0.04px);}#el_0XXayG2kC-Q{fill: #eebcc5;-webkit-transform: translate(0px, 0.04px);transform: translate(0px, 0.04px);}#el_mem1gJSVHE0{fill: #eebcc5;}#el_9N10Y6sWtTr{fill: #eff2f7;-webkit-transform: translate(0px, 0.04px);transform: translate(0px, 0.04px);}#el_BiJA2q1TvFA{fill: #eff2f7;-webkit-transform: translate(0px, 0.04px);transform: translate(0px, 0.04px);}#el_ixcWfmucBM1{fill: #2d2b42;-webkit-transform: translate(0px, 0.04px);transform: translate(0px, 0.04px);}#el_T6eh2VbkydI{fill: #2d2b42;-webkit-transform: translate(0px, 0.04px);transform: translate(0px, 0.04px);}#el_7d5mFO2sucY{fill: #eebcc5;-webkit-transform: translate(0px, 0.04px);transform: translate(0px, 0.04px);}#el_BL40dngZ4ES{fill: #ead18c;-webkit-transform: translate(0px, 0.04px);transform: translate(0px, 0.04px);}#el_0BP8J1gyGON{fill: #fff;-webkit-transform: translate(0px, 0.04px);transform: translate(0px, 0.04px);}#el_N-UkqWajMZI{fill: #fff;-webkit-transform: translate(0px, 0.04px);transform: translate(0px, 0.04px);}#el_hnrV1cO5GDk{fill: url(#linear-gradient-3);-webkit-transform: translate(0px, 0.04px);transform: translate(0px, 0.04px);}#el_othNAj8dz60{fill: #f3590f;-webkit-transform: translate(0px, 0.04px);transform: translate(0px, 0.04px);}#el_5uaJYDIA8iH{fill: #f3590f;-webkit-transform: translate(0px, 0.04px);transform: translate(0px, 0.04px);}#el_F9pYBifcGbU{fill: #eebcc5;-webkit-transform: translate(0px, 0.04px);transform: translate(0px, 0.04px);}#el_1Nge6OzmSeH{fill: #eebcc5;}#el_5swPBELeOdO{fill: #eebcc5;}#el_trm_4vuDmYj{fill: #2d2c56;-webkit-transform: translate(0px, 0.04px);transform: translate(0px, 0.04px);}#el_U4EMYV-W5e6{fill: #2d2c56;-webkit-transform: translate(0px, 0.04px);transform: translate(0px, 0.04px);}#el_Hxsxsqx37iN{fill: #f3590f;-webkit-transform: translate(0px, 0.04px);transform: translate(0px, 0.04px);}#el_sRTfyLE7MbB{fill: #d98e9d;-webkit-transform: translate(0px, 0.04px);transform: translate(0px, 0.04px);}#el_eyUa9p3p777{isolation: isolate;opacity: 0.5;fill: url(#linear-gradient-4);-webkit-transform: translate(0px, 0.04px);transform: translate(0px, 0.04px);}#el_ikPQYvSdooN{fill: #fff;-webkit-transform: translate(0px, 0.04px);transform: translate(0px, 0.04px);}#el_U4XZBrPuHna{fill: url(#linear-gradient-5);}#el_JZbp4bChgDW{fill: #eebcc5;-webkit-transform: translate(0px, 0.04px);transform: translate(0px, 0.04px);}#el_yfKP5Gbjf93{fill: #eebcc5;-webkit-transform: translate(0px, 0.04px);transform: translate(0px, 0.04px);}#el_-g8C-qvk9CX{fill: #eebcc5;-webkit-transform: translate(-26.56px, 60.94px) rotate(-9.26deg);transform: translate(-26.56px, 60.94px) rotate(-9.26deg);}#el_jmIGpSJafNs{fill: #2d2b42;-webkit-transform: translate(0px, 0.04px);transform: translate(0px, 0.04px);}#el_CqPcj-RoJ8r{fill: #2d2b42;-webkit-transform: translate(0px, 0.04px);transform: translate(0px, 0.04px);}#el_ES_NBipgu72{fill: #eebcc5;-webkit-transform: translate(0px, 0.04px);transform: translate(0px, 0.04px);}#el_7jt4UATodfH{fill: #d98e9d;-webkit-transform: translate(0px, 0.04px);transform: translate(0px, 0.04px);}#el_8XowuJ0rMDO{fill: #fff;-webkit-transform: translate(0px, 0.04px);transform: translate(0px, 0.04px);}#el_7vzVbFqNBfR{fill: #fff;-webkit-transform: translate(0px, 0.04px);transform: translate(0px, 0.04px);}#el_a6kQ-wGDusT{fill: url(#linear-gradient-6);-webkit-transform: translate(0px, 0.04px);transform: translate(0px, 0.04px);}#el_8xaIZ-ydxj5{fill: #f3590f;-webkit-transform: translate(0px, 0.04px);transform: translate(0px, 0.04px);}#el_OyU659YEby6{fill: #f3590f;-webkit-transform: translate(0px, 0.04px);transform: translate(0px, 0.04px);}#el_hJvUnDIoISI{fill: #eebcc5;-webkit-transform: translate(0px, 0.04px);transform: translate(0px, 0.04px);}#el_7wTWX7mOC7d{fill: #eebcc5;}#el_KD8lWAfhtDN{fill: #eebcc5;}#el_JUdvKIhN5dY{fill: #37354c;-webkit-transform: translate(0px, 0.04px);transform: translate(0px, 0.04px);}#el_jNrS2FIspgm{fill: #f3590f;-webkit-transform: translate(0px, 0.04px);transform: translate(0px, 0.04px);}#el_kBYkD4sDIxI{fill: #37354c;-webkit-transform: translate(0px, 0.04px);transform: translate(0px, 0.04px);}#el__V54icB9eqM{fill: #eebcc5;-webkit-transform: translate(0px, 0.04px);transform: translate(0px, 0.04px);}#el_KUv1ehN58v9{fill: #9b5342;-webkit-transform: translate(0px, 0.04px);transform: translate(0px, 0.04px);}#el_OY3bzAK46x4{fill: #eebcc5;-webkit-transform: translate(0px, 0.04px);transform: translate(0px, 0.04px);}#el_r6Te6g5lMRV{fill: #37354c;-webkit-transform: translate(0px, 0.04px);transform: translate(0px, 0.04px);}#el_cKBkpPh8OZm{fill: #37354c;-webkit-transform: translate(0px, 0.04px);transform: translate(0px, 0.04px);}#el_pzfv43SG_K7{fill: #eebcc5;-webkit-transform: translate(0px, 0.04px);transform: translate(0px, 0.04px);}#el_aii52LHF9mX{fill: #eebcc5;-webkit-transform: translate(0px, 0.04px);transform: translate(0px, 0.04px);}#el_PWeKriv7udB{fill: #bcbace;-webkit-transform: translate(0px, 0.04px);transform: translate(0px, 0.04px);}#el_6Q8cJNisSGT{fill: #d98e9d;-webkit-transform: translate(0px, 0.04px);transform: translate(0px, 0.04px);}#el_oHt2E6loasZ{fill: #d98e9d;-webkit-transform: translate(0px, 0.04px);transform: translate(0px, 0.04px);}#el_qVazZfz7klz{fill: #37354c;}#el_7pNpm-8ab6o{fill: #37354c;-webkit-transform: translate(0px, 0.04px);transform: translate(0px, 0.04px);}#el_2rWrc24d6WT{fill: #37354c;-webkit-transform: translate(0px, 0.04px);transform: translate(0px, 0.04px);}#el_wRiyeBjmbHV{fill: #f3590f;-webkit-transform: translate(0px, 0.04px);transform: translate(0px, 0.04px);}#el_P3YfdbpjT_g{fill: #f3590f;-webkit-transform: translate(0px, 0.04px);transform: translate(0px, 0.04px);}#el_HI9bWe4hNJX{fill: #37354c;-webkit-transform: translate(0px, 0.04px);transform: translate(0px, 0.04px);}#el_5zj2NPHzhem{fill: #eebcc5;-webkit-transform: translate(0px, 0.04px);transform: translate(0px, 0.04px);}#el_JfuRKJlF3Wr{fill: #f3590f;-webkit-transform: translate(0px, 0.04px);transform: translate(0px, 0.04px);}#el__H9ON5med_O{fill: #eebcc5;-webkit-transform: translate(0px, 0.04px);transform: translate(0px, 0.04px);}#el_lWvVi75pNbD{fill: #f3590f;-webkit-transform: translate(0px, 0.04px);transform: translate(0px, 0.04px);}#el_-gIaysU_PSK{fill: #f3590f;-webkit-transform: translate(0px, 0.04px);transform: translate(0px, 0.04px);}#el_ZWCJV2_80KS{fill: #2d2c56;-webkit-transform: translate(0px, 0.04px);transform: translate(0px, 0.04px);}#el_mahVhw-YbvE{fill: #bcbace;-webkit-transform: translate(0px, 0.04px);transform: translate(0px, 0.04px);}#el_3-LKn354iC5{fill: #2d2c56;-webkit-transform: translate(0px, 0.04px);transform: translate(0px, 0.04px);}#el_GUer3JVHBjA{fill: #fff;-webkit-transform: translate(0px, 0.04px);transform: translate(0px, 0.04px);}#el_WneMnF-WhXj{fill: url(#linear-gradient-7);-webkit-transform: translate(0px, 0.04px);transform: translate(0px, 0.04px);}#el_Jd8uxzA3zf7{fill: #f3590f;}#el_J3exINdLI10{fill: #f3590f;}#el_AKhGLq4moR_FIs5IKuOO{-webkit-animation-name: el_AKhGLq4moR_FIs5IKuOO_Animation;animation-name: el_AKhGLq4moR_FIs5IKuOO_Animation;-webkit-transform: translate(69.59000396728516px, 40.79999923706055px) translate(-69.59000396728516px, -40.79999923706055px) translate(0px, 0px);transform: translate(69.59000396728516px, 40.79999923706055px) translate(-69.59000396728516px, -40.79999923706055px) translate(0px, 0px);}#el_eV_QUksczV5_oCEz3BUv-{-webkit-animation-name: el_eV_QUksczV5_oCEz3BUv-_Animation;animation-name: el_eV_QUksczV5_oCEz3BUv-_Animation;-webkit-transform: translate(69.59000396728516px, 133.97999572753906px) translate(-69.59000396728516px, -133.97999572753906px) translate(0px, 0px);transform: translate(69.59000396728516px, 133.97999572753906px) translate(-69.59000396728516px, -133.97999572753906px) translate(0px, 0px);}#el_2Z2DhxZWe80_sWZ_XBNwU{-webkit-animation-name: el_2Z2DhxZWe80_sWZ_XBNwU_Animation;animation-name: el_2Z2DhxZWe80_sWZ_XBNwU_Animation;-webkit-transform: translate(69.59000396728516px, 273.69000244140625px) translate(-69.59000396728516px, -273.69000244140625px) translate(0px, 0px);transform: translate(69.59000396728516px, 273.69000244140625px) translate(-69.59000396728516px, -273.69000244140625px) translate(0px, 0px);}#el_chsLQj5mTQ6_rjHALh-TE{-webkit-animation-name: el_chsLQj5mTQ6_rjHALh-TE_Animation;animation-name: el_chsLQj5mTQ6_rjHALh-TE_Animation;-webkit-transform: translate(69.59000396728516px, 271.3600158691406px) translate(-69.59000396728516px, -271.3600158691406px) translate(0px, 0px);transform: translate(69.59000396728516px, 271.3600158691406px) translate(-69.59000396728516px, -271.3600158691406px) translate(0px, 0px);}#el_J3exINdLI10_OCYuLBFAb{-webkit-animation-name: el_J3exINdLI10_OCYuLBFAb_Animation;animation-name: el_J3exINdLI10_OCYuLBFAb_Animation;}#el_3-LKn354iC5_wS0KyOgMX{-webkit-animation-name: el_3-LKn354iC5_wS0KyOgMX_Animation;animation-name: el_3-LKn354iC5_wS0KyOgMX_Animation;}#el_ZWCJV2_80KS_sxAQD9jzZ{-webkit-animation-name: el_ZWCJV2_80KS_sxAQD9jzZ_Animation;animation-name: el_ZWCJV2_80KS_sxAQD9jzZ_Animation;}</style><defs><clipPath id="clip-path" transform="translate(0 0.04)"><rect class="cls-1" x="55.72" y="26.96" width="395" height="255"/></clipPath><linearGradient id="linear-gradient" x1="114.72" y1="149.71" x2="132.87" y2="149.71" gradientTransform="matrix(1, 0, 0, -1, -5.28, 393.96)" gradientUnits="userSpaceOnUse"><stop offset="0" stop-color="#ead18c" stop-opacity="0"/><stop offset="1" stop-color="#524f63" stop-opacity="0.7"/></linearGradient><linearGradient id="linear-gradient-2" x1="115.16" y1="117.92" x2="214.78" y2="157.33" gradientTransform="matrix(1, 0, 0, -1, 0, 394.04)" xlink:href="#linear-gradient"/><linearGradient id="linear-gradient-3" x1="115.95" y1="127.19" x2="27.6" y2="129.28" gradientTransform="matrix(1, 0, 0, -1, -5.28, 393.96)" gradientUnits="userSpaceOnUse"><stop offset="0" stop-color="#484ec2" stop-opacity="0"/><stop offset="1" stop-color="#444bcc" stop-opacity="0.5"/></linearGradient><linearGradient id="linear-gradient-4" x1="297.8" y1="149.71" x2="315.95" y2="149.71" gradientTransform="translate(694.09 393.96) rotate(180)" gradientUnits="userSpaceOnUse"><stop offset="0" stop-color="#d37897" stop-opacity="0"/><stop offset="0.9" stop-color="#bc547c"/></linearGradient><linearGradient id="linear-gradient-5" x1="303.51" y1="117.88" x2="403.13" y2="157.29" gradientTransform="translate(694.1 394) rotate(180)" xlink:href="#linear-gradient-4"/><linearGradient id="linear-gradient-6" x1="299.03" y1="127.21" x2="210.68" y2="129.3" gradientTransform="translate(694.09 393.96) rotate(180)" xlink:href="#linear-gradient-3"/><linearGradient id="linear-gradient-7" x1="248" y1="115.46" x2="195.78" y2="114.23" xlink:href="#linear-gradient-3"/></defs><title>programmers</title><g id="el_pGMtxLLPEe" data-name="Layer 3"><path d="M457.35,0H49.12A14.81,14.81,0,0,0,34.3,14.76V296H472.16V14.82A14.81,14.81,0,0,0,457.4,0Z" id="el_8jWcfgoAj1"/><path d="M255.45,17.71a2.22,2.22,0,1,1-2.22-2.22,2.21,2.21,0,0,1,2.22,2.22Z" id="el_MRVG0rxZyn"/><rect y="290.94" width="506.47" height="17.08" rx="5.18" ry="5.18" id="el_oGVjyyEAaA"/><rect x="55.79" y="26.72" width="394.88" height="255.31" id="el_59tCG0oArM"/><path d="M295.8,298.39H210.66a2,2,0,0,0,0,4.05H295.8a2,2,0,1,0,0-4.05Z" id="el_Dv_nkRoNan"/><rect x="109.44" y="290.94" width="15.5" height="17.08" id="el_7zCJQmbNvu"/><rect x="139.58" y="290.94" width="15.5" height="17.08" id="el_WNt3EfAzlq"/><rect x="370.39" y="290.94" width="15.5" height="17.08" id="el_9qkNqPS9Pz"/><rect x="397.13" y="290.94" width="15.5" height="17.08" id="el_j-KOv-ngSu"/><rect x="223.7" y="290.94" width="15.5" height="17.08" id="el_7FjBFF9glG"/><rect x="277.75" y="291.81" width="15.5" height="16.21" id="el_aLg3Sue3e9"/><path d="M456.82,6.24H49.64a9.14,9.14,0,0,0-9.14,9.14V291.74H466V15.38A9.14,9.14,0,0,0,456.82,6.24ZM450.72,282H55.79V26.68H450.72Z" id="el_WfbIvzhTfi"/><g id="el_f0cB5lPyyb"><g id="el_AKhGLq4moR_FIs5IKuOO" data-animator-group="true" data-animator-type="0"><g id="el_AKhGLq4moR"><rect x="105.35" y="40.8" width="39.59" height="6.99" id="el_4lAkmPKuALG"/><rect x="69.59" y="40.8" width="16.3" height="6.99" id="el_OKcBs4zO6vb"/><rect x="69.59" y="53.61" width="16.3" height="6.99" id="el_xQnNKwERjZs"/><rect x="69.59" y="68.74" width="16.3" height="6.99" id="el_Cy_UiZlu06u"/><rect x="69.59" y="83.88" width="16.3" height="6.99" id="el_InVF6OMQLpE"/><rect x="69.59" y="99.02" width="16.3" height="6.99" id="el_XlOypbjiYMD"/><rect x="69.59" y="114.16" width="16.3" height="6.99" id="el_hJdKMSmB0rK"/><rect x="153.09" y="40.8" width="132.76" height="6.99" id="el_0TlP3B3lfRt"/><rect x="119.32" y="53.61" width="39.59" height="6.99" id="el_zHxZZrEF6Em"/><rect x="167.07" y="53.61" width="132.76" height="6.99" id="el_yIeTO_CMbMT"/><rect x="142.62" y="68.74" width="39.59" height="6.99" id="el_-xDFV8i6R0h"/><rect x="190.36" y="68.74" width="132.76" height="6.99" id="el_5rfFRew3Btf"/><rect x="165.91" y="83.88" width="39.59" height="6.99" id="el_9hdS3-9xBoD"/><rect x="213.65" y="83.88" width="132.76" height="6.99" id="el_aaFYf_CM7Qp"/><rect x="142.62" y="99.02" width="39.59" height="6.99" id="el_fhPzIzPoa5s"/><rect x="190.36" y="99.02" width="202.63" height="6.99" id="el_3hTbitI2nH8"/><rect x="119.32" y="114.16" width="39.59" height="6.99" id="el_GcCn-hMi5qN"/><rect x="167.07" y="114.16" width="86.17" height="6.99" id="el_8Fvb-Ogx5oJ"/></g></g><g id="el_2Z2DhxZWe80_sWZ_XBNwU" data-animator-group="true" data-animator-type="0"><g id="el_2Z2DhxZWe80"><rect x="105.35" y="273.69" width="39.59" height="6.99" id="el_1qSn-Qt6uq4"/><rect x="69.59" y="273.69" width="16.3" height="6.99" id="el_hoftLFHXNu1"/><rect x="69.59" y="286.5" width="16.3" height="6.99" id="el_xkSneUG_njm"/><rect x="69.59" y="301.64" width="16.3" height="6.99" id="el_e2XKrzidTBe"/><rect x="69.59" y="316.78" width="16.3" height="6.99" id="el_rpnJfFEs2DI"/><rect x="69.59" y="331.91" width="16.3" height="6.99" id="el_QXQVsoqiSN0"/><rect x="69.59" y="347.05" width="16.3" height="6.99" id="el_JrX_50lx__j"/><rect x="153.09" y="273.69" width="132.76" height="6.99" id="el_D4_AreXvekv"/><rect x="119.32" y="286.5" width="39.59" height="6.99" id="el_rSFoQ8daXea"/><rect x="167.07" y="286.5" width="132.76" height="6.99" id="el_ewWRvKdQq3h"/><rect x="142.62" y="301.64" width="39.59" height="6.99" id="el_EisSCAnBwzx"/><rect x="190.36" y="301.64" width="132.76" height="6.99" id="el_y8neqA82rFf"/><rect x="165.91" y="316.78" width="39.59" height="6.99" id="el_EaooiZQk8KU"/><rect x="213.65" y="316.78" width="132.76" height="6.99" id="el_YIlNMk5ea4g"/><rect x="142.62" y="331.91" width="39.59" height="6.99" id="el_n37jKWmRXr_"/><rect x="190.36" y="331.91" width="202.63" height="6.99" id="el_3ENfMHRbF6B"/><rect x="119.32" y="347.05" width="39.59" height="6.99" id="el_vQMJABeuI7N"/><rect x="167.07" y="347.05" width="86.17" height="6.99" id="el_1hz_HUiTyG4"/></g></g><g id="el_eV_QUksczV5_oCEz3BUv-" data-animator-group="true" data-animator-type="0"><g id="el_eV_QUksczV5"><rect x="105.35" y="133.98" width="39.59" height="6.99" id="el_nk10peWXA2E"/><rect x="69.59" y="133.98" width="16.3" height="6.99" id="el_KmaMMkWOtVt"/><rect x="69.59" y="146.79" width="16.3" height="6.99" id="el_dn0MuiqQihc"/><rect x="69.59" y="161.93" width="16.3" height="6.99" id="el_fU855SNRfAY"/><rect x="69.59" y="177.07" width="16.3" height="6.99" id="el_2zBjYZ_p3NX"/><rect x="69.59" y="192.2" width="16.3" height="6.99" id="el_2OWRwUuVeS9"/><rect x="69.59" y="207.34" width="16.3" height="6.99" id="el_pko8Mj3GOov"/><rect x="153.09" y="133.98" width="132.76" height="6.99" id="el_32VxHyO22CC"/><rect x="119.32" y="146.79" width="39.59" height="6.99" id="el_0PE_J1FjZ05"/><rect x="167.07" y="146.79" width="132.76" height="6.99" id="el_xiZk0pWW9vw"/><rect x="142.62" y="161.93" width="39.59" height="6.99" id="el_2VeJgJxFTPC"/><rect x="190.36" y="161.93" width="132.76" height="6.99" id="el_9R7zQXzJd5e"/><rect x="105.35" y="227.14" width="39.59" height="6.99" id="el_5_xfomH45YT"/><rect x="69.59" y="227.14" width="16.3" height="6.99" id="el_26SCwaScVBl"/><rect x="69.59" y="239.95" width="16.3" height="6.99" id="el_wZ2AOP1pYD_"/><rect x="69.59" y="255.08" width="16.3" height="6.99" id="el_m8lAmPjMIcW"/><rect x="153.09" y="227.14" width="132.76" height="6.99" id="el__E_vv3q5flj"/><rect x="119.32" y="239.95" width="39.59" height="6.99" id="el_gnm60NUtVSI"/><rect x="167.07" y="239.95" width="132.76" height="6.99" id="el_VprEjOrN0U7"/><rect x="142.62" y="255.08" width="39.59" height="6.99" id="el_pTLAwgR-JmV"/><rect x="190.36" y="255.08" width="132.76" height="6.99" id="el_ygnNDYPQxvR"/><rect x="165.91" y="177.07" width="39.59" height="6.99" id="el_GfYIES5yIaG"/><rect x="213.65" y="177.07" width="202.63" height="6.99" id="el_NSsfIVsYZKP"/><rect x="142.62" y="192.2" width="39.59" height="6.99" id="el_8Ov9V8pev_E"/><rect x="190.36" y="192.2" width="132.76" height="6.99" id="el_wxvAYJdG4uF"/><rect x="119.32" y="207.34" width="39.59" height="6.99" id="el_Jl3zner7oPJ"/><rect x="167.07" y="207.34" width="132.76" height="6.99" id="el_KfezqZTsJ-Q"/></g></g><g id="el_chsLQj5mTQ6_rjHALh-TE" data-animator-group="true" data-animator-type="0"><g id="el_chsLQj5mTQ6"><rect x="105.35" y="271.36" width="39.59" height="6.99" id="el_c0Yi0eun9sB"/><rect x="69.59" y="271.36" width="16.3" height="6.99" id="el_MoaOCVQHEXe"/><rect x="69.59" y="284.17" width="16.3" height="6.99" id="el_fg1vksnwHd8"/><rect x="69.59" y="299.31" width="16.3" height="6.99" id="el_x9GQstY_nDw"/><rect x="69.59" y="314.45" width="16.3" height="6.99" id="el_vItmW5BGoCX"/><rect x="69.59" y="329.58" width="16.3" height="6.99" id="el_HAiE77Kxr0k"/><rect x="69.59" y="344.72" width="16.3" height="6.99" id="el_ciE5nPUq2iD"/><rect x="153.09" y="271.36" width="132.76" height="6.99" id="el_gLlrQdwmIMr"/><rect x="119.32" y="284.17" width="39.59" height="6.99" id="el_BW_DMPN4fG2"/><rect x="167.07" y="284.17" width="132.76" height="6.99" id="el_VM1skxG_dhx"/><rect x="142.62" y="299.31" width="39.59" height="6.99" id="el_aILnj0mCzWN"/><rect x="190.36" y="299.31" width="132.76" height="6.99" id="el_jyOSqLPOKuU"/><rect x="105.35" y="364.52" width="39.59" height="6.99" id="el_tYY9dwfM88H"/><rect x="69.59" y="364.52" width="16.3" height="6.99" id="el_l-QQ2cG84Ve"/><rect x="69.59" y="377.33" width="16.3" height="6.99" id="el_-bNWXwYmJbU"/><rect x="69.59" y="392.46" width="16.3" height="6.99" id="el_YmLEI4PJ2Eg"/><rect x="153.09" y="364.52" width="132.76" height="6.99" id="el_ERGc6ZeBWx8"/><rect x="119.32" y="377.33" width="39.59" height="6.99" id="el_CwGDXrzMJ2Q"/><rect x="167.07" y="377.33" width="132.76" height="6.99" id="el_5Dn6p9jK6Gl"/><rect x="142.62" y="392.46" width="39.59" height="6.99" id="el_Zjt8qzCkNZU"/><rect x="190.36" y="392.46" width="132.76" height="6.99" id="el_5s5X3X_vOB-"/><rect x="165.91" y="314.45" width="39.59" height="6.99" id="el_uzfWj8cPhVA"/><rect x="213.65" y="314.45" width="202.63" height="6.99" id="el_HoSBDFUvYAl"/><rect x="142.62" y="329.58" width="39.59" height="6.99" id="el_R7dBbzMgNAp"/><rect x="190.36" y="329.58" width="132.76" height="6.99" id="el_tgfIPCXVum4"/><rect x="119.32" y="344.72" width="39.59" height="6.99" id="el_hN-POD32ZCZ"/><rect x="167.07" y="344.72" width="132.76" height="6.99" id="el_FEP86vJY0iY"/></g></g></g></g><g id="el_pdaVINndIXT" data-name="Layer 5"><path d="M132.56,359.08l.06,8.39s-1.06,5.37-1.91,11.1-1.49,11.8-.64,13.22c1.7,2.83,5.09,0,5.66-2.83s1.41-20.36,1.41-20.36l.57-11.31Z" id="el_czKtp8B2JF3"/><path d="M124,358l1.29,7.53s2.55,20.64,1.14,23.75-5.94,1.7-5.66-2.54-.85-19.23-.85-19.23l-2.54-9.05Z" id="el_MTixnpdG472"/><path d="M127.47,266l.62,9.29-23.94,11.56a10.3,10.3,0,0,0-5,12.08l16.57,61.63,8.21-2.61-7.21-56.69a6.42,6.42,0,0,1,5.36-7.28l8.53-1.34,9.08-9.25-10.5,9.42a10.31,10.31,0,0,0-3.33,9.06l6.74,57.2L140,361l3.34-56.32a8.71,8.71,0,0,1,6-7.72l14.76-4.68a8.08,8.08,0,0,0,3.88-6.7l-.62-19.83Z" id="el_66p81dLqHBo"/><path d="M169,286.81l-3.95-77s-16.37-1-21.24-1c-2.65,0-7.19,1.26-10.76,2.4-3.37,1.08-6.16,1-7.79,4.12L98.37,266.77l16.49,1.57,5.5-6.28-2.8-4.24,10-23.65-2,43Z" id="el_nUqk34RAVo-"/><path d="M127.23,224.86,109.44,257,115,263.5a9.88,9.88,0,0,0,4.39-.24l1-1.13-2.8-4.24,10-23.65Z" id="el_I8dgGEFe7OT"/><path d="M148.58,222.38a9.77,9.77,0,0,0,9.27-12.92c-5-.28-11.37-.58-14.09-.58a21.92,21.92,0,0,0-4.48.65,9.66,9.66,0,0,0-.5,3.06,9.79,9.79,0,0,0,9.79,9.79Z" id="el_Yf4DcQJ8boO"/><polygon points="166.94 223.18 168.95 287.29 142.47 280.94 166.94 223.18" id="el_CuCipGaGOcZ"/><path d="M142.11,201c.46.92,3.67,13.55,3.67,13.55a4.09,4.09,0,0,0,3.9,1.83c2.76-.23,3.91-4.13,3.91-4.13l-4.87-15.84Z" id="el_LuSqcf7lwVp"/><path d="M159.1,193.19c0,8.69-9.24,18.32-17.93,18.32s-13.57-9.63-13.57-18.32a15.75,15.75,0,0,1,31.5,0Z" id="el_0XXayG2kC-Q"/><circle cx="143.03" cy="194.48" r="17.73" id="el_mem1gJSVHE0"/><path d="M130.48,207.61a6.07,6.07,0,0,1-5.18-4,3.34,3.34,0,0,1,.23-3.07,2.7,2.7,0,0,1,2.29-1.08A6.08,6.08,0,0,1,133,203.4a3.34,3.34,0,0,1-.23,3.07A2.69,2.69,0,0,1,130.48,207.61Zm-2.66-7.48A2.09,2.09,0,0,0,126,201a2.76,2.76,0,0,0-.16,2.5,5.42,5.42,0,0,0,4.6,3.54,2.09,2.09,0,0,0,1.78-.82,2.72,2.72,0,0,0,.16-2.51,5.41,5.41,0,0,0-4.6-3.53Z" id="el_9N10Y6sWtTr"/><path d="M140.92,207.61a6,6,0,0,1-5.17-4,3.31,3.31,0,0,1,.23-3.07,2.68,2.68,0,0,1,2.28-1.08,6.06,6.06,0,0,1,5.18,3.94,3.34,3.34,0,0,1-.23,3.07A2.69,2.69,0,0,1,140.92,207.61Zm-2.66-7.48a2.09,2.09,0,0,0-1.78.82,2.73,2.73,0,0,0-.15,2.5,5.39,5.39,0,0,0,4.59,3.51,2.1,2.1,0,0,0,1.79-.82,2.75,2.75,0,0,0,.15-2.51A5.4,5.4,0,0,0,138.26,200.13Z" id="el_BiJA2q1TvFA"/><path d="M132.34,204.63a.91.91,0,0,1-.09,1.24c-.34.19-.84,0-1.13-.54a.92.92,0,0,1,.1-1.24C131.56,203.9,132.06,204.14,132.34,204.63Z" id="el_ixcWfmucBM1"/><path d="M140.22,205c.29.49.24,1-.09,1.24s-.84,0-1.13-.53-.24-1,.1-1.24S139.94,204.51,140.22,205Z" id="el_T6eh2VbkydI"/><path d="M146.35,279.42c-.69-.23-6.5-3-10.63-3s-9.19,4.36-9.19,4.36-.69,2.3,2.07,1.84-.38,1.73-.38,1.73a25.6,25.6,0,0,0,3.36.56c3.22.46,15.75-.21,15.75-.21Z" id="el_7d5mFO2sucY"/><path d="M165,209.86l2.21,50.65-20.82,18.83,1,5.29L176.72,269a7.66,7.66,0,0,0,4-7.81l-5.35-38.76a13.94,13.94,0,0,0-7.72-11.25Z" id="el_BL40dngZ4ES"/><path d="M148.49,289h-53v-3.89h53a1.94,1.94,0,0,1,1.95,1.93h0A2,2,0,0,1,148.49,289Z" id="el_0BP8J1gyGON"/><path d="M133.94,289H82.8A5,5,0,0,1,78,285.25l-9-34a5,5,0,0,1,3.54-6.12,4.85,4.85,0,0,1,1.26-.17h44.65a5,5,0,0,1,4.82,3.7Z" id="el_N-UkqWajMZI"/><path d="M73.78,245a5,5,0,0,0-5,5,4.74,4.74,0,0,0,.16,1.24l9,34a4.91,4.91,0,0,0,1.76,2.63l31-42.89Z" id="el_hnrV1cO5GDk"/><path d="M103.83,270a3.05,3.05,0,0,1-3.12,4,5.59,5.59,0,0,1-5.15-4,3.07,3.07,0,0,1,3.12-4A5.59,5.59,0,0,1,103.83,270Z" id="el_othNAj8dz60"/><path d="M143,176.72a17.73,17.73,0,0,0-17.61,15.68,14.08,14.08,0,0,0,19.73-2.71,13.88,13.88,0,0,0,1.57-2.62,25.23,25.23,0,0,0,0,5.89,8.42,8.42,0,0,0,2.68,5.12,9,9,0,0,1,1-4,3.06,3.06,0,0,1,3.5-1.5,2.87,2.87,0,0,1,1.65,2.3,5.89,5.89,0,0,1-.47,2.9,12.5,12.5,0,0,1-2.47,3.93,25.43,25.43,0,0,0,6.4.37,17.43,17.43,0,0,0,1.76-7.64A17.73,17.73,0,0,0,143,176.72Z" id="el_5uaJYDIA8iH"/><path d="M158.24,197.37a5.38,5.38,0,1,1-5.39-5.37h0A5.36,5.36,0,0,1,158.24,197.37Z" id="el_F9pYBifcGbU"/><polygon points="123.97 358 124.94 363.63 119.3 365.4 117.74 359.85 123.97 358" id="el_1Nge6OzmSeH"/><polygon points="132.61 365.4 137.26 366.3 137.56 360.37 132.56 359.12 132.61 365.4" id="el_5swPBELeOdO"/><path d="M373.18,359.08l-.06,8.39s1.06,5.37,1.91,11.1,1.48,11.8.63,13.22c-1.7,2.83-5.09,0-5.65-2.83s-1.42-20.36-1.42-20.36L368,357.29Z" id="el_trm_4vuDmYj"/><path d="M381.72,358l-1.29,7.53s-2.55,20.64-1.13,23.75,5.94,1.7,5.65-2.54.85-19.23.85-19.23l2.55-9.05Z" id="el_U4EMYV-W5e6"/><path d="M378.26,266l-.62,9.29,23.95,11.56a10.31,10.31,0,0,1,5,12.08L390,360.57,381.72,358,389,301.27a6.41,6.41,0,0,0-5.29-7.31l-8.52-1.34-9.09-9.25,10.5,9.42a10.34,10.34,0,0,1,3.34,9.06l-6.74,57.2L365.72,361l-3.33-56.32a8.71,8.71,0,0,0-6.07-7.68l-14.75-4.68a8.09,8.09,0,0,1-3.89-6.7l.62-19.83Z" id="el_Hxsxsqx37iN"/><path d="M336.78,286.81l4-77s16.36-1,21.23-1c2.66,0,7.19,1.26,10.77,2.4,3.36,1.08,6.15,1,7.78,4.12l26.85,51.44-16.5,1.57-5.49-6.28,2.79-4.24-10-23.65,2,43Z" id="el_sRTfyLE7MbB"/><path d="M378.5,224.86,396.29,257l-5.57,6.49a9.88,9.88,0,0,1-4.39-.24l-1-1.13,2.79-4.24-10-23.65Z" id="el_eyUa9p3p777"/><path d="M362.72,232.12c-5.41,0-15.33-14.12-15.33-19.53a9.83,9.83,0,0,1,.52-3.13c5-.28,11.37-.58,14.09-.58a21.92,21.92,0,0,1,4.48.65,9.66,9.66,0,0,1,.5,3.06C367,218,368.1,232.12,362.72,232.12Z" id="el_ikPQYvSdooN"/><polygon points="338.8 223.18 336.79 287.29 363.27 280.94 338.8 223.18" id="el_U4XZBrPuHna"/><path d="M363.63,201c-.46.92-3.68,13.55-3.68,13.55a4.09,4.09,0,0,1-3.9,1.83c-2.75-.23-3.9-4.13-3.9-4.13L357,196.37Z" id="el_JZbp4bChgDW"/><path d="M346.64,193.19c0,8.69,9.23,18.32,17.93,18.32s13.56-9.63,13.56-18.32a15.75,15.75,0,0,0-31.49-.79c0,.26,0,.53,0,.79Z" id="el_yfKP5Gbjf93"/><circle cx="362.71" cy="194.46" r="17.73" id="el_-g8C-qvk9CX"/><path d="M374.38,204.08c-.35.62-.3,1.31.12,1.55s1.05,0,1.41-.67.3-1.3-.13-1.54S374.72,203.47,374.38,204.08Z" id="el_jmIGpSJafNs"/><path d="M365.46,205.05c-.39.67-.33,1.43.13,1.7s1.16-.06,1.54-.73.33-1.44-.13-1.7S365.85,204.38,365.46,205.05Z" id="el_CqPcj-RoJ8r"/><path d="M359.38,279.42c.69-.23,6.51-3,10.64-3s9.18,4.36,9.18,4.36.69,2.3-2.07,1.84.38,1.73.38,1.73a25.6,25.6,0,0,1-3.36.56c-3.21.46-15.74-.21-15.74-.21Z" id="el_ES_NBipgu72"/><path d="M340.72,209.86l-2.22,50.65,20.82,18.83-1,5.29L329,269a7.68,7.68,0,0,1-4-7.81l5.35-38.76a14,14,0,0,1,7.72-11.25Z" id="el_7jt4UATodfH"/><path d="M357.24,289h53v-3.89h-53A1.94,1.94,0,0,0,355.3,287h0a1.94,1.94,0,0,0,1.93,1.95Z" id="el_8XowuJ0rMDO"/><path d="M371.79,289h51.14a5,5,0,0,0,4.82-3.71l9-34a5,5,0,0,0-3.58-6.1,5.14,5.14,0,0,0-1.24-.16H387.3a5,5,0,0,0-4.82,3.7Z" id="el_7vzVbFqNBfR"/><path d="M432,245a5,5,0,0,1,5,5,4.74,4.74,0,0,1-.16,1.24l-9,34a4.93,4.93,0,0,1-1.68,2.58L395,245Z" id="el_a6kQ-wGDusT"/><path d="M401.91,270a3.05,3.05,0,0,0,3.12,4,5.56,5.56,0,0,0,5.14-4,3.07,3.07,0,0,0-3.12-4A5.58,5.58,0,0,0,401.91,270Z" id="el_8xaIZ-ydxj5"/><path d="M362.72,176.72a17.74,17.74,0,0,1,17.6,15.68,14.1,14.1,0,0,1-21.26-5.33A25.22,25.22,0,0,1,359,193a8.35,8.35,0,0,1-2.69,5.12,9,9,0,0,0-1-4,3.08,3.08,0,0,0-3.51-1.5,2.87,2.87,0,0,0-1.65,2.3,5.89,5.89,0,0,0,.48,2.9,12.29,12.29,0,0,0,2.46,3.93,25.43,25.43,0,0,1-6.4.37,17.7,17.7,0,0,1,16-25.37Z" id="el_OyU659YEby6"/><path d="M347.49,197.37a5.38,5.38,0,1,0,5.39-5.37h0a5.36,5.36,0,0,0-5.38,5.36Z" id="el_hJvUnDIoISI"/><polygon points="381.77 358 380.8 363.63 386.44 365.4 388 359.85 381.77 358" id="el_7wTWX7mOC7d"/><polygon points="373.14 365.4 368.48 366.3 368.18 360.37 373.18 359.12 373.14 365.4" id="el_KD8lWAfhtDN"/><path d="M246,179.29,239.72,187l-3.15,6.58-2.88,8.26s-5.1,4.76-4.83,4.83-.29,5.78.28,6.64,6.31,7.72,6.31,7.72,5.55,3.63,7.77,4.1,13.37,5.34,13.37,5.34l6.86-6.58-2.57-3.43s7.15-4.29,8-4.86,4.29-4,4.29-4a30.25,30.25,0,0,0-.65-4.93c-.5-1.94-3.93-11.37-3.93-11.37s-4.57-6.58-5.15-7.72-3.14-4.87-3.14-4.87Z" id="el_JUdvKIhN5dY"/><path d="M234.27,221.07l34.29-.26a4.78,4.78,0,0,1,4.81,4.73l.34,44.57h0l-43.82.34h0l-.34-44.6A4.77,4.77,0,0,1,234.27,221.07Z" id="el_jNrS2FIspgm"/><path d="M243.13,221s3.31,3.82,3.31,11.83.28,22.73.28,22.73h9.83V232.48a18.13,18.13,0,0,1,5.46-14l-10.72.27Z" id="el_kBYkD4sDIxI"/><path d="M251.11,230.34h0a5.32,5.32,0,0,1-5.38-5.26v0l-.12-16.22a.71.71,0,0,1,.7-.72h0l9.24-.07a.73.73,0,0,1,.72.71L256.4,225a5.33,5.33,0,0,1-5.29,5.37Z" id="el__V54icB9eqM"/><path d="M269.66,205.1v-.55a18.77,18.77,0,0,0-.58-4.66v-2.07a18.55,18.55,0,0,0-18.5-18.49h0a18.54,18.54,0,0,0-18.49,18.49v7.28Z" id="el_KUv1ehN58v9"/><path d="M267.72,200v-1.8a17.11,17.11,0,0,0-17.06-17.06h0a17.11,17.11,0,0,0-17,17.06v7a6.23,6.23,0,0,0,.15,1.36A17.33,17.33,0,1,0,267.72,200Z" id="el_OY3bzAK46x4"/><path d="M245.38,207.3a1.32,1.32,0,1,1-1.32-1.32,1.32,1.32,0,0,1,1.32,1.32Z" id="el_r6Te6g5lMRV"/><path d="M257.83,207.3a1.31,1.31,0,1,1-1.31-1.34,1.31,1.31,0,0,1,1.31,1.34Z" id="el_cKBkpPh8OZm"/><path d="M238.47,206.68a4.83,4.83,0,1,1-4.83-4.83h0a4.82,4.82,0,0,1,4.82,4.82Z" id="el_pzfv43SG_K7"/><path d="M272.49,206.68a4.82,4.82,0,1,1-4.82-4.83,4.82,4.82,0,0,1,4.82,4.83Z" id="el_aii52LHF9mX"/><path d="M251.92,289.89,230.43,300l4,65.53h-7.71l-15.57-67.2a7.09,7.09,0,0,1,3.2-7.63l20.37-12.45Z" id="el_PWeKriv7udB"/><path d="M233.54,203.51a3.18,3.18,0,0,0,0,6.34Z" id="el_6Q8cJNisSGT"/><path d="M267.34,203.51a3.18,3.18,0,0,1,0,6.34Z" id="el_oHt2E6loasZ"/><rect x="246.62" y="234.48" width="9.91" height="52.81" id="el_qVazZfz7klz"/><path d="M262.6,200c.45,1.46,1.12,3.14,2.6,3.55a4.21,4.21,0,0,0,3.38-1,2.48,2.48,0,0,0,1.21-1.5,2.54,2.54,0,0,0-.45-1.58,27.11,27.11,0,0,0-3.51-5.41c-1.27-1.43-3.56-3.75-4.91-1.3C260,194.39,262.08,198.28,262.6,200Z" id="el_7pNpm-8ab6o"/><path d="M264.39,189a22.55,22.55,0,0,0-13.47-4.47l.2-3c-5,0-9.85,4.7-13.61,7.49,3.29,3.73,8.09,7.25,13.46,7.25S261.1,192.73,264.39,189Z" id="el_2rWrc24d6WT"/><path d="M205.59,261.33a4.08,4.08,0,0,1-.56-3.26c2.47-9.87,20.1-33.08,20.87-34,1.17-1.46,7.2-2.77,7.2-2.77l.7,15.93L217.87,256a4.06,4.06,0,0,0-.55,4.42L229.9,286l-6.63,1.85Z" id="el_wRiyeBjmbHV"/><path d="M294.78,260.8a4.28,4.28,0,0,0,.51-2.95c-1.93-9.64-17.71-32.85-18.5-33.83-1.17-1.46-7.19-2.77-7.19-2.77l-.7,15.93,13.7,18.29a4.4,4.4,0,0,1,.57,4.26L272.8,286l6.63,1.85Z" id="el_P3YfdbpjT_g"/><path d="M238.78,200c-.45,1.46-1.12,3.14-2.6,3.55a4.21,4.21,0,0,1-3.38-1,2.48,2.48,0,0,1-1.21-1.5,2.54,2.54,0,0,1,.45-1.58,27.11,27.11,0,0,1,3.51-5.41c1.27-1.43,3.56-3.75,4.91-1.3C241.39,194.39,239.31,198.28,238.78,200Z" id="el_HI9bWe4hNJX"/><path d="M232.91,286.14a5.55,5.55,0,1,1-5.55-5.55h0A5.54,5.54,0,0,1,232.91,286.14Z" id="el_5zj2NPHzhem"/><path d="M266,184.44c-2.27-6-15-8-15.17-8h0c-.17,0-12.9,2.05-15.17,8s-9.13,22.88-8.85,27.45,8.58,9.15,8.58,9.15h7.72s-11.44-7.72-12.58-11.15,3.15-7.15,4.26-8a69.27,69.27,0,0,1,12.5-16,5.25,5.25,0,0,1,7.08,0,69.23,69.23,0,0,1,12.49,16c1.12.89,5.41,4.61,4.27,8S259.72,221,259.72,221l6.53,0s8.29-4.57,8.58-9.15S268.31,190.45,266,184.44Z" id="el_JfuRKJlF3Wr"/><path d="M281.36,287.15a5.56,5.56,0,1,0-5.89,5.21h0a5.55,5.55,0,0,0,5.88-5.2Z" id="el__H9ON5med_O"/><path d="M273.19,262V286s-13.48,5-15.41,4.77-1.93-21.22-1.93-21.22l2.48-6.37Z" id="el_lWvVi75pNbD"/><path d="M229.9,262V286s13.49,5,15.41,4.77,1.93-21.22,1.93-21.22l-2.52-6.42Z" id="el_-gIaysU_PSK"/><g id="el_ZWCJV2_80KS_sxAQD9jzZ" data-animator-group="true" data-animator-type="1"><path d="M234.41,365.5l1.06,9.81s-9.94,16.47-13.86,16.87-2.23-6.55,0-9.72,6.62-9.84,6.62-9.84l1.67-7.12Z" id="el_ZWCJV2_80KS"/></g><path d="M263.06,278.21l20.33,12.46a7.09,7.09,0,0,1,3.2,7.63L271,365.5h-7.69l4-65.53-21.51-10.08Z" id="el_mahVhw-YbvE"/><g id="el_3-LKn354iC5_wS0KyOgMX" data-animator-group="true" data-animator-type="1"><path d="M264.72,365.5l-1.06,9.81s9.94,16.47,13.86,16.87,2.23-6.55,0-9.72-6.62-9.84-6.62-9.84l-1.67-7.12Z" id="el_3-LKn354iC5"/></g><path d="M226.72,292.68h50.42a4.13,4.13,0,0,0,4-3.18l4.26-18.22a5.73,5.73,0,0,0-4.62-6.66,6.23,6.23,0,0,0-1.06-.09L222,265a5.74,5.74,0,0,0-5.69,5.77,6.25,6.25,0,0,0,.11,1.06L222.84,290A4.1,4.1,0,0,0,226.72,292.68Z" id="el_GUer3JVHBjA"/><path d="M257.56,264.7,222,265a5.74,5.74,0,0,0-5.69,5.77,6.25,6.25,0,0,0,.11,1.06L222.84,290a4.1,4.1,0,0,0,3.87,2.73h9Z" id="el_WneMnF-WhXj"/><ellipse cx="250.3" cy="281.01" rx="5.08" ry="4.69" id="el_Jd8uxzA3zf7"/><g id="el_J3exINdLI10_OCYuLBFAb" data-animator-group="true" data-animator-type="1"><circle cx="352.9" cy="175.23" r="11.44" id="el_J3exINdLI10"/></g></g></svg>