<svg id="bc5766fb-41e6-4777-931f-ab65e4da71de" data-name="Layer 1" xmlns="http://www.w3.org/2000/svg" xmlns:xlink="http://www.w3.org/1999/xlink" viewBox="0 0 493.67 381.16"><defs><style>.a5494369-235b-493c-959f-179073673f53{fill:none;}.a0d11d78-9c63-456c-a9d4-a26c649a8ce4,.b52fd330-f145-4a01-a58a-294c7004da9f{fill:#e9ebee;}.a5f1bae2-9071-4cf6-adc9-47f036143816{fill:#aeb8c1;}.aedfdf66-a57d-45ad-94c7-97b56c08b920{fill:url(#a9bcd1f6-8643-49da-a768-000844634568);}.a55515f0-9b5a-4128-89d9-e08d0b482763{fill:#fff;}.a0d11d78-9c63-456c-a9d4-a26c649a8ce4,.bc9e79a0-7953-4498-add9-cdc15e5c4256{opacity:0.45;isolation:isolate;}.b88cf576-4947-4e68-a284-ea844085a8d0{clip-path:url(#e64d1e77-4796-48f3-9216-b7f6612a8605);}.bc9e79a0-7953-4498-add9-cdc15e5c4256{fill:url(#a10ced1f-4fce-4716-83a0-06319c2e58fd);}.e113e65c-a8e1-4341-97d9-28fdb322dae2{fill:#dcdcdc;}.a2ff1a1a-cc65-4ebb-abe7-ad2c5adbc73d{fill:#97a3cc;}.e70aa9e2-84c0-48dc-9cb5-e90daae37876{fill:#cfcfcd;}.a38d1af7-6f5f-4b6a-ae02-62895c2991ed{clip-path:url(#ae3fa0f5-61e2-4046-baf3-d4b199eb95a2);}.a0dd1d61-4e2b-4547-b47a-7bbe142ec01a{fill:#89d5ff;}.e2433df1-7765-491b-aa85-81de528e82e9{fill:#87d4ff;}.abfe0bf9-b3f7-4bd1-9800-d1be163a66de{fill:#85d3fe;}.b97bb07a-30df-4570-8d9a-cea6d5b00251{fill:#83d2fe;}.bdae78a4-3180-4359-ab47-bc481cd933fa{fill:#81d1fd;}.f50a2923-04d6-40e2-b34d-aad1ac9ac420{fill:#7fd0fd;}.a4650833-51fe-48a3-ae4d-03bae35f752d{fill:#7dcffc;}.beed88ad-c0f8-4a4a-a003-c7cae2ab4f30{fill:#7bcefc;}.f0d09156-dff6-414d-8a52-d789b1566dd5{fill:#79cdfb;}.b523cda1-613f-4bf0-863b-610e223a9940{fill:#77ccfb;}.e8d2c33c-74a0-47bd-9363-df63cc168642{fill:#75cbfb;}.aa45caa5-c33c-4278-ab07-7fcb05344189{fill:#73cafa;}.bf522e7e-9d5f-45fa-acbd-db3cb6cb8e37{fill:#71c9fa;}.ad662a23-10a0-4566-9606-dcac30f02d3d{fill:#6fc9f9;}.b144152e-d798-40f4-bbee-d2056e7d729c{fill:#6dc8f9;}.acc62d47-cb75-40f6-9cdb-f7addc37d993{fill:#6bc7f9;}.b89ef94e-d93c-46d7-8ebc-a35434cc5621{fill:#6ac6f8;}.ae9b6652-e031-46a9-9a32-9a1fe19e4d27{fill:#68c5f8;}.a0a8cab6-dec6-40fb-816d-04e9aeae145f{fill:#66c4f7;}.ae74c230-07dd-403d-bccf-e2830e6235c6{fill:#64c3f7;}.eca9f45f-1d05-4bb8-89b0-7eba4880096d{fill:#63c3f7;}.bedc2e54-e2dd-4a20-88aa-3137c2480db3{fill:#61c2f6;}.becb0b45-2670-480e-bb8a-7a4daa5cd573{fill:#5fc1f6;}.fcdac6d7-1ab7-48f8-8e34-ef9db3d00373{fill:#5ec0f6;}.afa06cc1-4096-4779-93d3-811dc2b93f56{fill:#5cbff5;}.a4aa827b-9927-4bd9-8b10-3e32a6d79a52{fill:#5abff5;}.ecce4cb1-95c0-40a3-9c43-9f08c5c4daa7{fill:#59bef5;}.f4d75892-cea3-45e7-a71b-774918a08dd5{fill:#57bdf4;}.e55c8f2d-e2d2-4823-851f-fc990ee841f0{fill:#56bcf4;}.a5c28242-a0fe-4b4d-8dc9-48b8875680bf{fill:#54bcf3;}.fd574880-8a58-444f-ac58-dab0926d9182{fill:#53bbf3;}.bf1ff058-64de-4524-94c3-12daeab8b66f{fill:#51baf3;}.a708ca53-ee16-466c-bc27-3205b31e5361{fill:#50b9f3;}.aa5edf3a-20bf-4498-8893-53722f94750f{fill:#4eb9f2;}.e60664f0-cb57-48e9-bc65-dbb7f3ba9f1c{fill:#4db8f2;}.b5eb9d61-e4bd-4b03-a047-0c764d4a49a5{fill:#4cb7f2;}.afe82850-5dab-4e14-b17b-36210874ba6c{fill:#4ab7f1;}.fa034b1b-7bd0-418d-ab85-7be0b7dc49f6{fill:#49b6f1;}.bbe335d1-b982-4039-a7a2-63cf9742c9da{fill:#48b5f1;}.eb234e2e-b12b-4eb2-9298-b633b70150a2{fill:#46b5f0;}.ae487ebf-4e2a-4761-8069-91f368b0c095{fill:#45b4f0;}.bb3b7105-120c-4927-bab8-5730f64f3a87{fill:#44b4f0;}.a0b90879-05e7-4ac0-a82c-8a369ca29289{fill:#42b3f0;}.f025ac66-aaa8-47ff-8cb0-3e09c5a86baf{fill:#41b2ef;}.bdcc7627-c83b-4d74-8135-94b0e73865d5{fill:#40b2ef;}.e6584451-33cc-46b1-87d3-3e3b511ef697{fill:#3fb1ef;}.bfd32461-5e76-45e8-981d-2a35493ff379{fill:#3eb1ef;}.ef7776a2-121d-4d16-a996-50c2d7c73673{fill:#3cb0ee;}.afc64b23-c473-4e89-85d5-275097e5f648{fill:#3bb0ee;}.babfc90b-3ea9-4772-bb7d-3f56a6444af0{fill:#3aafee;}.e78dad05-0e21-4b43-88e2-2144f4f29755{fill:#39afee;}.b9f79e75-b670-4a1a-9359-c040d19022ee{fill:#38aeed;}.b0b8feac-969f-42f4-a556-d42bb8b4d07e{fill:#37aded;}.b6927756-4126-43cf-a71e-d05d3cbb11a0{fill:#36aded;}.ff4ef002-29f7-41dd-859c-94963eb1fc54{fill:#35aded;}.ac34da56-f7ee-4622-9d47-5a767a12ad1b{fill:#34acec;}.f78afb24-e240-4049-87f2-8597f0004d29{fill:#33acec;}.af4dfbf3-6ed9-48c3-9d77-5a58372e6aba{fill:#32abec;}.aa83fa2c-24af-4637-93d0-7471fc3ae081{fill:#31abec;}.afea1055-a3f8-405b-aea6-18b82ea19fdc{fill:#30aaec;}.bdcc6d1b-56f9-41cc-8f21-0d7b3a91500f{fill:#2faaeb;}.bb72ec52-8e7c-4b4a-81c0-f50cd565b5b4{fill:#2ea9eb;}.bec01282-c555-4bc7-8321-25da3ebe7a06{fill:#2da9eb;}.bb54f57a-4a40-404a-9ba1-f4bd912c31ed{fill:#2ca8eb;}.abd37073-01f6-490e-9bf8-baf4dc2b9724{fill:#2ba8eb;}.f036ca80-d0a8-42ad-b1e1-366b09bd518e{fill:#2aa7ea;}.a16e4b3d-36e0-452a-af01-c25e9046c092{fill:#29a7ea;}.aca3553b-adf6-4701-8e92-ed2ed89c0f3e{fill:#28a6ea;}.afcafdf6-edc4-4723-8d2f-68be939c3cdb{fill:#27a6ea;}.ec01e395-8ccb-4e91-8530-8f17338a570b{fill:#26a5e9;}.e8950094-a513-47a9-9c62-5516d4c99a16{fill:#25a5e9;}.be2abf2a-8f76-4c61-bd12-74bce63128df{fill:#24a5e9;}.bb6d1a13-08ec-4dd6-a991-e912be7f7c37{fill:#24a4e9;}.e5459f01-1cf0-4806-8e2e-ab1c05fcf287{fill:#23a4e9;}.ba496e6f-bc03-4861-86b8-0b64d5974412{fill:#22a3e9;}.a7fcb925-925a-4110-93b9-3598c12e3dd6{fill:#22a3e8;}.e6aaa7c5-3ebd-4a95-8e51-65af1b78e3bd{fill:#21a3e8;}.b020e3af-f98b-4baf-aa20-9c2efc1c9098{fill:#20a3e8;}.add48a21-ab50-456d-98cc-6ed1ffc6f43c{fill:#20a2e8;}.b3359a12-0053-497c-a8ec-94f91ff0f4b8{fill:#1fa2e8;}.b1c6cf50-c65f-4348-8ca3-cf398163970d{fill:#1ea2e8;}.ff4188ba-e52b-40ae-87ed-f0bcb7a7b057{fill:#1ea1e8;}.e3aa8a67-fac2-45a1-b770-1a7cfc4b3fa6{fill:#1da1e8;}.f697b81b-d077-44d9-af22-2170cde49e9e{fill:#1da1e7;}.b0a7d7f1-fc8b-4918-b588-c64469c76ce6{fill:#1ca1e7;}.ac0d6519-e49b-4885-aee2-7aaab395f16c{fill:#1ca0e7;}.ef088632-b058-4710-8d7e-f417bb05fdfa{fill:#1ba0e7;}.bb364138-c1ae-4da7-8818-383b455f093a{clip-path:url(#b9006f2b-cb9f-493a-8bca-b9e3d2486ca3);}.b20a4b52-d66b-443c-aedb-a8f5182eb3b2{fill:#ff9cb0;}.b453191e-f825-413d-a63a-3c349ac1d12f{fill:#ff9aae;}.a22c38c3-4a6a-4772-853b-1d4c9ceb16df{fill:#ff98ad;}.e1201943-799d-47a4-9a83-e6f69c6bc03a{fill:#fe96ab;}.a72d5cff-421a-4ba1-8851-ec2cbae99afb{fill:#fe94a9;}.f17b84f3-af64-4f7f-85ef-c7fde3957046{fill:#fe92a8;}.b22c7133-dbd9-4673-bc61-c9eee97fc9bf{fill:#fe90a6;}.ae65f67c-284d-4ac3-8fac-28984607053c{fill:#fd8ea4;}.f52a81e2-3603-47a8-a345-6ce2e19c7d7f{fill:#fd8ca3;}.a4db65e1-1c14-41db-9718-7d9756043f88{fill:#fd8aa1;}.e8a62840-01fb-435c-977c-64447fb468a2{fill:#fd88a0;}.b118c12f-fd02-4618-b587-504368434f26{fill:#fd869e;}.a2ae2e3f-a6a2-48a1-8a41-7e10410de3b0{fill:#fc849d;}.a3b4e4d7-6be5-4546-85ca-9be4ba94cdad{fill:#fc829b;}.a7179b78-4f4f-4ac7-8b7c-f06c23f5120c{fill:#fc809a;}.f56654a4-c2f8-4cb7-92c8-de90689ba65c{fill:#fc7f98;}.bfa7fb5f-f3f1-4969-bbf9-b61948540569{fill:#fc7d97;}.ad3d9623-f5c8-4123-9136-915fbf2e0495{fill:#fb7b95;}.a7c3e3db-d500-462d-8aef-290c69300d01{fill:#fb7994;}.f35a4d83-d111-411b-84c6-9f8821457235{fill:#fb7793;}.af4e105d-444a-4d8c-a44a-bcab7b7b996c{fill:#fb7691;}.eb732507-3fef-4a46-8456-a7f7d1236c4e{fill:#fb7490;}.b6083f84-533f-48e2-a834-45c4dbfff388{fill:#fa728e;}.bc8e1245-4032-4a48-bc13-309a263e80b2{fill:#fa718d;}.b61be725-b6c1-407c-84e8-164becffd330{fill:#fa6f8c;}.bd0504c9-bcf4-4423-a643-b78a50b1b558{fill:#fa6e8a;}.ba13bc78-dce4-4c1e-bda4-d9834f6c2c32{fill:#fa6c89;}.fd2a6c16-1aea-4bee-98ab-b5b0746cb69f{fill:#fa6a88;}.b49693cc-8cd1-4ede-b140-9f2b3f1c37b1{fill:#f96987;}.aa41e65e-e91b-4e44-9627-462edf27fdb9{fill:#f96785;}.b0e572de-d2f3-4bc0-b43f-ae4c7ccdb903{fill:#f96684;}.ba97962d-af3f-46a7-afcc-fcc95aab221b{fill:#f96483;}.abd7a876-cf26-4035-a331-4763ef4183e4{fill:#f96382;}.a6adc5f1-3fbb-40c8-9c47-8217c7cc5aba{fill:#f96181;}.bb070188-f95b-4581-b986-12739710bf91{fill:#f86080;}.b6ee848c-5239-45c3-9ac0-d2103b36e0fb{fill:#f85f7f;}.f3bccba0-664c-44a4-ab68-4f2ce76e42ac{fill:#f85d7d;}.aba869c2-d526-4d86-b65e-6df69e565247{fill:#f85c7c;}.aae080fe-90fd-4a44-ab54-2a2b8e462ddd{fill:#f85b7b;}.ec4cdd68-32cb-4450-bc5d-cf7c460df8db{fill:#f8597a;}.b78e8098-ce18-4e47-8e71-e8d697dc7d1b{fill:#f85879;}.e023f818-75c5-4439-9f0c-a6c9496ecdd9{fill:#f75778;}.ef75bd20-8763-4303-8ec8-4379da2c7ff6{fill:#f75677;}.ad06980c-fb46-4057-8431-20c3fad0a10c{fill:#f75476;}.e101a4d8-66cc-4b96-ae00-39657a7c3003{fill:#f75375;}.a042c1fe-bbd1-4932-a079-02a00cb58a40{fill:#f75274;}.bee3e279-563d-4280-946e-54aa03107d13{fill:#f75173;}.b1906171-d175-40b9-86db-b219cfec146d{fill:#f75072;}.a6e696db-f090-4e46-87f8-1f0e576b5322{fill:#f64f71;}.b0207de4-1093-4cc2-88da-71d693078b07{fill:#f64d71;}.abf8b5dc-73cd-4039-a883-dc0282ea57da{fill:#f64c70;}.ba78bc77-88db-487f-907b-23ffe4607a1b{fill:#f64b6f;}.fc9591fe-bd6c-4936-993f-63814de3dc12{fill:#f64a6e;}.bf7e3a0e-3a99-4a96-bfb1-08d8da9cfd7f{fill:#f6496d;}.a8c03fae-99f0-46a9-97c0-4bb8f3a298a5{fill:#f6486c;}.a420af27-6655-4bbb-88b9-f8e985ea6fa5{fill:#f6476c;}.f6306d99-a29e-4b52-9a90-9389e6cb3f3c{fill:#f6466b;}.ba517ac8-4b49-473c-aa8d-777ecae7d3c2{fill:#f5456a;}.f8052a9c-0122-4b47-a97e-f78b98013437{fill:#f54469;}.b294596b-2c54-47d0-9397-157f6efd6877{fill:#f54368;}.e771eb72-5a2a-4d05-8cb4-58f6de6c3de6{fill:#f54267;}.a9e0fe81-c55a-4726-bfbc-0d4a0be1d6df{fill:#f54167;}.b37a52df-22b7-4d63-82e6-53563dba7635{fill:#f54066;}.b1f0368c-432f-476d-a254-6e03a6665d48{fill:#f53f65;}.a38b1628-e7c4-4372-9bd0-9e6425cff9ae{fill:#f53e64;}.a6e57c22-43dc-4ebd-bd6a-f80a4f438663{fill:#f53d63;}.eba3a0e8-4ae5-45ed-9efd-704f1c268903{fill:#f43c63;}.af9c26fe-3b4b-4467-990c-e4fd98bbb611{fill:#f43c62;}.fd474577-62c4-4c6c-b3d8-9bef092dece0{fill:#f43b62;}.a27228b9-3024-4f41-8339-0ac698611bbd{fill:#f43a61;}.bef7a74c-dd49-4266-8913-6737d98450e2{fill:#f43960;}.bc277132-a530-4f1b-bed0-3944feefb83c{fill:#f4385f;}.fdabcef8-37b3-4e7e-b1e8-dff3d51570b7{fill:#f4375f;}.b08cd266-03b6-4203-a3b9-2c4274ce3bad{fill:#f4375e;}.a9623c8b-5289-4250-b333-037ceedbaa33{fill:#f4365e;}.a0043811-cb45-432e-863d-af8faa05656a{fill:#f4365d;}.bdf4f723-e19c-4db6-baf3-e27f436a2db3{fill:#f4355d;}.a5b05dcc-bc80-4563-8d69-9ff8528049de{fill:#f4345c;}.af9a390a-5188-4b6b-99d8-ec6b8f33fc21{fill:#f3335b;}.be800614-2325-4b90-9ec2-9c06ddeeec6d{fill:#f3325b;}.b7c4a8d5-a345-4f15-9712-53436bfd807d{fill:#f3325a;}.a8250b05-5dc2-4c82-8dd9-61eedb9c46ac{fill:#f3315a;}.bbcf53fb-c786-4fa9-af66-02c451be9d35{fill:#f33159;}.bd98b1d4-4c37-4f3e-a4ca-c19c78c25cce{fill:#f33059;}.ede0f472-a9a3-4501-add9-90cdd74f55fa{fill:#f33058;}.a4d8d8cd-5d1a-4d0f-98ba-26e76995b564{fill:#f32f58;}.a37da42e-c536-4367-b8ac-896d3f46b2de{fill:url(#a2222b50-67c7-42a0-806a-227d15a96277);}.a85433cc-6fb5-4985-948d-1db673351cb1{fill:url(#f5c8a8e1-a485-4c5d-9549-f1e38502b147);}.bd7b689f-8ed5-4bb4-abaa-f824404d34b7{fill:url(#f33ef66b-3fc6-4d1d-aa49-1793c7487d5f);}.a033fb85-2bb0-4894-8b03-67e4513a09c0{fill:url(#b3e3b002-4bd0-4188-aa1d-f43661451d4c);}.e1683c8b-375c-48c7-b34f-ae8a11c1a5d3{fill:#00b06a;}.b60fa22c-fa6d-4232-9318-c8e199815e15{fill:url(#ab9db7e3-b50a-42a5-b2e0-6c796711683b);}.aba09df1-90a5-46a4-9348-06d7c52966cd{fill:url(#a0a70231-cf96-4c3c-8cb1-a9f0f28c2587);}.e5a0bdae-50b4-44b7-8199-1e68c565fac5{fill:url(#a4b819f9-c7c0-4d37-96ee-bfb2b0685540);}.b5662102-938d-452d-b470-f8180e1e2138{fill:url(#b7ab36f9-271d-4422-aced-cc736c0e4c61);}.f76eee6d-745a-4d70-8d5d-053a0f701a8c{fill:url(#afbdd70b-4ae2-4169-bc5a-bfe53f55fc6f);}.a2fbf158-3a3b-47f8-afbe-293e29ab2608{fill:url(#b80a8a89-de73-4cc5-8a67-2922fba7689b);}.a1eed338-f1be-4043-92b3-15b6a978aaae{fill:url(#a6b2578e-49c3-4806-9274-ee6b65c19417);}.f4d73163-195b-46d0-a4af-cf5125c57952{fill:#b0532f;}.adb016a6-4392-41f1-86d2-89e74cf1fc25{fill:url(#a989fc18-d025-40ca-848b-dbed667ef4b7);}.a4cb5eb0-4d0f-43ea-ab0e-b8aea30f7276{fill:#28b979;}.baaacb6e-3f3c-48f8-918d-dd5e8a915b23{fill:url(#b75c6623-ab90-4268-ae7d-7d4ffeeb020c);}.ab58faae-3f06-4499-b4d8-887126189a6e{fill:url(#e3af2bca-fbc7-4cd8-99ed-969acde68f7a);}.bbfddaaa-7b8c-4b6c-a744-091efa69699b{fill:url(#b969e6eb-b5f3-4644-93bf-dc5151df7c41);}.b6e046fc-ebcb-4dca-ac58-074f19632fbf{fill:url(#fe2fa0c3-8e12-433c-8bb7-6429b3d94164);}.ff16ffdf-2849-404a-b9db-256247074f7e{fill:url(#e106301b-3cdf-419c-bc1c-4f0dcb96885d);}.a551934e-e782-474c-91d0-81f008a69a03{fill:url(#eff4e47f-9c17-42e6-9df4-8f90954a22c1);}.f3229790-99b8-4475-89cd-f1664e3b5020{fill:url(#b16d7162-54a2-4151-a5a2-484efda0eab3);}.e9e06ca2-e5de-4a9f-9431-9bbb6e1ec5a2{fill:url(#e1c46d75-8636-4f95-91fd-adef94510828);}.bc766362-043c-45a2-ae85-77ff0938cddd{fill:url(#e2f9631c-0883-4611-a259-f9827e21f8f8);}.b8f21637-2a2c-45de-a232-9c8eed8dd2cb{fill:url(#bd65d70d-4ba8-4b21-9be5-72a916e2a7af);}.b6dec0cf-60da-4416-b84c-542b71ce8502{fill:url(#f8ac92a0-3a21-4f05-b9c7-a72dc98fcad6);}.ee3ba1ae-c7b1-47ce-8d99-cc32fcc0fcfe{fill:#353535;}.f1adf752-f0e0-4f51-bfee-69152bdc9aa8{fill:#ffc7cc;}.afd5cffc-3805-438f-8cf2-69f0a085b76a{fill:url(#acb7e51d-d3b4-42f5-b368-f054f3382dad);}.b8f68ff6-1074-4f3a-90f2-b05eefaf223a{fill:url(#aa010e64-067d-4635-bb66-09f2a798ec8a);}.fd91b5cf-f5c7-4437-9afc-214c58ab7e0c{fill:url(#e77c0d64-ae91-4746-8257-2d51c6ef261a);}.be726d51-9890-4dbd-a0d7-473938c85967{fill:url(#a15956f2-d5f7-4a32-9abc-960e90111910);}.a1165ad5-aebc-4a90-b4c5-e49425c9d5c5{fill:url(#eb5395c8-f0cf-4b91-bb4f-470782901d5e);}.ae994ed0-4ff7-435b-afeb-34466ee8efec{fill:url(#b324ea47-366b-47ef-87fc-48ea8fabe5f5);}.b40cc206-49ba-4115-b80e-47bf5be316d6{fill:url(#b851dc0f-95b9-4b2e-8e36-57b7b108e3c8);}.a746c206-90a1-4ecc-9618-6f11f11dba4a{fill:url(#e551c743-5985-46a3-a2a5-f21ecd060fad);}.a9549380-647f-4860-a93e-3b5514bf4f84{fill:url(#eff91394-52b1-4625-aa60-b4df3eb725f4);}.f0e06430-0bc3-484f-9808-308fdd850feb{fill:url(#adb800a0-4f1b-45a8-841a-ccaa1ac3f78d);}.fddda29f-59a7-4895-be06-f4615c6264d9{fill:url(#a4c09b58-1524-4b6b-9197-e69a9ffdba40);}

.e70aa9e2-84c0-48dc-9cb5-e90daae37876, .ae994ed0-4ff7-435b-afeb-34466ee8efec, .afd5cffc-3805-438f-8cf2-69f0a085b76a{
	mix-blend-mode: multiply;
}
.ab8ff63c-9f8a-49af-8919-51dd8ab542ef {
    fill: #fff;
}

g#a1fd1d86-6596-4c16-bdb9-63e1eb69e75d {
    transform-box: fill-box;
    transform-origin: center;
    animation: mobile 15s ease 0s infinite;
}
g.a38d1af7-6f5f-4b6a-ae02-62895c2991ed{
	opacity: 0;
	animation: thankYou 15s ease 0s infinite;
}
g#b0078ad8-b7c6-4652-8d1d-ee6e5322db0e {
    transform-origin: center;
    transform-box: fill-box;
    transition: all 4s ease 0s;
    transform: rotate(11deg) translateX(209px) scale3d(.11, .11, 0);
    opacity: 0;
    animation: man____ 15s ease 0s infinite;
}

g.bb364138-c1ae-4da7-8818-383b455f093a{
	animation: chackOut 15s ease 0s infinite;
}
@keyframes thankYou{
	0%, 40%{opacity: 0}
	45%{opacity: 1}
	55%{opacity: 0}
	65%{opacity: 1}
	75%{opacity: 0}
	85%{opacity: 1}
	90%, 100%{opacity: 0}
}
@keyframes chackOut{
	0%, 15%{opacity: 1}
	20%{opacity: 0}
	25%{opacity: 1}
	30%, 90%{opacity: 0}
	95%, 100%{opacity: 1}
}

@keyframes mobile{
	0%, 5%{transform: rotate(-8.5deg) scale(.9);}
	10%, 90%{transform: rotate(0deg) scale(1);}
	96%,100%{transform: rotate(-8.5deg) scale(.9);}

}
@keyframes man____{
	0%, 30%{transform: rotate(11deg) translateX(209px) scale3d(.11, .11, 0);opacity: 0;}
	40%, 90%{transform: rotate(0deg) translateX(0) scale3d(1, 1, 0);opacity: 1;}
	
}




</style><linearGradient id="a9bcd1f6-8643-49da-a768-000844634568" x1="254.05" y1="257.24" x2="471.16" y2="259.53" gradientTransform="matrix(0.99, 0.14, 0.14, -0.99, -40.66, 384.07)" gradientUnits="userSpaceOnUse"><stop offset="0" stop-color="#aeb8c1"/><stop offset="0.35" stop-color="#bbc2c8"/><stop offset="1" stop-color="#cfd1d2"/></linearGradient><clipPath id="e64d1e77-4796-48f3-9216-b7f6612a8605" transform="translate(0 0)"><path class="a5494369-235b-493c-959f-179073673f53" d="M357.21,80.06,323.67,305.68c-.4,2.81.94,5.41,3,5.82l100.71,19.74c2.51.49,4.92-1.63,5.36-4.74L468.38,86.13Z"/></clipPath><linearGradient id="a10ced1f-4fce-4716-83a0-06319c2e58fd" x1="380.21" y1="68.3" x2="380.21" y2="136.66" gradientTransform="matrix(1, 0, 0, -1, 0, 384)" gradientUnits="userSpaceOnUse"><stop offset="0" stop-color="#fff"/><stop offset="0.15" stop-color="#f1f6fb"/><stop offset="0.42" stop-color="#deeaf7"/><stop offset="0.7" stop-color="#d3e3f4"/><stop offset="1" stop-color="#cfe1f3"/></linearGradient><clipPath id="ae3fa0f5-61e2-4046-baf3-d4b199eb95a2" transform="translate(0 0)"><path class="a5494369-235b-493c-959f-179073673f53" d="M428.46,160.14l-55.18-5.58a2.16,2.16,0,0,1-1.64-2.58v0l5.22-37.89a2.51,2.51,0,0,1,2.33-2.34l56,3.39a2.22,2.22,0,0,1,1.87,2.51,1.89,1.89,0,0,1-.05.23l-6,40A2.55,2.55,0,0,1,428.46,160.14Z"/></clipPath><clipPath id="b9006f2b-cb9f-493a-8bca-b9e3d2486ca3" transform="translate(0 0)"><path class="a5494369-235b-493c-959f-179073673f53" d="M416.86,237.81l-53.79-9.25a2.3,2.3,0,0,1-1.6-2.68l7.16-52a2.29,2.29,0,0,1,2.28-2.18l54.86,6.47a2.3,2.3,0,0,1,1.8,2.72.15.15,0,0,1,0,.07l-8.18,54.74a2.29,2.29,0,0,1-2.43,2.12Z"/></clipPath><linearGradient id="a2222b50-67c7-42a0-806a-227d15a96277" x1="62.58" y1="141.46" x2="76.64" y2="141.46" gradientTransform="matrix(1.03, 0.14, 0.01, -0.97, 3.58, 413.28)" gradientUnits="userSpaceOnUse"><stop offset="0" stop-color="#89d5ff"/><stop offset="0.07" stop-color="#7acefc"/><stop offset="0.25" stop-color="#58bdf4"/><stop offset="0.43" stop-color="#3db0ee"/><stop offset="0.61" stop-color="#2aa7ea"/><stop offset="0.8" stop-color="#1fa2e8"/><stop offset="1" stop-color="#1ba0e7"/></linearGradient><linearGradient id="f5c8a8e1-a485-4c5d-9549-f1e38502b147" x1="47.13" y1="160.23" x2="48.54" y2="178.58" xlink:href="#a2222b50-67c7-42a0-806a-227d15a96277"/><linearGradient id="f33ef66b-3fc6-4d1d-aa49-1793c7487d5f" x1="16.95" y1="137.58" x2="62.58" y2="137.58" xlink:href="#a2222b50-67c7-42a0-806a-227d15a96277"/><linearGradient id="b3e3b002-4bd0-4188-aa1d-f43661451d4c" x1="40.14" y1="134.54" x2="41.78" y2="155.9" gradientTransform="matrix(1.03, 0.14, 0.01, -0.97, 3.58, 413.28)" gradientUnits="userSpaceOnUse"><stop offset="0" stop-color="#eef4fb"/><stop offset="0.31" stop-color="#e3edf8"/><stop offset="1" stop-color="#cfe1f3"/></linearGradient><linearGradient id="ab9db7e3-b50a-42a5-b2e0-6c796711683b" x1="55.7" y1="32.7" x2="66" y2="22.41" gradientTransform="matrix(0.97, -0.24, -0.24, -0.97, 41.67, 296.42)" gradientUnits="userSpaceOnUse"><stop offset="0" stop-color="#ffb97d"/><stop offset="0.06" stop-color="#feb271"/><stop offset="0.24" stop-color="#fa9d4f"/><stop offset="0.42" stop-color="#f78d34"/><stop offset="0.61" stop-color="#f58221"/><stop offset="0.8" stop-color="#f37b16"/><stop offset="1" stop-color="#f37912"/></linearGradient><linearGradient id="a0a70231-cf96-4c3c-8cb1-a9f0f28c2587" x1="75.91" y1="79.68" x2="86.04" y2="69.55" gradientTransform="matrix(1, -0.06, -0.06, -1, 10.73, 358.79)" gradientUnits="userSpaceOnUse"><stop offset="0" stop-color="#ffb8a1"/><stop offset="0.06" stop-color="#fead94"/><stop offset="0.24" stop-color="#fa9272"/><stop offset="0.42" stop-color="#f77d57"/><stop offset="0.61" stop-color="#f56e44"/><stop offset="0.8" stop-color="#f36539"/><stop offset="1" stop-color="#f36235"/></linearGradient><linearGradient id="a4b819f9-c7c0-4d37-96ee-bfb2b0685540" x1="-533.4" y1="331.63" x2="-523.23" y2="321.47" gradientTransform="matrix(-0.79, -0.61, 0.61, -0.79, -500.33, 203.28)" xlink:href="#a0a70231-cf96-4c3c-8cb1-a9f0f28c2587"/><linearGradient id="b7ab36f9-271d-4422-aced-cc736c0e4c61" x1="-491.46" y1="86.98" x2="-481.34" y2="76.86" gradientTransform="translate(-392.33 372.21) rotate(176.57)" xlink:href="#a0a70231-cf96-4c3c-8cb1-a9f0f28c2587"/><linearGradient id="afbdd70b-4ae2-4169-bc5a-bfe53f55fc6f" x1="-538.1" y1="201.63" x2="-527.96" y2="191.49" gradientTransform="matrix(-0.96, -0.29, 0.29, -0.96, -462.42, 296)" xlink:href="#a0a70231-cf96-4c3c-8cb1-a9f0f28c2587"/><linearGradient id="b80a8a89-de73-4cc5-8a67-2922fba7689b" x1="106.75" y1="119.18" x2="117.02" y2="108.91" gradientTransform="matrix(0.99, 0.12, 0.12, -0.99, -29.7, 377.89)" xlink:href="#ab9db7e3-b50a-42a5-b2e0-6c796711683b"/><linearGradient id="a6b2578e-49c3-4806-9274-ee6b65c19417" x1="78.65" y1="93.16" x2="78.23" y2="88.52" gradientTransform="matrix(1, -0.06, -0.06, -1, 10.73, 358.79)" xlink:href="#ab9db7e3-b50a-42a5-b2e0-6c796711683b"/><linearGradient id="a989fc18-d025-40ca-848b-dbed667ef4b7" x1="-759.7" y1="232.98" x2="-757.07" y2="216.32" gradientTransform="matrix(-0.94, -0.34, 0.34, -0.94, -656.6, 235.83)" gradientUnits="userSpaceOnUse"><stop offset="0" stop-color="#ff9cb0"/><stop offset="0.06" stop-color="#fd8ea4"/><stop offset="0.24" stop-color="#fa6c89"/><stop offset="0.42" stop-color="#f75173"/><stop offset="0.61" stop-color="#f53e64"/><stop offset="0.8" stop-color="#f3335b"/><stop offset="1" stop-color="#f32f58"/></linearGradient><linearGradient id="b75c6623-ab90-4268-ae7d-7d4ffeeb020c" x1="-700.11" y1="90.69" x2="-697.25" y2="72.59" gradientTransform="translate(-604.83 383.56) rotate(180)" xlink:href="#a989fc18-d025-40ca-848b-dbed667ef4b7"/><linearGradient id="e3af2bca-fbc7-4cd8-99ed-969acde68f7a" x1="113.4" y1="115.35" x2="121.45" y2="94.13" gradientTransform="matrix(1, 0, 0, -1, -0.62, 383.56)" xlink:href="#a989fc18-d025-40ca-848b-dbed667ef4b7"/><linearGradient id="b969e6eb-b5f3-4644-93bf-dc5151df7c41" x1="127.32" y1="93.63" x2="130.29" y2="74.8" gradientTransform="matrix(1, 0, 0, -1, -0.62, 383.56)" xlink:href="#a989fc18-d025-40ca-848b-dbed667ef4b7"/><linearGradient id="fe2fa0c3-8e12-433c-8bb7-6429b3d94164" x1="-739.96" y1="216.84" x2="-737.33" y2="200.18" xlink:href="#a989fc18-d025-40ca-848b-dbed667ef4b7"/><linearGradient id="e106301b-3cdf-419c-bc1c-4f0dcb96885d" x1="110.56" y1="87.41" x2="118.61" y2="66.19" gradientTransform="matrix(1, 0, 0, -1, -0.62, 383.56)" xlink:href="#a989fc18-d025-40ca-848b-dbed667ef4b7"/><linearGradient id="eff4e47f-9c17-42e6-9df4-8f90954a22c1" x1="39.41" y1="17.04" x2="61.42" y2="17.04" gradientTransform="matrix(1, 0, 0, -1, -0.62, 383.56)" gradientUnits="userSpaceOnUse"><stop offset="0" stop-color="#343a44"/><stop offset="0.3" stop-color="#232d3e"/><stop offset="0.64" stop-color="#182439"/><stop offset="1" stop-color="#142138"/></linearGradient><linearGradient id="b16d7162-54a2-4151-a5a2-484efda0eab3" x1="45.26" y1="16.97" x2="55.57" y2="16.97" gradientTransform="matrix(1, 0, 0, -1, -0.62, 383.56)" xlink:href="#b3e3b002-4bd0-4188-aa1d-f43661451d4c"/><linearGradient id="e1c46d75-8636-4f95-91fd-adef94510828" x1="51.46" y1="14.44" x2="50.38" y2="29.85" gradientTransform="matrix(1, 0, 0, -1, -0.62, 383.56)" gradientUnits="userSpaceOnUse"><stop offset="0" stop-color="#eef4fb"/><stop offset="0.09" stop-color="#e6ecf3"/><stop offset="0.7" stop-color="#b7babe"/><stop offset="1" stop-color="#a5a7aa"/></linearGradient><linearGradient id="e2f9631c-0883-4611-a259-f9827e21f8f8" x1="116.06" y1="17.47" x2="138.06" y2="17.47" gradientTransform="matrix(1, 0, 0, -1, 0, 384)" xlink:href="#eff4e47f-9c17-42e6-9df4-8f90954a22c1"/><linearGradient id="bd65d70d-4ba8-4b21-9be5-72a916e2a7af" x1="122.53" y1="17.01" x2="132.83" y2="17.01" gradientTransform="matrix(1, 0, 0, -1, -0.62, 383.56)" xlink:href="#b3e3b002-4bd0-4188-aa1d-f43661451d4c"/><linearGradient id="f8ac92a0-3a21-4f05-b9c7-a72dc98fcad6" x1="128.71" y1="14.44" x2="127.64" y2="29.85" xlink:href="#e1c46d75-8636-4f95-91fd-adef94510828"/><linearGradient id="acb7e51d-d3b4-42f5-b368-f054f3382dad" x1="232.64" y1="167.37" x2="229.8" y2="208.27" gradientTransform="matrix(1, 0, 0, -1, -0.62, 383.56)" gradientUnits="userSpaceOnUse"><stop offset="0" stop-color="#fff" stop-opacity="0"/><stop offset="0.24" stop-color="#f7f3f4" stop-opacity="0.22"/><stop offset="0.77" stop-color="#e1d6da" stop-opacity="0.76"/><stop offset="0.99" stop-color="#d8c9ce"/></linearGradient><linearGradient id="aa010e64-067d-4635-bb66-09f2a798ec8a" x1="-192.97" y1="-260.94" x2="-148.79" y2="-260.94" gradientTransform="matrix(-0.17, 0.99, -0.99, -0.17, 86.84, 412.23)" xlink:href="#eff4e47f-9c17-42e6-9df4-8f90954a22c1"/><linearGradient id="e77c0d64-ae91-4746-8257-2d51c6ef261a" x1="-596.83" y1="-16.71" x2="-587.14" y2="39.19" gradientTransform="translate(-251.9 412.96) rotate(166.66)" xlink:href="#a989fc18-d025-40ca-848b-dbed667ef4b7"/><linearGradient id="a15956f2-d5f7-4a32-9abc-960e90111910" x1="-544.78" y1="-71.81" x2="-497.76" y2="-71.81" gradientTransform="matrix(-0.97, 0.26, -0.26, -0.97, -256.72, 435.31)" xlink:href="#eff4e47f-9c17-42e6-9df4-8f90954a22c1"/><linearGradient id="eb5395c8-f0cf-4b91-bb4f-470782901d5e" x1="-613.42" y1="112.2" x2="-573.18" y2="112.2" gradientTransform="translate(-321.58 383.56) rotate(180)" xlink:href="#a989fc18-d025-40ca-848b-dbed667ef4b7"/><linearGradient id="b324ea47-366b-47ef-87fc-48ea8fabe5f5" x1="-587.48" y1="277.72" x2="-580.65" y2="290.73" gradientTransform="translate(-321.58 383.56) rotate(180)" xlink:href="#acb7e51d-d3b4-42f5-b368-f054f3382dad"/><linearGradient id="b851dc0f-95b9-4b2e-8e36-57b7b108e3c8" x1="-623.78" y1="214.02" x2="-566.92" y2="214.02" gradientTransform="translate(-321.58 383.56) rotate(180)" xlink:href="#a2222b50-67c7-42a0-806a-227d15a96277"/><linearGradient id="e551c743-5985-46a3-a2a5-f21ecd060fad" x1="-551.36" y1="149.06" x2="-518.73" y2="149.06" gradientTransform="matrix(-0.92, 0.4, -0.4, -0.92, -174.48, 425.68)" gradientUnits="userSpaceOnUse"><stop offset="0" stop-color="#8e4430"/><stop offset="0.06" stop-color="#8c402b"/><stop offset="0.36" stop-color="#872f18"/><stop offset="0.67" stop-color="#83250d"/><stop offset="1" stop-color="#822209"/></linearGradient><linearGradient id="eff91394-52b1-4625-aa60-b4df3eb725f4" x1="-557.03" y1="151.76" x2="-550.42" y2="151.76" gradientTransform="matrix(-0.92, 0.4, -0.4, -0.92, -174.48, 425.68)" gradientUnits="userSpaceOnUse"><stop offset="0" stop-color="#ff7a57"/><stop offset="0.07" stop-color="#fd714d"/><stop offset="0.29" stop-color="#f95b32"/><stop offset="0.52" stop-color="#f64c1f"/><stop offset="0.75" stop-color="#f44214"/><stop offset="1" stop-color="#f33f10"/></linearGradient><linearGradient id="adb800a0-4f1b-45a8-841a-ccaa1ac3f78d" x1="-531.06" y1="158.76" x2="-512.86" y2="158.76" xlink:href="#e551c743-5985-46a3-a2a5-f21ecd060fad"/><linearGradient id="a4c09b58-1524-4b6b-9197-e69a9ffdba40" x1="-573.7" y1="130.8" x2="-550.42" y2="130.8" xlink:href="#e551c743-5985-46a3-a2a5-f21ecd060fad"/></defs><title>ecommerce</title><g id="a1fd1d86-6596-4c16-bdb9-63e1eb69e75d" data-name="mobile"><path class="b52fd330-f145-4a01-a58a-294c7004da9f" d="M413.32,380.68l-82.88-20.2c-9.36-2.28-15.37-14.29-13.58-26.88L362.18,25.06c1.79-12.63,11-23,20.71-23.24L469,0c11.6-.24,19.54,11,17.52,25.19L437.38,360.12C435.38,374.22,424.48,383.39,413.32,380.68Z" transform="translate(0 0)"/><path class="a5f1bae2-9071-4cf6-adc9-47f036143816" d="M416.26,380.76l-82.61-20.2c-9.33-2.27-15.32-14.27-13.53-26.83l45.26-308c1.79-12.61,11-23,20.66-23.21L471.89.68c17.43,4.1,23.42,11.92,21.4,26l-49,333.7C442.27,374.44,436.47,381.35,416.26,380.76Z" transform="translate(0 0)"/><path class="aedfdf66-a57d-45ad-94c7-97b56c08b920" d="M410.2,379.92l-82.43-20.09c-9.31-2.26-15.28-14.25-13.5-26.8L359.51,25c1.79-12.6,10.95-23,20.62-23.18L465.77.07c11.54-.24,19.43,11,17.41,25.12L434.1,359.41C432.09,373.46,421.3,382.62,410.2,379.92Z" transform="translate(0 0)"/><path class="a55515f0-9b5a-4128-89d9-e08d0b482763" d="M439.29,25.62H408.87c-1.12,0-1.85-1.15-1.65-2.58h0a2.82,2.82,0,0,1,2.38-2.58l30.45-.1c1.18,0,2,1.18,1.76,2.65h0A2.91,2.91,0,0,1,439.29,25.62Z" transform="translate(0 0)"/><path class="a55515f0-9b5a-4128-89d9-e08d0b482763" d="M401.88,23a2.78,2.78,0,0,1-2.36,2.56c-1.09,0-1.81-1.15-1.61-2.56a2.79,2.79,0,0,1,2.35-2.56C401.38,20.44,402.08,21.56,401.88,23Z" transform="translate(0 0)"/><path xmlns="http://www.w3.org/2000/svg" class="ab8ff63c-9f8a-49af-8919-51dd8ab542ef" d="M381,348.44c-1,7-6.2,11.7-11.55,10.45s-8.77-7.82-7.79-14.71,6.05-11.6,11.38-10.49S382,341.42,381,348.44Z" transform="translate(-0.62 -0.44)"/><path class="a55515f0-9b5a-4128-89d9-e08d0b482763" d="M427.38,331.24,326.68,311.5c-2.07-.41-3.41-3-3-5.82l38.84-262.9c.4-2.81,2.43-5.07,4.55-5l103.31,1.33c2.58,0,4.31,2.59,3.87,5.71L432.69,326.5C432.25,329.61,429.84,331.73,427.38,331.24Z" transform="translate(0 0)"/><path class="a0d11d78-9c63-456c-a9d4-a26c649a8ce4" d="M471.65,60.89l2.6-16.07c.44-3.12-1.29-5.67-3.87-5.71L367.06,37.74c-2.12,0-4.15,2.23-4.55,5L360.2,57.25Z" transform="translate(0 0)"/><g class="b88cf576-4947-4e68-a284-ea844085a8d0"><path class="a55515f0-9b5a-4128-89d9-e08d0b482763" d="M357.21,80.06,323.67,305.68c-.4,2.81.94,5.41,3,5.82l100.71,19.74c2.51.49,4.92-1.63,5.36-4.74L468.38,86.13Z" transform="translate(0 0)"/><polygon class="bc9e79a0-7953-4498-add9-cdc15e5c4256" points="437.42 277.99 437.07 280.86 433.97 280.55 440.31 228.95 433.65 230.58 430.15 258.87 428.84 258.79 428.49 261.61 426.05 261.44 422.17 292.57 420.88 292.41 425.11 258.51 406.79 258.46 406.41 261.41 405.79 261.37 403.84 276.66 402.25 276.5 403.77 264.64 402.81 264.57 403.79 256.91 398.15 256.57 397.18 264.15 396.14 264.07 397.59 252.84 397.4 252.82 395.95 264.05 394.18 263.92 394.26 263.3 393.89 263.27 394.19 259.38 394.02 259.37 393.32 263.23 392.94 263.2 391.59 273.64 389.7 273.46 389.82 260.81 390.33 249.5 385.43 249.22 386.22 243.21 384.46 243.15 383.68 249.09 382.47 248.99 380.27 260.68 379.92 260.66 379.78 261.76 379.3 262.8 376.38 285.03 374.48 284.8 376.12 272.34 375.41 272.27 376.01 267.72 375.56 267.69 375.83 263.7 375.63 263.68 374.86 267.63 374.41 267.59 373.81 272.12 373.44 272.09 373.79 269.47 372.43 269.35 373.72 259.64 371.48 259.49 372.21 253.94 371.44 253.9 371.85 250.87 371.14 250.83 371.18 250.52 370.89 250.5 370.97 249.94 370.44 249.91 371 245.71 369.81 245.66 369.25 249.86 368.73 249.83 368.65 250.39 368.37 250.38 368.32 250.69 367.63 250.65 367.23 253.65 366.37 253.6 366.76 250.66 365.56 250.6 365.17 253.53 362.91 253.4 362.47 256.71 361.28 256.64 364.27 234.46 361.95 234.41 361.06 241.04 356.57 240.9 351.76 273.43 346.17 275.32 349.91 247.96 347.86 247.86 348.44 243.65 347.49 243.61 346.92 247.81 343.13 247.63 341.03 262.94 340.33 263.73 340.52 262.32 338 262.12 338.77 256.53 338.31 256.5 339.11 248.87 338.91 248.86 337.61 256.45 337.15 256.42 336.38 261.99 335.75 261.94 335.84 261.3 334.39 261.18 328.97 284.76 331.27 268.17 326.44 267.63 319.8 315.18 433.25 338.69 440.62 278.29 437.42 277.99"/></g><path class="e113e65c-a8e1-4341-97d9-28fdb322dae2" d="M376.73,50a1.61,1.61,0,0,0,1.42-1.38c.15-.77-.25-1.4-.89-1.41a1.63,1.63,0,0,0-1.41,1.38C375.7,49.4,376.1,50,376.73,50Z" transform="translate(0 0)"/><path class="e113e65c-a8e1-4341-97d9-28fdb322dae2" d="M372.59,50A1.6,1.6,0,0,0,374,48.61c.14-.76-.25-1.39-.88-1.4a1.6,1.6,0,0,0-1.41,1.35C371.57,49.35,372,50,372.59,50Z" transform="translate(0 0)"/><path class="e113e65c-a8e1-4341-97d9-28fdb322dae2" d="M368.48,49.93a1.61,1.61,0,0,0,1.4-1.37c.14-.76-.25-1.38-.87-1.39a1.59,1.59,0,0,0-1.4,1.37C367.46,49.3,367.86,49.92,368.48,49.93Z" transform="translate(0 0)"/><path class="e113e65c-a8e1-4341-97d9-28fdb322dae2" d="M385.12,50.14a1.63,1.63,0,0,0,1.44-1.39c.14-.77-.26-1.41-.9-1.41a1.63,1.63,0,0,0-1.44,1.39C384.07,49.5,384.47,50.14,385.12,50.14Z" transform="translate(0 0)"/><path class="e113e65c-a8e1-4341-97d9-28fdb322dae2" d="M380.91,50.09a1.62,1.62,0,0,0,1.47-1.38c.15-.77-.26-1.41-.9-1.42a1.64,1.64,0,0,0-1.42,1.39C379.87,49.45,380.27,50.08,380.91,50.09Z" transform="translate(0 0)"/><path class="e113e65c-a8e1-4341-97d9-28fdb322dae2" d="M415.9,48.45a.47.47,0,0,0,.32-.12.65.65,0,0,0,.16-.32.44.44,0,0,0,0-.32.29.29,0,0,0-.27-.13.4.4,0,0,0-.33.12.76.76,0,0,0-.17.32.44.44,0,0,0,0,.32A.33.33,0,0,0,415.9,48.45Z" transform="translate(0 0)"/><path class="e113e65c-a8e1-4341-97d9-28fdb322dae2" d="M415.38,51.14a.51.51,0,0,0-.33.13.7.7,0,0,0-.17.33.37.37,0,0,0,.05.31.29.29,0,0,0,.27.13.45.45,0,0,0,.33-.12.58.58,0,0,0,.16-.31.47.47,0,0,0,0-.33A.28.28,0,0,0,415.38,51.14Z" transform="translate(0 0)"/><path class="e113e65c-a8e1-4341-97d9-28fdb322dae2" d="M424.48,47a1.08,1.08,0,0,1,1.11.65,3.58,3.58,0,0,1,0,2l-.2,1a4.37,4.37,0,0,1-.78,1.89,1.65,1.65,0,0,1-1.35.62,1.09,1.09,0,0,1-1.1-.67,3.58,3.58,0,0,1,0-2l.19-1a4.23,4.23,0,0,1,.77-1.9A1.65,1.65,0,0,1,424.48,47Zm-1.69,3.69a2.89,2.89,0,0,0,0,1.37.64.64,0,0,0,.65.44,1,1,0,0,0,.82-.44,3.85,3.85,0,0,0,.52-1.43l.23-1.21A3.08,3.08,0,0,0,425,48a.63.63,0,0,0-.63-.46,1,1,0,0,0-.83.43,3.72,3.72,0,0,0-.5,1.41l-.24,1.23" transform="translate(0 0)"/><path class="e113e65c-a8e1-4341-97d9-28fdb322dae2" d="M420.5,46.72a1.1,1.1,0,0,1,1.1.65,3.59,3.59,0,0,1,0,2l-.2,1a4.29,4.29,0,0,1-.78,1.88,1.62,1.62,0,0,1-1.33.61,1.07,1.07,0,0,1-1.09-.66,3.58,3.58,0,0,1,0-2l.19-1a4.34,4.34,0,0,1,.76-1.89A1.64,1.64,0,0,1,420.5,46.72Zm-1.68,3.69a3.12,3.12,0,0,0,0,1.36.63.63,0,0,0,.64.44,1,1,0,0,0,.82-.44,3.67,3.67,0,0,0,.51-1.43l.24-1.21a2.76,2.76,0,0,0,0-1.34.62.62,0,0,0-.64-.45,1,1,0,0,0-.82.43,3.68,3.68,0,0,0-.5,1.4l-.24,1.24" transform="translate(0 0)"/><path class="e113e65c-a8e1-4341-97d9-28fdb322dae2" d="M412.63,46.26a1,1,0,0,1,1.08.64,3.55,3.55,0,0,1,0,1.94l-.2,1a4.12,4.12,0,0,1-.77,1.87,1.58,1.58,0,0,1-1.31.61,1.07,1.07,0,0,1-1.08-.65,3.77,3.77,0,0,1,0-2l.18-1a4.22,4.22,0,0,1,.76-1.87A1.62,1.62,0,0,1,412.63,46.26ZM411,49.92a3.07,3.07,0,0,0,0,1.35.62.62,0,0,0,.63.44,1,1,0,0,0,.81-.44,4,4,0,0,0,.51-1.42l.23-1.2a3,3,0,0,0,0-1.33.61.61,0,0,0-.64-.44.93.93,0,0,0-.81.42,3.69,3.69,0,0,0-.5,1.39L411,49.92" transform="translate(0 0)"/><path class="e113e65c-a8e1-4341-97d9-28fdb322dae2" d="M408.74,46a1,1,0,0,1,1.07.64,3.52,3.52,0,0,1,0,1.93l-.2,1a4.31,4.31,0,0,1-.76,1.87,1.59,1.59,0,0,1-1.31.6,1.06,1.06,0,0,1-1.07-.65,3.77,3.77,0,0,1,0-2l.18-1a4.22,4.22,0,0,1,.76-1.87A1.56,1.56,0,0,1,408.74,46Zm-1.65,3.64a2.8,2.8,0,0,0,0,1.35.62.62,0,0,0,.62.44,1,1,0,0,0,.8-.44,3.58,3.58,0,0,0,.51-1.41l.23-1.2a3,3,0,0,0,0-1.33.61.61,0,0,0-.63-.44.93.93,0,0,0-.8.43,3.58,3.58,0,0,0-.5,1.38l-.23,1.22" transform="translate(0 0)"/><polygon class="a2ff1a1a-cc65-4ebb-abe7-ad2c5adbc73d" points="458.49 53.01 459.81 46.29 451.66 46.24 450.36 52.91 458.49 53.01"/><path class="e113e65c-a8e1-4341-97d9-28fdb322dae2" d="M464.85,51.44l-.34,1.76a1.39,1.39,0,0,1-1.27,1.15l-13.13-.21a.89.89,0,0,1-.83-1,.78.78,0,0,1,0-.21l1.34-6.87A1.38,1.38,0,0,1,451.9,45l13.16.1a.88.88,0,0,1,.85.92.69.69,0,0,1,0,.25L465.53,48H466a.9.9,0,0,1,.86.94.93.93,0,0,1,0,.23l-.23,1.14a1.37,1.37,0,0,1-1.27,1.14Zm-5-5.15H451.7l-1.32,6.62,8.13.1,1.32-6.72" transform="translate(0 0)"/><path class="e113e65c-a8e1-4341-97d9-28fdb322dae2" d="M395.09,47.72A4.17,4.17,0,0,0,392.22,49a.64.64,0,0,0-.14.78.34.34,0,0,0,.29.16.52.52,0,0,0,.35-.16,3.15,3.15,0,0,1,2.16-.94,2.1,2.1,0,0,1,1.79,1,.4.4,0,0,0,.3.17.52.52,0,0,0,.35-.16.66.66,0,0,0,.15-.78A2.79,2.79,0,0,0,395.09,47.72Z" transform="translate(0 0)"/><path class="e113e65c-a8e1-4341-97d9-28fdb322dae2" d="M394.59,50.32a1.06,1.06,0,0,0-.68.25,1.49,1.49,0,0,0-.48,1.68.77.77,0,0,0,.7.46,1.11,1.11,0,0,0,.68-.25,1.47,1.47,0,0,0,.48-1.69A.76.76,0,0,0,394.59,50.32Z" transform="translate(0 0)"/><path class="e113e65c-a8e1-4341-97d9-28fdb322dae2" d="M395.64,44.86A6.8,6.8,0,0,0,390.92,47a.63.63,0,0,0-.15.77.34.34,0,0,0,.29.16.47.47,0,0,0,.35-.15,5.87,5.87,0,0,1,4-1.77,4,4,0,0,1,3.35,1.84.37.37,0,0,0,.29.17.48.48,0,0,0,.36-.16.66.66,0,0,0,.15-.78A4.66,4.66,0,0,0,395.64,44.86Z" transform="translate(0 0)"/><path class="e70aa9e2-84c0-48dc-9cb5-e90daae37876" d="M479.55,88.25h0A2.34,2.34,0,0,1,478,85.56l2.23-16.36c.17-1.32,1.16-2.22,2.19-2h0A2.38,2.38,0,0,1,484,70l-2.22,16.32A2,2,0,0,1,479.55,88.25Z" transform="translate(0 0)"/><path class="e70aa9e2-84c0-48dc-9cb5-e90daae37876" d="M475.86,115.41h0a2.3,2.3,0,0,1-1.55-2.71l2.22-16.36c.18-1.32,1.17-2.23,2.2-2h0a2.33,2.33,0,0,1,1.55,2.73l-2.22,16.32A2.12,2.12,0,0,1,475.86,115.41Z" transform="translate(0 0)"/><g class="a38d1af7-6f5f-4b6a-ae02-62895c2991ed"><path class="a0dd1d61-4e2b-4547-b47a-7bbe142ec01a" d="M377.21,111.56l-5.89,42.78Z" transform="translate(0 0)"/><polygon class="a0dd1d61-4e2b-4547-b47a-7bbe142ec01a" points="377.73 111.6 371.83 154.4 371.32 154.35 377.21 111.57 377.73 111.6"/><polygon class="e2433df1-7765-491b-aa85-81de528e82e9" points="378.25 111.63 372.34 154.45 371.83 154.4 377.73 111.6 378.25 111.63"/><polygon class="abfe0bf9-b3f7-4bd1-9800-d1be163a66de" points="378.76 111.66 372.85 154.5 372.34 154.45 378.25 111.63 378.76 111.66"/><polygon class="b97bb07a-30df-4570-8d9a-cea6d5b00251" points="379.28 111.69 373.36 154.55 372.85 154.5 378.76 111.66 379.28 111.69"/><polygon class="bdae78a4-3180-4359-ab47-bc481cd933fa" points="379.81 111.72 373.88 154.6 373.36 154.55 379.28 111.69 379.81 111.72"/><polygon class="f50a2923-04d6-40e2-b34d-aad1ac9ac420" points="380.32 111.75 374.39 154.66 373.88 154.6 379.81 111.72 380.32 111.75"/><polygon class="a4650833-51fe-48a3-ae4d-03bae35f752d" points="380.85 111.79 374.9 154.71 374.39 154.66 380.32 111.75 380.85 111.79"/><polygon class="beed88ad-c0f8-4a4a-a003-c7cae2ab4f30" points="381.37 111.82 375.42 154.76 374.9 154.71 380.85 111.79 381.37 111.82"/><polygon class="f0d09156-dff6-414d-8a52-d789b1566dd5" points="381.89 111.85 375.93 154.81 375.42 154.76 381.37 111.82 381.89 111.85"/><polygon class="b523cda1-613f-4bf0-863b-610e223a9940" points="382.41 111.88 376.45 154.87 375.93 154.81 381.89 111.85 382.41 111.88"/><polygon class="e8d2c33c-74a0-47bd-9363-df63cc168642" points="382.94 111.91 376.96 154.92 376.45 154.87 382.41 111.88 382.94 111.91"/><polygon class="aa45caa5-c33c-4278-ab07-7fcb05344189" points="383.46 111.95 377.48 154.97 376.96 154.92 382.94 111.91 383.46 111.95"/><polygon class="bf522e7e-9d5f-45fa-acbd-db3cb6cb8e37" points="383.99 111.98 378 155.02 377.48 154.97 383.46 111.95 383.99 111.98"/><polygon class="ad662a23-10a0-4566-9606-dcac30f02d3d" points="384.51 112.01 378.52 155.07 378 155.02 383.99 111.98 384.51 112.01"/><polygon class="b144152e-d798-40f4-bbee-d2056e7d729c" points="385.04 112.04 379.03 155.13 378.52 155.07 384.51 112.01 385.04 112.04"/><polygon class="acc62d47-cb75-40f6-9cdb-f7addc37d993" points="385.56 112.07 379.55 155.18 379.03 155.13 385.04 112.04 385.56 112.07"/><polygon class="b89ef94e-d93c-46d7-8ebc-a35434cc5621" points="386.09 112.11 380.07 155.23 379.55 155.18 385.56 112.07 386.09 112.11"/><polygon class="ae9b6652-e031-46a9-9a32-9a1fe19e4d27" points="386.61 112.14 380.59 155.29 380.07 155.23 386.09 112.11 386.61 112.14"/><polygon class="a0a8cab6-dec6-40fb-816d-04e9aeae145f" points="387.14 112.17 381.11 155.34 380.59 155.29 386.61 112.14 387.14 112.17"/><polygon class="ae74c230-07dd-403d-bccf-e2830e6235c6" points="387.67 112.2 381.63 155.39 381.11 155.34 387.14 112.17 387.67 112.2"/><polygon class="eca9f45f-1d05-4bb8-89b0-7eba4880096d" points="388.2 112.23 382.15 155.44 381.63 155.39 387.67 112.2 388.2 112.23"/><polygon class="bedc2e54-e2dd-4a20-88aa-3137c2480db3" points="388.73 112.27 382.67 155.5 382.15 155.44 388.2 112.23 388.73 112.27"/><polygon class="becb0b45-2670-480e-bb8a-7a4daa5cd573" points="389.26 112.3 383.19 155.55 382.67 155.5 388.73 112.27 389.26 112.3"/><polygon class="fcdac6d7-1ab7-48f8-8e34-ef9db3d00373" points="389.79 112.33 383.72 155.6 383.19 155.55 389.26 112.3 389.79 112.33"/><polygon class="afa06cc1-4096-4779-93d3-811dc2b93f56" points="390.32 112.36 384.24 155.66 383.72 155.6 389.79 112.33 390.32 112.36"/><polygon class="a4aa827b-9927-4bd9-8b10-3e32a6d79a52" points="390.85 112.39 384.76 155.71 384.24 155.66 390.32 112.36 390.85 112.39"/><polygon class="ecce4cb1-95c0-40a3-9c43-9f08c5c4daa7" points="391.38 112.42 385.29 155.76 384.76 155.71 390.85 112.39 391.38 112.42"/><polygon class="f4d75892-cea3-45e7-a71b-774918a08dd5" points="391.91 112.46 385.81 155.81 385.29 155.76 391.38 112.42 391.91 112.46"/><polygon class="e55c8f2d-e2d2-4823-851f-fc990ee841f0" points="392.44 112.49 386.34 155.87 385.81 155.81 391.91 112.46 392.44 112.49"/><polygon class="a5c28242-a0fe-4b4d-8dc9-48b8875680bf" points="392.98 112.52 386.86 155.92 386.34 155.87 392.44 112.49 392.98 112.52"/><polygon class="fd574880-8a58-444f-ac58-dab0926d9182" points="393.51 112.56 387.39 155.97 386.86 155.92 392.98 112.52 393.51 112.56"/><polygon class="bf1ff058-64de-4524-94c3-12daeab8b66f" points="394.04 112.59 387.92 156.03 387.39 155.97 393.51 112.56 394.04 112.59"/><polygon class="a708ca53-ee16-466c-bc27-3205b31e5361" points="394.58 112.62 388.44 156.08 387.92 156.03 394.04 112.59 394.58 112.62"/><polygon class="aa5edf3a-20bf-4498-8893-53722f94750f" points="395.11 112.65 388.97 156.13 388.44 156.08 394.58 112.62 395.11 112.65"/><polygon class="e60664f0-cb57-48e9-bc65-dbb7f3ba9f1c" points="395.65 112.69 389.5 156.19 388.97 156.13 395.11 112.65 395.65 112.69"/><polygon class="b5eb9d61-e4bd-4b03-a047-0c764d4a49a5" points="396.19 112.72 390.03 156.24 389.5 156.19 395.65 112.69 396.19 112.72"/><polygon class="afe82850-5dab-4e14-b17b-36210874ba6c" points="396.72 112.75 390.56 156.3 390.03 156.24 396.19 112.72 396.72 112.75"/><polygon class="fa034b1b-7bd0-418d-ab85-7be0b7dc49f6" points="397.26 112.78 391.08 156.35 390.56 156.3 396.72 112.75 397.26 112.78"/><polygon class="bbe335d1-b982-4039-a7a2-63cf9742c9da" points="397.8 112.81 391.62 156.4 391.08 156.35 397.26 112.78 397.8 112.81"/><polygon class="eb234e2e-b12b-4eb2-9298-b633b70150a2" points="398.34 112.85 392.15 156.46 391.62 156.4 397.8 112.81 398.34 112.85"/><polygon class="ae487ebf-4e2a-4761-8069-91f368b0c095" points="398.88 112.88 392.68 156.51 392.15 156.46 398.34 112.85 398.88 112.88"/><polygon class="bb3b7105-120c-4927-bab8-5730f64f3a87" points="399.42 112.91 393.21 156.56 392.68 156.51 398.88 112.88 399.42 112.91"/><polygon class="a0b90879-05e7-4ac0-a82c-8a369ca29289" points="399.95 112.94 393.74 156.62 393.21 156.56 399.42 112.91 399.95 112.94"/><polygon class="f025ac66-aaa8-47ff-8cb0-3e09c5a86baf" points="400.5 112.98 394.27 156.67 393.74 156.62 399.95 112.94 400.5 112.98"/><polygon class="bdcc7627-c83b-4d74-8135-94b0e73865d5" points="401.04 113.01 394.81 156.73 394.27 156.67 400.5 112.98 401.04 113.01"/><polygon class="e6584451-33cc-46b1-87d3-3e3b511ef697" points="401.58 113.04 395.34 156.78 394.81 156.73 401.04 113.01 401.58 113.04"/><polygon class="bfd32461-5e76-45e8-981d-2a35493ff379" points="402.12 113.08 395.88 156.84 395.34 156.78 401.58 113.04 402.12 113.08"/><polygon class="ef7776a2-121d-4d16-a996-50c2d7c73673" points="402.66 113.11 396.41 156.89 395.88 156.84 402.12 113.08 402.66 113.11"/><polygon class="afc64b23-c473-4e89-85d5-275097e5f648" points="403.21 113.14 396.95 156.94 396.41 156.89 402.66 113.11 403.21 113.14"/><polygon class="babfc90b-3ea9-4772-bb7d-3f56a6444af0" points="403.75 113.17 397.48 157 396.95 156.94 403.21 113.14 403.75 113.17"/><polygon class="e78dad05-0e21-4b43-88e2-2144f4f29755" points="404.3 113.21 398.02 157.05 397.48 157 403.75 113.17 404.3 113.21"/><polygon class="b9f79e75-b670-4a1a-9359-c040d19022ee" points="404.84 113.24 398.56 157.11 398.02 157.05 404.3 113.21 404.84 113.24"/><polygon class="b0b8feac-969f-42f4-a556-d42bb8b4d07e" points="405.38 113.28 399.09 157.16 398.56 157.11 404.84 113.24 405.38 113.28"/><polygon class="b6927756-4126-43cf-a71e-d05d3cbb11a0" points="405.93 113.31 399.63 157.22 399.09 157.16 405.38 113.28 405.93 113.31"/><polygon class="ff4ef002-29f7-41dd-859c-94963eb1fc54" points="406.48 113.34 400.17 157.27 399.63 157.22 405.93 113.31 406.48 113.34"/><polygon class="ac34da56-f7ee-4622-9d47-5a767a12ad1b" points="407.02 113.37 400.71 157.32 400.17 157.27 406.48 113.34 407.02 113.37"/><polygon class="f78afb24-e240-4049-87f2-8597f0004d29" points="407.57 113.41 401.25 157.38 400.71 157.32 407.02 113.37 407.57 113.41"/><polygon class="af4dfbf3-6ed9-48c3-9d77-5a58372e6aba" points="408.12 113.44 401.79 157.44 401.25 157.38 407.57 113.41 408.12 113.44"/><polygon class="aa83fa2c-24af-4637-93d0-7471fc3ae081" points="408.67 113.47 402.33 157.49 401.79 157.44 408.12 113.44 408.67 113.47"/><polygon class="afea1055-a3f8-405b-aea6-18b82ea19fdc" points="409.22 113.51 402.87 157.54 402.33 157.49 408.67 113.47 409.22 113.51"/><polygon class="bdcc6d1b-56f9-41cc-8f21-0d7b3a91500f" points="409.77 113.54 403.41 157.6 402.87 157.54 409.22 113.51 409.77 113.54"/><polygon class="bb72ec52-8e7c-4b4a-81c0-f50cd565b5b4" points="410.32 113.57 403.95 157.66 403.41 157.6 409.77 113.54 410.32 113.57"/><polygon class="bb72ec52-8e7c-4b4a-81c0-f50cd565b5b4" points="410.87 113.61 404.5 157.71 403.95 157.66 410.32 113.57 410.87 113.61"/><polygon class="bec01282-c555-4bc7-8321-25da3ebe7a06" points="411.42 113.64 405.04 157.76 404.5 157.71 410.87 113.61 411.42 113.64"/><polygon class="bb54f57a-4a40-404a-9ba1-f4bd912c31ed" points="411.97 113.67 405.59 157.82 405.04 157.76 411.42 113.64 411.97 113.67"/><polygon class="abd37073-01f6-490e-9bf8-baf4dc2b9724" points="412.53 113.71 406.13 157.88 405.59 157.82 411.97 113.67 412.53 113.71"/><polygon class="f036ca80-d0a8-42ad-b1e1-366b09bd518e" points="413.08 113.74 406.68 157.93 406.13 157.88 412.53 113.71 413.08 113.74"/><polygon class="f036ca80-d0a8-42ad-b1e1-366b09bd518e" points="413.63 113.77 407.22 157.99 406.68 157.93 413.08 113.74 413.63 113.77"/><polygon class="a16e4b3d-36e0-452a-af01-c25e9046c092" points="414.19 113.81 407.77 158.04 407.22 157.99 413.63 113.77 414.19 113.81"/><polygon class="aca3553b-adf6-4701-8e92-ed2ed89c0f3e" points="414.74 113.84 408.31 158.1 407.77 158.04 414.19 113.81 414.74 113.84"/><polygon class="aca3553b-adf6-4701-8e92-ed2ed89c0f3e" points="415.3 113.88 408.86 158.15 408.31 158.1 414.74 113.84 415.3 113.88"/><polygon class="afcafdf6-edc4-4723-8d2f-68be939c3cdb" points="415.85 113.91 409.41 158.21 408.86 158.15 415.3 113.88 415.85 113.91"/><polygon class="ec01e395-8ccb-4e91-8530-8f17338a570b" points="416.41 113.94 409.96 158.26 409.41 158.21 415.85 113.91 416.41 113.94"/><polygon class="ec01e395-8ccb-4e91-8530-8f17338a570b" points="416.97 113.98 410.51 158.32 409.96 158.26 416.41 113.94 416.97 113.98"/><polygon class="e8950094-a513-47a9-9c62-5516d4c99a16" points="417.52 114.01 411.06 158.38 410.51 158.32 416.97 113.98 417.52 114.01"/><polygon class="be2abf2a-8f76-4c61-bd12-74bce63128df" points="418.08 114.04 411.61 158.43 411.06 158.38 417.52 114.01 418.08 114.04"/><polygon class="bb6d1a13-08ec-4dd6-a991-e912be7f7c37" points="418.64 114.08 412.16 158.49 411.61 158.43 418.08 114.04 418.64 114.08"/><polygon class="e5459f01-1cf0-4806-8e2e-ab1c05fcf287" points="419.2 114.11 412.71 158.54 412.16 158.49 418.64 114.08 419.2 114.11"/><polygon class="e5459f01-1cf0-4806-8e2e-ab1c05fcf287" points="419.76 114.15 413.26 158.6 412.71 158.54 419.2 114.11 419.76 114.15"/><polygon class="ba496e6f-bc03-4861-86b8-0b64d5974412" points="420.32 114.18 413.81 158.65 413.26 158.6 419.76 114.15 420.32 114.18"/><polygon class="a7fcb925-925a-4110-93b9-3598c12e3dd6" points="420.88 114.21 414.36 158.71 413.81 158.65 420.32 114.18 420.88 114.21"/><polygon class="e6aaa7c5-3ebd-4a95-8e51-65af1b78e3bd" points="421.44 114.25 414.92 158.77 414.36 158.71 420.88 114.21 421.44 114.25"/><polygon class="e6aaa7c5-3ebd-4a95-8e51-65af1b78e3bd" points="422.01 114.28 415.47 158.82 414.92 158.77 421.44 114.25 422.01 114.28"/><polygon class="b020e3af-f98b-4baf-aa20-9c2efc1c9098" points="422.57 114.32 416.02 158.88 415.47 158.82 422.01 114.28 422.57 114.32"/><polygon class="add48a21-ab50-456d-98cc-6ed1ffc6f43c" points="423.13 114.35 416.58 158.94 416.02 158.88 422.57 114.32 423.13 114.35"/><polygon class="add48a21-ab50-456d-98cc-6ed1ffc6f43c" points="423.7 114.39 417.14 158.99 416.58 158.94 423.13 114.35 423.7 114.39"/><polygon class="b3359a12-0053-497c-a8ec-94f91ff0f4b8" points="424.26 114.42 417.69 159.05 417.14 158.99 423.7 114.39 424.26 114.42"/><polygon class="b3359a12-0053-497c-a8ec-94f91ff0f4b8" points="424.82 114.45 418.25 159.1 417.69 159.05 424.26 114.42 424.82 114.45"/><polygon class="b1c6cf50-c65f-4348-8ca3-cf398163970d" points="425.39 114.49 418.81 159.16 418.25 159.1 424.82 114.45 425.39 114.49"/><polygon class="ff4188ba-e52b-40ae-87ed-f0bcb7a7b057" points="425.96 114.52 419.36 159.22 418.81 159.16 425.39 114.49 425.96 114.52"/><polygon class="ff4188ba-e52b-40ae-87ed-f0bcb7a7b057" points="426.52 114.56 419.92 159.27 419.36 159.22 425.96 114.52 426.52 114.56"/><polygon class="e3aa8a67-fac2-45a1-b770-1a7cfc4b3fa6" points="427.09 114.59 420.48 159.33 419.92 159.27 426.52 114.56 427.09 114.59"/><polygon class="f697b81b-d077-44d9-af22-2170cde49e9e" points="427.66 114.63 421.04 159.39 420.48 159.33 427.09 114.59 427.66 114.63"/><polygon class="f697b81b-d077-44d9-af22-2170cde49e9e" points="428.23 114.66 421.6 159.44 421.04 159.39 427.66 114.63 428.23 114.66"/><polygon class="f697b81b-d077-44d9-af22-2170cde49e9e" points="428.8 114.69 422.16 159.5 421.6 159.44 428.23 114.66 428.8 114.69"/><polygon class="b0a7d7f1-fc8b-4918-b588-c64469c76ce6" points="429.37 114.73 422.72 159.56 422.16 159.5 428.8 114.69 429.37 114.73"/><polygon class="b0a7d7f1-fc8b-4918-b588-c64469c76ce6" points="429.94 114.76 423.28 159.61 422.72 159.56 429.37 114.73 429.94 114.76"/><polygon class="b0a7d7f1-fc8b-4918-b588-c64469c76ce6" points="430.51 114.8 423.85 159.67 423.28 159.61 429.94 114.76 430.51 114.8"/><polygon class="ac0d6519-e49b-4885-aee2-7aaab395f16c" points="431.08 114.83 424.41 159.73 423.85 159.67 430.51 114.8 431.08 114.83"/><polygon class="ac0d6519-e49b-4885-aee2-7aaab395f16c" points="431.65 114.87 424.97 159.79 424.41 159.73 431.08 114.83 431.65 114.87"/><polygon class="ac0d6519-e49b-4885-aee2-7aaab395f16c" points="432.22 114.9 425.54 159.84 424.97 159.79 431.65 114.87 432.22 114.9"/><polygon class="ef088632-b058-4710-8d7e-f417bb05fdfa" points="432.8 114.94 426.1 159.9 425.54 159.84 432.22 114.9 432.8 114.94"/><polygon class="ef088632-b058-4710-8d7e-f417bb05fdfa" points="433.37 114.97 426.67 159.96 426.1 159.9 432.8 114.94 433.37 114.97"/><polygon class="ef088632-b058-4710-8d7e-f417bb05fdfa" points="433.94 115.01 427.23 160.01 426.67 159.96 433.37 114.97 433.94 115.01"/><polygon class="ef088632-b058-4710-8d7e-f417bb05fdfa" points="434.52 115.04 427.8 160.07 427.23 160.01 433.94 115.01 434.52 115.04"/><polygon class="ef088632-b058-4710-8d7e-f417bb05fdfa" points="435.1 115.08 428.37 160.13 427.8 160.07 434.52 115.04 435.1 115.08"/><polygon class="ef088632-b058-4710-8d7e-f417bb05fdfa" points="435.67 115.11 428.93 160.19 428.37 160.13 435.1 115.08 435.67 115.11"/><polygon class="ef088632-b058-4710-8d7e-f417bb05fdfa" points="436.25 115.14 429.5 160.25 428.93 160.19 435.67 115.11 436.25 115.14"/><polygon class="ef088632-b058-4710-8d7e-f417bb05fdfa" points="436.82 115.18 430.07 160.3 429.5 160.25 436.25 115.14 436.82 115.18"/><polygon class="ef088632-b058-4710-8d7e-f417bb05fdfa" points="437.4 115.22 430.64 160.36 430.07 160.3 436.82 115.18 437.4 115.22"/><path class="ef088632-b058-4710-8d7e-f417bb05fdfa" d="M430.64,160.36l6.74-45.14Z" transform="translate(0 0)"/></g><path class="a55515f0-9b5a-4128-89d9-e08d0b482763" d="M389.47,122.48l-2.82-.19-1.33,9.54-1.14-.1,1.33-9.52-2.79-.2.16-1.15,6.75.47Z" transform="translate(0 0)"/><path class="a55515f0-9b5a-4128-89d9-e08d0b482763" d="M396.83,132.74l-1.18-.1.71-5-4.46-.33-.7,5-1.16-.09,1.51-10.74,1.17.08-.66,4.63,4.46.32.66-4.64,1.19.08Z" transform="translate(0 0)"/><path class="a55515f0-9b5a-4128-89d9-e08d0b482763" d="M405,130.56l-3.77-.29L400,133l-1.21-.1,5-10.59,1,.07,1.9,11.15-1.23-.1Zm-3.24-1.43,3.06.23-.81-5.2Z" transform="translate(0 0)"/><path class="a55515f0-9b5a-4128-89d9-e08d0b482763" d="M415.58,134.22l-1.22-.1L411,125.34l-1.22,8.42-1.21-.1,1.58-10.92,1.21.09,3.39,8.82,1.24-8.51,1.21.09Z" transform="translate(0 0)"/><path class="a55515f0-9b5a-4128-89d9-e08d0b482763" d="M421.5,129.5l-1.34,1.31-.55,3.73-1.22-.1,1.61-11,1.23.09-.8,5.46,4.95-5.18,1.49.11-4.4,4.63,3,6.47-1.48-.11Z" transform="translate(0 0)"/><path class="a55515f0-9b5a-4128-89d9-e08d0b482763" d="M392.52,142.46l3.08-5.19,1.32.11-4,6.47-.57,4-1.16-.11.56-4-2.08-7,1.33.11Z" transform="translate(0 0)"/><path class="a55515f0-9b5a-4128-89d9-e08d0b482763" d="M404.59,143.86a8.23,8.23,0,0,1-.84,2.74,4.17,4.17,0,0,1-1.52,1.68,3.13,3.13,0,0,1-2,.45,2.84,2.84,0,0,1-1.78-.8,3.74,3.74,0,0,1-1-1.89,7.54,7.54,0,0,1-.08-2.72l.11-.78a8.24,8.24,0,0,1,.84-2.7,4.35,4.35,0,0,1,1.52-1.72,3.13,3.13,0,0,1,2-.48,2.88,2.88,0,0,1,1.82.79,3.68,3.68,0,0,1,1,1.93,7.86,7.86,0,0,1,0,2.82Zm-1.08-.8a5.48,5.48,0,0,0-.22-3,1.88,1.88,0,0,0-1.64-1.19,2.16,2.16,0,0,0-1.91.88,5.86,5.86,0,0,0-1.07,2.79l-.11.8a5.39,5.39,0,0,0,.23,3,1.87,1.87,0,0,0,1.59,1.22,2,2,0,0,0,1.91-.84,5.84,5.84,0,0,0,1.09-2.86Z" transform="translate(0 0)"/><path class="a55515f0-9b5a-4128-89d9-e08d0b482763" d="M414.27,138.83l-1.08,7.42A4.14,4.14,0,0,1,412,148.7a3.28,3.28,0,0,1-2.34.9h-.32a2.92,2.92,0,0,1-2.24-1.18,3.72,3.72,0,0,1-.51-2.72l1.07-7.4,1.18.1-1.06,7.36a2.73,2.73,0,0,0,.27,1.88,1.83,1.83,0,0,0,1.46.79,2,2,0,0,0,1.65-.51,3,3,0,0,0,.81-1.78l1.08-7.39Z" transform="translate(0 0)"/><g class="bb364138-c1ae-4da7-8818-383b455f093a"><path class="b20a4b52-d66b-443c-aedb-a8f5182eb3b2" d="M369,171.46l-7.81,56.72Z" transform="translate(0 0)"/><polygon class="b20a4b52-d66b-443c-aedb-a8f5182eb3b2" points="369.47 171.52 361.65 228.27 361.15 228.18 368.96 171.46 369.47 171.52"/><polygon class="b453191e-f825-413d-a63a-3c349ac1d12f" points="369.99 171.58 362.16 228.36 361.65 228.27 369.47 171.52 369.99 171.58"/><polygon class="a22c38c3-4a6a-4772-853b-1d4c9ceb16df" points="370.5 171.64 362.66 228.44 362.16 228.36 369.99 171.58 370.5 171.64"/><polygon class="e1201943-799d-47a4-9a83-e6f69c6bc03a" points="371.01 171.71 363.17 228.53 362.66 228.44 370.5 171.64 371.01 171.71"/><polygon class="a72d5cff-421a-4ba1-8851-ec2cbae99afb" points="371.53 171.76 363.67 228.62 363.17 228.53 371.01 171.71 371.53 171.76"/><polygon class="f17b84f3-af64-4f7f-85ef-c7fde3957046" points="372.04 171.83 364.18 228.71 363.67 228.62 371.53 171.76 372.04 171.83"/><polygon class="b22c7133-dbd9-4673-bc61-c9eee97fc9bf" points="372.56 171.89 364.68 228.79 364.18 228.71 372.04 171.83 372.56 171.89"/><polygon class="ae65f67c-284d-4ac3-8fac-28984607053c" points="373.08 171.95 365.19 228.88 364.68 228.79 372.56 171.89 373.08 171.95"/><polygon class="f52a81e2-3603-47a8-a345-6ce2e19c7d7f" points="373.59 172.01 365.69 228.97 365.19 228.88 373.08 171.95 373.59 172.01"/><polygon class="a4db65e1-1c14-41db-9718-7d9756043f88" points="374.11 172.07 366.2 229.06 365.69 228.97 373.59 172.01 374.11 172.07"/><polygon class="e8a62840-01fb-435c-977c-64447fb468a2" points="374.63 172.13 366.71 229.14 366.2 229.06 374.11 172.07 374.63 172.13"/><polygon class="b118c12f-fd02-4618-b587-504368434f26" points="375.15 172.19 367.22 229.23 366.71 229.14 374.63 172.13 375.15 172.19"/><polygon class="a2ae2e3f-a6a2-48a1-8a41-7e10410de3b0" points="375.66 172.25 367.73 229.32 367.22 229.23 375.15 172.19 375.66 172.25"/><polygon class="a3b4e4d7-6be5-4546-85ca-9be4ba94cdad" points="376.18 172.31 368.24 229.41 367.73 229.32 375.66 172.25 376.18 172.31"/><polygon class="a7179b78-4f4f-4ac7-8b7c-f06c23f5120c" points="376.7 172.38 368.75 229.5 368.24 229.41 376.18 172.31 376.7 172.38"/><polygon class="f56654a4-c2f8-4cb7-92c8-de90689ba65c" points="377.22 172.44 369.26 229.58 368.75 229.5 376.7 172.38 377.22 172.44"/><polygon class="bfa7fb5f-f3f1-4969-bbf9-b61948540569" points="377.74 172.5 369.77 229.67 369.26 229.58 377.22 172.44 377.74 172.5"/><polygon class="ad3d9623-f5c8-4123-9136-915fbf2e0495" points="378.27 172.56 370.28 229.76 369.77 229.67 377.74 172.5 378.27 172.56"/><polygon class="a7c3e3db-d500-462d-8aef-290c69300d01" points="378.79 172.62 370.79 229.85 370.28 229.76 378.27 172.56 378.79 172.62"/><polygon class="f35a4d83-d111-411b-84c6-9f8821457235" points="379.31 172.68 371.3 229.94 370.79 229.85 378.79 172.62 379.31 172.68"/><polygon class="af4e105d-444a-4d8c-a44a-bcab7b7b996c" points="379.83 172.74 371.82 230.03 371.3 229.94 379.31 172.68 379.83 172.74"/><polygon class="eb732507-3fef-4a46-8456-a7f7d1236c4e" points="380.36 172.81 372.33 230.11 371.82 230.03 379.83 172.74 380.36 172.81"/><polygon class="b6083f84-533f-48e2-a834-45c4dbfff388" points="380.88 172.87 372.84 230.2 372.33 230.11 380.36 172.81 380.88 172.87"/><polygon class="bc8e1245-4032-4a48-bc13-309a263e80b2" points="381.4 172.93 373.36 230.29 372.84 230.2 380.88 172.87 381.4 172.93"/><polygon class="b61be725-b6c1-407c-84e8-164becffd330" points="381.93 172.99 373.87 230.38 373.36 230.29 381.4 172.93 381.93 172.99"/><polygon class="bd0504c9-bcf4-4423-a643-b78a50b1b558" points="382.45 173.05 374.39 230.47 373.87 230.38 381.93 172.99 382.45 173.05"/><polygon class="ba13bc78-dce4-4c1e-bda4-d9834f6c2c32" points="382.98 173.12 374.9 230.56 374.39 230.47 382.45 173.05 382.98 173.12"/><polygon class="fd2a6c16-1aea-4bee-98ab-b5b0746cb69f" points="383.51 173.18 375.42 230.65 374.9 230.56 382.98 173.12 383.51 173.18"/><polygon class="b49693cc-8cd1-4ede-b140-9f2b3f1c37b1" points="384.03 173.24 375.94 230.74 375.42 230.65 383.51 173.18 384.03 173.24"/><polygon class="aa41e65e-e91b-4e44-9627-462edf27fdb9" points="384.56 173.3 376.45 230.83 375.94 230.74 384.03 173.24 384.56 173.3"/><polygon class="b0e572de-d2f3-4bc0-b43f-ae4c7ccdb903" points="385.09 173.36 376.97 230.92 376.45 230.83 384.56 173.3 385.09 173.36"/><polygon class="ba97962d-af3f-46a7-afcc-fcc95aab221b" points="385.62 173.43 377.49 231.01 376.97 230.92 385.09 173.36 385.62 173.43"/><polygon class="abd7a876-cf26-4035-a331-4763ef4183e4" points="386.15 173.49 378.01 231.1 377.49 231.01 385.62 173.43 386.15 173.49"/><polygon class="a6adc5f1-3fbb-40c8-9c47-8217c7cc5aba" points="386.68 173.55 378.53 231.19 378.01 231.1 386.15 173.49 386.68 173.55"/><polygon class="bb070188-f95b-4581-b986-12739710bf91" points="387.2 173.61 379.05 231.28 378.53 231.19 386.68 173.55 387.2 173.61"/><polygon class="b6ee848c-5239-45c3-9ac0-d2103b36e0fb" points="387.74 173.68 379.57 231.37 379.05 231.28 387.2 173.61 387.74 173.68"/><polygon class="f3bccba0-664c-44a4-ab68-4f2ce76e42ac" points="388.27 173.74 380.09 231.46 379.57 231.37 387.74 173.68 388.27 173.74"/><polygon class="aba869c2-d526-4d86-b65e-6df69e565247" points="388.8 173.8 380.61 231.55 380.09 231.46 388.27 173.74 388.8 173.8"/><polygon class="aae080fe-90fd-4a44-ab54-2a2b8e462ddd" points="389.33 173.86 381.13 231.64 380.61 231.55 388.8 173.8 389.33 173.86"/><polygon class="ec4cdd68-32cb-4450-bc5d-cf7c460df8db" points="389.86 173.93 381.66 231.73 381.13 231.64 389.33 173.86 389.86 173.93"/><polygon class="b78e8098-ce18-4e47-8e71-e8d697dc7d1b" points="390.4 173.99 382.18 231.82 381.66 231.73 389.86 173.93 390.4 173.99"/><polygon class="e023f818-75c5-4439-9f0c-a6c9496ecdd9" points="390.93 174.05 382.7 231.91 382.18 231.82 390.4 173.99 390.93 174.05"/><polygon class="ef75bd20-8763-4303-8ec8-4379da2c7ff6" points="391.46 174.11 383.23 232 382.7 231.91 390.93 174.05 391.46 174.11"/><polygon class="ad06980c-fb46-4057-8431-20c3fad0a10c" points="392 174.18 383.75 232.09 383.23 232 391.46 174.11 392 174.18"/><polygon class="e101a4d8-66cc-4b96-ae00-39657a7c3003" points="392.54 174.24 384.28 232.18 383.75 232.09 392 174.18 392.54 174.24"/><polygon class="a042c1fe-bbd1-4932-a079-02a00cb58a40" points="393.07 174.3 384.8 232.27 384.28 232.18 392.54 174.24 393.07 174.3"/><polygon class="bee3e279-563d-4280-946e-54aa03107d13" points="393.61 174.37 385.33 232.36 384.8 232.27 393.07 174.3 393.61 174.37"/><polygon class="b1906171-d175-40b9-86db-b219cfec146d" points="394.14 174.43 385.85 232.45 385.33 232.36 393.61 174.37 394.14 174.43"/><polygon class="a6e696db-f090-4e46-87f8-1f0e576b5322" points="394.68 174.49 386.38 232.54 385.85 232.45 394.14 174.43 394.68 174.49"/><polygon class="b0207de4-1093-4cc2-88da-71d693078b07" points="395.22 174.56 386.91 232.63 386.38 232.54 394.68 174.49 395.22 174.56"/><polygon class="abf8b5dc-73cd-4039-a883-dc0282ea57da" points="395.76 174.62 387.44 232.72 386.91 232.63 395.22 174.56 395.76 174.62"/><polygon class="ba78bc77-88db-487f-907b-23ffe4607a1b" points="396.3 174.68 387.96 232.82 387.44 232.72 395.76 174.62 396.3 174.68"/><polygon class="fc9591fe-bd6c-4936-993f-63814de3dc12" points="396.84 174.75 388.5 232.91 387.96 232.82 396.3 174.68 396.84 174.75"/><polygon class="bf7e3a0e-3a99-4a96-bfb1-08d8da9cfd7f" points="397.38 174.81 389.02 233 388.5 232.91 396.84 174.75 397.38 174.81"/><polygon class="a8c03fae-99f0-46a9-97c0-4bb8f3a298a5" points="397.92 174.88 389.55 233.09 389.02 233 397.38 174.81 397.92 174.88"/><polygon class="a420af27-6655-4bbb-88b9-f8e985ea6fa5" points="398.46 174.94 390.08 233.18 389.55 233.09 397.92 174.88 398.46 174.94"/><polygon class="f6306d99-a29e-4b52-9a90-9389e6cb3f3c" points="399 175 390.62 233.28 390.08 233.18 398.46 174.94 399 175"/><polygon class="ba517ac8-4b49-473c-aa8d-777ecae7d3c2" points="399.54 175.07 391.15 233.37 390.62 233.28 399 175 399.54 175.07"/><polygon class="f8052a9c-0122-4b47-a97e-f78b98013437" points="400.08 175.13 391.68 233.46 391.15 233.37 399.54 175.07 400.08 175.13"/><polygon class="f8052a9c-0122-4b47-a97e-f78b98013437" points="400.63 175.19 392.21 233.55 391.68 233.46 400.08 175.13 400.63 175.19"/><polygon class="b294596b-2c54-47d0-9397-157f6efd6877" points="401.17 175.26 392.75 233.64 392.21 233.55 400.63 175.19 401.17 175.26"/><polygon class="e771eb72-5a2a-4d05-8cb4-58f6de6c3de6" points="401.72 175.32 393.28 233.74 392.75 233.64 401.17 175.26 401.72 175.32"/><polygon class="a9e0fe81-c55a-4726-bfbc-0d4a0be1d6df" points="402.26 175.39 393.81 233.83 393.28 233.74 401.72 175.32 402.26 175.39"/><polygon class="b37a52df-22b7-4d63-82e6-53563dba7635" points="402.81 175.45 394.35 233.92 393.81 233.83 402.26 175.39 402.81 175.45"/><polygon class="b1f0368c-432f-476d-a254-6e03a6665d48" points="403.35 175.51 394.88 234.01 394.35 233.92 402.81 175.45 403.35 175.51"/><polygon class="b1f0368c-432f-476d-a254-6e03a6665d48" points="403.9 175.58 395.42 234.1 394.88 234.01 403.35 175.51 403.9 175.58"/><polygon class="a38b1628-e7c4-4372-9bd0-9e6425cff9ae" points="404.45 175.64 395.96 234.2 395.42 234.1 403.9 175.58 404.45 175.64"/><polygon class="a6e57c22-43dc-4ebd-bd6a-f80a4f438663" points="405 175.71 396.5 234.29 395.96 234.2 404.45 175.64 405 175.71"/><polygon class="eba3a0e8-4ae5-45ed-9efd-704f1c268903" points="405.54 175.77 397.03 234.38 396.5 234.29 405 175.71 405.54 175.77"/><polygon class="af9c26fe-3b4b-4467-990c-e4fd98bbb611" points="406.09 175.84 397.57 234.48 397.03 234.38 405.54 175.77 406.09 175.84"/><polygon class="fd474577-62c4-4c6c-b3d8-9bef092dece0" points="406.64 175.9 398.11 234.57 397.57 234.48 406.09 175.84 406.64 175.9"/><polygon class="a27228b9-3024-4f41-8339-0ac698611bbd" points="407.19 175.97 398.65 234.66 398.11 234.57 406.64 175.9 407.19 175.97"/><polygon class="a27228b9-3024-4f41-8339-0ac698611bbd" points="407.74 176.03 399.19 234.76 398.65 234.66 407.19 175.97 407.74 176.03"/><polygon class="bef7a74c-dd49-4266-8913-6737d98450e2" points="408.29 176.1 399.73 234.85 399.19 234.76 407.74 176.03 408.29 176.1"/><polygon class="bef7a74c-dd49-4266-8913-6737d98450e2" points="408.84 176.16 400.27 234.94 399.73 234.85 408.29 176.1 408.84 176.16"/><polygon class="bc277132-a530-4f1b-bed0-3944feefb83c" points="409.4 176.23 400.81 235.04 400.27 234.94 408.84 176.16 409.4 176.23"/><polygon class="fdabcef8-37b3-4e7e-b1e8-dff3d51570b7" points="409.95 176.29 401.35 235.13 400.81 235.04 409.4 176.23 409.95 176.29"/><polygon class="b08cd266-03b6-4203-a3b9-2c4274ce3bad" points="410.5 176.36 401.89 235.22 401.35 235.13 409.95 176.29 410.5 176.36"/><polygon class="a9623c8b-5289-4250-b333-037ceedbaa33" points="411.06 176.42 402.44 235.32 401.89 235.22 410.5 176.36 411.06 176.42"/><polygon class="a0043811-cb45-432e-863d-af8faa05656a" points="411.61 176.49 402.98 235.41 402.44 235.32 411.06 176.42 411.61 176.49"/><polygon class="bdf4f723-e19c-4db6-baf3-e27f436a2db3" points="412.17 176.55 403.52 235.51 402.98 235.41 411.61 176.49 412.17 176.55"/><polygon class="bdf4f723-e19c-4db6-baf3-e27f436a2db3" points="412.72 176.62 404.07 235.6 403.52 235.51 412.17 176.55 412.72 176.62"/><polygon class="a5b05dcc-bc80-4563-8d69-9ff8528049de" points="413.28 176.69 404.62 235.69 404.07 235.6 412.72 176.62 413.28 176.69"/><polygon class="a5b05dcc-bc80-4563-8d69-9ff8528049de" points="413.83 176.75 405.16 235.79 404.62 235.69 413.28 176.69 413.83 176.75"/><polygon class="a5b05dcc-bc80-4563-8d69-9ff8528049de" points="414.39 176.82 405.71 235.88 405.16 235.79 413.83 176.75 414.39 176.82"/><polygon class="af9a390a-5188-4b6b-99d8-ec6b8f33fc21" points="414.95 176.88 406.25 235.98 405.71 235.88 414.39 176.82 414.95 176.88"/><polygon class="af9a390a-5188-4b6b-99d8-ec6b8f33fc21" points="415.51 176.95 406.8 236.07 406.25 235.98 414.95 176.88 415.51 176.95"/><polygon class="be800614-2325-4b90-9ec2-9c06ddeeec6d" points="416.07 177.01 407.35 236.17 406.8 236.07 415.51 176.95 416.07 177.01"/><polygon class="be800614-2325-4b90-9ec2-9c06ddeeec6d" points="416.63 177.08 407.9 236.26 407.35 236.17 416.07 177.01 416.63 177.08"/><polygon class="b7c4a8d5-a345-4f15-9712-53436bfd807d" points="417.19 177.15 408.45 236.36 407.9 236.26 416.63 177.08 417.19 177.15"/><polygon class="a8250b05-5dc2-4c82-8dd9-61eedb9c46ac" points="417.75 177.21 409 236.45 408.45 236.36 417.19 177.15 417.75 177.21"/><polygon class="a8250b05-5dc2-4c82-8dd9-61eedb9c46ac" points="418.31 177.28 409.55 236.55 409 236.45 417.75 177.21 418.31 177.28"/><polygon class="a8250b05-5dc2-4c82-8dd9-61eedb9c46ac" points="418.87 177.34 410.1 236.64 409.55 236.55 418.31 177.28 418.87 177.34"/><polygon class="bbcf53fb-c786-4fa9-af66-02c451be9d35" points="419.43 177.41 410.65 236.74 410.1 236.64 418.87 177.34 419.43 177.41"/><polygon class="bd98b1d4-4c37-4f3e-a4ca-c19c78c25cce" points="419.99 177.48 411.2 236.83 410.65 236.74 419.43 177.41 419.99 177.48"/><polygon class="bd98b1d4-4c37-4f3e-a4ca-c19c78c25cce" points="420.56 177.54 411.75 236.93 411.2 236.83 419.99 177.48 420.56 177.54"/><polygon class="bd98b1d4-4c37-4f3e-a4ca-c19c78c25cce" points="421.12 177.61 412.3 237.02 411.75 236.93 420.56 177.54 421.12 177.61"/><polygon class="bd98b1d4-4c37-4f3e-a4ca-c19c78c25cce" points="421.69 177.68 412.86 237.12 412.3 237.02 421.12 177.61 421.69 177.68"/><polygon class="bd98b1d4-4c37-4f3e-a4ca-c19c78c25cce" points="422.25 177.74 413.41 237.22 412.86 237.12 421.69 177.68 422.25 177.74"/><polygon class="ede0f472-a9a3-4501-add9-90cdd74f55fa" points="422.82 177.81 413.97 237.31 413.41 237.22 422.25 177.74 422.82 177.81"/><polygon class="a4d8d8cd-5d1a-4d0f-98ba-26e76995b564" points="423.38 177.88 414.52 237.41 413.97 237.31 422.82 177.81 423.38 177.88"/><polygon class="a4d8d8cd-5d1a-4d0f-98ba-26e76995b564" points="423.95 177.94 415.08 237.5 414.52 237.41 423.38 177.88 423.95 177.94"/><polygon class="a4d8d8cd-5d1a-4d0f-98ba-26e76995b564" points="424.52 178.01 415.63 237.6 415.08 237.5 423.95 177.94 424.52 178.01"/><polygon class="a4d8d8cd-5d1a-4d0f-98ba-26e76995b564" points="425.09 178.08 416.19 237.69 415.63 237.6 424.52 178.01 425.09 178.08"/><polygon class="a4d8d8cd-5d1a-4d0f-98ba-26e76995b564" points="425.65 178.14 416.75 237.79 416.19 237.69 425.09 178.08 425.65 178.14"/><polygon class="a4d8d8cd-5d1a-4d0f-98ba-26e76995b564" points="426.22 178.21 417.31 237.89 416.75 237.79 425.65 178.14 426.22 178.21"/><polygon class="a4d8d8cd-5d1a-4d0f-98ba-26e76995b564" points="426.79 178.28 417.86 237.98 417.31 237.89 426.22 178.21 426.79 178.28"/><polygon class="a4d8d8cd-5d1a-4d0f-98ba-26e76995b564" points="427.36 178.34 418.42 238.08 417.86 237.98 426.79 178.28 427.36 178.34"/><polygon class="a4d8d8cd-5d1a-4d0f-98ba-26e76995b564" points="427.94 178.41 418.98 238.18 418.42 238.08 427.36 178.34 427.94 178.41"/><path class="a4d8d8cd-5d1a-4d0f-98ba-26e76995b564" d="M419,238.18l9-59.77Z" transform="translate(0 0)"/></g><path class="a55515f0-9b5a-4128-89d9-e08d0b482763" d="M380.64,187.65l-3.59-.47-.64,4.6-1.13-.15,1.46-10.43,5.31.67-.16,1.14-4.18-.54-.5,3.58,3.59.47Z" transform="translate(0 0)"/><path class="a55515f0-9b5a-4128-89d9-e08d0b482763" d="M383.85,191.64l4.11.55-.16,1.14-5.26-.72L384,182.12l1.15.15Z" transform="translate(0 0)"/><path class="a55515f0-9b5a-4128-89d9-e08d0b482763" d="M395.08,191.49,391.4,191l-1.22,2.65-1.19-.16,4.86-10.13,1,.13,1.86,11-1.19-.16Zm-3.17-1.58,3,.4-.79-5.16Z" transform="translate(0 0)"/><path class="a55515f0-9b5a-4128-89d9-e08d0b482763" d="M401.85,190.4a5.21,5.21,0,0,1-2-1.57,2.72,2.72,0,0,1-.42-2,2.87,2.87,0,0,1,1.15-2,3.12,3.12,0,0,1,2.31-.55,3.18,3.18,0,0,1,1.59.64,2.82,2.82,0,0,1,.95,1.31,3.5,3.5,0,0,1,.16,1.7l-1.19-.16a2.17,2.17,0,0,0-.3-1.59,1.85,1.85,0,0,0-1.38-.75,1.93,1.93,0,0,0-1.42.29,1.72,1.72,0,0,0-.68,1.21,1.47,1.47,0,0,0,.31,1.16,4.05,4.05,0,0,0,1.46,1,6.17,6.17,0,0,1,1.62,1,3.07,3.07,0,0,1,.79,1.18,3.24,3.24,0,0,1,.1,1.45,2.73,2.73,0,0,1-1.16,2,3.27,3.27,0,0,1-2.38.47,3.65,3.65,0,0,1-1.65-.65,3,3,0,0,1-1.06-1.32,3.12,3.12,0,0,1-.19-1.71l1.18.15a2,2,0,0,0,.37,1.61,2.29,2.29,0,0,0,1.52.77,2.08,2.08,0,0,0,1.5-.26,1.63,1.63,0,0,0,.67-1.17,1.52,1.52,0,0,0-.28-1.27A4.7,4.7,0,0,0,401.85,190.4Z" transform="translate(0 0)"/><path class="a55515f0-9b5a-4128-89d9-e08d0b482763" d="M413.61,196.84l-1.21-.16.73-5-4.58-.6-.73,5-1.19-.16,1.57-10.72,1.19.15-.67,4.62,4.58.6.68-4.64,1.22.15Z" transform="translate(0 0)"/><path class="a55515f0-9b5a-4128-89d9-e08d0b482763" d="M380.92,202.82a5.14,5.14,0,0,1-1.94-1.55,2.71,2.71,0,0,1-.41-1.92,2.76,2.76,0,0,1,1.1-1.93,2.88,2.88,0,0,1,2.22-.51,3.17,3.17,0,0,1,1.49.65,2.86,2.86,0,0,1,.91,1.31,3.44,3.44,0,0,1,.16,1.65l-1.15-.16a2.16,2.16,0,0,0-.28-1.57,1.81,1.81,0,0,0-1.33-.74,1.84,1.84,0,0,0-1.37.26,1.67,1.67,0,0,0-.64,1.18,1.52,1.52,0,0,0,.29,1.15,4.23,4.23,0,0,0,1.4,1,7,7,0,0,1,1.57,1,2.82,2.82,0,0,1,.85,2.59,2.66,2.66,0,0,1-1.1,1.91,3.09,3.09,0,0,1-2.29.44,3.44,3.44,0,0,1-1.59-.66,3,3,0,0,1-1-1.3,3.2,3.2,0,0,1-.18-1.68l1.13.16a2,2,0,0,0,.36,1.58,2.15,2.15,0,0,0,1.46.77,2,2,0,0,0,1.44-.23,1.59,1.59,0,0,0,.64-1.14,1.53,1.53,0,0,0-.27-1.26A4.91,4.91,0,0,0,380.92,202.82Z" transform="translate(0 0)"/><path class="a55515f0-9b5a-4128-89d9-e08d0b482763" d="M390.72,206.23l-3.65-.54-1.21,2.62-1.18-.18,4.81-10,1,.14,1.85,11-1.19-.18Zm-3.15-1.62,3,.43-.79-5.13Z" transform="translate(0 0)"/><path class="a55515f0-9b5a-4128-89d9-e08d0b482763" d="M395.48,208.56l4.19.63-.16,1.14-5.36-.81L395.67,199l1.17.17Z" transform="translate(0 0)"/><path class="a55515f0-9b5a-4128-89d9-e08d0b482763" d="M407.26,206.49l-3.89-.57-.55,3.76,4.52.68-.17,1.15-5.7-.86L403,200l5.65.79L408.5,202l-4.47-.63-.5,3.43,3.9.56Z" transform="translate(0 0)"/><path class="a55515f0-9b5a-4128-89d9-e08d0b482763" d="M377.94,212.76l-2.74-.42-1.29,9.22-1.11-.19,1.29-9.19-2.71-.43.15-1.11,6.56,1Z" transform="translate(0 0)"/><path class="a55515f0-9b5a-4128-89d9-e08d0b482763" d="M385.64,218.49a7.65,7.65,0,0,1-.81,2.6,3.7,3.7,0,0,1-1.46,1.55,2.91,2.91,0,0,1-1.9.3,3,3,0,0,1-1.71-.9,4,4,0,0,1-1-1.91,7.16,7.16,0,0,1-.08-2.65l.1-.75a7.48,7.48,0,0,1,.8-2.57,3.92,3.92,0,0,1,1.5-1.6,2.83,2.83,0,0,1,1.89-.34,3,3,0,0,1,1.74.89,3.93,3.93,0,0,1,1,1.95,7.64,7.64,0,0,1,.05,2.74Zm-1-.85a5.67,5.67,0,0,0-.21-3,2,2,0,0,0-1.59-1.26,1.89,1.89,0,0,0-1.83.73,5.41,5.41,0,0,0-1,2.64l-.11.76a5.44,5.44,0,0,0,.23,2.91,2,2,0,0,0,1.56,1.3,1.91,1.91,0,0,0,1.84-.68,5.29,5.29,0,0,0,1-2.68Z" transform="translate(0 0)"/><path class="a55515f0-9b5a-4128-89d9-e08d0b482763" d="M387.26,223.74l1.5-10.44,2.46.38a3.52,3.52,0,0,1,1.94.92,4,4,0,0,1,1.11,1.93,7,7,0,0,1,.12,2.65l-.1.67a6.5,6.5,0,0,1-.86,2.53,3.57,3.57,0,0,1-3.76,1.76Zm2.49-9.14-1.18,8.21,1.21.19a2.43,2.43,0,0,0,2.22-.65,4.66,4.66,0,0,0,1.15-2.71l.09-.62a4.78,4.78,0,0,0-.31-2.89,2.37,2.37,0,0,0-1.84-1.32Z" transform="translate(0 0)"/><path class="a55515f0-9b5a-4128-89d9-e08d0b482763" d="M401.12,223.19l-3.74-.63-1.23,2.62L395,225l4.9-10,1,.16,1.87,11.12-1.21-.19Zm-3.21-1.63,3,.49-.79-5.19Z" transform="translate(0 0)"/><path class="a55515f0-9b5a-4128-89d9-e08d0b482763" d="M407.54,221.66l3.15-5,1.35.21-4.1,6.2-.58,4-1.19-.2.58-4-2.12-7.15L406,216Z" transform="translate(0 0)"/></g><g id="b0078ad8-b7c6-4652-8d1d-ee6e5322db0e" data-name="man_with_trolly"><polygon class="a37da42e-c536-4367-b8ac-896d3f46b2de" points="70.32 313.95 84.84 308.5 85.17 257.95 70.64 263.4 70.32 313.95"/><polygon class="a85433cc-6fb5-4985-948d-1db673351cb1" points="85.06 257.94 38.09 251.67 23.68 257.13 70.64 263.4 85.06 257.94"/><polygon class="bd7b689f-8ed5-4bb4-abaa-f824404d34b7" points="70.32 313.95 23.35 307.68 23.68 257.13 70.64 263.4 70.32 313.95"/><polygon class="a033fb85-2bb0-4894-8b03-67e4513a09c0" points="61.73 288.16 32.23 284.22 32.3 272.6 61.8 276.54 61.73 288.16"/><path class="e1683c8b-375c-48c7-b34f-ae8a11c1a5d3" d="M94.05,224.9l1.23,11.31-2.07-11.33H92c.65,3.5,1.66,9.72,2.1,11.14.62,2,1,3.83,1.63,3.81.85,0,1.36-.76,1-2.19-.25-1-1-8.42-1.51-12.66Z" transform="translate(0 0)"/><path class="e1683c8b-375c-48c7-b34f-ae8a11c1a5d3" d="M94.48,237.17c-.35-.53-2.19-8.63-3-12.35H90.19c1.07,3.88,4.22,15.19,4.64,15.69.58.67,2.13.6,2.11-.66a6.23,6.23,0,0,0-.77-2.7.94.94,0,0,1-1.25.45A.92.92,0,0,1,94.48,237.17Z" transform="translate(0 0)"/><path class="e1683c8b-375c-48c7-b34f-ae8a11c1a5d3" d="M98.52,225c-.17,4.16-.26,11.75-.5,12.34a.94.94,0,0,1-1.25.46.93.93,0,0,1-.42-.39,5.79,5.79,0,0,0-.17,2.74,1.26,1.26,0,0,0,1.5,1,1.29,1.29,0,0,0,.74-.48c.32-.53.77-10.65,1.13-15.61Z" transform="translate(0 0)"/><path class="e1683c8b-375c-48c7-b34f-ae8a11c1a5d3" d="M97.23,225l-.08,11.05L96.43,225H95.25c.27,4.25.77,11.64.69,12.62-.11,1.46.52,2.16,1.37,2.11.66,0,.71-1.84,1-3.93.18-1.34.09-7.22.11-10.72Z" transform="translate(0 0)"/><path class="b60fa22c-fa6d-4232-9318-c8e199815e15" d="M102.2,254.43a41.68,41.68,0,0,1,.14,5.36c0,1.63.2,3.26.1,4.88-.19,2.94-.41,5.86-.58,8.8,0,.93-.34,5.3-2.07,3.34A7.84,7.84,0,0,1,98.6,274c-.45-1.51-.79-3.05-1.23-4.57s-1-3-1.41-4.46-.65-3.22-1-4.84c-.65-3-1.19-6-1.9-9a40.41,40.41,0,0,1-.38-4.39c-.17-1.3-.74-2.67-.6-4a4.47,4.47,0,0,1,4.63-3.75,5.27,5.27,0,0,1,4.88,5.63,1.79,1.79,0,0,1,0,.23c0,1.74.54,3.37.63,5.1C102.29,251.45,102,252.91,102.2,254.43Z" transform="translate(0 0)"/><path class="e1683c8b-375c-48c7-b34f-ae8a11c1a5d3" d="M92.68,249.46l-1,11.06.21-11-1.18.14c-.09,3.66-.28,9-.15,10.41.2,2.13.19,3.95.83,4,.83.12,1.48-.53,1.42-2,0-1,.65-8.53,1-12.83Z" transform="translate(0 0)"/><path class="e1683c8b-375c-48c7-b34f-ae8a11c1a5d3" d="M90.7,261.35c-.22-.53-.39-7.45-.47-11.59l-1.16.14c.33,4.89,1,14.28,1.29,14.78a1.18,1.18,0,0,0,1.62.44,1.17,1.17,0,0,0,.57-.75,6.21,6.21,0,0,0-.17-2.81.92.92,0,0,1-1.26.33A1,1,0,0,1,90.7,261.35Z" transform="translate(0 0)"/><path class="e1683c8b-375c-48c7-b34f-ae8a11c1a5d3" d="M97.3,248.89c-.92,3.67-2.81,12.67-3.2,13.23a.91.91,0,0,1-1.27.27,1,1,0,0,1-.37-.47,6,6,0,0,0-.7,2.69,1.22,1.22,0,0,0,1.24,1.2,1.2,1.2,0,0,0,.85-.36c.45-.53,3.41-12.7,4.57-16.7Z" transform="translate(0 0)"/><path class="e1683c8b-375c-48c7-b34f-ae8a11c1a5d3" d="M95.92,249.06l-2.4,11.61,1.54-11.51-1.18.15C93.3,253.58,92.31,261,92,262c-.4,1.43.08,2.23.92,2.32.65.07,1-1.72,1.74-3.75.49-1.44,1.75-8.43,2.45-11.63Z" transform="translate(0 0)"/><path class="aba09df1-90a5-46a4-9348-06d7c52966cd" d="M94.79,279.74a44,44,0,0,1-.92,5.35c-.31,1.62-.45,3.26-.88,4.86-.76,2.88-1.56,5.75-2.31,8.65-.23.91-1.38,5.21-2.68,3a7.72,7.72,0,0,1-.59-3c-.14-1.58-.16-3.16-.29-4.74s-.37-3.1-.49-4.66,0-3.3,0-5c0-3.08,0-6.14-.07-9.22a43.41,43.41,0,0,1,.49-4.41c.1-1.33-.19-2.78.21-4.05a4.61,4.61,0,0,1,5.26-3,5,5,0,0,1,3.3,2.64,5.38,5.38,0,0,1,.27,4c-.32,1.73-.15,3.44-.39,5.16C95.47,276.79,94.9,278.2,94.79,279.74Z" transform="translate(0 0)"/><path class="e1683c8b-375c-48c7-b34f-ae8a11c1a5d3" d="M127.46,239.82,122,249.56l6-9.18.9.79c-2,3.07-4.9,7.62-5.78,8.67-1.38,1.65-2.39,3.16-3,2.87s-.92-1.27,0-2.46c.61-.81,4.3-7.41,6.41-11.17Z" transform="translate(0 0)"/><path class="e1683c8b-375c-48c7-b34f-ae8a11c1a5d3" d="M122.38,250.76c.48-.32,4.54-5.94,7-9.31l.88.77c-3,3.85-8.93,11.21-9.45,11.47-.78.39-2.15-.33-1.63-1.49A6.34,6.34,0,0,1,121,250a.92.92,0,0,0,.93.91A.94.94,0,0,0,122.38,250.76Z" transform="translate(0 0)"/><path class="e1683c8b-375c-48c7-b34f-ae8a11c1a5d3" d="M124,236.76c-1.32,3.59-4.84,12-4.86,12.72a.91.91,0,0,0,.91.93.87.87,0,0,0,.56-.18,6,6,0,0,1-1,2.62,1.22,1.22,0,0,1-2.2-.48c-.08-.69,4.39-12.4,5.69-16.36Z" transform="translate(0 0)"/><path class="e1683c8b-375c-48c7-b34f-ae8a11c1a5d3" d="M125,237.67l-4.63,10.94,5.25-10.37.9.79c-1.94,3.85-5.34,10.53-5.67,11.48-.48,1.41-1.33,1.79-2.07,1.4-.57-.31.1-2,.69-4.08.41-1.46,3.34-7.94,4.57-11Z" transform="translate(0 0)"/><path class="e5a0bdae-50b4-44b7-8199-1e68c565fac5" d="M108.55,263.63a42.26,42.26,0,0,0-2.27,4.93c-.66,1.52-1.48,2.95-2,4.51l-3,8.43c-.33.89-1.81,5.08.52,4a8,8,0,0,0,2.21-2.16c1-1.23,1.92-2.52,2.92-3.75s2.06-2.36,3-3.57,1.86-2.74,2.82-4.1c1.79-2.52,3.47-5.08,5.29-7.57a42.07,42.07,0,0,0,2.09-3.92c.68-1.15,1.74-2.18,2.13-3.46a4.59,4.59,0,0,0-2.65-5.41,5,5,0,0,0-4.22.32c-1.35.65-1.88,1.8-2.47,3.12-.72,1.6-1.83,2.92-2.6,4.48A42.36,42.36,0,0,1,108.55,263.63Z" transform="translate(0 0)"/><path class="e1683c8b-375c-48c7-b34f-ae8a11c1a5d3" d="M80.54,231.45l2.33,10.87-1.49-10.87h1.19c.52,3.62,1.36,9,1.39,10.31.06,2.14.29,4-.34,4.12-.81.21-1.53-.36-1.65-1.84-.08-1-1.67-8.39-2.57-12.6Z" transform="translate(0 0)"/><path class="e1683c8b-375c-48c7-b34f-ae8a11c1a5d3" d="M83.94,243c.15-.55-.51-7.44-.93-11.56h1.17c.26,4.9.71,14.29.49,14.82a1.18,1.18,0,0,1-2.21,0,6.25,6.25,0,0,1-.12-2.82.91.91,0,0,0,1.28.12A.89.89,0,0,0,83.94,243Z" transform="translate(0 0)"/><path class="e1683c8b-375c-48c7-b34f-ae8a11c1a5d3" d="M75.89,231.43c1.38,3.57,4.3,12.21,4.76,12.76a.93.93,0,0,0,1.3.11,1,1,0,0,0,.3-.51,6,6,0,0,1,1,2.6,1.22,1.22,0,0,1-1.06,1.36,1.23,1.23,0,0,1-.94-.28c-.51-.47-4.91-12.21-6.54-16Z" transform="translate(0 0)"/><path class="e1683c8b-375c-48c7-b34f-ae8a11c1a5d3" d="M77.28,231.44l3.78,11.24-2.92-11.24h1.24c1.09,4.16,3,11.42,3.34,12.35.57,1.37.18,2.22-.64,2.41-.63.14-1.25-1.58-2.18-3.52-.65-1.37-2.74-8.16-3.83-11.26Z" transform="translate(0 0)"/><path class="b5662102-938d-452d-b470-f8180e1e2138" d="M82.07,261.76a45.08,45.08,0,0,0,1.57,5.2c.5,1.58.83,3.19,1.45,4.73,1.1,2.77,2.24,5.53,3.33,8.31.34.88,2,5,3,2.65a7.85,7.85,0,0,0,.23-3.09c-.06-1.58-.23-3.15-.29-4.73s0-3.13-.07-4.69-.41-3.28-.58-4.93c-.34-3.07-.77-6.1-1-9.17-.14-1.52-.74-2.84-1-4.32-.25-1.31-.14-2.78-.69-4a4.63,4.63,0,0,0-5.64-2.33,5,5,0,0,0-3,3,5.48,5.48,0,0,0,.2,4c.53,1.68.56,3.4,1,5.08A34.55,34.55,0,0,1,82.07,261.76Z" transform="translate(0 0)"/><path class="e1683c8b-375c-48c7-b34f-ae8a11c1a5d3" d="M109.09,230.81l-1.61,11,2.36-10.72,1.12.42c-.77,3.58-1.85,8.87-2.3,10.15-.69,2-1.11,3.8-1.76,3.74-.83-.08-1.31-.86-.9-2.28.28-1,1.36-8.45,2-12.72Z" transform="translate(0 0)"/><path class="e1683c8b-375c-48c7-b34f-ae8a11c1a5d3" d="M108.23,242.84c.33-.47,2.12-7.16,3.17-11.16l1.1.41c-1.48,4.67-4.34,13.64-4.73,14.06a1.18,1.18,0,0,1-1.67,0,1.2,1.2,0,0,1-.33-.78,6.23,6.23,0,0,1,.87-2.68.92.92,0,0,0,1.59.18Z" transform="translate(0 0)"/><path class="e1683c8b-375c-48c7-b34f-ae8a11c1a5d3" d="M104.73,229.19c0,3.82-.23,12.93,0,13.61a.92.92,0,0,0,1.18.55.93.93,0,0,0,.46-.37,5.94,5.94,0,0,1,0,2.78,1.22,1.22,0,0,1-2.23.34c-.32-.62-.33-13.15-.53-17.31Z" transform="translate(0 0)"/><path class="e1683c8b-375c-48c7-b34f-ae8a11c1a5d3" d="M106,229.67l-.38,11.89L106.84,230l1.12.42c-.43,4.28-1.22,11.74-1.18,12.74,0,1.48-.61,2.14-1.44,2-.65-.09-.62-1.91-.82-4-.13-1.51.28-8.61.35-11.88Z" transform="translate(0 0)"/><path class="f76eee6d-745a-4d70-8d5d-053a0f701a8c" d="M99.93,259.76a44.7,44.7,0,0,0-.35,5.42c-.08,1.65-.33,3.28-.29,4.93.07,3,.16,6,.22,8.95,0,.94.12,5.38,1.9,3.52a7.9,7.9,0,0,0,1.29-2.81c.51-1.5.9-3,1.39-4.54s1.09-2.93,1.58-4.41.76-3.22,1.17-4.83c.76-3,1.42-6,2.23-8.95a43.54,43.54,0,0,0,.55-4.41c.22-1.31.84-2.65.75-4a4.62,4.62,0,0,0-4.41-4.12,5,5,0,0,0-3.82,1.8,5.57,5.57,0,0,0-1.2,3.8c-.1,1.75-.67,3.37-.83,5.11C100,256.74,100.19,258.24,99.93,259.76Z" transform="translate(0 0)"/><path class="e1683c8b-375c-48c7-b34f-ae8a11c1a5d3" d="M105.38,249.35l-2.88,11L104.59,249l-1.12-.46c-.64,3.5-1.9,9.67-2,11.16-.15,2.13-.46,3.92.17,4.13.79.28,1.54-.22,1.72-1.69.12-1,2-8.24,3.1-12.37Z" transform="translate(0 0)"/><path class="e1683c8b-375c-48c7-b34f-ae8a11c1a5d3" d="M101.43,261c-.14-.63,1-8.85,1.57-12.62l-1.19-.49c-.38,4-1.46,15.69-1.24,16.3.3.84,1.78,1.32,2.21.14a6.17,6.17,0,0,0,.23-2.8.94.94,0,0,1-1.33,0A.92.92,0,0,1,101.43,261Z" transform="translate(0 0)"/><path class="e1683c8b-375c-48c7-b34f-ae8a11c1a5d3" d="M109.53,251c-1.64,3.84-4.43,10.91-4.87,11.37a.94.94,0,0,1-1.58-.52,5.8,5.8,0,0,0-1.13,2.5,1.26,1.26,0,0,0,1.07,1.43,1.25,1.25,0,0,0,.86-.19c.48-.38,4.5-9.69,6.6-14.2Z" transform="translate(0 0)"/><path class="e1683c8b-375c-48c7-b34f-ae8a11c1a5d3" d="M108.38,250.56l-4,10.31,3.27-10.61-1.09-.45c-1.26,4.07-3.42,11.15-3.84,12-.63,1.33-.28,2.21.53,2.46.63.2,1.31-1.47,2.32-3.33.65-1.19,2.65-6.71,3.92-10Z" transform="translate(0 0)"/><path class="a2fbf158-3a3b-47f8-afbe-293e29ab2608" d="M102.51,279.84a43.37,43.37,0,0,1-1.78,5.06c-.56,1.53-1,3.12-1.64,4.6-1.22,2.68-2.47,5.34-3.67,8-.38.85-2.21,4.84-3.13,2.4a7.9,7.9,0,0,1-.1-3.1c.12-1.57.36-3.13.49-4.7s.13-3.12.26-4.67.54-3.25.79-4.88c.46-3,1-6,1.42-9.06a39.3,39.3,0,0,1,1.2-4.24c.3-1.28.25-2.76.85-3.93a4.49,4.49,0,0,1,5.67-1.88,5.32,5.32,0,0,1,2.82,3.25,5.39,5.39,0,0,1-.36,4c-.59,1.64-.7,3.34-1.22,5C103.65,277.09,102.86,278.35,102.51,279.84Z" transform="translate(0 0)"/><path class="e1683c8b-375c-48c7-b34f-ae8a11c1a5d3" d="M75.67,244.61l-1.11.31,3.2,11.81-4-11.56-1.14.34c1.13,3.17,3.33,9.91,4,11.32.92,1.89,1.53,3.59,2.16,3.4.8-.25,1.17-1.13.6-2.48C78.94,256.77,76.74,248.56,75.67,244.61Z" transform="translate(0 0)"/><path class="e1683c8b-375c-48c7-b34f-ae8a11c1a5d3" d="M78.72,257.41a.92.92,0,0,1-1,.78.9.9,0,0,1-.53-.27c-.45-.47-3.86-9.1-5.09-12.25l-1,.32-.23.08c1.36,3,6.65,14.67,7.16,15.08a1.23,1.23,0,0,0,1.9-1.23A5.86,5.86,0,0,0,78.72,257.41Z" transform="translate(0 0)"/><path class="e1683c8b-375c-48c7-b34f-ae8a11c1a5d3" d="M78.94,243.81c.45,4,1.74,12.66,1.6,13.37a.94.94,0,0,1-1.58.51,6.2,6.2,0,0,0,.29,2.8c.45,1.19,1.92.72,2.21-.11.22-.65-1.12-12-1.52-16.78Z" transform="translate(0 0)"/><path class="e1683c8b-375c-48c7-b34f-ae8a11c1a5d3" d="M77.67,244.1l1.83,12-2.65-11.78-1.12.29c.89,4,2.78,12.25,2.87,13.33.12,1.5.84,2,1.64,1.76.62-.22.37-2.05.31-4.23,0-1.51-1.25-8.25-1.74-11.61Z" transform="translate(0 0)"/><path class="a1eed338-f1be-4043-92b3-15b6a978aaae" d="M87.26,273.24a46.8,46.8,0,0,1,1,5.36c.28,1.64.72,3.23.88,4.89.29,3,.56,6,.87,9,.1.94.52,5.43-1.43,3.92a7.19,7.19,0,0,1-1.6-2.56c-.67-1.41-1.23-2.87-1.89-4.28s-1.41-2.72-2.07-4.11-1.13-3.08-1.72-4.62c-1.1-2.84-2.1-5.71-3.25-8.53A43,43,0,0,1,77,268c-.37-1.27-1.13-2.49-1.21-3.85a5.13,5.13,0,0,1,3.8-5,4.58,4.58,0,0,1,3.94,1c1.13.89,1.37,2.14,1.62,3.57.31,1.74,1.05,3.25,1.42,5C86.86,270.21,86.82,271.76,87.26,273.24Z" transform="translate(0 0)"/><path class="f4d73163-195b-46d0-a4af-cf5125c57952" d="M133.87,268.46s-.86,5.62-1,7.23l-1.07.37s.16-6.53.47-8.08C132.28,268,133.57,267.14,133.87,268.46Z" transform="translate(0 0)"/><path class="adb016a6-4392-41f1-86d2-89e74cf1fc25" d="M124.63,292.21v.08c2.06,4.11,5.49,2.06,7.41,2.12s5.27,2.35,7.59-1.73c1.85-3.28,5-6.33,4.27-11a7.47,7.47,0,0,0-1.3-3.27c-3.67-5.15-8.33-3.33-10-2.94-1.6-.49-6.14-2.6-10.12,2.31S122.57,288,124.63,292.21Z" transform="translate(0 0)"/><path class="a4cb5eb0-4d0f-43ea-ab0e-b8aea30f7276" d="M120.88,265.43a16.88,16.88,0,0,0,1.19,3,10.62,10.62,0,0,0,4.63,5c3.42,1.48,5.2.16,5.2.16a8.86,8.86,0,0,0-2-4.5,8.36,8.36,0,0,0-1.06-1C125.69,265.56,120.88,265.43,120.88,265.43Z" transform="translate(0 0)"/><path class="f4d73163-195b-46d0-a4af-cf5125c57952" d="M89.81,287.22S91,293.28,91.49,295l-1,.78S88.22,289,88,287.32C88,287.32,89,286,89.81,287.22Z" transform="translate(0 0)"/><path class="baaacb6e-3f3c-48f8-918d-dd5e8a915b23" d="M89.2,314.89l.08.07c3.63,3.43,6.36.06,8.35-.59s6.25.44,7.1-4.59c.68-4,2.73-8.31.26-12.85a7.88,7.88,0,0,0-2.55-2.86c-5.65-3.89-9.73-.3-11.25.7-1.82.1-7.24-.37-9.48,6.12S85.54,311.34,89.2,314.89Z" transform="translate(0 0)"/><path class="a4cb5eb0-4d0f-43ea-ab0e-b8aea30f7276" d="M75.38,289a20.16,20.16,0,0,0,2.36,2.61c1.63,1.53,4,3.19,6.58,3.34,4,.25,5.37-1.77,5.37-1.77A9.7,9.7,0,0,0,86,289.29a8.66,8.66,0,0,0-1.46-.65C80.38,287.25,75.38,289,75.38,289Z" transform="translate(0 0)"/><path class="f4d73163-195b-46d0-a4af-cf5125c57952" d="M115.38,262s.76,6.28.84,8.07l1.18.45s.06-7.26-.24-9C117.19,261.56,115.79,260.56,115.38,262Z" transform="translate(0 0)"/><path class="ab58faae-3f06-4499-b4d8-887126189a6e" d="M124.85,288.73v.1c-2.44,4.49-6.18,2.09-8.32,2.09s-5.94,2.44-8.37-2.19c-2-3.71-5.32-7.21-4.37-12.41a8.26,8.26,0,0,1,1.57-3.6c4.25-5.6,9.37-3.41,11.17-2.92,1.79-.49,6.91-2.68,11.17,2.92S127.29,284.11,124.85,288.73Z" transform="translate(0 0)"/><path class="a4cb5eb0-4d0f-43ea-ab0e-b8aea30f7276" d="M130,259.09a18.72,18.72,0,0,1-1.43,3.28c-1.09,2-2.84,4.38-5.32,5.36-3.85,1.53-5.79,0-5.79,0a9.85,9.85,0,0,1,2.4-4.93,7.43,7.43,0,0,1,1.21-1.1C124.61,259,130,259.09,130,259.09Z" transform="translate(0 0)"/><path class="f4d73163-195b-46d0-a4af-cf5125c57952" d="M132.38,284.05s-1.26,6.3-1.75,8.06l1,.8s2.36-7,2.63-8.75C134.27,284.16,133.22,282.76,132.38,284.05Z" transform="translate(0 0)"/><path class="bbfddaaa-7b8c-4b6c-a744-091efa69699b" d="M133,312.83l-.07.08c-3.78,3.56-6.62.06-8.7-.62s-6.5.46-7.38-4.77c-.7-4.2-2.84-8.65-.27-13.37a8.41,8.41,0,0,1,2.65-3c5.88-4,10.13-.31,11.71.73,1.89.1,7.52-.39,9.85,6.36S136.84,309.14,133,312.83Z" transform="translate(0 0)"/><path class="f4d73163-195b-46d0-a4af-cf5125c57952" d="M109.85,276.9s-.86,5.62-1,7.23l-1.07.37s.16-6.53.47-8.08C108.26,276.42,109.55,275.56,109.85,276.9Z" transform="translate(0 0)"/><path class="b6e046fc-ebcb-4dca-ac58-074f19632fbf" d="M100.61,300.64v.09c2.06,4.11,5.49,2.06,7.41,2.12s5.27,2.35,7.59-1.73c1.86-3.29,5-6.33,4.27-11a7.35,7.35,0,0,0-1.3-3.27c-3.67-5.15-8.33-3.33-10-2.94-1.6-.49-6.14-2.6-10.12,2.3S98.55,296.42,100.61,300.64Z" transform="translate(0 0)"/><path class="a4cb5eb0-4d0f-43ea-ab0e-b8aea30f7276" d="M96.86,273.87a16.88,16.88,0,0,0,1.19,3,10.37,10.37,0,0,0,4.63,5c3.42,1.48,5.2.16,5.2.16a8.86,8.86,0,0,0-2-4.5,7.7,7.7,0,0,0-1.06-1C101.67,274,96.86,273.87,96.86,273.87Z" transform="translate(0 0)"/><path class="f4d73163-195b-46d0-a4af-cf5125c57952" d="M114,293.72s.75,6.28.84,8.07l1.18.45s0-7.26-.24-9C115.79,293.24,114.38,292.26,114,293.72Z" transform="translate(0 0)"/><path class="ff16ffdf-2849-404a-b9db-256247074f7e" d="M123.45,320.44v.1c-2.44,4.49-6.17,2.09-8.32,2.09s-5.93,2.44-8.37-2.19c-2-3.71-5.32-7.21-4.37-12.41a8.38,8.38,0,0,1,1.57-3.6c4.25-5.6,9.37-3.41,11.17-2.92,1.8-.49,6.92-2.68,11.17,2.92S125.88,315.82,123.45,320.44Z" transform="translate(0 0)"/><path class="a4cb5eb0-4d0f-43ea-ab0e-b8aea30f7276" d="M128.56,290.8a20.74,20.74,0,0,1-1.43,3.28c-1.1,2-2.84,4.38-5.33,5.36-3.84,1.53-5.78,0-5.78,0a10,10,0,0,1,2.36-4.88,9,9,0,0,1,1.21-1.1C123.21,290.74,128.56,290.8,128.56,290.8Z" transform="translate(0 0)"/><path class="a551934e-e782-474c-91d0-81f008a69a03" d="M60.64,364.67a11,11,0,1,1-12.69-9,11,11,0,0,1,12.69,9Z" transform="translate(0 0)"/><path class="f3229790-99b8-4475-89cd-f1664e3b5020" d="M54.81,365.35A5.15,5.15,0,1,1,51,361.56,5.1,5.1,0,0,1,54.81,365.35Z" transform="translate(0 0)"/><path class="e9e06ca2-e5de-4a9f-9431-9bbb6e1ec5a2" d="M49.79,369.18h0a6.66,6.66,0,0,1-6.41-4.93l-2.67-9.91H58.9l-2.68,9.91A6.66,6.66,0,0,1,49.79,369.18Z" transform="translate(0 0)"/><circle class="bc766362-043c-45a2-ae85-77ff0938cddd" cx="127.06" cy="366.53" r="11"/><path class="b8f21637-2a2c-45de-a232-9c8eed8dd2cb" d="M132.21,366.56a5.15,5.15,0,1,1-5.15-5.16,5.16,5.16,0,0,1,5.15,5.16Z" transform="translate(0 0)"/><path class="b6dec0cf-60da-4416-b84c-542b71ce8502" d="M127.06,369.18h0a6.66,6.66,0,0,1-6.43-4.93L118,354.34h18.22l-2.68,9.91A6.66,6.66,0,0,1,127.06,369.18Z" transform="translate(0 0)"/><path class="ee3ba1ae-c7b1-47ce-8d99-cc32fcc0fcfe" d="M208.93,190.49a1.25,1.25,0,0,0-1.4-1.07L175,193.77a1.24,1.24,0,0,0-1.07,1.39h0l.48,3.4L163,200.8a6.48,6.48,0,0,0-5.27,5.06l-6.46,28.28v-.53L1.78,242.39a1.89,1.89,0,0,0-1.78,2,1.92,1.92,0,0,0,.11.54l16.4,45.37v.15h.07l6.57,18.17h.24L30.58,315l101.8,19.66.31-1.62L31.38,313.49l-4.85-4.29,103.94,18,11.26,23.23a2.11,2.11,0,0,1-1.91,3H40.38v1.66H139.8a3.78,3.78,0,0,0,3.2-1.77,3.74,3.74,0,0,0,.19-3.65l-11.31-23.36,27.47-120.16a4.85,4.85,0,0,1,4-3.79l11.31-2.22.24,1.8a1.24,1.24,0,0,0,1.39,1.07h0l32.55-4.35a1.25,1.25,0,0,0,1.07-1.4Zm-90.1,133.07-10-1.75,2-24.42,13.06,1Zm6.62-25.09,10.91.8-6,26.29-9.89-1.72Zm-101-31.7,13-.4,5.35,24.36-11.64-.86Zm4.91,23-11.63-.85L9.9,267.24l12.85-.39Zm24.48-23.91L67,265.45l2.5,27.23-11.63-.85Zm2.32,25.84-11.65-.85-5.39-24.54,13.06-.4Zm12.48-26.3,13.2-.4.93,28.66-11.62-.85ZM83.49,265l13.27-.39L96,294.66l-11.58-.86Zm14.89-.46,13.31-.41-2.52,31.53-11.55-.85Zm0-1.66.6-24.49,14.8-.87-2,25Zm-1.66.05-13.36.41-.77-24,14.79-.85Zm-15,.46-13.31.41-2-23.49,14.69-.86Zm-15,.46-13.24.41-3.54-23,14.63-.86Zm-14.9.46-13.17.4-4.93-22.49,14.66-.86ZM37,264.72l-13.07.4-6.34-22,14.49-.85Zm6.08,27.68,4.11,18.73L36.64,309.3l-5-17.74Zm1.72.13,11.53.85,3.07,19.87-10.45-1.82Zm13.23,1,11.53.85,1.92,21-10.26-1.82Zm13.2,1,11.51.85.72,22.1L73.14,315.7Zm13.17,1,11.49.85-.48,23.1-10.2-1.77Zm13.14,1,11.46.84-1.83,24.19L97,319.81Zm13.24-.68,2.53-31.7,17.24-.53L124,296.82Zm2.67-33.36,2-25,20.48-1.21-5,25.66ZM1.69,244.15a.27.27,0,0,1,.19-.11L16,243.22l6.33,22-12.92.34-7.71-21.2A.22.22,0,0,1,1.69,244.15Zm16.69,46.41,11.51.85L35,309l-10.57-1.82Zm118.36,7.05-11-.81,6.64-33.35,11.77-.37-.05-1.65-11.4.35,5.06-25.71L151,235.3Z" transform="translate(0 0)"/><path class="f1adf752-f0e0-4f51-bfee-69152bdc9aa8" d="M284.38,121.46c-5.47-14.82-18.06-4.61-21,2.32-4.44,10.34-22.75,36.43-22.75,36.43-25.25,21.63-40.09,27.35-40.09,27.35a78.16,78.16,0,0,1-8.9,1c-2.2-.07-4.61-2-6.74-2.44-3.12-.7-13.13,10.45-13.13,10.45-1.19,0,1.64,2.92,1.64,2.92l3.43-1.15,2.23,1.66,5.9-2.25,5.7,1.82a28.92,28.92,0,0,0,5.81-1.24,74.85,74.85,0,0,1,8.35-2.07c10.76-4.3,42.26-20.17,52.18-32.49C261.93,157.7,288.38,132.27,284.38,121.46Z" transform="translate(0 0)"/><path class="afd5cffc-3805-438f-8cf2-69f0a085b76a" d="M284.38,121.46c-5.47-14.82-18.06-4.61-21,2.32-4.44,10.34-22.75,36.43-22.75,36.43-25.25,21.63-40.09,27.35-40.09,27.35a78.16,78.16,0,0,1-8.9,1c-2.2-.07-4.61-2-6.74-2.44-3.12-.7-13.13,10.45-13.13,10.45-1.19,0,1.64,2.92,1.64,2.92l3.43-1.15,2.23,1.66,5.9-2.25,5.7,1.82a28.92,28.92,0,0,0,5.81-1.24,74.85,74.85,0,0,1,8.35-2.07c10.76-4.3,42.26-20.17,52.18-32.49C261.93,157.7,288.38,132.27,284.38,121.46Z" transform="translate(0 0)"/><path class="b8f68ff6-1074-4f3a-90f2-b05eefaf223a" d="M369.38,295.09c1.52,3.55,8.86,16.1,12.41,15.22s2.86-18.78.12-28.06-2.14-9.46-2.69-13.05-6.35-9-14.62-.4a38.8,38.8,0,0,1,4.56,14.49A63.73,63.73,0,0,1,369.38,295.09Z" transform="translate(0 0)"/><path class="f1adf752-f0e0-4f51-bfee-69152bdc9aa8" d="M354.59,284.66c.18-.73,7.1-2,7.1-2S368,293,369.37,295.09s6.93-8.08,5.24-14.69c-.85-3.33-3.23-12.14-5.88-13s-8.23,4.7-14.19,3.75Z" transform="translate(0 0)"/><path class="fd91b5cf-f5c7-4437-9afc-214c58ab7e0c" d="M278.78,186.33c9.63,17.15,15.4,7.38,18.33,27.76,1.07,7.48,15.75,47.36,15.75,47.36,16.37,9,41.88,7.43,46.87,6.7,0,0,4.66,7.68,2.52,15.76,0,0-58.91,11.46-70.41-4.35-26.46-36.39-38.39-84.94-38.39-84.94Z" transform="translate(0 0)"/><path class="be726d51-9890-4dbd-a0d7-473938c85967" d="M261.22,363.56c-3.4,1.83-15.23,10.27-14,13.72s19,1.16,28-2.4,9.23-3,12.76-3.86,8.34-7.13-.92-14.59a38.43,38.43,0,0,1-14,5.85A64.51,64.51,0,0,1,261.22,363.56Z" transform="translate(0 0)"/><path class="f1adf752-f0e0-4f51-bfee-69152bdc9aa8" d="M272.9,347.5c.75.12,0,7.25,0,7.25s-9.72,7.19-11.69,8.77,8.67,6.17,15.1,3.9c3.25-1.16,11.81-4.32,12.41-7s-2.8-8.13-2.39-14.15Z" transform="translate(0 0)"/><path class="a1165ad5-aebc-4a90-b4c5-e49425c9d5c5" d="M290.8,197.16c-1.34,19.63,5.09,7.61-3.64,26.26-3.2,6.85-5.41,34.26-6.71,44.59-2.35,18.58,7.19,77.47,8.37,82.37,0,0-7.24,5.33-15.48,3.93,0,0-23.34-55.34-21.65-92.86,1.2-26.82.77-36.74,1.55-69.84C253.48,181.4,290.8,197.16,290.8,197.16Z" transform="translate(0 0)"/><path class="f1adf752-f0e0-4f51-bfee-69152bdc9aa8" d="M268.06,89.87c1.46,3.59,9.64,14,9.64,14L260,108.38c-.94-4.14-5-9-11.11-10.59C257.81,96.84,263.38,92.21,268.06,89.87Z" transform="translate(0 0)"/><path class="ae994ed0-4ff7-435b-afeb-34466ee8efec" d="M268.06,89.87c1.46,3.59,9.64,14,9.64,14L260,108.38c-.94-4.14-5-9-11.11-10.59C257.81,96.84,263.38,92.21,268.06,89.87Z" transform="translate(0 0)"/><path class="b40cc206-49ba-4115-b80e-47bf5be316d6" d="M282.32,110c3,9.86,5.94,10.59,10,50.13,1.28,12.61,9.88,72.31,9.88,72.31s-15.24,7.94-32.28,6.89c-7.85-.49-16.08-7.35-23.38-9.79a452.1,452.1,0,0,0,2.68-54.07c-.23-16.59-4.31-31.29-3.84-36.45,1.29-14.15,7.59-24.08,10.8-29.87a18.12,18.12,0,0,1,12.2-9.41C273.15,98.8,280.38,103.56,282.32,110Z" transform="translate(0 0)"/><path class="f1adf752-f0e0-4f51-bfee-69152bdc9aa8" d="M201,183.11a77.14,77.14,0,0,1-8.77,1.83c-2.21.12-4.77-1.55-6.93-1.83-3.18-.42-12.15,11.57-12.15,11.57-1.19.12,1.89,2.76,1.89,2.76l3.32-1.45,2.36,1.45,5.68-2.76,5.84,1.31a29.62,29.62,0,0,0,5.68-1.75,75,75,0,0,1,8.13-2.8Z" transform="translate(0 0)"/><path class="f1adf752-f0e0-4f51-bfee-69152bdc9aa8" d="M278.66,109.82c4.93,10.41-19.17,38.09-23.53,44.62-8.75,13.12-38.75,31.76-49.08,37l-5-8.33s14.24-7,37.48-30.81c0,0,15.93-27.61,19.43-38.31C260.26,106.83,271.9,95.56,278.66,109.82Z" transform="translate(0 0)"/><path class="f1adf752-f0e0-4f51-bfee-69152bdc9aa8" d="M238.8,66.28c0,2.42-1.42,8.33-1,10.22s.23,5.43.66,6.65-1.31,3.59-2.5,5.1,1.55,2.34,2.34,2.89.79,1.58.79,2.81-.08,1.7.91,2-.62.1.68,1.65a48.71,48.71,0,0,1,3.9,5.67c1.11,1.82,4.53-1,8.33-2.2s16.93-10.69,14.47-15,5.55-7.27-5.51-15.61A26.42,26.42,0,0,0,238.8,66.28Z" transform="translate(0 0)"/><path class="a746c206-90a1-4ecc-9618-6f11f11dba4a" d="M239.54,69.63s5,1.58,10.21,3.15c4.57,1.39,5.86,11,7.4,12.44,0,0,1.54-3.91,2.16-2.19.51,1.44,1.36,5.59,4.45,7.25s8.45.87,8.45.87-3.66-.83.66-4.4c6.06-5,1.76-17.53,1.76-17.53l-2-4.56s-2.25-5.75-10.25-8.7C249,51,233.26,63,239.54,69.63Z" transform="translate(0 0)"/><polygon class="a9549380-647f-4860-a93e-3b5514bf4f84" points="277.15 60.86 279.18 68.11 274.63 69.22 269.9 60.78 277.15 60.86"/><path class="f0e06430-0bc3-484f-9808-308fdd850feb" d="M252.09,69.56c-1.85.75-2.49,3.37-2.44,5.26,0,1.58.86,2-.8,2s-11.92-.51-12.94,0c-2.5-5.71-.73-12.6,5.59-14.76,1.55,3.23,5,3.69,8.09,4.87C251.1,67.48,252.75,68.06,252.09,69.56Z" transform="translate(0 0)"/><path class="fddda29f-59a7-4895-be06-f4615c6264d9" d="M277.15,60.86c3.66-1.67,11.1-2.55,14.25-.89C300,64.48,299,70.3,296.83,78.78s.8,16.87,2.85,18.93a18.42,18.42,0,0,0,3.18,2.73s-2.37,1.37-9.09-2S285.38,92,285.38,92a8.14,8.14,0,0,0,1,4.1,13.39,13.39,0,0,1-3.79-10.17c.21-6.65-3.33-17.83-3.33-17.83Z" transform="translate(0 0)"/></g></svg>