<svg xmlns="http://www.w3.org/2000/svg" viewBox="0 0 355.23 333.39"><defs><style>.b3a34c93-c30a-4f51-b521-7329aa8518ea{isolation:isolate;}.b19404f6-814b-45d8-ba2d-40fad186e337{fill:#285c77;}.f380efcc-1ca8-47fd-887f-e42901dcb75d{fill:#d6953e;}.aecf2cb7-32dd-44d7-8861-2713500e1522{fill:#868689;}.ae38696a-da3b-412e-b7cf-a06f9fea9537{fill:#6d6d6d;}.aeafc3a6-c85b-4a01-bffa-1235a692736a{fill:#c5c4d7;}.f094990e-23e0-4841-95a0-70e09272adab{fill:#a5a5ad;}.b1ae5ba9-bc0f-487c-9fec-4795ea94f1b5{fill:#172f47;}.b24088ec-79c9-441b-983d-ded67011a40f{fill:#202739;}.b7f407ee-1c0a-4833-8e40-73bb9654ddc0{fill:#a7a6bb;}.b1e63c09-1609-46a1-802e-d19b81645ac1{fill:#fefefe;}.bd68706a-487c-4e7f-a93b-13ae15cf591e{fill:#fd7c3a;}.e6c8939f-2e7e-4251-801b-da888261cef0{fill:#004db9;}.b9dde326-baac-4368-b230-f8be4c3007ea{fill:#d3d3d3;}.af4dbccf-fb4a-480f-941f-16452b60ca68,.b9dde326-baac-4368-b230-f8be4c3007ea{mix-blend-mode:multiply;}.ba2f0cb2-3900-415c-b936-19d40cea5390{fill:#adadad;}.a18dd5a6-7daa-4840-9f2d-345ec64e0339{fill:#e4e4ef;}.ec26aba3-44f4-448f-9a94-6b5724e03a2d{fill:#897762;}.a7abc3a9-d69b-47ff-8b2a-b1d9a4600230{fill:#331d0b;}.b771d170-1c17-4d68-b30e-75e0d1cb050e{fill:#635140;}.ac83deba-4e24-4227-acd9-72ea5e73f705{fill:#edac7c;}.af648e2b-e729-485f-b2d4-f889469303ec{fill:#f7a588;}.e7b65355-6819-46f7-adc6-bd984334e794{fill:#cf9166;}.f3ccedae-dadf-4dcb-9aa8-c940c333c35c{fill:#b57223;}.b0575ce8-85dd-486b-8b8d-2c894e884341{fill:#39748e;}.af4dbccf-fb4a-480f-941f-16452b60ca68{fill:#77bfd8;}path#settings{transform-box:fill-box;transform-origin:center;animation:settings 6s ease 0s infinite}rect.bd68706a-487c-4e7f-a93b-13ae15cf591e{animation:rect 6s ease 0s infinite}path.f3ccedae-dadf-4dcb-9aa8-c940c333c35c{transform-box:fill-box;transform-origin:bottom;animation:path____head 3s ease 0s infinite}@keyframes settings{0%,50%{transform:rotate(0)}30%{transform:rotate(300deg)}70%{transform:rotate(500deg)}90%{transform:rotate(-100deg)}}@keyframes rect{0%,30%,70%{opacity:1}50%,90%{opacity:0}}@keyframes path____head{0%,50%{transform:rotate(0)}30%,90%{transform:rotate(1deg)}70%{transform:rotate(-1deg)}}</style></defs><title>softwaredevelopment2</title><g class="b3a34c93-c30a-4f51-b521-7329aa8518ea"><g id="e26c3ab6-03aa-44ff-b6ef-939a602860b1" data-name="OBJECTS"><path id="settings" class="b19404f6-814b-45d8-ba2d-40fad186e337" d="M235.4,33.65,221.3,46.74l4.86,7.41a5.26,5.26,0,0,1,.33,5.07l0,.05a5.22,5.22,0,0,1-4.05,3l-8.78,1.16-.72,19.22,8.68,1.81a5.23,5.23,0,0,1,3.81,3.35l0,0a5.24,5.24,0,0,1-.7,5l-5.4,7,6.55,7.05,6.54,7,7.41-4.85a5.21,5.21,0,0,1,5.06-.33l.06,0a5.22,5.22,0,0,1,3.05,4l1.16,8.79,19.22.71,1.81-8.67a5.24,5.24,0,0,1,3.35-3.82l.05,0a5.25,5.25,0,0,1,5,.71l7,5.39L299.73,103l-4.85-7.41a5.21,5.21,0,0,1-.33-5.06l0,0a5.23,5.23,0,0,1,4.05-3.06l8.79-1.15L308.12,67l-8.67-1.8a5.24,5.24,0,0,1-3.82-3.35l0-.06a5.23,5.23,0,0,1,.71-5l5.39-7-6.54-7-6.55-7-7.41,4.86a5.24,5.24,0,0,1-5.06.33l0,0A5.25,5.25,0,0,1,273,36.74L271.89,28l-19.23-.72-1.8,8.68a5.25,5.25,0,0,1-3.35,3.81l-.06,0a5.22,5.22,0,0,1-5-.7Zm45.93,21.88A28.4,28.4,0,1,1,241.19,54,28.4,28.4,0,0,1,281.33,55.53Z" transform="translate(-0.53 -1.58)"/><path id="settings" class="f380efcc-1ca8-47fd-887f-e42901dcb75d" d="M323.1,56l-6.23,5.78L319,65.06a2.32,2.32,0,0,1,.15,2.24v0a2.29,2.29,0,0,1-1.79,1.35l-3.88.51-.32,8.5,3.83.79A2.32,2.32,0,0,1,318.68,80v0a2.33,2.33,0,0,1-.31,2.22L316,85.3l2.89,3.11,2.9,3.12,3.27-2.15a2.32,2.32,0,0,1,2.24-.14h0A2.32,2.32,0,0,1,328.66,91l.51,3.88,8.49.31.8-3.83a2.31,2.31,0,0,1,1.48-1.68h0a2.3,2.3,0,0,1,2.22.31l3.11,2.38,6.23-5.78-2.15-3.27a2.32,2.32,0,0,1-.15-2.24v0a2.31,2.31,0,0,1,1.8-1.35l3.88-.51.31-8.5-3.83-.79a2.34,2.34,0,0,1-1.69-1.48v0a2.3,2.3,0,0,1,.31-2.22l2.38-3.1L349.5,60l-2.89-3.11L343.33,59a2.3,2.3,0,0,1-2.23.14h0a2.34,2.34,0,0,1-1.35-1.79l-.51-3.88-8.49-.32-.8,3.84a2.31,2.31,0,0,1-1.48,1.68h0a2.32,2.32,0,0,1-2.22-.31Zm20.29,9.66A12.55,12.55,0,1,1,325.66,65,12.55,12.55,0,0,1,343.39,65.67Z" transform="translate(-0.53 -1.58)"/><path id="settings" class="f380efcc-1ca8-47fd-887f-e42901dcb75d" d="M174.62,5.75l-9.17,8.5,3.16,4.82a3.41,3.41,0,0,1,.22,3.29l0,0a3.42,3.42,0,0,1-2.63,2l-5.71.75L160,37.62l5.64,1.17A3.42,3.42,0,0,1,168.12,41v0a3.39,3.39,0,0,1-.46,3.27l-3.5,4.57,4.25,4.58L172.67,58l4.82-3.16a3.41,3.41,0,0,1,3.29-.21h0a3.4,3.4,0,0,1,2,2.64l.75,5.7,12.49.47,1.18-5.64a3.4,3.4,0,0,1,2.17-2.48h0a3.38,3.38,0,0,1,3.26.46l4.57,3.5,9.16-8.5L213.27,46a3.4,3.4,0,0,1-.22-3.3l0,0a3.39,3.39,0,0,1,2.63-2l5.71-.75.46-12.49-5.63-1.17a3.36,3.36,0,0,1-2.48-2.18l0,0a3.42,3.42,0,0,1,.46-3.27l3.51-4.56-4.26-4.59L209.2,7l-4.81,3.16a3.41,3.41,0,0,1-3.29.21h0a3.39,3.39,0,0,1-2-2.64l-.75-5.7-12.5-.47-1.17,5.64a3.4,3.4,0,0,1-2.18,2.48h0a3.4,3.4,0,0,1-3.27-.46ZM204.46,20a18.45,18.45,0,1,1-26.08-1A18.45,18.45,0,0,1,204.46,20Z" transform="translate(-0.53 -1.58)"/><path class="aecf2cb7-32dd-44d7-8861-2713500e1522" d="M17.41,226.4H338.88a4.33,4.33,0,0,0,4.33-4.33h0a4.33,4.33,0,0,0-4.33-4.33H17.41a4.33,4.33,0,0,0-4.33,4.33h0A4.33,4.33,0,0,0,17.41,226.4Z" transform="translate(-0.53 -1.58)"/><path class="ae38696a-da3b-412e-b7cf-a06f9fea9537" d="M13.44,223.79a4.33,4.33,0,0,0,4,2.61H338.88a4.31,4.31,0,0,0,4-2.61Z" transform="translate(-0.53 -1.58)"/><rect class="aeafc3a6-c85b-4a01-bffa-1235a692736a" x="112.17" y="213.2" width="119.29" height="4.54" transform="translate(343.08 429.36) rotate(180)"/><rect class="f094990e-23e0-4841-95a0-70e09272adab" x="124.28" y="213.2" width="119.29" height="4.54" transform="translate(367.31 429.36) rotate(180)"/><path class="b1ae5ba9-bc0f-487c-9fec-4795ea94f1b5" d="M270.37,75.44v83.12a5.38,5.38,0,0,1-5.37,5.37H92.18a5.38,5.38,0,0,1-5.37-5.37V75.44a5.37,5.37,0,0,1,5.37-5.37H265A5.37,5.37,0,0,1,270.37,75.44Z" transform="translate(-0.53 -1.58)"/><rect class="b24088ec-79c9-441b-983d-ded67011a40f" x="176.74" y="82.4" width="2.58" height="83.79"/><path class="b7f407ee-1c0a-4833-8e40-73bb9654ddc0" d="M274.39,78.6V72.5A6.46,6.46,0,0,0,267.94,66H89.24a6.46,6.46,0,0,0-6.45,6.46v6.1Z" transform="translate(-0.53 -1.58)"/><rect class="b1e63c09-1609-46a1-802e-d19b81645ac1" x="193.23" y="125.86" width="26.33" height="4.54"/><rect class="bd68706a-487c-4e7f-a93b-13ae15cf591e" x="193.23" y="134.66" width="32.77" height="4.54"/><rect class="b1e63c09-1609-46a1-802e-d19b81645ac1" x="229.36" y="134.66" width="16.24" height="4.54"/><rect class="b1e63c09-1609-46a1-802e-d19b81645ac1" x="193.23" y="143.45" width="12.88" height="4.54"/><rect class="b1e63c09-1609-46a1-802e-d19b81645ac1" x="210.59" y="143.45" width="48.45" height="4.54"/><rect class="e6c8939f-2e7e-4251-801b-da888261cef0" x="225.72" y="125.86" width="15.12" height="4.54"/><rect class="b1e63c09-1609-46a1-802e-d19b81645ac1" x="193.23" y="84.69" width="26.33" height="4.54"/><rect class="bd68706a-487c-4e7f-a93b-13ae15cf591e" x="193.23" y="93.48" width="32.77" height="4.54"/><rect class="b1e63c09-1609-46a1-802e-d19b81645ac1" x="229.36" y="93.48" width="16.24" height="4.54"/><rect class="b1e63c09-1609-46a1-802e-d19b81645ac1" x="193.23" y="102.27" width="12.88" height="4.54"/><rect class="b1e63c09-1609-46a1-802e-d19b81645ac1" x="210.59" y="102.27" width="48.45" height="4.54"/><rect class="e6c8939f-2e7e-4251-801b-da888261cef0" x="225.72" y="84.69" width="15.12" height="4.54"/><rect class="b1e63c09-1609-46a1-802e-d19b81645ac1" x="103.66" y="125.86" width="26.33" height="4.54"/><rect class="bd68706a-487c-4e7f-a93b-13ae15cf591e" x="103.66" y="134.66" width="32.77" height="4.54"/><rect class="b1e63c09-1609-46a1-802e-d19b81645ac1" x="139.79" y="134.66" width="16.24" height="4.54"/><rect class="b1e63c09-1609-46a1-802e-d19b81645ac1" x="103.66" y="143.45" width="12.88" height="4.54"/><rect class="b1e63c09-1609-46a1-802e-d19b81645ac1" x="121.03" y="143.45" width="48.45" height="4.54"/><rect class="e6c8939f-2e7e-4251-801b-da888261cef0" x="136.15" y="125.86" width="15.12" height="4.54"/><rect class="b1e63c09-1609-46a1-802e-d19b81645ac1" x="103.66" y="84.69" width="26.33" height="4.54"/><rect class="bd68706a-487c-4e7f-a93b-13ae15cf591e" x="103.66" y="93.48" width="32.77" height="4.54"/><rect class="b1e63c09-1609-46a1-802e-d19b81645ac1" x="139.79" y="93.48" width="16.24" height="4.54"/><rect class="b1e63c09-1609-46a1-802e-d19b81645ac1" x="103.66" y="102.27" width="12.88" height="4.54"/><rect class="b1e63c09-1609-46a1-802e-d19b81645ac1" x="121.03" y="102.27" width="48.45" height="4.54"/><rect class="e6c8939f-2e7e-4251-801b-da888261cef0" x="136.15" y="84.69" width="15.12" height="4.54"/><path class="aecf2cb7-32dd-44d7-8861-2713500e1522" d="M265,62H92.18A13.43,13.43,0,0,0,78.76,75.44v101A13.43,13.43,0,0,0,92.18,189.9H265a13.43,13.43,0,0,0,13.42-13.42v-101A13.43,13.43,0,0,0,265,62Zm5.37,96.54a5.38,5.38,0,0,1-5.37,5.37H92.18a5.38,5.38,0,0,1-5.37-5.37V75.44a5.37,5.37,0,0,1,5.37-5.37H265a5.37,5.37,0,0,1,5.37,5.37Z" transform="translate(-0.53 -1.58)"/><path class="b9dde326-baac-4368-b230-f8be4c3007ea" d="M260.85,167.54l.39-1.71a13.68,13.68,0,0,0-4-13.08h0a13.69,13.69,0,0,0-13.34-3L243,150l10.3,9.55-1.57,6.85-6.71,2.07-10.3-9.55-.2.85a13.72,13.72,0,0,0,4,13.08h0a13.69,13.69,0,0,0,13.34,3l1.68-.51,15.11,14A13.46,13.46,0,0,0,277,182.5Z" transform="translate(-0.53 -1.58)"/><path class="ae38696a-da3b-412e-b7cf-a06f9fea9537" d="M265,68.1H92.18a5.37,5.37,0,0,0-5.37,5.37v2a5.37,5.37,0,0,1,5.37-5.37H265a5.37,5.37,0,0,1,5.37,5.37v-2A5.37,5.37,0,0,0,265,68.1Z" transform="translate(-0.53 -1.58)"/><path class="ae38696a-da3b-412e-b7cf-a06f9fea9537" d="M265,187.93H92.18a13.43,13.43,0,0,1-13.42-13.42v2A13.43,13.43,0,0,0,92.18,189.9H265a13.43,13.43,0,0,0,13.42-13.42v-2A13.43,13.43,0,0,1,265,187.93Z" transform="translate(-0.53 -1.58)"/><path class="b1e63c09-1609-46a1-802e-d19b81645ac1" d="M261.66,74.49a2,2,0,1,1-2-2A2,2,0,0,1,261.66,74.49Z" transform="translate(-0.53 -1.58)"/><path class="b24088ec-79c9-441b-983d-ded67011a40f" d="M254.63,74.49a2,2,0,1,1-2-2A2,2,0,0,1,254.63,74.49Z" transform="translate(-0.53 -1.58)"/><path class="bd68706a-487c-4e7f-a93b-13ae15cf591e" d="M247.61,74.49a2,2,0,1,1-2-2A2,2,0,0,1,247.61,74.49Z" transform="translate(-0.53 -1.58)"/><path class="ba2f0cb2-3900-415c-b936-19d40cea5390" d="M298.73,209.49l-34.53-49,.74-1.6a13.69,13.69,0,0,0-13.65-19.38l-.87.08L258.51,151l-3,6.38-7,.63-8.08-11.49-.37.79a13.69,13.69,0,0,0,13.65,19.38l1.74-.15,34.54,49a5.32,5.32,0,1,0,8.7-6.13Z" transform="translate(-0.53 -1.58)"/><path class="aecf2cb7-32dd-44d7-8861-2713500e1522" d="M293.57,211.4h0a2.62,2.62,0,0,1-3.65-.64L261,169.67a2.62,2.62,0,0,1,.64-3.65h0a2.63,2.63,0,0,1,3.65.64l28.93,41.09A2.63,2.63,0,0,1,293.57,211.4Z" transform="translate(-0.53 -1.58)"/><path class="f380efcc-1ca8-47fd-887f-e42901dcb75d" d="M110.32,113.33l-7.76,18.26H78.76V117.73l-6.79,16-.39.91h0L36.25,217.81h7l4.57-10.75H70.51l-4.57,10.75h7l43.31-102ZM70.11,154.6l7-16.56H99.82l-7,16.56Zm19.94,6.45L83,177.6H60.34l7-16.55ZM50.57,200.61l7-16.55H80.28l-7,16.55Z" transform="translate(-0.53 -1.58)"/><path class="a18dd5a6-7daa-4840-9f2d-345ec64e0339" d="M350.15,335H6.15a5.62,5.62,0,0,1-5.62-5.61h0a5.62,5.62,0,0,1,5.62-5.62h344a5.61,5.61,0,0,1,5.61,5.62h0A5.61,5.61,0,0,1,350.15,335Z" transform="translate(-0.53 -1.58)"/><path class="aeafc3a6-c85b-4a01-bffa-1235a692736a" d="M244.38,335H111.92a5.61,5.61,0,0,1-5.62-5.61h0a5.61,5.61,0,0,1,5.62-5.62H244.38a5.62,5.62,0,0,1,5.62,5.62h0A5.62,5.62,0,0,1,244.38,335Z" transform="translate(-0.53 -1.58)"/><path class="ec26aba3-44f4-448f-9a94-6b5724e03a2d" d="M177.28,232.86H209a15.18,15.18,0,0,1,1.61.09c10.79,1.12,17.95,11.77,15.43,22.32l-13,60.42H194.41l9-57.31H177.28Z" transform="translate(-0.53 -1.58)"/><path class="a7abc3a9-d69b-47ff-8b2a-b1d9a4600230" d="M194.41,315.69H210s16.57,1.57,16.57,12.54H194.41Z" transform="translate(-0.53 -1.58)"/><path class="ec26aba3-44f4-448f-9a94-6b5724e03a2d" d="M179.08,232.86H147.36a15.18,15.18,0,0,0-1.61.09c-10.79,1.12-18,11.77-15.43,22.32l13,60.42H162l-9-57.31h26.09Z" transform="translate(-0.53 -1.58)"/><path class="b771d170-1c17-4d68-b30e-75e0d1cb050e" d="M205.36,315.69c.07-.2.13-.41.19-.61,2.16-7.12,4.2-24.13,6.22-31.29,2.16-7.66,4.17-15.36,5.66-23.18.31-1.61.57-3.22.85-4.82.1-.73.18-1.2.21-1.45.1-.84.2-1.67.28-2.51,0-.2,0-.41,0-.61H177.28v7.16h26.08l-9,57.31Z" transform="translate(-0.53 -1.58)"/><path class="b771d170-1c17-4d68-b30e-75e0d1cb050e" d="M179.08,251.22h-39.9c.18.82.38,1.63.59,2.44,1.75,6.9,4,13.66,6.26,20.41,2.2,6.58,4.49,13.16,6.19,19.9,1,3.95,1.74,17.79,2.74,21.72h7l-9-57.31h26.09Z" transform="translate(-0.53 -1.58)"/><path class="ac83deba-4e24-4227-acd9-72ea5e73f705" d="M159.85,127.09s-4-6.27-8.52-2.85.27,15.81,8.54,13.81Z" transform="translate(-0.53 -1.58)"/><path class="af648e2b-e729-485f-b2d4-f889469303ec" d="M159.86,131.24v5.64c-7,.57-10.05-9.44-6.74-10.47C155.81,125.58,158.68,129.27,159.86,131.24Z" transform="translate(-0.53 -1.58)"/><path class="e7b65355-6819-46f7-adc6-bd984334e794" d="M151.82,128.3l.05-.12.14-.33a2.2,2.2,0,0,1,.71-.9,1.24,1.24,0,0,1,.3-.16l.17-.05h.08l.11,0a.75.75,0,0,1,.2,0h.4l.22,0a4.61,4.61,0,0,1,1.68.74,9.27,9.27,0,0,1,.8.6l.73.64c.46.44.88.88,1.25,1.25l1.2,1.29a4.06,4.06,0,0,0-.18-.46,10.28,10.28,0,0,0-.58-1.15c-.14-.23-.29-.48-.47-.73s-.38-.51-.6-.77a8.38,8.38,0,0,0-1.61-1.45,6.06,6.06,0,0,0-1-.53,3.7,3.7,0,0,0-1.12-.25H154l-.27,0-.28,0a1.09,1.09,0,0,0-.25.07l-.11,0-.07,0-.06,0-.23.11a2,2,0,0,0-.38.32,2,2,0,0,0-.41.68,3.25,3.25,0,0,0-.12.57,2.23,2.23,0,0,0,0,.37Z" transform="translate(-0.53 -1.58)"/><path class="ac83deba-4e24-4227-acd9-72ea5e73f705" d="M202,130.72s5-5.49,8.88-1.34-3,15.52-10.78,12.14Z" transform="translate(-0.53 -1.58)"/><path class="af648e2b-e729-485f-b2d4-f889469303ec" d="M201.24,134.82l-1,5.55c6.84,1.77,11.52-7.58,8.44-9.16C206.2,129.93,202.74,133.08,201.24,134.82Z" transform="translate(-0.53 -1.58)"/><path class="e7b65355-6819-46f7-adc6-bd984334e794" d="M209.66,133.29l0-.12c0-.09,0-.2-.08-.35a2.26,2.26,0,0,0-.55-1,1.05,1.05,0,0,0-.27-.2l-.16-.08,0,0h0l-.1,0-.2-.05-.19,0-.2,0a.79.79,0,0,0-.22,0,4.46,4.46,0,0,0-1.79.43c-.3.13-.59.29-.88.45l-.83.51c-.53.36-1,.71-1.44,1l-1.41,1.07s.08-.16.25-.43a9.29,9.29,0,0,1,.78-1c.17-.2.36-.42.58-.64a9.63,9.63,0,0,1,.73-.66,8.76,8.76,0,0,1,1.83-1.15,5.78,5.78,0,0,1,1.09-.35,4,4,0,0,1,1.15-.06l.28.05a1.34,1.34,0,0,1,.27.07l.26.09a1.67,1.67,0,0,1,.23.11l.1.05.07,0,0,0a.83.83,0,0,1,.21.16,1.53,1.53,0,0,1,.32.36,1.83,1.83,0,0,1,.28.75,2.5,2.5,0,0,1,0,.59c0,.15,0,.28-.06.36Z" transform="translate(-0.53 -1.58)"/><path class="ac83deba-4e24-4227-acd9-72ea5e73f705" d="M173.34,147.05l11.45,0s.47,17.92.51,17.92-.83,3.57-5.91,3.66-6.34-3.64-6.34-3.64S173.34,147.05,173.34,147.05Z" transform="translate(-0.53 -1.58)"/><path class="e7b65355-6819-46f7-adc6-bd984334e794" d="M173.34,147.05l11.45,0s.47,17.92.51,17.92-.83,3.57-5.91,3.66-6.34-3.64-6.34-3.64S173.34,147.05,173.34,147.05Z" transform="translate(-0.53 -1.58)"/><path class="e7b65355-6819-46f7-adc6-bd984334e794" d="M174,149.87l11.4,1s-.05,2.29-.09,4.24c0,.29-3.32.5-3.68.52a20.14,20.14,0,0,1-8.2-1.32C173.72,152.32,174,149.87,174,149.87Z" transform="translate(-0.53 -1.58)"/><path class="e7b65355-6819-46f7-adc6-bd984334e794" d="M157.45,121.79c1-7.9,5-15.08,13.1-17.48a33.35,33.35,0,0,1,12.78-.83c4.2.44,8.66,1.1,12.48,3,6.85,3.35,5.5,6.92,5.6,14.22,0,.71,4.46,4.59,4.43,5.3-.09,1.64-.1,3.26-.3,4.89a38.32,38.32,0,0,1-2.86,10.71A24.43,24.43,0,0,1,194.3,152,24.41,24.41,0,0,1,175,155.2a25.64,25.64,0,0,1-7.94-3.62,22.87,22.87,0,0,1-8.36-11.28,34.84,34.84,0,0,1-1.81-11.81,36.6,36.6,0,0,1,.56-6.53Z" transform="translate(-0.53 -1.58)"/><path class="e7b65355-6819-46f7-adc6-bd984334e794" d="M157,122a58.05,58.05,0,0,1,.24-7C156.94,119,157,122,157,122Z" transform="translate(-0.53 -1.58)"/><path class="f3ccedae-dadf-4dcb-9aa8-c940c333c35c" d="M209.51,128.05a37.08,37.08,0,0,0-4-15.28,27.13,27.13,0,0,0-1.88-8.5c-3.33-9.1-9.3-20.13-32.69-10-7.14,3.09-8.12,6.82-8.12,6.82s-1.05-1.44-4.82,1.66C151.52,108,150,119,151.33,124.24a22.8,22.8,0,0,0,1.21,3.62c-1.1,9.08,1.84,18.25,14.49,23.72C181.41,157.78,211.29,154.49,209.51,128.05Z" transform="translate(-0.53 -1.58)"/><path class="e6c8939f-2e7e-4251-801b-da888261cef0" d="M223,202.76l-13.65-31.09c-2-4.45-7.21-7.43-13.1-7.43h-34.4c-5.89,0-11.14,3-13.09,7.43l-13.65,31.09c-3.18,7.23,3.52,14.8,13.08,14.8h61.72C219.51,217.56,226.2,210,223,202.76Z" transform="translate(-0.53 -1.58)"/><rect class="b0575ce8-85dd-486b-8b8d-2c894e884341" x="144.91" y="168.15" width="67.99" height="80.37" rx="14.08"/><rect class="b19404f6-814b-45d8-ba2d-40fad186e337" x="148.23" y="168.15" width="61.36" height="75.44" rx="14.08"/><rect class="b0575ce8-85dd-486b-8b8d-2c894e884341" x="147.22" y="119.08" width="61.36" height="39.85" rx="14.08"/><path class="b19404f6-814b-45d8-ba2d-40fad186e337" d="M193.93,157.12H163a11.4,11.4,0,0,1-11.37-11.44V133.44A11.41,11.41,0,0,1,163,122h31a11.41,11.41,0,0,1,11.37,11.44v12.24A11.4,11.4,0,0,1,193.93,157.12Z" transform="translate(-0.53 -1.58)"/><ellipse class="b19404f6-814b-45d8-ba2d-40fad186e337" cx="177.57" cy="259.15" rx="39.81" ry="9.35"/><path class="b0575ce8-85dd-486b-8b8d-2c894e884341" d="M147.73,254.69A294.44,294.44,0,0,0,178.11,256a294.44,294.44,0,0,0,30.38-1.33c-7.3-2-18.2-3.31-30.38-3.31S155,252.67,147.73,254.69Z" transform="translate(-0.53 -1.58)"/><path class="af4dbccf-fb4a-480f-941f-16452b60ca68" d="M139.07,262.56c3.62,4.29,19.72,7.53,39,7.53s35.42-3.24,39-7.53Z" transform="translate(-0.53 -1.58)"/><path class="a7abc3a9-d69b-47ff-8b2a-b1d9a4600230" d="M162,315.69H146.38s-16.57,1.57-16.57,12.54H162Z" transform="translate(-0.53 -1.58)"/><path class="b24088ec-79c9-441b-983d-ded67011a40f" d="M235.76,219.25c0-1.51-4.71-2.73-10.52-2.73s-10.52,1.22-10.52,2.73,3.86,2.49,8.9,2.7c2.09,12.58,3.71,39.09-9.12,42.88a105,105,0,0,1-30.55,4V221.22a6.82,6.82,0,0,0-1.73-9.18V134.48a4.11,4.11,0,0,0-8.22,0V212.1a6.83,6.83,0,0,0-1.74,9v47.79a104,104,0,0,1-28.75-4c-12.84-3.79-11.21-30.3-9.12-42.88,5-.21,8.9-1.33,8.9-2.7s-4.71-2.73-10.52-2.73-10.53,1.22-10.53,2.73c0,1.25,3.24,2.3,7.65,2.63-1.56,9.93-5.09,41.42,12.13,46.51a109.12,109.12,0,0,0,30.17,4.27h.07v43H157.33v1.19a7.16,7.16,0,0,0-1.87-.26,6.87,6.87,0,1,0,6.87,6.87,6.76,6.76,0,0,0-.69-3H172a6.76,6.76,0,0,0-.69,3,6.87,6.87,0,1,0,13.05-3h10.24a6.89,6.89,0,1,0,4.4-3.65v-1.17H184V272.64l1.87,0A109.17,109.17,0,0,0,216,268.39c17.21-5.09,13.69-36.58,12.12-46.51C232.53,221.55,235.76,220.5,235.76,219.25Z" transform="translate(-0.53 -1.58)"/></g></g></svg>