<svg xmlns="http://www.w3.org/2000/svg" xmlns:xlink="http://www.w3.org/1999/xlink" viewBox="0 0 540 358" id="el_tWGXYc7U4O"><style>@-webkit-keyframes el_J-iTiwBRfXo_o3cQHvuyd_Animation{0%{-webkit-transform: translate(390.75303649902344px, 175.86488342285156px) scale(1, 1) translate(-390.75303649902344px, -175.86488342285156px);transform: translate(390.75303649902344px, 175.86488342285156px) scale(1, 1) translate(-390.75303649902344px, -175.86488342285156px);}16.67%{-webkit-transform: translate(390.75303649902344px, 175.86488342285156px) scale(1.15, 1.15) translate(-390.75303649902344px, -175.86488342285156px);transform: translate(390.75303649902344px, 175.86488342285156px) scale(1.15, 1.15) translate(-390.75303649902344px, -175.86488342285156px);}33.33%{-webkit-transform: translate(390.75303649902344px, 175.86488342285156px) scale(1, 1) translate(-390.75303649902344px, -175.86488342285156px);transform: translate(390.75303649902344px, 175.86488342285156px) scale(1, 1) translate(-390.75303649902344px, -175.86488342285156px);}50%{-webkit-transform: translate(390.75303649902344px, 175.86488342285156px) scale(1.15, 1.15) translate(-390.75303649902344px, -175.86488342285156px);transform: translate(390.75303649902344px, 175.86488342285156px) scale(1.15, 1.15) translate(-390.75303649902344px, -175.86488342285156px);}66.67%{-webkit-transform: translate(390.75303649902344px, 175.86488342285156px) scale(1, 1) translate(-390.75303649902344px, -175.86488342285156px);transform: translate(390.75303649902344px, 175.86488342285156px) scale(1, 1) translate(-390.75303649902344px, -175.86488342285156px);}83.33%{-webkit-transform: translate(390.75303649902344px, 175.86488342285156px) scale(1.15, 1.15) translate(-390.75303649902344px, -175.86488342285156px);transform: translate(390.75303649902344px, 175.86488342285156px) scale(1.15, 1.15) translate(-390.75303649902344px, -175.86488342285156px);}100%{-webkit-transform: translate(390.75303649902344px, 175.86488342285156px) scale(1, 1) translate(-390.75303649902344px, -175.86488342285156px);transform: translate(390.75303649902344px, 175.86488342285156px) scale(1, 1) translate(-390.75303649902344px, -175.86488342285156px);}}@keyframes el_J-iTiwBRfXo_o3cQHvuyd_Animation{0%{-webkit-transform: translate(390.75303649902344px, 175.86488342285156px) scale(1, 1) translate(-390.75303649902344px, -175.86488342285156px);transform: translate(390.75303649902344px, 175.86488342285156px) scale(1, 1) translate(-390.75303649902344px, -175.86488342285156px);}16.67%{-webkit-transform: translate(390.75303649902344px, 175.86488342285156px) scale(1.15, 1.15) translate(-390.75303649902344px, -175.86488342285156px);transform: translate(390.75303649902344px, 175.86488342285156px) scale(1.15, 1.15) translate(-390.75303649902344px, -175.86488342285156px);}33.33%{-webkit-transform: translate(390.75303649902344px, 175.86488342285156px) scale(1, 1) translate(-390.75303649902344px, -175.86488342285156px);transform: translate(390.75303649902344px, 175.86488342285156px) scale(1, 1) translate(-390.75303649902344px, -175.86488342285156px);}50%{-webkit-transform: translate(390.75303649902344px, 175.86488342285156px) scale(1.15, 1.15) translate(-390.75303649902344px, -175.86488342285156px);transform: translate(390.75303649902344px, 175.86488342285156px) scale(1.15, 1.15) translate(-390.75303649902344px, -175.86488342285156px);}66.67%{-webkit-transform: translate(390.75303649902344px, 175.86488342285156px) scale(1, 1) translate(-390.75303649902344px, -175.86488342285156px);transform: translate(390.75303649902344px, 175.86488342285156px) scale(1, 1) translate(-390.75303649902344px, -175.86488342285156px);}83.33%{-webkit-transform: translate(390.75303649902344px, 175.86488342285156px) scale(1.15, 1.15) translate(-390.75303649902344px, -175.86488342285156px);transform: translate(390.75303649902344px, 175.86488342285156px) scale(1.15, 1.15) translate(-390.75303649902344px, -175.86488342285156px);}100%{-webkit-transform: translate(390.75303649902344px, 175.86488342285156px) scale(1, 1) translate(-390.75303649902344px, -175.86488342285156px);transform: translate(390.75303649902344px, 175.86488342285156px) scale(1, 1) translate(-390.75303649902344px, -175.86488342285156px);}}@-webkit-keyframes el_StkiiRE8dI5_p32I7LCZO_Animation{16.67%{-webkit-transform: translate(309.66343688964844px, 92.1414406299591px) rotate(0deg) translate(-309.66343688964844px, -92.1414406299591px);transform: translate(309.66343688964844px, 92.1414406299591px) rotate(0deg) translate(-309.66343688964844px, -92.1414406299591px);}33.33%{-webkit-transform: translate(309.66343688964844px, 92.1414406299591px) rotate(-20deg) translate(-309.66343688964844px, -92.1414406299591px);transform: translate(309.66343688964844px, 92.1414406299591px) rotate(-20deg) translate(-309.66343688964844px, -92.1414406299591px);}50%{-webkit-transform: translate(309.66343688964844px, 92.1414406299591px) rotate(0deg) translate(-309.66343688964844px, -92.1414406299591px);transform: translate(309.66343688964844px, 92.1414406299591px) rotate(0deg) translate(-309.66343688964844px, -92.1414406299591px);}66.67%{-webkit-transform: translate(309.66343688964844px, 92.1414406299591px) rotate(10deg) translate(-309.66343688964844px, -92.1414406299591px);transform: translate(309.66343688964844px, 92.1414406299591px) rotate(10deg) translate(-309.66343688964844px, -92.1414406299591px);}83.33%{-webkit-transform: translate(309.66343688964844px, 92.1414406299591px) rotate(0deg) translate(-309.66343688964844px, -92.1414406299591px);transform: translate(309.66343688964844px, 92.1414406299591px) rotate(0deg) translate(-309.66343688964844px, -92.1414406299591px);}0%{-webkit-transform: translate(309.66343688964844px, 92.1414406299591px) rotate(0deg) translate(-309.66343688964844px, -92.1414406299591px);transform: translate(309.66343688964844px, 92.1414406299591px) rotate(0deg) translate(-309.66343688964844px, -92.1414406299591px);}100%{-webkit-transform: translate(309.66343688964844px, 92.1414406299591px) rotate(0deg) translate(-309.66343688964844px, -92.1414406299591px);transform: translate(309.66343688964844px, 92.1414406299591px) rotate(0deg) translate(-309.66343688964844px, -92.1414406299591px);}}@keyframes el_StkiiRE8dI5_p32I7LCZO_Animation{16.67%{-webkit-transform: translate(309.66343688964844px, 92.1414406299591px) rotate(0deg) translate(-309.66343688964844px, -92.1414406299591px);transform: translate(309.66343688964844px, 92.1414406299591px) rotate(0deg) translate(-309.66343688964844px, -92.1414406299591px);}33.33%{-webkit-transform: translate(309.66343688964844px, 92.1414406299591px) rotate(-20deg) translate(-309.66343688964844px, -92.1414406299591px);transform: translate(309.66343688964844px, 92.1414406299591px) rotate(-20deg) translate(-309.66343688964844px, -92.1414406299591px);}50%{-webkit-transform: translate(309.66343688964844px, 92.1414406299591px) rotate(0deg) translate(-309.66343688964844px, -92.1414406299591px);transform: translate(309.66343688964844px, 92.1414406299591px) rotate(0deg) translate(-309.66343688964844px, -92.1414406299591px);}66.67%{-webkit-transform: translate(309.66343688964844px, 92.1414406299591px) rotate(10deg) translate(-309.66343688964844px, -92.1414406299591px);transform: translate(309.66343688964844px, 92.1414406299591px) rotate(10deg) translate(-309.66343688964844px, -92.1414406299591px);}83.33%{-webkit-transform: translate(309.66343688964844px, 92.1414406299591px) rotate(0deg) translate(-309.66343688964844px, -92.1414406299591px);transform: translate(309.66343688964844px, 92.1414406299591px) rotate(0deg) translate(-309.66343688964844px, -92.1414406299591px);}0%{-webkit-transform: translate(309.66343688964844px, 92.1414406299591px) rotate(0deg) translate(-309.66343688964844px, -92.1414406299591px);transform: translate(309.66343688964844px, 92.1414406299591px) rotate(0deg) translate(-309.66343688964844px, -92.1414406299591px);}100%{-webkit-transform: translate(309.66343688964844px, 92.1414406299591px) rotate(0deg) translate(-309.66343688964844px, -92.1414406299591px);transform: translate(309.66343688964844px, 92.1414406299591px) rotate(0deg) translate(-309.66343688964844px, -92.1414406299591px);}}@-webkit-keyframes el_b3_H8vEOZs4_Animation{0%{opacity: 0.5;}16.67%{opacity: 1;}83.33%{opacity: 1;}100%{opacity: 0.5;}}@keyframes el_b3_H8vEOZs4_Animation{0%{opacity: 0.5;}16.67%{opacity: 1;}83.33%{opacity: 1;}100%{opacity: 0.5;}}@-webkit-keyframes el_b3_H8vEOZs4_rAL58LyUB_Animation{0%{-webkit-transform: translate(201.45242309570312px, 69.24288558959961px) scale(0.5, 0.5) translate(-201.45242309570312px, -69.24288558959961px);transform: translate(201.45242309570312px, 69.24288558959961px) scale(0.5, 0.5) translate(-201.45242309570312px, -69.24288558959961px);}16.67%{-webkit-transform: translate(201.45242309570312px, 69.24288558959961px) scale(1, 1) translate(-201.45242309570312px, -69.24288558959961px);transform: translate(201.45242309570312px, 69.24288558959961px) scale(1, 1) translate(-201.45242309570312px, -69.24288558959961px);}83.33%{-webkit-transform: translate(201.45242309570312px, 69.24288558959961px) scale(1, 1) translate(-201.45242309570312px, -69.24288558959961px);transform: translate(201.45242309570312px, 69.24288558959961px) scale(1, 1) translate(-201.45242309570312px, -69.24288558959961px);}100%{-webkit-transform: translate(201.45242309570312px, 69.24288558959961px) scale(0.5, 0.5) translate(-201.45242309570312px, -69.24288558959961px);transform: translate(201.45242309570312px, 69.24288558959961px) scale(0.5, 0.5) translate(-201.45242309570312px, -69.24288558959961px);}}@keyframes el_b3_H8vEOZs4_rAL58LyUB_Animation{0%{-webkit-transform: translate(201.45242309570312px, 69.24288558959961px) scale(0.5, 0.5) translate(-201.45242309570312px, -69.24288558959961px);transform: translate(201.45242309570312px, 69.24288558959961px) scale(0.5, 0.5) translate(-201.45242309570312px, -69.24288558959961px);}16.67%{-webkit-transform: translate(201.45242309570312px, 69.24288558959961px) scale(1, 1) translate(-201.45242309570312px, -69.24288558959961px);transform: translate(201.45242309570312px, 69.24288558959961px) scale(1, 1) translate(-201.45242309570312px, -69.24288558959961px);}83.33%{-webkit-transform: translate(201.45242309570312px, 69.24288558959961px) scale(1, 1) translate(-201.45242309570312px, -69.24288558959961px);transform: translate(201.45242309570312px, 69.24288558959961px) scale(1, 1) translate(-201.45242309570312px, -69.24288558959961px);}100%{-webkit-transform: translate(201.45242309570312px, 69.24288558959961px) scale(0.5, 0.5) translate(-201.45242309570312px, -69.24288558959961px);transform: translate(201.45242309570312px, 69.24288558959961px) scale(0.5, 0.5) translate(-201.45242309570312px, -69.24288558959961px);}}@-webkit-keyframes el_b3_H8vEOZs4_UcyaJRl0N_Animation{0%{-webkit-transform: translate(201.45242309570312px, 69.24288558959961px) translate(-201.45242309570312px, -69.24288558959961px) translate(0px, 100px);transform: translate(201.45242309570312px, 69.24288558959961px) translate(-201.45242309570312px, -69.24288558959961px) translate(0px, 100px);}16.67%{-webkit-transform: translate(201.45242309570312px, 69.24288558959961px) translate(-201.45242309570312px, -69.24288558959961px) translate(0px, 0px);transform: translate(201.45242309570312px, 69.24288558959961px) translate(-201.45242309570312px, -69.24288558959961px) translate(0px, 0px);}83.33%{-webkit-transform: translate(201.45242309570312px, 69.24288558959961px) translate(-201.45242309570312px, -69.24288558959961px) translate(0px, 0px);transform: translate(201.45242309570312px, 69.24288558959961px) translate(-201.45242309570312px, -69.24288558959961px) translate(0px, 0px);}100%{-webkit-transform: translate(201.45242309570312px, 69.24288558959961px) translate(-201.45242309570312px, -69.24288558959961px) translate(0px, 100px);transform: translate(201.45242309570312px, 69.24288558959961px) translate(-201.45242309570312px, -69.24288558959961px) translate(0px, 100px);}}@keyframes el_b3_H8vEOZs4_UcyaJRl0N_Animation{0%{-webkit-transform: translate(201.45242309570312px, 69.24288558959961px) translate(-201.45242309570312px, -69.24288558959961px) translate(0px, 100px);transform: translate(201.45242309570312px, 69.24288558959961px) translate(-201.45242309570312px, -69.24288558959961px) translate(0px, 100px);}16.67%{-webkit-transform: translate(201.45242309570312px, 69.24288558959961px) translate(-201.45242309570312px, -69.24288558959961px) translate(0px, 0px);transform: translate(201.45242309570312px, 69.24288558959961px) translate(-201.45242309570312px, -69.24288558959961px) translate(0px, 0px);}83.33%{-webkit-transform: translate(201.45242309570312px, 69.24288558959961px) translate(-201.45242309570312px, -69.24288558959961px) translate(0px, 0px);transform: translate(201.45242309570312px, 69.24288558959961px) translate(-201.45242309570312px, -69.24288558959961px) translate(0px, 0px);}100%{-webkit-transform: translate(201.45242309570312px, 69.24288558959961px) translate(-201.45242309570312px, -69.24288558959961px) translate(0px, 100px);transform: translate(201.45242309570312px, 69.24288558959961px) translate(-201.45242309570312px, -69.24288558959961px) translate(0px, 100px);}}@-webkit-keyframes el_0iGtThuuVI_iM34bnHBB_Animation{0%{-webkit-transform: translate(502.6410675048828px, 199.03156280517578px) rotate(0deg) translate(-502.6410675048828px, -199.03156280517578px);transform: translate(502.6410675048828px, 199.03156280517578px) rotate(0deg) translate(-502.6410675048828px, -199.03156280517578px);}100%{-webkit-transform: translate(502.6410675048828px, 199.03156280517578px) rotate(360deg) translate(-502.6410675048828px, -199.03156280517578px);transform: translate(502.6410675048828px, 199.03156280517578px) rotate(360deg) translate(-502.6410675048828px, -199.03156280517578px);}}@keyframes el_0iGtThuuVI_iM34bnHBB_Animation{0%{-webkit-transform: translate(502.6410675048828px, 199.03156280517578px) rotate(0deg) translate(-502.6410675048828px, -199.03156280517578px);transform: translate(502.6410675048828px, 199.03156280517578px) rotate(0deg) translate(-502.6410675048828px, -199.03156280517578px);}100%{-webkit-transform: translate(502.6410675048828px, 199.03156280517578px) rotate(360deg) translate(-502.6410675048828px, -199.03156280517578px);transform: translate(502.6410675048828px, 199.03156280517578px) rotate(360deg) translate(-502.6410675048828px, -199.03156280517578px);}}@-webkit-keyframes el_Uwacv3IAxd_3akL9QN4u_Animation{0%{-webkit-transform: translate(462.98809814453125px, 268.11341094970703px) rotate(0deg) translate(-462.98809814453125px, -268.11341094970703px);transform: translate(462.98809814453125px, 268.11341094970703px) rotate(0deg) translate(-462.98809814453125px, -268.11341094970703px);}100%{-webkit-transform: translate(462.98809814453125px, 268.11341094970703px) rotate(360deg) translate(-462.98809814453125px, -268.11341094970703px);transform: translate(462.98809814453125px, 268.11341094970703px) rotate(360deg) translate(-462.98809814453125px, -268.11341094970703px);}}@keyframes el_Uwacv3IAxd_3akL9QN4u_Animation{0%{-webkit-transform: translate(462.98809814453125px, 268.11341094970703px) rotate(0deg) translate(-462.98809814453125px, -268.11341094970703px);transform: translate(462.98809814453125px, 268.11341094970703px) rotate(0deg) translate(-462.98809814453125px, -268.11341094970703px);}100%{-webkit-transform: translate(462.98809814453125px, 268.11341094970703px) rotate(360deg) translate(-462.98809814453125px, -268.11341094970703px);transform: translate(462.98809814453125px, 268.11341094970703px) rotate(360deg) translate(-462.98809814453125px, -268.11341094970703px);}}#el_tWGXYc7U4O *{-webkit-animation-duration: 3s;animation-duration: 3s;-webkit-animation-iteration-count: infinite;animation-iteration-count: infinite;-webkit-animation-timing-function: cubic-bezier(0, 0, 1, 1);animation-timing-function: cubic-bezier(0, 0, 1, 1);}#el_4d3XLgcO7v{isolation: isolate;}#el_cp76yn1QQv{fill: #444343;fill-rule: evenodd;opacity: 0.2;-webkit-transform: translate(16.34px, -1.87px);transform: translate(16.34px, -1.87px);}#el_-LR2QVuuT1{fill: #fdfdfd;-webkit-transform: translate(16.34px, -1.87px);transform: translate(16.34px, -1.87px);}#el_HGJ0flUwH5{fill: #fdfdfd;-webkit-transform: translate(16.34px, -1.87px);transform: translate(16.34px, -1.87px);}#el_Pt88MAMASw{fill: #444343;fill-rule: evenodd;opacity: 0.2;-webkit-transform: translate(16.34px, -1.87px);transform: translate(16.34px, -1.87px);}#el_G9WEidf1Z1{fill: #444343;fill-rule: evenodd;opacity: 0.2;-webkit-transform: translate(16.34px, -1.87px);transform: translate(16.34px, -1.87px);}#el_eI2jwi6Wrs{fill-rule: evenodd;fill: url(#linear-gradient);-webkit-transform: translate(16.34px, -1.87px);transform: translate(16.34px, -1.87px);}#el_hv2Qmsxno2B{fill-rule: evenodd;fill: url(#linear-gradient-2);-webkit-transform: translate(16.34px, -1.87px);transform: translate(16.34px, -1.87px);}#el_Rn9_IPgyWgA{fill-rule: evenodd;fill: url(#linear-gradient-3);-webkit-transform: translate(16.34px, -1.87px);transform: translate(16.34px, -1.87px);}#el_apJIMZBB6xX{fill: #fdfdfd;-webkit-transform: translate(16.34px, -1.87px);transform: translate(16.34px, -1.87px);}#el_JwN512FgZBW{fill-rule: evenodd;fill: #90aac5;-webkit-transform: translate(16.34px, -1.87px);transform: translate(16.34px, -1.87px);}#el_MHLdIKhu40i{fill: #026ae5;-webkit-transform: translate(16.34px, -1.87px);transform: translate(16.34px, -1.87px);}#el_SNcNX9F56GT{fill: #1c26a1;-webkit-transform: translate(16.34px, -1.87px);transform: translate(16.34px, -1.87px);}#el_O5soJwhNKmo{opacity: 0.15;}#el_1Ofc-Ukbf-9{-webkit-transform: translate(279px, 20.47px);transform: translate(279px, 20.47px);}#el_J-iTiwBRfXo{fill: #efefef;-webkit-transform: translate(16.34px, -1.87px);transform: translate(16.34px, -1.87px);}#el_zu-sE06F6-R{fill: #444343;fill-rule: evenodd;-webkit-transform: translate(16.34px, -1.87px);transform: translate(16.34px, -1.87px);}#el_LTyQ7M9-GRc{fill: #444343;fill-rule: evenodd;-webkit-transform: translate(16.34px, -1.87px);transform: translate(16.34px, -1.87px);}#el_X_5llFoYn7R{fill-rule: evenodd;fill: #53dca4;-webkit-transform: translate(16.34px, -1.87px);transform: translate(16.34px, -1.87px);}#el_MEFVifjzdi2{fill: #fff;}#el_gjPeAX9oFPW{fill-rule: evenodd;fill: #00adfe;}#el_KkGrwqlv7xi{fill-rule: evenodd;fill: #efefef;-webkit-transform: translate(16.34px, -1.87px);transform: translate(16.34px, -1.87px);}#el_A1l5sZ4seAb{fill-rule: evenodd;fill: #efefef;-webkit-transform: translate(16.34px, -1.87px);transform: translate(16.34px, -1.87px);}#el_IvWUMVquLVX{fill-rule: evenodd;fill: #efefef;-webkit-transform: translate(16.34px, -1.87px);transform: translate(16.34px, -1.87px);}#el_mbt60ddSJH4{fill-rule: evenodd;fill: #efefef;-webkit-transform: translate(16.34px, -1.87px);transform: translate(16.34px, -1.87px);}#el_YGonq4ZzZ0o{fill: #1c26a1;-webkit-transform: translate(16.34px, -1.87px);transform: translate(16.34px, -1.87px);}#el_efMNRFXty0D{fill: #026ae5;-webkit-transform: translate(16.34px, -1.87px);transform: translate(16.34px, -1.87px);}#el_shGyNFkYl7W{fill: url(#linear-gradient-4);}#el_7WsdcTHE5jQ{fill: #444343;-webkit-transform: translate(16.34px, -1.87px);transform: translate(16.34px, -1.87px);}#el_aPftoa0k19M{fill: url(#linear-gradient-5);}#el_bxGRcx6f8-8{fill: #444343;-webkit-transform: translate(16.34px, -1.87px);transform: translate(16.34px, -1.87px);}#el_GUQHharfqe3{fill: url(#linear-gradient-6);-webkit-transform: translate(16.34px, -1.87px);transform: translate(16.34px, -1.87px);}#el_9isdiMTWYhN{fill: url(#linear-gradient-7);-webkit-transform: translate(16.34px, -1.87px);transform: translate(16.34px, -1.87px);}#el_rLWpFegTvhC{fill: #444343;-webkit-transform: translate(16.34px, -1.87px);transform: translate(16.34px, -1.87px);}#el_Cf5zS4sI97K{fill: url(#linear-gradient-8);-webkit-transform: translate(16.34px, -1.87px);transform: translate(16.34px, -1.87px);}#el_bw1ETERZ16Q{fill: url(#linear-gradient-8);-webkit-transform: translate(16.34px, -1.87px);transform: translate(16.34px, -1.87px);}#el_dFk2kvHWsPY{fill: url(#linear-gradient-10);-webkit-transform: translate(16.34px, -1.87px);transform: translate(16.34px, -1.87px);}#el_LWofZBURjKT{opacity: 0.2;mix-blend-mode: multiply;}#el_hIDtY1BIEpK{-webkit-transform: translate(0px, 56.47px);transform: translate(0px, 56.47px);}#el_Uwacv3IAxd_3akL9QN4u{-webkit-animation-name: el_Uwacv3IAxd_3akL9QN4u_Animation;animation-name: el_Uwacv3IAxd_3akL9QN4u_Animation;-webkit-transform: translate(462.98809814453125px, 268.11341094970703px) rotate(0deg) translate(-462.98809814453125px, -268.11341094970703px);transform: translate(462.98809814453125px, 268.11341094970703px) rotate(0deg) translate(-462.98809814453125px, -268.11341094970703px);}#el_0iGtThuuVI_iM34bnHBB{-webkit-animation-name: el_0iGtThuuVI_iM34bnHBB_Animation;animation-name: el_0iGtThuuVI_iM34bnHBB_Animation;-webkit-transform: translate(502.6410675048828px, 199.03156280517578px) rotate(0deg) translate(-502.6410675048828px, -199.03156280517578px);transform: translate(502.6410675048828px, 199.03156280517578px) rotate(0deg) translate(-502.6410675048828px, -199.03156280517578px);}#el_b3_H8vEOZs4_UcyaJRl0N{-webkit-animation-name: el_b3_H8vEOZs4_UcyaJRl0N_Animation;animation-name: el_b3_H8vEOZs4_UcyaJRl0N_Animation;-webkit-animation-timing-function: cubic-bezier(0, 0, 0.58, 1);animation-timing-function: cubic-bezier(0, 0, 0.58, 1);}#el_b3_H8vEOZs4_rAL58LyUB{-webkit-animation-name: el_b3_H8vEOZs4_rAL58LyUB_Animation;animation-name: el_b3_H8vEOZs4_rAL58LyUB_Animation;-webkit-animation-timing-function: cubic-bezier(0, 0, 0.58, 1);animation-timing-function: cubic-bezier(0, 0, 0.58, 1);}#el_b3_H8vEOZs4{-webkit-animation-name: el_b3_H8vEOZs4_Animation;animation-name: el_b3_H8vEOZs4_Animation;-webkit-animation-timing-function: cubic-bezier(0, 0, 0.58, 1);animation-timing-function: cubic-bezier(0, 0, 0.58, 1);}#el_StkiiRE8dI5_p32I7LCZO{-webkit-animation-name: el_StkiiRE8dI5_p32I7LCZO_Animation;animation-name: el_StkiiRE8dI5_p32I7LCZO_Animation;-webkit-animation-timing-function: cubic-bezier(0.42, 0, 0.58, 1);animation-timing-function: cubic-bezier(0.42, 0, 0.58, 1);}#el_J-iTiwBRfXo_o3cQHvuyd{-webkit-animation-name: el_J-iTiwBRfXo_o3cQHvuyd_Animation;animation-name: el_J-iTiwBRfXo_o3cQHvuyd_Animation;-webkit-animation-timing-function: cubic-bezier(0.42, 0, 0.58, 1);animation-timing-function: cubic-bezier(0.42, 0, 0.58, 1);}</style><defs><linearGradient id="linear-gradient" x1="446.68" y1="219.38" x2="446.68" y2="320.47" gradientUnits="userSpaceOnUse"><stop offset="0" stop-color="#efe73b"/><stop offset="1" stop-color="#efae59"/></linearGradient><linearGradient id="linear-gradient-2" x1="486.27" y1="175.15" x2="486.27" y2="226.64" xlink:href="#linear-gradient"/><linearGradient id="linear-gradient-3" x1="293.29" y1="1.87" x2="293.29" y2="77.62" xlink:href="#linear-gradient"/><linearGradient id="linear-gradient-4" x1="41.59" y1="303.42" x2="53.63" y2="303.42" gradientUnits="userSpaceOnUse"><stop offset="0" stop-color="#efdd59"/><stop offset="1" stop-color="#efc959"/></linearGradient><linearGradient id="linear-gradient-5" x1="115.38" y1="302.19" x2="127.46" y2="302.19" xlink:href="#linear-gradient-4"/><linearGradient id="linear-gradient-6" x1="95.55" y1="166.6" x2="299.3" y2="166.6" gradientUnits="userSpaceOnUse"><stop offset="0" stop-color="#50b4ce"/><stop offset="1" stop-color="#50f6ce"/></linearGradient><linearGradient id="linear-gradient-7" x1="217.62" y1="109.69" x2="237.38" y2="143.93" xlink:href="#linear-gradient-4"/><linearGradient id="linear-gradient-8" x1="301.78" y1="105.65" x2="306.8" y2="114.34" xlink:href="#linear-gradient-4"/><linearGradient id="linear-gradient-10" x1="299.59" y1="166.74" x2="305.48" y2="176.93" xlink:href="#linear-gradient-4"/></defs><title>336613-PB9CT9-807</title><g id="el_4d3XLgcO7v"><g id="el_j4tn7ZvTGj"><path d="M504.05,320.93c0,2.37-40.9,4.3-91.37,4.3s-91.37-1.93-91.37-4.3,40.91-4.31,91.37-4.31S504.05,318.55,504.05,320.93Z" id="el_cp76yn1QQv"/><path d="M293.64,87.42h0l-14.14-.67a.56.56,0,0,1,0-1.12l14.14.67a.57.57,0,0,1,.54.59A.57.57,0,0,1,293.64,87.42Z" id="el_-LR2QVuuT1"/><path d="M293,90.28h0l-13-.62a.56.56,0,1,1,.05-1.11l13,.61a.56.56,0,0,1,.53.59A.55.55,0,0,1,293,90.28Z" id="el_HGJ0flUwH5"/><path d="M282.24,320.93c0,2.37-17.68,4.3-39.49,4.3s-39.48-1.93-39.48-4.3,17.67-4.31,39.48-4.31S282.24,318.55,282.24,320.93Z" id="el_Pt88MAMASw"/><path d="M187.77,320.93c0,2.37-42,4.3-93.74,4.3S.3,323.3.3,320.93s42-4.31,93.73-4.31S187.77,318.55,187.77,320.93Z" id="el_G9WEidf1Z1"/></g><g id="el_Uwacv3IAxd_3akL9QN4u" data-animator-group="true" data-animator-type="1"><g id="el_Uwacv3IAxd" data-name="Layer 7"><path d="M446.73,320.46c-1.85,0-3.69,0-5.54,0-2.28,0-3.25-.8-3.62-3-.47-2.88-.9-5.78-1.22-8.68a4.27,4.27,0,0,0-2.52-3.64c-4-2.36-7-1.5-10.09,1.5-1.4,1.37-3.19,2.33-4.71,3.59-1.36,1.11-2.43.82-3.55-.33-3-3-6-6-9-9a2.2,2.2,0,0,1-.28-3.26c2-2.69,3.94-5.4,6-8,.95-1.21.79-2.23.46-3.7-1-4.54-3.77-6.23-8.15-6.18a38.07,38.07,0,0,1-5.06-.65c-2.35-.29-3.29-1.25-3.3-3.56,0-3.82,0-7.65,0-11.47a2.88,2.88,0,0,1,2.66-3.26c3.35-.54,6.71-1.08,10.08-1.5,1.18-.14,1.94-.51,2.13-1.74a1.27,1.27,0,0,1,.24-.56c2.69-3.77,1.7-7-1.35-10a50.75,50.75,0,0,1-3.6-4.7,2.41,2.41,0,0,1,.11-3.5q4.51-4.59,9.13-9.12c1.15-1.12,2.43-1,3.7,0,2.6,2,5.21,4,7.88,5.85a3,3,0,0,0,2.19.72,31.94,31.94,0,0,0,6-2.51c.6-.34.79-1.63.94-2.53.48-2.95.85-5.92,1.27-8.89a3,3,0,0,1,3.28-2.9c3.9,0,7.79,0,11.68,0,2.2,0,2.95.77,3.31,3q.78,5,1.58,10.07c.05.33,0,.87.21,1a40.94,40.94,0,0,0,6.37,2.67c.84.23,2.13-.6,3-1.22,2.47-1.71,4.85-3.54,7.22-5.38a2.48,2.48,0,0,1,3.65.22c3,2.93,5.89,5.89,8.85,8.82a2.43,2.43,0,0,1,.3,3.62c-2,2.65-4,5.38-6,8-.9,1.15-1.31,2.21-.34,3.49a1.27,1.27,0,0,1,.24.56c.77,5,4.52,5.48,8.48,5.78,1.76.14,3.5.52,5.25.77a2.71,2.71,0,0,1,2.54,2.93c0,4,.05,8.06,0,12.09a3,3,0,0,1-2.83,3.2c-3.3.49-6.62.81-9.9,1.38a3.43,3.43,0,0,0-2,1.52c-.69,1.16-.9,2.61-1.63,3.74-1.11,1.72-.57,3,.58,4.36,1.93,2.38,3.69,4.91,5.58,7.32a2.45,2.45,0,0,1-.13,3.64c-3,3-6,6-9,9a2.37,2.37,0,0,1-3.6.19c-2.62-2.07-5.35-4-8-6a2.54,2.54,0,0,0-3.18-.38,4.29,4.29,0,0,1-1.48.67c-4,.57-4.77,3.44-5,6.83-.13,2.1-.51,4.18-.84,6.26s-1.43,2.91-3.53,2.95C450.41,320.49,448.57,320.46,446.73,320.46Zm-.21-60.66a9.76,9.76,0,0,0-10,10.11,10.16,10.16,0,1,0,20.32-.1C456.86,264.05,452.46,259.78,446.52,259.8Z" id="el_eI2jwi6Wrs"/></g></g><g id="el_0iGtThuuVI_iM34bnHBB" data-animator-group="true" data-animator-type="1"><g id="el_0iGtThuuVI" data-name="Layer 8"><path d="M486.29,226.63c-.94,0-1.88,0-2.82,0-1.16,0-1.66-.4-1.84-1.53-.24-1.47-.46-2.95-.63-4.43a2.14,2.14,0,0,0-1.28-1.85c-2-1.2-3.58-.76-5.14.76-.71.7-1.62,1.19-2.4,1.83a1.16,1.16,0,0,1-1.8-.16c-1.52-1.54-3-3.07-4.58-4.58a1.12,1.12,0,0,1-.14-1.66c1-1.37,2-2.75,3.06-4.09A1.92,1.92,0,0,0,469,209c-.52-2.31-1.92-3.16-4.16-3.14a20.77,20.77,0,0,1-2.57-.33c-1.2-.15-1.68-.64-1.68-1.82,0-1.94,0-3.89,0-5.84a1.46,1.46,0,0,1,1.35-1.66c1.71-.27,3.42-.55,5.13-.76.61-.08,1-.26,1.09-.89a.67.67,0,0,1,.12-.29c1.38-1.91.87-3.54-.68-5.1a24,24,0,0,1-1.84-2.39,1.22,1.22,0,0,1,.06-1.78c1.53-1.56,3.08-3.12,4.65-4.65a1.3,1.3,0,0,1,1.88,0c1.33,1,2.66,2,4,3a1.58,1.58,0,0,0,1.12.36,16.09,16.09,0,0,0,3.06-1.28c.31-.17.4-.83.48-1.28.24-1.51.43-3,.65-4.53a1.51,1.51,0,0,1,1.67-1.48c2,0,4,0,5.95,0,1.12,0,1.5.39,1.68,1.56l.81,5.12c0,.17,0,.45.11.49a20.78,20.78,0,0,0,3.24,1.36c.43.12,1.08-.3,1.54-.62,1.25-.87,2.47-1.8,3.67-2.74a1.27,1.27,0,0,1,1.86.11c1.51,1.49,3,3,4.51,4.5a1.24,1.24,0,0,1,.15,1.84c-1,1.35-2,2.74-3.06,4.08-.46.58-.67,1.13-.18,1.78a.72.72,0,0,1,.13.28c.39,2.53,2.3,2.79,4.32,3,.89.06,1.78.26,2.67.39a1.36,1.36,0,0,1,1.29,1.49c0,2.05,0,4.1,0,6.16a1.55,1.55,0,0,1-1.44,1.63c-1.68.25-3.37.41-5,.7a1.75,1.75,0,0,0-1,.78c-.35.59-.46,1.32-.83,1.9a1.66,1.66,0,0,0,.3,2.22c1,1.21,1.87,2.5,2.84,3.73a1.24,1.24,0,0,1-.07,1.85q-2.28,2.29-4.57,4.58a1.21,1.21,0,0,1-1.83.09c-1.34-1-2.73-2-4.08-3.08a1.28,1.28,0,0,0-1.61-.19,2.34,2.34,0,0,1-.76.34c-2.06.29-2.43,1.76-2.53,3.48-.07,1.07-.26,2.13-.43,3.19a1.61,1.61,0,0,1-1.8,1.5C488.17,226.65,487.23,226.63,486.29,226.63Zm-.1-30.89a5,5,0,0,0-5.09,5.14,5.18,5.18,0,1,0,10.35,0A5,5,0,0,0,486.19,195.74Z" id="el_hv2Qmsxno2B"/></g></g><g id="el_StkiiRE8dI5_p32I7LCZO" data-animator-group="true" data-animator-type="1"><g id="el_StkiiRE8dI5" data-name="Layer 6"><path d="M303,56.16c13.17-9.27,33.42-49.95-6.75-54C256.88-1.89,264,43.05,277,52.56c5.63,4.1,2.87,24.3,2.87,24.3l16,.76S296.83,60.47,303,56.16Z" id="el_Rn9_IPgyWgA"/><path d="M285.46,77.6c.8-13.49,7.29-26.53,5.5-40.19-.5-3.8-1.71-10.19-5.49-12.25a3.46,3.46,0,0,0-4.72,1.2c-3.66,5.37.58,13.69,6.69,14.77s9.84-6.18,11.43-11c1.17-3.55,3.82-14.42-1.78-16.07-3.54-1-4.5,6.44-4.84,8.51-.73,4.54-1.54,12.25,2.32,15.75,4.13,3.76,11.93-1.11,13.31-5.48.84-2.66-1.39-4.63-3.69-3.06-3,2-4.83,6.4-6.25,9.57-5.92,13.17-8.57,28.43-8.56,42.81,0,.34,1.11.43,1.11.15a114.68,114.68,0,0,1,4.08-29.87c1.86-6.89,4.21-14.21,8.49-20,.48-.65,1.77-2.64,2.71-2.66,2.83-.07.13,4.63-.6,5.45-1.76,2-5.48,4.8-8.37,3.82-4-1.38-4-8.21-3.9-11.56.13-3.73.5-8.92,2.76-12.08.39-.55.62-.92,1.23-.8.86.18,1.52,1.77,1.77,2.49a16,16,0,0,1,.38,7.43c-.69,5.13-2.69,11.33-6.87,14.69-6.12,4.93-12.38-3.54-11.44-9.56a6.78,6.78,0,0,1,1.5-3.58c1.76-1.88,3.54,0,4.53,1.62,2.94,4.75,3.59,10.82,3.33,16.28-.55,11.38-5.06,22.13-5.74,33.49,0,.33,1.09.45,1.11.15Z" id="el_apJIMZBB6xX"/><path d="M276.05,76.68S274.23,83,279.57,83c0,0-3.47,10.5,7.44,11,8,.38,6.95-8.83,6.95-8.83s7.61.37,5.18-7.38Z" id="el_JwN512FgZBW"/></g></g><g id="el_P3tdwCbDIVi" data-name="Layer 2"><path d="M389,323.86C521.1,251.64,481.41,82.48,481.41,82.48c-85.53-48.41-172.8-8.87-172.8-8.87S260,250.79,379.9,318.26C382.23,319.58,389,323.86,389,323.86Z" id="el_MHLdIKhu40i"/><path d="M389.89,295.13C499.14,235.39,466.3,95.46,466.3,95.46c-70.74-40-142.94-7.34-142.94-7.34s-40.19,146.57,59,202.38C384.27,291.59,389.89,295.13,389.89,295.13Z" id="el_SNcNX9F56GT"/><g id="el_O5soJwhNKmo"></g><g id="el_J-iTiwBRfXo_o3cQHvuyd" data-animator-group="true" data-animator-type="2"><path d="M432.19,181.29a41.79,41.79,0,1,1-36-46.86A41.8,41.8,0,0,1,432.19,181.29Z" id="el_J-iTiwBRfXo"/></g><path d="M403.4,166.64h1.28a4.36,4.36,0,0,1,4.47,4.44l0,22.2a4.37,4.37,0,0,1-4.45,4.44l-10.37,0-17.49,0a4.36,4.36,0,0,1-4.38-3.35,4.9,4.9,0,0,1-.12-1.08q0-11.09,0-22.17a4.27,4.27,0,0,1,2.57-4.09,4.07,4.07,0,0,1,1.94-.39h1.21v-.35c0-1.36,0-2.72,0-4.09a12.68,12.68,0,0,1,25.1-2.59,15.28,15.28,0,0,1,.24,2.54c.05,1.36,0,2.72,0,4.09Zm-12.69,2.47-13.84,0a1.93,1.93,0,0,0-2.09,2.11l0,21.94a2,2,0,0,0,2.15,2.13l27.48-.05h.35a1.92,1.92,0,0,0,1.94-1.95q0-11.15,0-22.29a1.76,1.76,0,0,0-1-1.69,2.55,2.55,0,0,0-1.1-.23C399.94,169.09,395.33,169.11,390.71,169.11Zm10.23-2.48a2.44,2.44,0,0,0,0-.26c0-1.45,0-2.9,0-4.35a11.73,11.73,0,0,0-.3-2.36,10.21,10.21,0,0,0-20.1,1.88c-.08,1.64,0,3.29,0,4.94a1.35,1.35,0,0,0,0,.18Z" id="el_zu-sE06F6-R"/><path d="M387.07,186.17c0-.83,0-1.66,0-2.5a.64.64,0,0,0-.18-.39,5.93,5.93,0,0,1-2.05-6.34,5.86,5.86,0,0,1,5-4.48,6.11,6.11,0,0,1,7,5.21,6,6,0,0,1-2.18,5.57.54.54,0,0,0-.21.45c0,1.53,0,3.06,0,4.6a3.68,3.68,0,1,1-7.36,0C387.07,187.6,387.08,186.88,387.07,186.17Zm2.46-.66v2.8a1.23,1.23,0,1,0,2.46,0c0-1.77,0-3.53,0-5.3a1.43,1.43,0,0,1,.74-1.36,3.64,3.64,0,0,0,1.61-4,3.68,3.68,0,0,0-7.06-.35,3.65,3.65,0,0,0,1.54,4.33,1.36,1.36,0,0,1,.72,1.28C389.51,183.78,389.53,184.65,389.53,185.51Z" id="el_LTyQ7M9-GRc"/></g><g id="el_b3_H8vEOZs4_UcyaJRl0N" data-animator-group="true" data-animator-type="0"><g id="el_b3_H8vEOZs4_rAL58LyUB" data-animator-group="true" data-animator-type="2"><g id="el_b3_H8vEOZs4" data-name="Layer 3"><path d="M213.3,43.12c0-1.52-.34-2.13-2-2.42-8.37-1.5-16.72-3.16-25.08-4.8a5.57,5.57,0,0,0-2.3,0c-8.43,1.65-16.86,3.29-25.31,4.85-1.38.25-1.75.78-1.73,2.13.07,5.95-.07,27.62,0,32.62a23.5,23.5,0,0,0,6.29,16.36c5.82,6.45,13.09,10.81,20.94,14.32a2,2,0,0,0,1.77.11c9.06-4.13,17.48-9.13,23.48-17.37a20.07,20.07,0,0,0,4-12.48C213.16,65.34,213.25,54.23,213.3,43.12Z" id="el_X_5llFoYn7R"/><polygon points="199.56 83.15 185.92 70.06 190.07 65.73 198.87 74.17 216.31 51.31 221.08 54.96 199.56 83.15" id="el_MEFVifjzdi2"/></g></g></g><g id="el_OKBZtnNn5G8" data-name="Layer 5"><polygon points="233.28 287.03 298.58 287.03 298.58 204.89 219.38 204.89 219.38 307.67 233.28 287.03" id="el_gjPeAX9oFPW"/><path d="M247.64,238.65h.5a1.72,1.72,0,0,1,1.76,1.76c0,2.92,0,5.84,0,8.76a1.73,1.73,0,0,1-1.76,1.76h-11a1.71,1.71,0,0,1-1.73-1.32,2.1,2.1,0,0,1-.05-.43q0-4.37,0-8.75a1.68,1.68,0,0,1,1-1.62,1.56,1.56,0,0,1,.77-.15h.47v-1.75a5,5,0,0,1,9.91-1,5.65,5.65,0,0,1,.1,1c0,.54,0,1.08,0,1.62Zm-5,1h-5.47a.76.76,0,0,0-.83.83c0,2.89,0,5.78,0,8.66a.76.76,0,0,0,.84.84h11a.75.75,0,0,0,.77-.76c0-2.94,0-5.87,0-8.81a.71.71,0,0,0-.4-.67,1.08,1.08,0,0,0-.44-.09Zm4-1s0-.07,0-.1c0-.58,0-1.15,0-1.72a4.08,4.08,0,0,0-.12-.93,4,4,0,0,0-7.94.74c0,.65,0,1.3,0,2,0,0,0,0,0,.07Z" id="el_KkGrwqlv7xi"/><path d="M241.19,246.37c0-.33,0-.66,0-1a.26.26,0,0,0-.07-.16,2.42,2.42,0,0,1,1.16-4.27A2.42,2.42,0,0,1,245,243a2.37,2.37,0,0,1-.86,2.2.19.19,0,0,0-.09.18c0,.6,0,1.21,0,1.81a1.46,1.46,0,1,1-2.91,0Zm1-.26v1.1a.48.48,0,0,0,.36.48.49.49,0,0,0,.61-.5c0-.69,0-1.39,0-2.09a.57.57,0,0,1,.3-.53,1.44,1.44,0,0,0,.63-1.57,1.46,1.46,0,0,0-1.26-1.11,1.48,1.48,0,0,0-1.53,1,1.45,1.45,0,0,0,.62,1.71.54.54,0,0,1,.28.5C242.15,245.42,242.16,245.76,242.16,246.11Z" id="el_A1l5sZ4seAb"/><path d="M271.32,266.7v4.2c-.38.86-1.16.58-1.79.58q-17.41,0-34.82,0c-6.36,0-12.72,0-19.08,0-.61,0-1.33.23-1.67-.58,0-1.4,0-2.8,0-4.2,1-2,1.93-4,2.95-6a4.69,4.69,0,0,0,.51-2.21q0-14.94,0-29.89c0-4.21,2.19-6.41,6.39-6.41h37.72c4.13,0,6.33,2.2,6.33,6.33,0,9.2,0,18.39,0,27.59a15.91,15.91,0,0,0,1,6.53c.28.64.39,1.32-.46,1.58s-1-.35-1.24-1c-.9-2.52-.91-2.51-3.54-2.51q-21.62,0-43.23,0a1.84,1.84,0,0,0-2,1.25c-.61,1.46-1.39,2.84-2.1,4.26a5.27,5.27,0,0,0-.36.81c-.59,2-.13,2.59,1.88,2.59q25.22,0,50.42,0c.5,0,1.26.41,1.44-.56s-.38-1.18-1.26-1.17q-14,0-28.09,0H219.55c-.34,0-.68,0-1,0-.59,0-1-.29-1.05-.9s.43-.9,1-.95c.34,0,.68,0,1,0h49.9C270.1,266.06,270.91,265.81,271.32,266.7Zm-28.68-7.8c7.32,0,14.63,0,21.94,0,1,0,1.4-.19,1.4-1.31-.05-9.8,0-19.59,0-29.39,0-2.81-1.36-4.16-4.17-4.17H223.53c-2.8,0-4.19,1.38-4.19,4.17,0,9.8,0,19.59,0,29.39,0,1.13.38,1.31,1.39,1.31C228,258.88,235.33,258.9,242.64,258.9Z" id="el_IvWUMVquLVX"/><path d="M242.65,226.58H262.4c1.72,0,1.84.12,1.84,1.81v22.45a5.42,5.42,0,0,1-.08,1.14.81.81,0,0,1-.86.63.78.78,0,0,1-.82-.67,6.67,6.67,0,0,1-.08-1.27c0-7,0-14,0-21,0-1-.22-1.33-1.27-1.32q-18.46,0-36.95,0c-1.1,0-1.34.34-1.33,1.38q.06,11.67,0,23.35c0,1.15.33,1.42,1.44,1.41q18.67,0,37.33,0h1c.7,0,1.53,0,1.53.91s-.84.9-1.54.9q-20,0-40,0c-1.15,0-1.6-.39-1.6-1.57q0-13.27,0-26.56c0-1.17.46-1.56,1.61-1.56C229.3,226.6,236,226.58,242.65,226.58Z" id="el_mbt60ddSJH4"/></g><g id="el_sFoVEfrM6tI" data-name="Layer 4"><path d="M95.75,184.91S74.81,193,84.86,273.42c0,0-18.43,1.12-50.26,26.25l3.22,6.57s46.14-9.13,61.56-25c19.55-20.1,31.26-63.57,31.26-63.57S109.71,205.29,95.75,184.91Z" id="el_YGonq4ZzZ0o"/><path d="M165.72,210.52c2.06-1.86,25.24,22.47,18,41.12-10.43,26.81-71.86,52.87-71.86,52.87l-4.46-7.07s18.24-18.62,31.64-32.39,35-10.06-4.47-29.42-38.81-50.72-38.81-50.72,16.17,22.52,34.89,32.76S157.63,217.8,165.72,210.52Z" id="el_efMNRFXty0D"/><polygon points="51.57 299.09 41.59 302.64 42.11 307.76 53.63 303.3 51.57 299.09" id="el_shGyNFkYl7W"/><path d="M25.77,309.63c.94,6.19,8.79,7.69,12.18,10,1.23.84-.28,4.19-9.35,2.1s-9.77-12.43-8.38-15.49a4,4,0,0,1,5-1.73Z" id="el_7WsdcTHE5jQ"/><polygon points="124.39 296.62 115.38 303.38 116.65 307.76 127.46 301.49 124.39 296.62" id="el_aPftoa0k19M"/><path d="M99,305.25s-3.78-.42-3.85,3.14.21,11.24,7.82,12.5,11.8,2.16,11.87,0-6.56-3.07-10.47-6.28-4.1-5-4.1-5Z" id="el_bxGRcx6f8-8"/><path d="M205.78,182.43c-4,4.36-9.43,7.42-18.72,11.69-14,6.42-27.11,25.45-38.81,27.68-21.78,4.15-52.5-36.89-52.5-36.89s-5-6.14,34.63-32.94,112.28-28.62,112.28-28.62,35.9-4.9,52.3-12.25l4.34,8.21L221.68,157c20.22,14.79,59.78,13.89,71.86,13.23a34.72,34.72,0,0,0,0,7.07l-.25.13c-23.12,10.63-47.56,8.92-47.56,8.92l-2.55,0s-36,1.12-47.6-9.49" id="el_GUQHharfqe3"/><path d="M245.51,116.15c-1.17-1.54-2.42-.19-2.61-7.26a17.48,17.48,0,0,0-2.93-9.4h0c-12.58-.7-10.33,10.19-12.66,11s-3.26-3.9-5.21-2.51,1.54,4.75,0,7.82S216,118,216,118h0a18.46,18.46,0,0,1-3.58,7.65c-8.56,10.61.75,29.77,5.77,29.21s6.71-23.25,15.08-25.3,9.12-8.94,9.12-8.94C244.76,119.87,246.34,117.24,245.51,116.15Z" id="el_9isdiMTWYhN"/><path d="M222.1,115.82c1.54-3.07-1.95-6.42,0-7.82s2.88,3.35,5.21,2.51.08-11.72,12.66-11h0c-2.66-3.73-7.3-6-14.75-3.82-10.12,3-7.11,13-9.27,22.32h0S220.56,118.89,222.1,115.82Z" id="el_rLWpFegTvhC"/><path d="M298.9,118.55c5-2.52,8.58-4.46,8.78-4.92.84-2,5-5.14,5-5.14-.55-8.77-9.77-5.19-11.16-1.28-.53,1.48-3,3.09-6.26,4.5Z" id="el_Cf5zS4sI97K"/><path d="M298.9,118.55c5-2.52,8.58-4.46,8.78-4.92.84-2,5-5.14,5-5.14-.55-8.77-9.77-5.19-11.16-1.28-.53,1.48-3,3.09-6.26,4.5Z" id="el_bw1ETERZ16Q"/><path d="M311.35,173.54s3.57-5.22-.56-7c-3.23-1.4-8.7-1.27-13.65,3.46,0,0-1.31.12-3.59.24a24.53,24.53,0,0,0,0,7.07c1.24-.58,2.48-1.18,3.71-1.83C297.25,175.46,306,170.56,311.35,173.54Z" id="el_dFk2kvHWsPY"/><g id="el_LWofZBURjKT"></g></g></g></svg>