<svg id="el_uoIVRt5kL" xmlns="http://www.w3.org/2000/svg" xmlns:xlink="http://www.w3.org/1999/xlink" viewBox="0 0 510 372"><style>@-webkit-keyframes el_GQUe1-DurQt_Animation{0%{opacity: 1;}15.56%{opacity: 1;}16.67%{opacity: 0;}17.78%{opacity: 1;}33.33%{opacity: 1;}35.56%{opacity: 0;}37.78%{opacity: 1;}62.22%{opacity: 1;}64.44%{opacity: 0;}66.67%{opacity: 1;}93.33%{opacity: 1;}96.67%{opacity: 1;}100%{opacity: 1;}}@keyframes el_GQUe1-DurQt_Animation{0%{opacity: 1;}15.56%{opacity: 1;}16.67%{opacity: 0;}17.78%{opacity: 1;}33.33%{opacity: 1;}35.56%{opacity: 0;}37.78%{opacity: 1;}62.22%{opacity: 1;}64.44%{opacity: 0;}66.67%{opacity: 1;}93.33%{opacity: 1;}96.67%{opacity: 1;}100%{opacity: 1;}}@-webkit-keyframes el_yOkRBPG11fS_Animation{0%{opacity: 1;}15.56%{opacity: 1;}16.67%{opacity: 0;}17.78%{opacity: 1;}33.33%{opacity: 1;}35.56%{opacity: 0;}37.78%{opacity: 1;}62.22%{opacity: 1;}64.44%{opacity: 0;}66.67%{opacity: 1;}93.33%{opacity: 1;}96.67%{opacity: 1;}100%{opacity: 1;}}@keyframes el_yOkRBPG11fS_Animation{0%{opacity: 1;}15.56%{opacity: 1;}16.67%{opacity: 0;}17.78%{opacity: 1;}33.33%{opacity: 1;}35.56%{opacity: 0;}37.78%{opacity: 1;}62.22%{opacity: 1;}64.44%{opacity: 0;}66.67%{opacity: 1;}93.33%{opacity: 1;}96.67%{opacity: 1;}100%{opacity: 1;}}@-webkit-keyframes el_p-pDOq7Pvd_NqhDGNubl_Animation{0%{-webkit-transform: translate(311.2880554199219px, 185.3255615234375px) rotate(0deg) translate(-311.2880554199219px, -185.3255615234375px);transform: translate(311.2880554199219px, 185.3255615234375px) rotate(0deg) translate(-311.2880554199219px, -185.3255615234375px);}50%{-webkit-transform: translate(311.2880554199219px, 185.3255615234375px) rotate(10deg) translate(-311.2880554199219px, -185.3255615234375px);transform: translate(311.2880554199219px, 185.3255615234375px) rotate(10deg) translate(-311.2880554199219px, -185.3255615234375px);}100%{-webkit-transform: translate(311.2880554199219px, 185.3255615234375px) rotate(0deg) translate(-311.2880554199219px, -185.3255615234375px);transform: translate(311.2880554199219px, 185.3255615234375px) rotate(0deg) translate(-311.2880554199219px, -185.3255615234375px);}}@keyframes el_p-pDOq7Pvd_NqhDGNubl_Animation{0%{-webkit-transform: translate(311.2880554199219px, 185.3255615234375px) rotate(0deg) translate(-311.2880554199219px, -185.3255615234375px);transform: translate(311.2880554199219px, 185.3255615234375px) rotate(0deg) translate(-311.2880554199219px, -185.3255615234375px);}50%{-webkit-transform: translate(311.2880554199219px, 185.3255615234375px) rotate(10deg) translate(-311.2880554199219px, -185.3255615234375px);transform: translate(311.2880554199219px, 185.3255615234375px) rotate(10deg) translate(-311.2880554199219px, -185.3255615234375px);}100%{-webkit-transform: translate(311.2880554199219px, 185.3255615234375px) rotate(0deg) translate(-311.2880554199219px, -185.3255615234375px);transform: translate(311.2880554199219px, 185.3255615234375px) rotate(0deg) translate(-311.2880554199219px, -185.3255615234375px);}}#el_uoIVRt5kL *{-webkit-animation-duration: 3s;animation-duration: 3s;-webkit-animation-iteration-count: infinite;animation-iteration-count: infinite;-webkit-animation-timing-function: cubic-bezier(0, 0, 1, 1);animation-timing-function: cubic-bezier(0, 0, 1, 1);}#el_p-pDOq7Pvd{fill: url(#Degradado_sin_nombre_36);-webkit-transform: translate(-0.46px, 0.75px);transform: translate(-0.46px, 0.75px);}#el_XxDScEmawA{fill: url(#Degradado_sin_nombre_11);-webkit-transform: translate(-0.46px, 0.75px);transform: translate(-0.46px, 0.75px);}#el_Z6IS5ch338{fill: #ffcb9c;-webkit-transform: translate(-0.46px, 0.75px);transform: translate(-0.46px, 0.75px);}#el_Dmjmc0Rni0{fill: #ffcb9c;-webkit-transform: translate(-0.46px, 0.75px);transform: translate(-0.46px, 0.75px);}#el_FsKptAr6A6{fill: #4849ca;}#el__OelbDBh-y{fill: #c9cbda;-webkit-transform: translate(-0.46px, 0.75px);transform: translate(-0.46px, 0.75px);}#el_T1RQgU7zJJ{fill: #ecedfc;}#el_fldU2yBR_2{fill: #b34f5b;}#el_p4a8xUTyRm{fill: #ecedfc;-webkit-transform: translate(-0.46px, 0.75px);transform: translate(-0.46px, 0.75px);}#el_DV6JwTl9ZL{fill: #dc7283;-webkit-transform: translate(-0.46px, 0.75px);transform: translate(-0.46px, 0.75px);}#el_kM-zGMn3IW{fill: #d49a74;-webkit-transform: translate(-0.46px, 0.75px);transform: translate(-0.46px, 0.75px);}#el_BWHKZnG-ta{fill: #a6d0fa;-webkit-transform: translate(-0.46px, 0.75px);transform: translate(-0.46px, 0.75px);}#el_3TyDHDJKjam{fill: #c9cbda;}#el_Ew04fGaj50P{fill: #ecedfc;-webkit-transform: translate(-0.46px, 0.75px);transform: translate(-0.46px, 0.75px);}#el_C70wq2PEkPb{fill: #ecedfc;-webkit-transform: translate(-0.46px, 0.75px);transform: translate(-0.46px, 0.75px);}#el_GEXrcQoIqHX{fill: #b34f5b;}#el_3JbWi2NTkV6{fill: #d49a74;}#el_RNVilM_Bfbe{fill: #a6d0fa;}#el_8srB1NHq4bd{fill: #ecedfc;}#el_y3gZDHSYYt2{fill: #9bb5f9;}#el_kcwZgTy3WWK{fill: #4849ca;}#el_pen4f_w6t7e{fill: #d49a74;-webkit-transform: translate(-0.46px, 0.75px);transform: translate(-0.46px, 0.75px);}#el_-NBIWHQT_Rv{fill: #c9cbda;-webkit-transform: translate(-0.46px, 0.75px);transform: translate(-0.46px, 0.75px);}#el_01rfLLpfVq_{fill: #c9cbda;-webkit-transform: translate(-0.46px, 0.75px);transform: translate(-0.46px, 0.75px);}#el_JS6B56Mir0z{fill: #c9cbda;-webkit-transform: translate(-0.46px, 0.75px);transform: translate(-0.46px, 0.75px);}#el_bNewyg8mavj{fill: #c9cbda;-webkit-transform: translate(-0.46px, 0.75px);transform: translate(-0.46px, 0.75px);}#el_nDLPQXg39sY{fill: #dc7283;}#el_sP-DZ5o6_38{fill: #ecedfc;-webkit-transform: translate(-0.46px, 0.75px);transform: translate(-0.46px, 0.75px);}#el_DCnLkezRT2y{fill: #666cfa;}#el_4K6t_zDMsM5{fill: #9bb5f9;}#el_XaiHprYNzBH{fill: #d49a74;}#el_6DxjrTpjslH{fill: #a6d0fa;}#el_ZQuWRoDG7jF{fill: #c9cbda;}#el_XuFskx26kCc{fill: #abadbe;-webkit-transform: translate(-0.46px, 0.75px);transform: translate(-0.46px, 0.75px);}#el_ULPIMHc5GLn{fill: #4849ca;}#el_91MYsmHJcRW{fill: #666cfa;-webkit-transform: translate(-0.46px, 0.75px);transform: translate(-0.46px, 0.75px);}#el_B6AXaSIRTpT{fill: #666cfa;-webkit-transform: translate(-0.46px, 0.75px);transform: translate(-0.46px, 0.75px);}#el_35drd9xPQvI{fill: #666cfa;-webkit-transform: translate(-0.46px, 0.75px);transform: translate(-0.46px, 0.75px);}#el_d8ptRMGmVKQ{fill: #666cfa;-webkit-transform: translate(-0.46px, 0.75px);transform: translate(-0.46px, 0.75px);}#el_AWhCHBxGJWK{fill: #666cfa;-webkit-transform: translate(-0.46px, 0.75px);transform: translate(-0.46px, 0.75px);}#el_zqwvQ8oRBCm{fill: #666cfa;-webkit-transform: translate(-0.46px, 0.75px);transform: translate(-0.46px, 0.75px);}#el_IlmjqX-5knT{fill: #666cfa;-webkit-transform: translate(-0.46px, 0.75px);transform: translate(-0.46px, 0.75px);}#el_szTVTV0twiM{fill: #666cfa;-webkit-transform: translate(-0.46px, 0.75px);transform: translate(-0.46px, 0.75px);}#el_G6YlXfOuIuC{fill: #666cfa;-webkit-transform: translate(-0.46px, 0.75px);transform: translate(-0.46px, 0.75px);}#el_rAkhmaG4WBF{fill: #a6d0fa;}#el_triVpz9i6Jm{fill: #666cfa;}#el_v_pSwrEY4-R{fill: #9bb5f9;}#el_Gz3zbFcc3hA{fill: #d49a74;}#el_cjRwFKYqk-h{fill: #dc7283;}#el_kms_n59yoWh{fill: #ecedfc;-webkit-transform: translate(-0.46px, 0.75px);transform: translate(-0.46px, 0.75px);}#el_HghHBNm7AMW{fill: #666cfa;}#el_AnAGOeRnyfj{-webkit-transform: translate(-0.46px, 0.75px);transform: translate(-0.46px, 0.75px);}#el_czh5HeZIpU3{fill: #191919;}#el_KZpUkvQKWc6{fill: #191919;}#el_-M_46Dsjb_y{fill: #191919;}#el_XeE9XWOje9w{fill: #ffcb9c;-webkit-transform: translate(-0.46px, 0.75px);transform: translate(-0.46px, 0.75px);}#el_UvQJvaCICU2{fill: #ffcb9c;-webkit-transform: translate(-0.46px, 0.75px);transform: translate(-0.46px, 0.75px);}#el_psuKxp6pQx3{fill: #191919;-webkit-transform: translate(-0.46px, 0.75px);transform: translate(-0.46px, 0.75px);}#el_79wNjaqPJ6-{fill: url(#Degradado_sin_nombre_44);-webkit-transform: translate(-0.46px, 0.75px);transform: translate(-0.46px, 0.75px);}#el_yOkRBPG11fS{fill: #191919;-webkit-transform: translate(-0.46px, 0.75px);transform: translate(-0.46px, 0.75px);-webkit-animation-name: el_yOkRBPG11fS_Animation;animation-name: el_yOkRBPG11fS_Animation;}#el_GQUe1-DurQt{fill: #191919;-webkit-transform: translate(-0.46px, 0.75px);transform: translate(-0.46px, 0.75px);-webkit-animation-name: el_GQUe1-DurQt_Animation;animation-name: el_GQUe1-DurQt_Animation;}#el_tEBXfUWz0Me{fill: #1d1d1b;-webkit-transform: translate(-0.46px, 0.75px);transform: translate(-0.46px, 0.75px);}#el_4CJ35_--Wv2{fill: #ff6252;}#el_QAUMvCwkY2m{fill: #1d1d1b;-webkit-transform: translate(-0.46px, 0.75px);transform: translate(-0.46px, 0.75px);}#el_tkOmKCcBRVq{fill: #1d1d1b;}#el_3ecQ7OWeoO7{fill: #1d1d1b;-webkit-transform: translate(190.31px, 407.7px) rotate(-72.67deg);transform: translate(190.31px, 407.7px) rotate(-72.67deg);}#el_WBmu55VIrDW{fill: #191919;-webkit-transform: translate(-0.46px, 0.75px);transform: translate(-0.46px, 0.75px);}#el_bz7nJ7otF2t{fill: #191919;-webkit-transform: translate(-0.46px, 0.75px);transform: translate(-0.46px, 0.75px);}#el_iKN80E7kXHj{fill: #191919;-webkit-transform: translate(-0.46px, 0.75px);transform: translate(-0.46px, 0.75px);}#el_3irlhZ8f2p1{fill: #191919;-webkit-transform: translate(-0.46px, 0.75px);transform: translate(-0.46px, 0.75px);}#el_KeM1L7Gvk8R{fill: #191919;-webkit-transform: translate(-0.46px, 0.75px);transform: translate(-0.46px, 0.75px);}#el_o3Xwxw8AH80{fill: #191919;-webkit-transform: translate(-0.46px, 0.75px);transform: translate(-0.46px, 0.75px);}#el_UOZw_2eCW6N{fill: #191919;-webkit-transform: translate(-0.46px, 0.75px);transform: translate(-0.46px, 0.75px);}#el_nshOoyvmgtR{fill: #191919;}#el_Z4uvcjWaIWS{fill: #191919;-webkit-transform: translate(-0.46px, 0.75px);transform: translate(-0.46px, 0.75px);}#el_ZocfCQ10X2d{fill: #191919;-webkit-transform: translate(-0.46px, 0.75px);transform: translate(-0.46px, 0.75px);}#el_Bn9flEr8k8y{fill: #191919;}#el_tdoAGij2pO4{fill: #191919;-webkit-transform: translate(-0.46px, 0.75px);transform: translate(-0.46px, 0.75px);}#el_CKLAzs7glDt{fill: #191919;-webkit-transform: translate(-0.46px, 0.75px);transform: translate(-0.46px, 0.75px);}#el_PyPJ-CUQjXp{fill: #191919;-webkit-transform: translate(-0.46px, 0.75px);transform: translate(-0.46px, 0.75px);}#el_BJpcaCG_yYt{fill: #ffcb9c;-webkit-transform: translate(-0.46px, 0.75px);transform: translate(-0.46px, 0.75px);}#el_Bs-KQk_htE9{fill: #ffcb9c;-webkit-transform: translate(-0.46px, 0.75px);transform: translate(-0.46px, 0.75px);}#el_PyPJ-CUQjXp___les82qF{-webkit-transform: translate(352.790771484375px, 84.77999877929688px) rotate(0deg) translate(-352.790771484375px, -84.77999877929688px);transform: translate(352.790771484375px, 84.77999877929688px) rotate(0deg) translate(-352.790771484375px, -84.77999877929688px);}#el_p-pDOq7Pvd_NqhDGNubl{-webkit-animation-name: el_p-pDOq7Pvd_NqhDGNubl_Animation;animation-name: el_p-pDOq7Pvd_NqhDGNubl_Animation;-webkit-transform: translate(311.2880554199219px, 185.3255615234375px) rotate(0deg) translate(-311.2880554199219px, -185.3255615234375px);transform: translate(311.2880554199219px, 185.3255615234375px) rotate(0deg) translate(-311.2880554199219px, -185.3255615234375px);-webkit-animation-timing-function: cubic-bezier(0, 0, 0.58, 1);animation-timing-function: cubic-bezier(0, 0, 0.58, 1);}</style><defs><linearGradient id="Degradado_sin_nombre_36" x1="133.43" y1="185.35" x2="489.15" y2="185.35" gradientUnits="userSpaceOnUse"><stop offset="0" stop-color="#2acaff"/><stop offset="1" stop-color="#2adfc3"/></linearGradient><linearGradient id="Degradado_sin_nombre_11" x1="170.14" y1="207.65" x2="511.28" y2="207.65" gradientUnits="userSpaceOnUse"><stop offset="0" stop-color="#76aadb"/><stop offset="1" stop-color="#4a72b2"/></linearGradient><linearGradient id="Degradado_sin_nombre_44" x1="308.7" y1="-15982.43" x2="344.08" y2="-15982.43" gradientTransform="matrix(1, 0, 0, -1, 0, -15870)" gradientUnits="userSpaceOnUse"><stop offset="0" stop-color="#fff"/><stop offset="1" stop-color="#f7f7f8"/></linearGradient></defs><title>Redmade</title><g id="el_p-pDOq7Pvd_NqhDGNubl" data-animator-group="true" data-animator-type="1"><path id="el_p-pDOq7Pvd" data-name="&lt;Path&gt;" d="M160.45,255.93S86.13,183.23,184,118,387.59,23.32,449.22,31s46.1,156.14-7.07,246.38S261.14,362.64,160.45,255.93Z"/></g><path id="el_XxDScEmawA" data-name="&lt;Path&gt;" d="M473.28,101.31s85.49,59.16,0,139.89S288.51,368.82,226.46,371.58,154.75,225.41,192,127.51,356.07,13.06,473.28,101.31Z"/><g id="el_Q2bRQwFl4q" data-name="&lt;Group&gt;"><g id="el_3SR4pV4kGS" data-name="&lt;Group&gt;"><g id="el_QuxaXuDcEd" data-name="&lt;Group&gt;"><path id="el_Z6IS5ch338" data-name="&lt;Path&gt;" d="M347.75,249.45C339.88,202,320.14,192,320.14,192l-11.39,13.34a7.94,7.94,0,0,1,.48,2.69c0,8.19-.39,17.76-7.63,22.81a28.34,28.34,0,0,1,5.29,13.31c1.11,9.5-1.88,20-15.77,27.25-16.69,8.68-50.68,8.23-50.68,8.23l-11.39,12.18C304.8,320,353.57,284.55,347.75,249.45Z"/></g><path id="el_Dmjmc0Rni0" data-name="&lt;Path&gt;" d="M226.2,276s-29-8.21-31.7-7.82-2.24,3.71,2.8,4.86,14,4.83,14,4.83-19-3.63-20.42-2.47-1,3.67,2.5,4,17.32,3.7,17.32,3.7-12.07-.31-15.28.37.71,3.24,4,3.27,13.68,1.56,13.68,1.56-9.08,2.07-10.34,3.42,0,2.19,1.49,2.14,14.22-3.18,14.22-3.18,11.78,3.94,18.33-.8,5-9.27,3.92-10-17.47-13.14-20.85-14.09-4.36,1.7.59,4.59S227.82,275.2,226.2,276Z"/></g><path d="M49.1,115.54H270.28a18.22,18.22,0,0,1,18.22,18.22V278a0,0,0,0,1,0,0H30.87a0,0,0,0,1,0,0V133.77A18.22,18.22,0,0,1,49.1,115.54Z" id="el_FsKptAr6A6"/><path d="M290.84,279.11H29.45V133a20.13,20.13,0,0,1,20.1-20.11H270.74A20.13,20.13,0,0,1,290.84,133ZM33.2,275.35H287.08V133a16.36,16.36,0,0,0-16.34-16.35H49.55A16.37,16.37,0,0,0,33.2,133Z" id="el__OelbDBh-y"/><rect x="50.23" y="133.98" width="218.93" height="140.25" id="el_T1RQgU7zJJ"/><rect x="50.23" y="133.98" width="218.93" height="16.09" id="el_fldU2yBR_2"/><path d="M252.74,145.76H116.22a4.38,4.38,0,0,1-4.38-4.38h0a4.38,4.38,0,0,1,4.38-4.38H252.74a4.38,4.38,0,0,1,4.38,4.38h0A4.38,4.38,0,0,1,252.74,145.76Z" id="el_p4a8xUTyRm"/><path d="M68.43,141.38a4.78,4.78,0,1,1-4.78-4.78A4.77,4.77,0,0,1,68.43,141.38Z" id="el_DV6JwTl9ZL"/><path d="M84.47,141.38a4.78,4.78,0,1,1-4.78-4.78A4.77,4.77,0,0,1,84.47,141.38Z" id="el_kM-zGMn3IW"/><path d="M100.51,141.38a4.78,4.78,0,1,1-4.77-4.78A4.77,4.77,0,0,1,100.51,141.38Z" id="el_BWHKZnG-ta"/><rect x="57.56" y="186.09" width="65.89" height="88.14" id="el_3TyDHDJKjam"/><path d="M117,224.77H64.93a2.32,2.32,0,0,0,0,4.63H117a2.32,2.32,0,0,0,0-4.63Z" id="el_Ew04fGaj50P"/><path d="M117,234.24H64.93a2.32,2.32,0,0,0,0,4.63H117a2.32,2.32,0,0,0,0-4.63Z" id="el_C70wq2PEkPb"/><rect x="62.16" y="250.59" width="56.69" height="22.33" id="el_GEXrcQoIqHX"/><rect x="72.55" y="262.81" width="8.87" height="10.11" id="el_3JbWi2NTkV6"/><rect x="86.07" y="257.78" width="8.87" height="15.14" id="el_RNVilM_Bfbe"/><rect x="99.6" y="252.26" width="8.87" height="20.66" id="el_8srB1NHq4bd"/><rect x="130.22" y="186.09" width="68.02" height="37.7" id="el_y3gZDHSYYt2"/><polygon points="174.95 191.1 156.83 216.53 146.13 201.5 130.25 223.78 151.67 223.78 162 223.78 198.24 223.78 174.95 191.1" id="el_kcwZgTy3WWK"/><path d="M163.11,196.83a5.56,5.56,0,1,1-5.56-5.56A5.55,5.55,0,0,1,163.11,196.83Z" id="el_pen4f_w6t7e"/><path d="M259.87,185.27H207.82a2.32,2.32,0,1,0,0,4.63h52.05a2.32,2.32,0,1,0,0-4.63Z" id="el_-NBIWHQT_Rv"/><path d="M259.87,196H207.82a2.32,2.32,0,0,0,0,4.64h52.05a2.32,2.32,0,0,0,0-4.64Z" id="el_01rfLLpfVq_"/><path d="M259.87,206.75H207.82a2.32,2.32,0,0,0,0,4.64h52.05a2.32,2.32,0,0,0,0-4.64Z" id="el_JS6B56Mir0z"/><path d="M259.87,217.5H207.82a2.32,2.32,0,1,0,0,4.63h52.05a2.32,2.32,0,1,0,0-4.63Z" id="el_bNewyg8mavj"/><rect x="130.25" y="229.83" width="131.6" height="14.96" id="el_nDLPQXg39sY"/><path d="M252.48,233.08H140.53a3.47,3.47,0,0,0,0,6.94h112a3.47,3.47,0,0,0,0-6.94Z" id="el_sP-DZ5o6_38"/><rect x="130.25" y="250.77" width="24.08" height="24.08" id="el_DCnLkezRT2y"/><rect x="166.05" y="250.77" width="24.08" height="24.08" id="el_4K6t_zDMsM5"/><rect x="201.85" y="250.77" width="24.08" height="24.08" id="el_XaiHprYNzBH"/><rect x="237.66" y="250.77" width="24.08" height="24.08" id="el_6DxjrTpjslH"/><path d="M0,274.23H319.38a0,0,0,0,1,0,0v8.94a13.22,13.22,0,0,1-13.22,13.22H13.22A13.22,13.22,0,0,1,0,283.17v-8.94A0,0,0,0,1,0,274.23Z" id="el_ZQuWRoDG7jF"/><path d="M180.18,282.45H140.1a9,9,0,0,1-9-9h58A9,9,0,0,1,180.18,282.45Z" id="el_XuFskx26kCc"/><rect x="42.75" y="272.71" width="229.26" height="1.51" id="el_ULPIMHc5GLn"/><path d="M55.33,271.18H40.62a1,1,0,0,0-1,1v1.29H56.33v-1.29A1,1,0,0,0,55.33,271.18Z" id="el_91MYsmHJcRW"/><path d="M74.89,271.18H60.19a1,1,0,0,0-1,1v1.29H75.9v-1.29A1,1,0,0,0,74.89,271.18Z" id="el_B6AXaSIRTpT"/><path d="M94.46,271.18H79.76a1,1,0,0,0-1,1v1.29H95.47v-1.29A1,1,0,0,0,94.46,271.18Z" id="el_35drd9xPQvI"/><path d="M114,271.18H99.33a1,1,0,0,0-1,1v1.29H115v-1.29A1,1,0,0,0,114,271.18Z" id="el_d8ptRMGmVKQ"/><path d="M199.91,271.18H120.38a1,1,0,0,0-1,1v1.29h81.55v-1.29A1,1,0,0,0,199.91,271.18Z" id="el_AWhCHBxGJWK"/><path d="M221.11,271.18H206.4a1,1,0,0,0-1,1v1.29h16.71v-1.29A1,1,0,0,0,221.11,271.18Z" id="el_zqwvQ8oRBCm"/><path d="M240.68,271.18H226a1,1,0,0,0-1,1v1.29h16.71v-1.29A1,1,0,0,0,240.68,271.18Z" id="el_IlmjqX-5knT"/><path d="M260.24,271.18h-14.7a1,1,0,0,0-1,1v1.29h16.72v-1.29A1,1,0,0,0,260.24,271.18Z" id="el_szTVTV0twiM"/><path d="M279.81,271.18h-14.7a1,1,0,0,0-1,1v1.29h16.72v-1.29A1,1,0,0,0,279.81,271.18Z" id="el_G6YlXfOuIuC"/><rect x="57.52" y="154.22" width="204.33" height="22.83" id="el_rAkhmaG4WBF"/><rect x="60.8" y="157.13" width="17.03" height="17.03" id="el_triVpz9i6Jm"/><rect x="95.28" y="169.52" width="28.13" height="4.63" id="el_v_pSwrEY4-R"/><rect x="136.1" y="169.51" width="28.13" height="4.63" id="el_Gz3zbFcc3hA"/><rect x="176.91" y="169.51" width="28.13" height="4.63" id="el_cjRwFKYqk-h"/><path d="M228.78,157.93l-115.51,0a3.47,3.47,0,1,0,0,6.94l115.51,0a3.47,3.47,0,0,0,0-6.94Z" id="el_kms_n59yoWh"/><rect x="217.73" y="169.5" width="28.13" height="4.63" id="el_HghHBNm7AMW"/><path id="el_AnAGOeRnyfj" data-name="&lt;Path&gt;" d="M446.43,265.09s-23.15-110.22-84.89-115.36S277.33,270.4,311.29,349.56C311.29,349.56,377.83,323.91,446.43,265.09Z"/><g id="el_OlrnOx8l6Ob" data-name="&lt;Group&gt;"><circle id="el_czh5HeZIpU3" data-name="&lt;Path&gt;" cx="344.77" cy="30.59" r="30.59"/><circle id="el_KZpUkvQKWc6" data-name="&lt;Path&gt;" cx="329.04" cy="61.29" r="19.17"/><circle id="el_-M_46Dsjb_y" data-name="&lt;Path&gt;" cx="370.49" cy="62.14" r="26"/><g id="el_S3-D6yWCTZ5" data-name="&lt;Group&gt;"><g id="el_-cC5aoKayKi" data-name="&lt;Group&gt;"><path id="el_XeE9XWOje9w" data-name="&lt;Path&gt;" d="M298,100c.65,15.37,4.48,29.26,27.55,39.64,0,0,11.84,11.88,8.37,28.21s41.22,15.11,34.51-7.41,4.4-48.52,12.49-63.28S385.6,51.51,367,41.48c-7.31-3.94-25.53-2.14-37.35,3.67C309.57,55,297,77.61,298,100Z"/><path id="el_UvQJvaCICU2" data-name="&lt;Path&gt;" d="M376.26,83.83s5.39-4.37,12.08-2.63,7.85,26.2-7.8,30.47-10-11.09-10-11.09Z"/><path id="el_psuKxp6pQx3" data-name="&lt;Path&gt;" d="M297.14,97.32a11.5,11.5,0,0,0,1.8.15,11,11,0,0,0,3.62-.58c5.23,2.61,14.14,5.48,23,.89,13.66-7.12,25.76-8.15,32.14-5,11,5.35,23.54,2.46,27.28-14.45,0,0,1.53,13.46-6.81,20.5s-8.69,18.18-7.38,27.4,7.81,19.5-.57,31.1-22.09,0-32.37,2.76-32.94,5.67-37.68-13,1.39-25.71,0-33.47C299,107,296.33,103,297.14,97.32Z"/><g id="el_rGSY9jb6JXM" data-name="&lt;Group&gt;"><g id="el_dYoIWWkYCrD" data-name="&lt;Group&gt;"><path id="el_79wNjaqPJ6-" data-name="&lt;Path&gt;" d="M329.37,106.47s3.35-2.83,6.54-3.42,6.51,0,7.87,3.92-2.07,7.6-6.44,10.91c-2.58,2-11.87,5.29-17.51,3.7s-8.72-3.1-10.49-6.41.4-7.38,3-8.89,5.7-.65,7.22.18A9.08,9.08,0,0,0,329.37,106.47Z"/></g></g><path id="el_yOkRBPG11fS" data-name="&lt;Path&gt;" d="M337.81,76c0,2.67,1.13,4.84,2.51,4.84s2.5-2.17,2.5-4.84-1.12-4.83-2.5-4.83S337.81,73.28,337.81,76Z"/><path id="el_GQUe1-DurQt" data-name="&lt;Path&gt;" d="M310.52,79.08c0,2.67,1.12,4.84,2.51,4.84s2.5-2.17,2.5-4.84-1.12-4.84-2.5-4.84S310.52,76.41,310.52,79.08Z"/><path d="M308.7,92.29A16.34,16.34,0,1,1,325,76,16.36,16.36,0,0,1,308.7,92.29Zm0-30.84A14.5,14.5,0,1,0,323.2,76,14.52,14.52,0,0,0,308.7,61.45Z" id="el_tEBXfUWz0Me"/><polygon id="el_4CJ35_--Wv2" data-name="&lt;Path&gt;" points="323.24 63.66 315.07 96 331.86 94.16 323.24 63.66"/><path d="M342.82,89.82a16.34,16.34,0,1,1,16.33-16.33A16.35,16.35,0,0,1,342.82,89.82Zm0-30.83a14.5,14.5,0,1,0,14.5,14.5A14.52,14.52,0,0,0,342.82,59Z" id="el_QAUMvCwkY2m"/><rect x="319.8" y="65.59" width="9.24" height="1.83" id="el_tkOmKCcBRVq"/><rect x="371.11" y="58.74" width="1.83" height="30.1" id="el_3ecQ7OWeoO7"/><path id="el_WBmu55VIrDW" data-name="&lt;Path&gt;" d="M370.84,101.83a7.43,7.43,0,1,0,7.42-7.43A7.42,7.42,0,0,0,370.84,101.83Z"/><path id="el_bz7nJ7otF2t" data-name="&lt;Path&gt;" d="M368.3,110.64a6.49,6.49,0,1,0,6.49-6.49A6.48,6.48,0,0,0,368.3,110.64Z"/><path id="el_iKN80E7kXHj" data-name="&lt;Path&gt;" d="M366,120.87a8.75,8.75,0,1,0,8.75-8.74A8.74,8.74,0,0,0,366,120.87Z"/><path id="el_3irlhZ8f2p1" data-name="&lt;Path&gt;" d="M366,135.06a8.75,8.75,0,1,0,8.75-8.75A8.74,8.74,0,0,0,366,135.06Z"/><path id="el_KeM1L7Gvk8R" data-name="&lt;Path&gt;" d="M362.09,150.61a8.75,8.75,0,1,0,8.75-8.75A8.75,8.75,0,0,0,362.09,150.61Z"/><path id="el_o3Xwxw8AH80" data-name="&lt;Path&gt;" d="M352.05,160.23a8.75,8.75,0,1,0,8.75-8.75A8.75,8.75,0,0,0,352.05,160.23Z"/><path id="el_UOZw_2eCW6N" data-name="&lt;Path&gt;" d="M335.33,159.36a8.75,8.75,0,1,0,8.75-8.75A8.75,8.75,0,0,0,335.33,159.36Z"/><circle id="el_nshOoyvmgtR" data-name="&lt;Path&gt;" cx="327.16" cy="163.29" r="8.75"/><path id="el_Z4uvcjWaIWS" data-name="&lt;Path&gt;" d="M302.33,157.4a8.75,8.75,0,1,0,8.75-8.75A8.75,8.75,0,0,0,302.33,157.4Z"/><path id="el_ZocfCQ10X2d" data-name="&lt;Path&gt;" d="M294.3,145a8.75,8.75,0,1,0,8.75-8.75A8.75,8.75,0,0,0,294.3,145Z"/><circle id="el_Bn9flEr8k8y" data-name="&lt;Path&gt;" cx="297.45" cy="130.38" r="8.75"/><path id="el_tdoAGij2pO4" data-name="&lt;Path&gt;" d="M290.34,114.67a8.75,8.75,0,1,0,8.75-8.75A8.74,8.74,0,0,0,290.34,114.67Z"/><path id="el_CKLAzs7glDt" data-name="&lt;Path&gt;" d="M289.84,104.08a8.77,8.77,0,0,0,17.5,0c0-4.51-3.92-8.17-8.75-8.17S289.84,99.57,289.84,104.08Z"/></g></g><path id="el_PyPJ-CUQjXp" data-name="&lt;Path&gt;" d="M382.78,84.78s4.72-36.48-28.18-35c-21.69,1-30.13,3.17-37.21-6S315.91,3.71,345.67,3.66C375.26,3.62,375,38.25,375,38.25s27.7,11.15,10.08,43Z"/></g><g id="el_QPBazV3Yi83" data-name="&lt;Group&gt;"><g id="el_FvoQ4Nb1UC7" data-name="&lt;Group&gt;"><path id="el_BJpcaCG_yYt" data-name="&lt;Path&gt;" d="M387.22,218.59s4.13,21.72-28.71,56.89c-24.29,26-82.08,8.93-105.94-68.28l16.6,1.6S289.53,236,306.58,244c14.21,6.61,24.36,2.57,31.22-4.1a29.23,29.23,0,0,0,8.5-23.38h0Z"/></g><path id="el_Bs-KQk_htE9" data-name="&lt;Path&gt;" d="M263.36,195.31s-11.16-28-13.11-29.9-4.32.49-2.15,5.19,4.71,14.05,4.71,14.05-8.71-17.27-10.49-17.7-3.52,1.46-1.62,4.4,7.62,16,7.62,16-7.11-9.76-9.61-11.89-2.13,2.54-.16,5.15,7.1,11.8,7.1,11.8-7.17-5.94-9-6.11-1.7,1.36-.78,2.48S247,198.1,247,198.1s4.05,11.74,11.81,14,10.38-1.7,10.32-3S269,187.29,267.64,184s-4-2.42-3.28,3.27S265,196.09,263.36,195.31Z"/></g></g></svg>