<svg id="abb4b2cf-cfdc-42dc-9d95-bbaf6019a9bd" xmlns="http://www.w3.org/2000/svg" xmlns:xlink="http://www.w3.org/1999/xlink" viewBox="0 0 445.83 356.03"><defs><style>.cls-1{fill:none;}.cls-11,.cls-2{fill:#c2c2c2;}.cls-2{opacity:0.18;isolation:isolate;}.cls-3{fill:#a4a4a4;}.cls-4{fill:#d3d3d3;}.cls-5{fill:#909090;}.cls-6{fill:#fff;}.cls-7{fill:#f6f6f6;}.cls-8{fill:#ffde56;}.cls-9{fill:#ff8056;}.cls-10{fill:#e3e3e3;}.cls-12{fill:#ececec;}.cls-13{clip-path:url(#clip-path);}.cls-14{fill:#fbc39d;}.cls-15{fill:#ff4200;}.cls-16{fill:#ff6000;}.cls-17{fill:#ff3000;}.cls-18{fill:#222728;}.cls-19{fill:#f9ad26;}.cls-20{fill:#ff8e00;}.cls-21{fill:#ffbe36;}g,path,rect:not(.cls-14){transform-box:fill-box}g#hand1{transform-origin:left;transform:rotate(44deg);animation:hand1 8s ease 0s infinite}g#hand2{transform-origin:right;animation:hand2 8s ease 0s infinite}rect.cls-10,rect.cls-11{transform-origin:left;transform:scaleX(0);animation:rect___ 8s ease 0s infinite}@keyframes hand1{0%,100%{transform:rotate(44deg)}40%{transform:rotate(0)}50%{transform:rotate(-2deg)}}@keyframes hand2{0%,100%{transform:rotate(0)}40%{transform:rotate(-4deg)}50%{transform:rotate(-3deg)}}@keyframes rect___{0%,100%{transform:scaleX(0)}20%,80%{transform:scaleX(1)}}</style><clipPath id="clip-path" transform="translate(-0.02 -0.02)"><circle class="cls-1" cx="235.71" cy="189.37" r="15.18"/></clipPath></defs><title>appdevelopment copy</title><path class="cls-2" d="M384.44,329.1c0,7.6-35.67,7.6-110.61,7.6-66.61,0-108.68,0-108.68-7.6s43.33-7.6,108.68-7.6C346.13,321.5,384.44,322.44,384.44,329.1Z" transform="translate(-0.02 -0.02)"/><rect class="cls-3" x="208.21" y="33.44" width="158.33" height="294.04" rx="20.13"/><rect class="cls-4" x="189.77" y="33.44" width="158.33" height="294.04" rx="20.13"/><path class="cls-5" d="M265.21,316.2A12.21,12.21,0,1,1,277.42,304h0A12.23,12.23,0,0,1,265.21,316.2Z" transform="translate(-0.02 -0.02)"/><path class="cls-5" d="M283.47,45.16h-28.1a1.32,1.32,0,1,0,0,2.64h28.1a1.32,1.32,0,0,0,0-2.64Z" transform="translate(-0.02 -0.02)"/><path class="cls-5" d="M248.93,48.24a1.75,1.75,0,0,1-1.24-.52,1.44,1.44,0,0,1-.22-.27,1.08,1.08,0,0,1-.16-.3,1.19,1.19,0,0,1-.1-.32,2,2,0,0,1,0-.35,2,2,0,0,1,0-.35,1.7,1.7,0,0,1,.1-.32,3,3,0,0,1,.16-.31A1.9,1.9,0,0,1,248,45l.3-.16.33-.1a2,2,0,0,1,.69,0l.33.1.3.16a1.44,1.44,0,0,1,.27.22,2,2,0,0,1,.22.27,1.3,1.3,0,0,1,.16.31,1.7,1.7,0,0,1,.1.32,2,2,0,0,1,0,.35v.35a3,3,0,0,1-.11.32,1.08,1.08,0,0,1-.16.3,1.9,1.9,0,0,1-.49.49,1.43,1.43,0,0,1-.3.16,2.13,2.13,0,0,1-.33.11Z" transform="translate(-0.02 -0.02)"/><rect class="cls-6" x="201.45" y="59.23" width="133.25" height="221.41"/><rect class="cls-7" x="201.45" y="59.23" width="133.25" height="22.5"/><path class="cls-8" d="M216.21,70a3.26,3.26,0,1,1-3.28-3.24h0A3.26,3.26,0,0,1,216.21,70Z" transform="translate(-0.02 -0.02)"/><circle class="cls-9" cx="223.31" cy="69.94" r="3.26"/><path class="cls-4" d="M237,70a3.26,3.26,0,1,1-3.3-3.24A3.26,3.26,0,0,1,237,70Z" transform="translate(-0.02 -0.02)"/><rect class="cls-10" x="227.97" y="108.79" width="93.96" height="5.76" rx="2.83"/><rect class="cls-10" x="229.54" y="142.15" width="69.76" height="5.76" rx="2.83"/><rect class="cls-10" x="305.72" y="142.15" width="15.27" height="5.76" rx="2.83"/><rect class="cls-11" x="217.26" y="125.94" width="46.19" height="5.76" rx="2.83"/><rect class="cls-11" x="272.39" y="125.94" width="35.83" height="5.76" rx="2.83"/><circle class="cls-12" cx="235.69" cy="189.35" r="21.46"/><g class="cls-13"><path class="cls-5" d="M246.34,201.93a9.19,9.19,0,0,0-9.17-9.17h-2.62a9.19,9.19,0,0,0-9.17,9.17v2.62h21Z" transform="translate(-0.02 -0.02)"/><path class="cls-5" d="M235.86,180.62a5.24,5.24,0,1,1-5.24,5.24,5.25,5.25,0,0,1,5.24-5.24Z" transform="translate(-0.02 -0.02)"/></g><path class="cls-10" d="M312.69,268.57H221.75a6.76,6.76,0,0,1-6.73-6.75V234.51a6.75,6.75,0,0,1,6.75-6.75h90.94a6.75,6.75,0,0,1,6.75,6.75h0v27.31a6.75,6.75,0,0,1-6.75,6.75Zm-90.94-38.68a4.63,4.63,0,0,0-4.62,4.62v27.31a4.63,4.63,0,0,0,4.62,4.62h90.94a4.63,4.63,0,0,0,4.62-4.62V234.51a4.62,4.62,0,0,0-4.62-4.62Z" transform="translate(-0.02 -0.02)"/><path class="cls-10" d="M312.69,216.46h-39a6.56,6.56,0,0,1-6.56-6.56V168.55a6.56,6.56,0,0,1,6.56-6.56h39a6.56,6.56,0,0,1,6.56,6.56V209.9a6.56,6.56,0,0,1-6.56,6.56Zm-39-52.74a4.82,4.82,0,0,0-4.82,4.81v41.35a4.82,4.82,0,0,0,4.8,4.84h39a4.82,4.82,0,0,0,4.82-4.81V168.55a4.82,4.82,0,0,0-4.82-4.81Z" transform="translate(-0.02 -0.02)"/><path class="cls-2" d="M168.8,349.87c0,6.18-20.77,6.18-64.43,6.18-38.8,0-63.3,0-63.3-6.18s25.24-6.15,63.3-6.15C146.48,343.72,168.8,344.44,168.8,349.87Z" transform="translate(-0.02 -0.02)"/><polygon class="cls-14" points="127.44 343.85 141.25 344.78 144.93 324.05 131.11 322.5 127.44 343.85"/><polyline class="cls-14" points="82.62 328.29 75.8 345.03 61.66 345.03 67.23 326.66"/><polygon class="cls-15" points="96.36 209.6 62.52 332.3 83.53 333.93 137.5 210.54 96.36 209.6"/><path class="cls-16" d="M140.54,210.53l15.88,34a50.34,50.34,0,0,1,2.43,36.28l-13,50.84-18.5-.56,7-64.61-31.91-41A27.19,27.19,0,0,1,97,212.85l-.5-3.34Z" transform="translate(-0.02 -0.02)"/><polygon class="cls-17" points="134.41 266.49 143.67 273.56 134.02 273.49 134.41 266.49"/><rect class="cls-14" x="116.47" y="129.64" width="27.32" height="13.98" transform="translate(-30.04 236.39) rotate(-78.32)"/><path class="cls-14" d="M153.14,105.54a1.84,1.84,0,0,0-2.27-1.23l-2.36.69a15,15,0,1,0,1.74,3.29l1.65-.48A1.83,1.83,0,0,0,153.14,105.54Z" transform="translate(-0.02 -0.02)"/><path class="cls-18" d="M141.78,111.53l-1.89-7.6s8.44-5.21,7.06-14.21l-21.88,4c-5.27,1-8.83,5.68-8,10.54l2.21,12.14a3.91,3.91,0,0,0,4.68,2.95H124l13.56-2.74Z" transform="translate(-0.02 -0.02)"/><path class="cls-14" d="M143,113.16a4.22,4.22,0,1,1-4.14-4.3h0A4.22,4.22,0,0,1,143,113.16Z" transform="translate(-0.02 -0.02)"/><g id="hand2"><path class="cls-19" d="M122.39,152.19l-13.21-13L85.73,156l-.45.31a11.3,11.3,0,0,0-2.63,2.67,10.64,10.64,0,0,0,2.67,14.82,6.49,6.49,0,0,0,.55.36L104.58,186l12.87-13-6-7.68Z" transform="translate(-0.02 -0.02)"/><path class="cls-20" d="M58.83,181.53l95-27a2.83,2.83,0,0,1,3.5,1.95h0l0,.08a2.84,2.84,0,0,1-1.95,3.51l-95,27a2.83,2.83,0,0,1-3.5-1.95h0l0-.11a2.84,2.84,0,0,1,1.95-3.51Z" transform="translate(-0.02 -0.02)"/><path class="cls-20" d="M54.2,201.65l85.56-49.4a2.82,2.82,0,0,1,3.86,1h0l0,.08a2.82,2.82,0,0,1-1,3.86h0l-85.56,49.4a2.84,2.84,0,0,1-3.87-1h0l0-.08A2.84,2.84,0,0,1,54.2,201.65Z" transform="translate(-0.02 -0.02)"/></g><path class="cls-19" d="M118.07,139.21l.87-6.11a3.68,3.68,0,0,1,3.14-3.11c5.47-.72,17.38-1.07,19.91,8.93Z" transform="translate(-0.02 -0.02)"/><path class="cls-21" d="M147.66,137.49l-3.57-.89c-11.32-2.28-20.25-2.13-29.93.43,0,0-10,2-10.16,10.3l-7.4,62.39,44,.93L153,149.11C153.31,142.72,153.64,138.18,147.66,137.49Z" transform="translate(-0.02 -0.02)"/><g id="hand1"><rect class="cls-20" x="164.55" y="93.83" width="104.47" height="5.76" rx="2.83"/><path class="cls-14" d="M225.63,97a.85.85,0,0,0-1.19.09l-2.21,2.57-.47-.45,2.9-3.62a.72.72,0,0,0,.17-.22.84.84,0,1,0-1.49-.78L220.57,98l-.35-.34,3.05-4.27a.84.84,0,0,0-.18-1.18.85.85,0,0,0-1.19.18L219,96.48l-.61-.59,3.27-4.81a.86.86,0,1,0-1.4-1l-6.49,9.54h-3.69l0,5.66-10.9,14.22,5.79,4.27,11.17-15.15a4.34,4.34,0,0,0,2.28-1.26l4.63-6.1,2.67-3.11A.83.83,0,0,0,225.63,97Z" transform="translate(-0.02 -0.02)"/><path class="cls-21" d="M207.35,106.78l-26.66,25.8-36.64,8.13,4.65,23.61,38-12.47,1.56-.54a6.09,6.09,0,0,0,3-2.36l23.21-36.3Z" transform="translate(-0.02 -0.02)"/></g><polygon class="cls-18" points="76.37 343.66 87.53 350.31 59.78 350.31 61.8 343.66 76.37 343.66"/><polygon class="cls-18" points="141.74 341.45 152.24 348.1 126.24 348.1 127.61 341.45 141.74 341.45"/><path class="cls-18" d="M61.68,345" transform="translate(-0.02 -0.02)"/><path class="cls-21" d="M165.5,6.47a1.61,1.61,0,0,1-.31,0s-.58-.22-1.64-.54a.89.89,0,0,1,.52-1.7c1.12.35,1.73.57,1.73.57a.89.89,0,0,1-.3,1.72Z" transform="translate(-0.02 -0.02)"/><path class="cls-21" d="M79.2,92.27a.91.91,0,0,1-.82-.55c-.45-1.07-.87-2.19-1.26-3.33a.89.89,0,0,1,1.63-.71.78.78,0,0,1,0,.14c.38,1.1.79,2.18,1.22,3.21a.9.9,0,0,1-.47,1.17h0A1,1,0,0,1,79.2,92.27Zm-2.37-7a.89.89,0,0,1-.86-.66c-.3-1.12-.57-2.28-.82-3.46a.89.89,0,0,1,.69-1.05.9.9,0,0,1,1.06.69c.23,1.15.5,2.28.79,3.37a.89.89,0,0,1-.67,1,.63.63,0,0,1-.19,0ZM75.34,78a.9.9,0,0,1-.88-.76c-.17-1.15-.32-2.33-.44-3.52a.9.9,0,0,1,.77-1h0a.89.89,0,0,1,1,.75v0c.12,1.16.27,2.32.43,3.44a.9.9,0,0,1-.75,1Zm-.75-7.38a.89.89,0,0,1-.88-.84c-.07-1.19-.12-2.37-.14-3.54a.88.88,0,0,1,.86-.9h0a.89.89,0,0,1,.91.87h0c0,1.14.06,2.3.13,3.46a.88.88,0,0,1-.82.94h-.07Zm-.13-7.42h0a.89.89,0,0,1-.87-.91h0c0-1.2.06-2.38.12-3.53a.87.87,0,0,1,.9-.84h0a.88.88,0,0,1,.84.92h0c-.06,1.13-.1,2.29-.12,3.47a.89.89,0,0,1-.9.85Zm.37-7.41h-.07a.89.89,0,0,1-.81-1v0c0-.53.09-1.06.14-1.58s.13-1.3.21-1.94a.89.89,0,0,1,1.77.23h0q-.12.95-.21,1.89c0,.51-.1,1-.14,1.56a.9.9,0,0,1-.89.81Zm1-7.36h-.17a.91.91,0,0,1-.71-1c.23-1.17.49-2.33.78-3.47a.89.89,0,0,1,1.08-.65h0a.91.91,0,0,1,.64,1.08c-.28,1.11-.53,2.24-.75,3.37a.88.88,0,0,1-.89.64Zm1.85-7.18a1.31,1.31,0,0,1-.28,0,.89.89,0,0,1-.57-1.12c.36-1.12.77-2.25,1.2-3.35a.87.87,0,0,1,1.14-.5h0a.89.89,0,0,1,.5,1.15c-.41,1.06-.8,2.16-1.16,3.25a.89.89,0,0,1-.86.54Zm2.72-6.89a.85.85,0,0,1-.38-.09.9.9,0,0,1-.43-1.18c.51-1.07,1-2.14,1.61-3.17a.9.9,0,0,1,1.21-.36.89.89,0,0,1,.33,1.15c-.55,1-1.07,2-1.56,3.07a.88.88,0,0,1-.8.55ZM84,27.87a.9.9,0,0,1-.48-.14.88.88,0,0,1-.28-1.21v0c.64-1,1.31-2,2-2.93a.88.88,0,0,1,1.22-.29.89.89,0,0,1,.3,1.22l-.09.12c-.67.92-1.32,1.87-1.94,2.84a.88.88,0,0,1-.76.38Zm4.4-6a.87.87,0,0,1-.57-.22.9.9,0,0,1-.11-1.25c.77-.9,1.58-1.79,2.4-2.64a.89.89,0,1,1,1.36,1.14l-.09.1c-.79.82-1.57,1.68-2.31,2.55a.9.9,0,0,1-.7.33Zm5.18-5.31A.89.89,0,0,1,93,15c.89-.79,1.81-1.56,2.74-2.28a.89.89,0,0,1,1.09,1.4c-.89.7-1.78,1.44-2.64,2.21a.93.93,0,0,1-.62.23ZM99.42,12a.89.89,0,0,1-.5-1.63c1-.66,2-1.3,3-1.89a.89.89,0,1,1,1,1.46.41.41,0,0,1-.11.07c-1,.58-2,1.2-2.92,1.84a.9.9,0,0,1-.5.16Zm6.42-3.72a.89.89,0,0,1-.4-1.69c1.06-.52,2.15-1,3.24-1.47a.89.89,0,0,1,.69,1.64c-1.06.44-2.12.92-3.14,1.43a1,1,0,0,1-.41.1Zm6.84-2.85a.89.89,0,0,1-.91-.87.91.91,0,0,1,.6-.86c1.11-.38,2.25-.74,3.39-1.06a.89.89,0,0,1,.49,1.71c-1.11.32-2.22.66-3.3,1a.75.75,0,0,1-.29.09ZM160,4.86h-.22c-1-.26-2.14-.53-3.38-.8a.89.89,0,0,1,.38-1.74c1.26.28,2.42.56,3.44.82a.87.87,0,0,1,.65,1.05v0A.89.89,0,0,1,160,4.86Zm-40.24-1.4a.89.89,0,0,1-.17-1.74c1.15-.25,2.32-.48,3.49-.67a.89.89,0,0,1,.44,1.73l-.15,0c-1.14.19-2.28.41-3.4.65a.61.61,0,0,1-.19,0Zm33-.17h-.16c-1.09-.2-2.23-.38-3.43-.55a.89.89,0,0,1-.75-1,.88.88,0,0,1,1-.75h0c1.22.17,2.38.36,3.49.56a.89.89,0,0,1,.69,1.06.91.91,0,0,1-.84.7Zm-25.66-1A.9.9,0,0,1,127,.5h0c1.15-.13,2.34-.23,3.53-.31A.89.89,0,0,1,130.67,2h0c-1.15.08-2.31.18-3.44.31Zm18.31,0h-.09c-1.12-.12-2.28-.21-3.46-.29A.92.92,0,0,1,141,1a.92.92,0,0,1,1-.83c1.2.08,2.38.18,3.52.3a.89.89,0,0,1-.09,1.77ZM138,1.8h-3.46a.89.89,0,1,1,0-1.78h3.54a.89.89,0,0,1,0,1.78Z" transform="translate(-0.02 -0.02)"/><path class="cls-21" d="M81.76,97.4A.89.89,0,0,1,81,97c-.3-.52-.6-1-.88-1.58a.89.89,0,0,1,1.57-.84h0c.27.52.55,1,.85,1.52a.9.9,0,0,1-.32,1.22A.89.89,0,0,1,81.76,97.4Z" transform="translate(-0.02 -0.02)"/><path class="cls-21" d="M183.94,15.84h0l-12.67-.29a.92.92,0,0,1-.76-.45.9.9,0,0,1,0-.87l6.13-11.1a.88.88,0,0,1,.77-.45.82.82,0,0,1,.78.44l6.55,11.39a.9.9,0,0,1,0,.9A.87.87,0,0,1,183.94,15.84Zm-11.2-2,9.64.23-5-8.66Z" transform="translate(-0.02 -0.02)"/><path class="cls-4" d="M53.27,292.8H1a1,1,0,1,1,0-2H53.27a1,1,0,0,1,0,2Z" transform="translate(-0.02 -0.02)"/><path class="cls-4" d="M444.89,292.8H380a1,1,0,0,1,0-2h64.83a1,1,0,0,1,0,2Z" transform="translate(-0.02 -0.02)"/></svg>