<svg id="a12a9394-9940-45ab-8252-d3a1cee8f9c3" data-name="a7e7012e-0f77-499b-bfdc-7e6d630b810a" xmlns="http://www.w3.org/2000/svg" viewBox="0 0 499.31 354.5"><defs><style>.a19f8ad3-645b-4d47-9ce5-3409e242b922{fill:#ffece4;}.e05976fd-07c1-4d2d-9ed7-317100b8d130{fill:#0f0f0f;opacity:0.12;}.a8e41cbf-0454-4caa-9da0-e19ec6b6559a,.adccd9b2-704f-4a13-a03e-53e48e103dff,.e05976fd-07c1-4d2d-9ed7-317100b8d130{isolation:isolate;}.ad696c2c-62f9-4ec2-8db4-c468cde6965b{fill:#f9c2af;}.fbc2a8fa-6176-4816-a057-c5745af1ebf5{fill:#555b65;}.b3d96c55-0c5b-4680-8858-14f17dd8e493{fill:#bebcc4;}.e1b48ce3-6667-4905-8b53-9dc007d15f59{fill:#e6dcd0;}.fc3173f8-5ad0-4b8d-8317-2cd26a23d8d2{fill:#592510;}.a66eae2d-bdea-42ee-a019-38ab9bdbb805{fill:#faa387;}.fcac7e14-d049-4fc8-8eef-087ef013f5a0{fill:#271734;}.bd357608-d1a6-4f64-b5ab-49bd559f7251{fill:#3283b0;}.e50e1f3e-508b-4bd0-aa8b-c00d57658d6b{fill:#1475b0;}.ed85b44c-438f-4571-9148-75e759226479{fill:#21c8c2;}.a9666bd2-d7f5-4245-a52e-5f31a2531cde,.adccd9b2-704f-4a13-a03e-53e48e103dff{fill:#00a8b7;}.adccd9b2-704f-4a13-a03e-53e48e103dff{opacity:0.45;}.ba163fc6-bda4-4303-8130-e4cfa3de456f{fill:#e77c6c;}.a597b407-081a-4062-93ee-1cf6e69b8c81{fill:#e35e5a;}.ff1fa26e-9fa2-419d-ba7b-aa4ea2358787{fill:#1b6f97;}.b5bc2d24-5faa-4db6-b185-75bd3600557f{fill:#f9683e;}.a8e41cbf-0454-4caa-9da0-e19ec6b6559a,.bf0b3291-b4cb-4ee6-907f-aff3618521dc{fill:#d4523e;}.a8e41cbf-0454-4caa-9da0-e19ec6b6559a{opacity:0.5;}.e16ecde8-be9e-4137-ba9e-40a63582e697{fill:#372c4c;}.b40a1ef2-21e0-42e4-a5a5-80dea847c6f9{fill:#fff;}.f8d9274e-cd8b-4af7-aa9f-30d23bc0c12a{fill:#3f0a00;}.b9aa8dee-73b1-487c-a76f-2d6feebf49ba{fill:#efefef;}.a2b8b6c1-d405-451c-842b-fdef604d89bc{fill:#bcbcbc;}.ad607b18-bbc0-4506-8bc0-5ba9547ef432{fill:#e98877;}.ad68258c-30b6-40a7-b812-71fee2034ad0{fill:#00bab7;}.a4708882-1d5d-460f-9fd0-921c28ab1371{fill:#7da2b7;}.a62c6ffb-a37e-4efb-9fac-5006fa39b8aa{fill:#6b95ad;}


#fe9c2143-1f27-49c8-9f49-39e785776bf9{
    transform-origin: center;
    transform-box: fill-box;
    animation: face2__ 2s ease 0s infinite;
}
g#news_paper {
    transform-origin: center;
    animation: news_paper__ 6s ease 0s infinite;
}
g#f8cb70df-4508-46d1-a8ae-6f1a822541bb {
    transform: rotate(-3deg);
    transform-box: fill-box;
    transform-origin: left;
    animation: hand__ 3s ease 0s infinite;
}


@keyframes hand__{
	0%{transform: rotate(-3deg);}
	25%{transform: rotate(0deg);}
	50%{transform: rotate(-3deg);}
	75%{transform: rotate(3deg);}
	90%{transform: rotate(0deg);}
}


@keyframes face2__{
	0%{transform: rotate(0deg);}
	30%{transform: rotate(4deg);}
	50%{transform: rotate(0deg);}
	70%{transform: rotate(-4deg);}
	100%{transform: rotate(0deg);}
}
@keyframes news_paper__{
	0%{transform: skew(0deg, 0deg);}
	30%{transform: skew(1deg, 0deg);}
	50%{transform: skew(0deg, 1deg);}
	70%{transform: skew(2deg, 1deg);}
	100%{transform: skew(0deg, 0deg);}
}



</style></defs><rect class="a19f8ad3-645b-4d47-9ce5-3409e242b922" x="25.54" y="58.99" width="124.08" height="213.53"/><ellipse class="e05976fd-07c1-4d2d-9ed7-317100b8d130" cx="228.05" cy="352.55" rx="220.7" ry="1.95"/><polygon class="ad696c2c-62f9-4ec2-8db4-c468cde6965b" points="129.34 58.99 71.81 58.99 25.54 84.77 25.54 123.54 129.34 58.99"/><polygon class="ad696c2c-62f9-4ec2-8db4-c468cde6965b" points="149.63 94.61 25.54 169.1 25.54 216.32 149.63 145.12 149.63 94.61"/><polygon class="ad696c2c-62f9-4ec2-8db4-c468cde6965b" points="149.63 159.13 25.54 227.44 25.54 231.97 25.54 261.95 149.63 193.69 149.63 159.13"/><rect class="a19f8ad3-645b-4d47-9ce5-3409e242b922" x="158.23" y="58.99" width="128.03" height="213.53"/><polygon class="ad696c2c-62f9-4ec2-8db4-c468cde6965b" points="265.34 58.99 205.97 58.99 158.23 84.77 158.23 123.54 265.34 58.99"/><polygon class="ad696c2c-62f9-4ec2-8db4-c468cde6965b" points="286.27 94.61 158.23 169.1 158.23 216.32 286.27 145.12 286.27 94.61"/><polygon class="ad696c2c-62f9-4ec2-8db4-c468cde6965b" points="286.27 159.13 158.23 227.44 158.23 231.97 158.23 261.95 286.27 193.69 286.27 159.13"/><rect class="a19f8ad3-645b-4d47-9ce5-3409e242b922" x="294.99" y="58.99" width="123.69" height="213.53"/><polygon class="ad696c2c-62f9-4ec2-8db4-c468cde6965b" points="398.47 58.99 341.11 58.99 294.99 84.77 294.99 123.54 398.47 58.99"/><polygon class="ad696c2c-62f9-4ec2-8db4-c468cde6965b" points="418.69 94.61 294.99 169.1 294.99 216.32 418.69 145.12 418.69 94.61"/><polygon class="ad696c2c-62f9-4ec2-8db4-c468cde6965b" points="418.69 159.13 294.99 227.44 294.99 231.97 294.99 261.95 418.69 193.69 418.69 159.13"/><path class="fbc2a8fa-6176-4816-a057-c5745af1ebf5" d="M424.61,59.76V49.64H21.27V59.76H149.63v212.8H21.27v10.12H424.61V272.56H296.25V59.76ZM286.27,272.56H159.61V59.76H286.27Z" transform="translate(0 -0.03)"/><path class="b3d96c55-0c5b-4680-8858-14f17dd8e493" d="M387.21,349.63H363.74v-66a7.64,7.64,0,0,0-7.62-7.63H90.7a7.64,7.64,0,0,0-7.62,7.63v66H58.67v-66A19.86,19.86,0,0,1,78.5,263.81H367.38a19.85,19.85,0,0,1,19.83,19.83Z" transform="translate(0 -0.03)"/><path class="e1b48ce3-6667-4905-8b53-9dc007d15f59" d="M395.27,349.63h-12.2v-66a7.65,7.65,0,0,0-7.63-7.63h-305a7.65,7.65,0,0,0-7.63,7.63v66H50.61v-66A19.85,19.85,0,0,1,70.44,263.8h305a19.87,19.87,0,0,1,19.83,19.83Z" transform="translate(0 -0.03)"/><path class="a66eae2d-bdea-42ee-a019-38ab9bdbb805" d="M100.39,187.55s-4.84,2.08-6.79,9.69c-3.78,14.71-15.21,43-15.21,43l9.19.54,13.7-30.24Z" transform="translate(0 -0.03)"/><path class="a66eae2d-bdea-42ee-a019-38ab9bdbb805" d="M386.3,340.72a4.15,4.15,0,0,1,.35-5.56l-.27.1L383.86,331l-5.9,3.57s1.5,3.51,2.59,6.68A12.33,12.33,0,0,0,386.3,340.72Z" transform="translate(0 -0.03)"/><path class="fcac7e14-d049-4fc8-8eef-087ef013f5a0" d="M403.31,329.27c-.91-.38-14.6,5.06-16.66,5.89a4.15,4.15,0,0,0-.35,5.56,12.33,12.33,0,0,1-5.75.5c.73,2.14,1.5,4,2,4.16,1.23.41,12.1-3.76,17-8S404.29,329.68,403.31,329.27Z" transform="translate(0 -0.03)"/><path class="a66eae2d-bdea-42ee-a019-38ab9bdbb805" d="M327.67,346.71a4.15,4.15,0,0,1,4-3.85l-.27-.1,1.06-4.87-6.75-1.39s-1.29,3.61-2.64,6.67A12.38,12.38,0,0,0,327.67,346.71Z" transform="translate(0 -0.03)"/><path class="fcac7e14-d049-4fc8-8eef-087ef013f5a0" d="M347.93,349.86c-.41-.89-14.16-6.2-16.22-7a4.15,4.15,0,0,0-4,3.85,12.35,12.35,0,0,1-4.56-3.54c-.92,2.07-1.61,3.94-1.36,4.4.62,1.13,11.43,5.46,17.92,5.68S348.37,350.83,347.93,349.86Z" transform="translate(0 -0.03)"/><path class="bd357608-d1a6-4f64-b5ab-49bd559f7251" d="M290.79,249.66s-2.58,11.27,2.58,16.67,35,11.26,35,11.26l-4.93,59.15,12,2.11s12.68-39.67,16.43-52.81L376,336.5l10.09-6.1s-12-48.83-17.6-59.62S338.12,251,338.12,251l-6.7-1.16a110.59,110.59,0,0,0-28.67-1.19Z" transform="translate(0 -0.03)"/><path class="a66eae2d-bdea-42ee-a019-38ab9bdbb805" d="M303.54,255.8l-3.28-1.52L294.41,260l2,3.68A13,13,0,0,0,303.54,255.8Z" transform="translate(0 -0.03)"/><path class="e50e1f3e-508b-4bd0-aa8b-c00d57658d6b" d="M301.6,259.44c11.42,3,22.41,7.26,33.5,11.08a.78.78,0,0,1,.51.82h0q-1,8.15-2.15,16.24l-2.36,16.2c-1.59,10.79-3.05,21.6-4.14,32.45a.58.58,0,0,1-1.15-.11c.95-10.89,2.28-21.74,3.75-32.56l4.5-32.41.52.83c-11.07-4-22-8.4-33.25-11.52a.53.53,0,0,1,.05-1.06.79.79,0,0,1,.22.06Z" transform="translate(0 -0.03)"/><path class="e50e1f3e-508b-4bd0-aa8b-c00d57658d6b" d="M353.21,282l6.39,12.63c2.11,4.22,4.26,8.41,6.33,12.65,4.11,8.49,8.12,17,12.19,25.55a.58.58,0,0,1-.44.69.56.56,0,0,1-.56-.18c-4.22-8.44-8.5-16.85-12.68-25.31-2.07-4.24-4.07-8.51-6.1-12.77l-6-12.79a.54.54,0,0,1,.25-.71h0A.52.52,0,0,1,353.21,282Z" transform="translate(0 -0.03)"/><path class="ed85b44c-438f-4571-9148-75e759226479" d="M346.17,241.33c0-3.05-.58-6.06-.65-9.11l-.17.07s-5.18-21.12-7.21-31.13-6.4-12.36-11.72-14.4-20.66-2.66-26.6-2.34-10.64,1.4-16.27,10-19.72,30-20,34.11,1.25,7,6.41,11.73c4.25,3.86,17.88,15.42,22.62,19.43a3.08,3.08,0,0,0,3.83.11,16.58,16.58,0,0,0,3.92-4.18,3.11,3.11,0,0,0-.23-3.72L280,228.53l13-17.84s-1.55,27.72-1.18,31.56l6.26,7.26s18.64-3.57,42,2.2c0,0,2.53-1.16,5.84-2.8C345.84,246.37,346.14,243.88,346.17,241.33Z" transform="translate(0 -0.03)"/><path class="adccd9b2-704f-4a13-a03e-53e48e103dff" d="M292.9,210.71c0,.26-1.54,27.72-1.18,31.55l6.26,7.26s2.32-.44,6.34-.76a19.86,19.86,0,0,1-4.84-9.89c-1.88-12.21,0-22.54-2.82-33.8C295.94,207.22,294.14,208.82,292.9,210.71Z" transform="translate(0 -0.03)"/><path class="adccd9b2-704f-4a13-a03e-53e48e103dff" d="M271.31,233.23c-5.63-14.08,8.45-30,18.78-41.3,9.8-8.91,24.67-5.14,37.39-4.73l-1.09-.44c-5.32-2-20.66-2.66-26.6-2.34s-10.64,1.4-16.27,10-19.72,30-20,34.11,1.25,7,6.41,11.73c4.25,3.86,17.88,15.42,22.62,19.43a3.08,3.08,0,0,0,3.83.11,15.22,15.22,0,0,0,1.44-1.22C287,251.76,276.26,244,271.31,233.23Z" transform="translate(0 -0.03)"/><path class="adccd9b2-704f-4a13-a03e-53e48e103dff" d="M336.68,250.94c1.13.24,2.26.49,3.41.77,0,0,2.52-1.15,5.82-2.79-9.41-11.62-9.15-29.3-14.52-43.85C333.16,220,334.92,235.85,336.68,250.94Z" transform="translate(0 -0.03)"/><path class="a9666bd2-d7f5-4245-a52e-5f31a2531cde" d="M336.46,250.37l-1.75-10.82L333,228.73c-.56-3.61-1-7.23-1.5-10.85L330.05,207h0a.57.57,0,0,1,.13-.47,5,5,0,0,0,1.13-2.62.58.58,0,0,1,1.15.11,6.13,6.13,0,0,1-1.31,3.3l.13-.48L333,217.66c.57,3.61,1.17,7.21,1.67,10.83l1.45,10.86,1.4,10.87a.53.53,0,0,1-.44.59h0A.54.54,0,0,1,336.46,250.37Z" transform="translate(0 -0.03)"/><path class="a66eae2d-bdea-42ee-a019-38ab9bdbb805" d="M315.24,176.88c-.21-.23-3.25-3.37-7.08-2.32a7,7,0,0,0-4,3.12l-1.63,6.62s.07,3.21,5.62,4.81a15,15,0,0,0,8.53-.08,2.1,2.1,0,0,0,1.64-2l-1.06-6A7.93,7.93,0,0,0,315.24,176.88Z" transform="translate(0 -0.03)"/><path class="fcac7e14-d049-4fc8-8eef-087ef013f5a0" d="M335.85,150.59s4.48-2.47,4.84-9.15a13.73,13.73,0,0,0-3.25-9.34,1.16,1.16,0,0,0-1.63-.22,1.28,1.28,0,0,0-.37.49c-.72,2-2.72,4.65-8.2,2.93-8.32-2.62-17.53-1.92-23.4,2.41s-1.62,10.3-1.62,10.3-5.28-.18-6.27,5.07,1.29,26,8.75,25.14a6.09,6.09,0,0,0,1.88-.49c4-2.06,3.64-9.22,3.57-10.3-.07-3,.36-6.89,3-9.23,2.05-1.83,4.55-1.93,6.79-2.21A43.7,43.7,0,0,0,335.85,150.59Z" transform="translate(0 -0.03)"/><path class="a66eae2d-bdea-42ee-a019-38ab9bdbb805" d="M311.16,149.22s1.62,7.2-1.79,11.56a8.07,8.07,0,0,0-1.75,3.28,3.17,3.17,0,0,0-3.26-1.92c-3.12.49-4,2.6-3,6.23a5.6,5.6,0,0,0,4.05,4.19l-1.48,6a6.57,6.57,0,0,0,1.21,3,7.64,7.64,0,0,0,9.29,2,7,7,0,0,0,2.76-2.79s6.52,3.76,10.87.94c2.72-1.77,5.74-6.47,6.94-16.6a104.36,104.36,0,0,0,.89-14.46C325.59,156.28,311.16,149.22,311.16,149.22Z" transform="translate(0 -0.03)"/><path class="fcac7e14-d049-4fc8-8eef-087ef013f5a0" d="M334,159.36a4.63,4.63,0,0,0-1.62-.72,4.32,4.32,0,0,0-1.68-.06A5.06,5.06,0,0,0,329,159a6.33,6.33,0,0,0-1.5,1h0a.58.58,0,0,1-.86-.77,6.2,6.2,0,0,1,1.64-1.55,5.32,5.32,0,0,1,2.19-.86,5,5,0,0,1,2.35.36,5.08,5.08,0,0,1,1.87,1.33.54.54,0,0,1-.71.8Z" transform="translate(0 -0.03)"/><path class="ba163fc6-bda4-4303-8130-e4cfa3de456f" d="M327.32,159c.07.78.12,1.56.16,2.35s.08,1.57.07,2.35-.09,1.56-.15,2.34-.12,1.57-.21,2.35a.57.57,0,0,1-.62.51h0a.59.59,0,0,1-.52-.53c0-.79-.08-1.57-.11-2.35s-.08-1.57-.08-2.35.11-1.57.17-2.35.15-1.56.24-2.34a.54.54,0,0,1,1.07,0Z" transform="translate(0 -0.03)"/><path class="ba163fc6-bda4-4303-8130-e4cfa3de456f" d="M324.6,168.44c.67-.15,1.33-.29,2-.42l1-.18a3.08,3.08,0,0,1,.68-.07,1.43,1.43,0,0,1,1.06.63,1.57,1.57,0,0,1,.21,1.08,1.88,1.88,0,0,1-.34.78,3,3,0,0,1-1,.9,6.28,6.28,0,0,1-2.16.69.58.58,0,0,1-.3-1.12h0a6.63,6.63,0,0,0,1.65-.8,1.86,1.86,0,0,0,.44-.53.75.75,0,0,0,.05-.16v.08c0,.08.21.15.21.13a1,1,0,0,0-.34,0H324.7a.51.51,0,0,1-.1-1Z" transform="translate(0 -0.03)"/><path class="a597b407-081a-4062-93ee-1cf6e69b8c81" d="M327.71,176.11a7,7,0,0,1-2,.62,7.74,7.74,0,0,1-2.15,0,7.66,7.66,0,0,1-3.72-2,.59.59,0,0,1,0-.83.57.57,0,0,1,.73-.06h0a7.62,7.62,0,0,0,3.28,1.23,10.21,10.21,0,0,0,1.74.21,7.61,7.61,0,0,0,1.78-.16h0a.53.53,0,0,1,.63.41h0A.55.55,0,0,1,327.71,176.11Z" transform="translate(0 -0.03)"/><path class="ba163fc6-bda4-4303-8130-e4cfa3de456f" d="M323,177.46h.86a4.36,4.36,0,0,0,.81.2h.08a.6.6,0,0,1,.22,1.1,2.55,2.55,0,0,1-1.28.38,1.84,1.84,0,0,1-.64-.24,2.09,2.09,0,0,1-.52-.42.56.56,0,0,1,0-.79h0a.58.58,0,0,1,.35-.15Z" transform="translate(0 -0.03)"/><path class="fcac7e14-d049-4fc8-8eef-087ef013f5a0" d="M322.63,159.56a6.79,6.79,0,0,0-4.08-.94,6.48,6.48,0,0,0-3.91,1.42.58.58,0,0,1-.8-.84,6.73,6.73,0,0,1,2.07-1.56,7,7,0,0,1,2.54-.73,7,7,0,0,1,4.82,1.8.56.56,0,0,1,0,.76.53.53,0,0,1-.67.1Z" transform="translate(0 -0.03)"/><path class="a597b407-081a-4062-93ee-1cf6e69b8c81" d="M320.91,162.88a4.09,4.09,0,0,0-1.18-.39,4.58,4.58,0,0,0-1.17,0,3.89,3.89,0,0,0-2.26.67h0a.58.58,0,0,1-.8-.13v0a.59.59,0,0,1,0-.71,4.48,4.48,0,0,1,3-1.53,4.28,4.28,0,0,1,3.07,1.3.54.54,0,0,1,0,.76h0a.53.53,0,0,1-.61.09Z" transform="translate(0 -0.03)"/><path class="a597b407-081a-4062-93ee-1cf6e69b8c81" d="M333.44,162.88a4,4,0,0,0-1.17-.39,4.58,4.58,0,0,0-1.17,0,3.89,3.89,0,0,0-2.26.67h0a.57.57,0,0,1-.8-.08.1.1,0,0,1,0-.05.59.59,0,0,1,0-.71,4.48,4.48,0,0,1,3-1.53,4.29,4.29,0,0,1,3.07,1.3.53.53,0,0,1,0,.76.52.52,0,0,1-.62.1Z" transform="translate(0 -0.03)"/><g id="f8cb70df-4508-46d1-a8ae-6f1a822541bb" data-name="hand"><path class="ed85b44c-438f-4571-9148-75e759226479" d="M372.73,220.87l-27.32,11.4a3.4,3.4,0,0,0-.21.3c-.14.26-.27.53-.42.79-.28.53-.59,1-.88,1.57a1.64,1.64,0,0,1-.55.56c-.41.61-.83,1.21-1.19,1.85-.51.89-1,1.78-1.49,2.66-.09.65-.19,1.32-.31,2a36.06,36.06,0,0,0-.21,8,6.94,6.94,0,0,1-.13,1.71l.07,0s8.25-3.77,14.48-7.37,24-14.86,24-14.86Z" transform="translate(0 -0.03)"/><path class="fcac7e14-d049-4fc8-8eef-087ef013f5a0" d="M387.46,197.46l-2.95-.26a1,1,0,0,0-1.05.56l-8.88,21.85a.82.82,0,0,0,.6,1l.18,0,2.36.26a1,1,0,0,0,1.06-.55l9.48-21.85C388.47,198,388.08,197.51,387.46,197.46Z" transform="translate(0 -0.03)"/><path class="a66eae2d-bdea-42ee-a019-38ab9bdbb805" d="M377.29,227.64s5.74-1.57,8.09-3.44,5.28-10.56,3.52-13.73-4.82-4-7.28-2.47c-2,1.24-4.93,7-2.23,10.8l-6,3Z" transform="translate(0 -0.03)"/></g><path class="ff1fa26e-9fa2-419d-ba7b-aa4ea2358787" d="M351.3,285.91c.88-3.9,1.73-7.84,2.27-11.76a28.3,28.3,0,0,0,.24-2.91v-.84a1,1,0,0,0-.12-.23,7.08,7.08,0,0,0-.81-1,41.81,41.81,0,0,0-4.47-3.83c-6.31-4.87-13-9.35-19.74-13.67h0a.59.59,0,1,1,.61-1h0q5.19,3.12,10.25,6.4c3.37,2.2,6.73,4.43,9.94,6.91a37,37,0,0,1,4.53,4,7.81,7.81,0,0,1,1,1.36,3.55,3.55,0,0,1,.21.44,3.75,3.75,0,0,1,.13.58v.82a28.9,28.9,0,0,1-.34,3.09,114,114,0,0,1-2.67,11.82.53.53,0,0,1-.65.38h0a.53.53,0,0,1-.39-.63Z" transform="translate(0 -0.03)"/><path class="ff1fa26e-9fa2-419d-ba7b-aa4ea2358787" d="M304.38,250.22a11.73,11.73,0,0,1-6.9,13.74,14.63,14.63,0,0,1-5.28,1.33.58.58,0,0,1-.61-.55h0a.57.57,0,0,1,.5-.6h0a13.48,13.48,0,0,0,8.54-4.52,12,12,0,0,0,2.28-4.28,12.59,12.59,0,0,0,.41-4.92.53.53,0,0,1,.45-.6h0A.54.54,0,0,1,304.38,250.22Z" transform="translate(0 -0.03)"/><path class="a9666bd2-d7f5-4245-a52e-5f31a2531cde" d="M292.42,242.26l1.6,1.63c.51.55,1.06,1.08,1.56,1.65s.95,1.19,1.42,1.79l1.4,1.8a.58.58,0,0,1-.12.81.59.59,0,0,1-.73,0c-.57-.52-1.12-1-1.66-1.59s-1.09-1.09-1.6-1.66-.94-1.22-1.4-1.83-.89-1.26-1.3-1.9a.53.53,0,0,1,.13-.74h0A.56.56,0,0,1,292.42,242.26Z" transform="translate(0 -0.03)"/><path class="a9666bd2-d7f5-4245-a52e-5f31a2531cde" d="M292.68,210a11.51,11.51,0,0,0,.83-1.23,12.21,12.21,0,0,0,.64-1.31,9.84,9.84,0,0,0,1.05-2.73h0a.6.6,0,0,1,.69-.45.58.58,0,0,1,.46.56,8.19,8.19,0,0,1-.66,3.38,7.69,7.69,0,0,1-2.28,2.57.54.54,0,0,1-.74-.77Z" transform="translate(0 -0.03)"/><path class="a9666bd2-d7f5-4245-a52e-5f31a2531cde" d="M320.47,186.46a4.14,4.14,0,0,1-.63,3.24,5.88,5.88,0,0,1-2.54,2,12.81,12.81,0,0,1-6.08,1,14.25,14.25,0,0,1-5.81-1.88,14.58,14.58,0,0,1-4.51-4A.59.59,0,0,1,301,186a.6.6,0,0,1,.82.1h0a13.72,13.72,0,0,0,9.55,4.94,12.25,12.25,0,0,0,5.37-.61,4.49,4.49,0,0,0,2-1.43,3,3,0,0,0,.64-2.28h0a.54.54,0,0,1,1.05-.22Z" transform="translate(0 -0.03)"/><path class="b5bc2d24-5faa-4db6-b185-75bd3600557f" d="M253.44,236.86s-7.89-29-10.42-34.45-9-11.74-21.26-11.74-29,.32-33.69,5-12.2,35.26-13.45,41.18,21.9,14.28,21.9,14.28,13.46,13.83,36.61-3Z" transform="translate(0 -0.03)"/><path class="a8e41cbf-0454-4caa-9da0-e19ec6b6559a" d="M200,197.56c17.13-3.26,33.55-1.56,44.95,10-.76-2.31-1.42-4.15-1.89-5.17-2.53-5.48-9-11.74-21.26-11.74s-29,.32-33.69,5c-1.78,1.78-4,7.27-6,13.72C186.65,203.49,192.4,198.72,200,197.56Z" transform="translate(0 -0.03)"/><path class="a8e41cbf-0454-4caa-9da0-e19ec6b6559a" d="M221.66,254.49a48.46,48.46,0,0,0,11.47-6.33l5.43-3c-2.13-9.25-1.58-19.12-6.68-27.87C235.06,239.1,228.36,246.74,221.66,254.49Z" transform="translate(0 -0.03)"/><path class="a8e41cbf-0454-4caa-9da0-e19ec6b6559a" d="M193.39,214.46c-2.49,10.8-3.52,21.6-7,32.41,5.19,2.49,10.11,4.27,10.11,4.27A14.79,14.79,0,0,0,199,253C193.39,246,191.78,236.41,193.39,214.46Z" transform="translate(0 -0.03)"/><path class="a66eae2d-bdea-42ee-a019-38ab9bdbb805" d="M228.28,343.19a5.22,5.22,0,0,1,5.58-3.06l-.25-.16,2.83-5.9-8.91-1.32a24.91,24.91,0,0,1-2.78,5.85C225.64,340.26,226.38,341.93,228.28,343.19Z" transform="translate(0 -0.03)"/><path class="fcac7e14-d049-4fc8-8eef-087ef013f5a0" d="M248.36,350.73c-.11-1-12.62-9.35-14.5-10.6a5.22,5.22,0,0,0-5.58,3.06c-1.9-1.26-2.64-2.93-3.53-4.59-1.69,1.92-3.08,3.68-3,4.2.25,1.29,10,8,16.75,9.62S248.48,351.81,248.36,350.73Z" transform="translate(0 -0.03)"/><path class="a66eae2d-bdea-42ee-a019-38ab9bdbb805" d="M204.4,343.19a5.22,5.22,0,0,0-5.58-3.06l.25-.16-2.83-5.9,8.91-1.32a24.91,24.91,0,0,0,2.78,5.85C207,340.26,206.3,341.93,204.4,343.19Z" transform="translate(0 -0.03)"/><path class="fcac7e14-d049-4fc8-8eef-087ef013f5a0" d="M184.32,350.73c.11-1,12.62-9.35,14.5-10.6a5.22,5.22,0,0,1,5.58,3.06c1.9-1.26,2.64-2.93,3.53-4.59,1.69,1.92,3.08,3.68,3,4.2-.25,1.29-10,8-16.75,9.62S184.2,351.81,184.32,350.73Z" transform="translate(0 -0.03)"/><path class="fcac7e14-d049-4fc8-8eef-087ef013f5a0" d="M210.76,254.28a62.58,62.58,0,0,0,6.62-1.47c7-1.84,15.75-4.65,15.75-4.65s27.62,15.08,28.32,25.68c.79,11.85-24.38,61.61-24.38,61.61s-8.32,1.67-11.13-2.08l12.28-55.54s-13.22-7.06-20.11-7.05-19.4,7.83-19.4,7.83l6.89,53.53s-3.76,3.73-10.64,1.54c0,0-20-52.89-19.72-59.15s21.28-23.39,21.28-23.39S204,255.2,210.76,254.28Z" transform="translate(0 -0.03)"/><path class="e16ecde8-be9e-4137-ba9e-40a63582e697" d="M213.51,270.35c-3,1-6.1,2.1-9.21,3-1.55.45-3.11.88-4.69,1.27l-2.37.55a5.57,5.57,0,0,0-2,.59,1.76,1.76,0,0,0-.46,1.59,21.78,21.78,0,0,0,.42,2.28l1,4.73c.67,3.16,1.28,6.32,1.86,9.49,2.38,12.68,4.31,25.43,6.17,38.18a.58.58,0,0,1-1.14.17c-1-6.36-2.08-12.71-3.2-19.05s-2.29-12.66-3.47-19l-1.78-9.49-.91-4.74a21,21,0,0,1-.4-2.48,4.13,4.13,0,0,1,.13-1.44,2.71,2.71,0,0,1,.89-1.36,3.26,3.26,0,0,1,1.39-.6l1.2-.23,2.34-.5c1.56-.36,3.12-.75,4.66-1.17,3.09-.85,6.14-1.84,9.22-2.82a.53.53,0,0,1,.67.34h0A.54.54,0,0,1,213.51,270.35Z" transform="translate(0 -0.03)"/><path class="e16ecde8-be9e-4137-ba9e-40a63582e697" d="M222,269c3.39.75,6.83,1.34,10.27,2l5.15.94,2.58.49a20.69,20.69,0,0,1,2.67.63,3.08,3.08,0,0,1,1.36,1,2.87,2.87,0,0,1,.57,1.62,8.48,8.48,0,0,1-.52,2.82l-1.49,5-3,10q-3,10-6,20.08c-2,6.71-3.79,13.43-5.54,20.18a.58.58,0,0,1-.7.42.57.57,0,0,1-.43-.7h0q5-20.37,11-40.46c1-3.34,2-6.69,3.06-10l1.58-5a7.23,7.23,0,0,0,.5-2.3,1.4,1.4,0,0,0-1-1.35,20.2,20.2,0,0,0-2.41-.6l-2.56-.54-5.13-1c-3.43-.68-6.86-1.34-10.28-2.15a.56.56,0,0,1,.23-1.1Z" transform="translate(0 -0.03)"/><path class="bf0b3291-b4cb-4ee6-907f-aff3618521dc" d="M236.8,236.83a107.71,107.71,0,0,0-2.63-11.06c-1-3.66-1.94-7.37-2.86-11.09v-.05a.61.61,0,0,1,.43-.75h0a1.6,1.6,0,0,0,1.08-1.66h0a.59.59,0,0,1,.5-.66.58.58,0,0,1,.65.48,2.83,2.83,0,0,1-1.81,3.11l.44-.8c1,3.66,2.26,7.28,3.19,11a84,84,0,0,1,2.07,11.34.53.53,0,0,1-.46.58h0A.53.53,0,0,1,236.8,236.83Z" transform="translate(0 -0.03)"/><path class="bf0b3291-b4cb-4ee6-907f-aff3618521dc" d="M188.44,235.76q.15-2.85.54-5.69c.26-1.89.55-3.77,1-5.64a50.24,50.24,0,0,1,1.52-5.53c.6-1.81,1.26-3.61,2-5.36l.4.86a1.88,1.88,0,0,1-1.13-1.16,1.83,1.83,0,0,1,.13-1.58.58.58,0,0,1,.79-.2.59.59,0,0,1,.22.76h0a.68.68,0,0,0,0,.56.61.61,0,0,0,.39.36.59.59,0,0,1,.46.69V214a55.39,55.39,0,0,0-1.73,5.34c-.51,1.8-.92,3.62-1.37,5.44s-.85,3.65-1.19,5.49-.62,3.7-.87,5.57a.54.54,0,0,1-.6.46.55.55,0,0,1-.56-.54Z" transform="translate(0 -0.03)"/><path class="b40a1ef2-21e0-42e4-a5a5-80dea847c6f9" d="M225.56,190.89s2.57,10.07,2.1,11.13-15.14-3.87-15.14-3.87-13.19,6-14.75,5.39,1.37-11.76,1.37-11.76Z" transform="translate(0 -0.03)"/><path class="fcac7e14-d049-4fc8-8eef-087ef013f5a0" d="M215.73,199.19l-2.2,5.57s7.32,27.18,7.32,30-4.93,12.84-5.51,13.4-6.46-8.58-7.4-10.7S210.29,205,210.29,205l-2.52-4.85S212.73,195,215.73,199.19Z" transform="translate(0 -0.03)"/><g id="fe9c2143-1f27-49c8-9f49-39e785776bf9" data-name="face2"><path class="a66eae2d-bdea-42ee-a019-38ab9bdbb805" d="M228.88,164.64a5.59,5.59,0,0,1,3.94,3.11c1.76,3.87-.39,8.33-5.44,8.92C227.38,176.67,225.55,167.87,228.88,164.64Z" transform="translate(0 -0.03)"/><path class="a66eae2d-bdea-42ee-a019-38ab9bdbb805" d="M197.46,164.64a5.59,5.59,0,0,0-3.94,3.11c-1.76,3.87.39,8.33,5.44,8.92C199,176.67,200.8,167.87,197.46,164.64Z" transform="translate(0 -0.03)"/><path class="fc3173f8-5ad0-4b8d-8317-2cd26a23d8d2" d="M213.58,198.5c-6.46.17-13.85-4.22-15.38-9.33s-2-23.06-2-23.06a138.94,138.94,0,0,1-3.2-14.67c-.7-5.63,1.64-10.09,5.63-9.5,0,0-.47-6,4.58-8.34s13.26,2.7,18.54,2.82,7-3,8.21-2.82,11.15,11.5.83,21.83c0,0-.59,8.92-1.29,11.62s0,16-1.82,20.65S222.38,198.26,213.58,198.5Z" transform="translate(0 -0.03)"/><path class="a66eae2d-bdea-42ee-a019-38ab9bdbb805" d="M216.51,177.14s6.81.12,9.27-3.76,1.41-12.2,1.29-13.73-.35-3.28-.35-3.28-7.63,2.46-13.73,1.41-11.5-5.4-11.5-5.4.82,6.92-3.17,9.62c0,0-.12,8.92,2,11.74S206,178.67,216.51,177.14Z" transform="translate(0 -0.03)"/><path class="a597b407-081a-4062-93ee-1cf6e69b8c81" d="M216.45,181.22a7.24,7.24,0,0,1-4.12.95,7.53,7.53,0,0,1-3.87-1.72.58.58,0,0,1,.67-.94h0a7.67,7.67,0,0,0,3.36,1,9.33,9.33,0,0,0,1.75.08,7.47,7.47,0,0,0,1.76-.31h0a.54.54,0,0,1,.43,1Z" transform="translate(0 -0.03)"/><path class="f8d9274e-cd8b-4af7-aa9f-30d23bc0c12a" d="M211.84,183l.45-.08c.14,0,.27-.07.39-.07a5.75,5.75,0,0,0,.83.14h.08a.61.61,0,0,1,.56.64.63.63,0,0,1-.25.45,2.6,2.6,0,0,1-1.25.48,2.11,2.11,0,0,1-.65-.19,1.79,1.79,0,0,1-.56-.38.56.56,0,0,1-.06-.8.59.59,0,0,1,.37-.2Z" transform="translate(0 -0.03)"/><path class="f8d9274e-cd8b-4af7-aa9f-30d23bc0c12a" d="M210.1,164.56a6.79,6.79,0,0,0-4.08-.94,6.48,6.48,0,0,0-3.91,1.42h0a.56.56,0,0,1-.79-.06l0,0a.6.6,0,0,1,0-.76,7.15,7.15,0,0,1,4.62-2.29,7,7,0,0,1,4.81,1.8.54.54,0,0,1,0,.76.56.56,0,0,1-.67.1Z" transform="translate(0 -0.03)"/><path class="a597b407-081a-4062-93ee-1cf6e69b8c81" d="M218.27,166.08a4.05,4.05,0,0,0,1.17.4,4.58,4.58,0,0,0,1.17,0,3.89,3.89,0,0,0,2.26-.67h0a.58.58,0,0,1,.77.86,4.49,4.49,0,0,1-3,1.54,4.26,4.26,0,0,1-1.69-.35,4.4,4.4,0,0,1-1.38-1,.53.53,0,0,1,0-.75h0a.55.55,0,0,1,.61-.09Z" transform="translate(0 -0.03)"/><path class="a597b407-081a-4062-93ee-1cf6e69b8c81" d="M203.74,166.64a4,4,0,0,0,1.17.39,4.58,4.58,0,0,0,1.17,0,3.89,3.89,0,0,0,2.26-.67h0a.58.58,0,0,1,.81.15h0a.59.59,0,0,1,0,.71,4.48,4.48,0,0,1-3,1.53,4.28,4.28,0,0,1-3.07-1.3.53.53,0,0,1,0-.76.52.52,0,0,1,.62-.1Z" transform="translate(0 -0.03)"/><path class="ba163fc6-bda4-4303-8130-e4cfa3de456f" d="M216.14,165a3.81,3.81,0,0,0-.57,1.76c-.09.68-.08,1.4-.11,2.13l-.16,2.21c-.05.74-.09,1.5-.17,2.26a.58.58,0,0,1-.63.52h0a.61.61,0,0,1-.52-.54l-.15-2.25c0-.75-.09-1.51-.07-2.29a12.41,12.41,0,0,1,.38-2.34,4.28,4.28,0,0,1,1.3-2.26.55.55,0,0,1,.75.07.54.54,0,0,1,0,.66Z" transform="translate(0 -0.03)"/><path class="ba163fc6-bda4-4303-8130-e4cfa3de456f" d="M212.82,177.5a4.5,4.5,0,0,1-2.74-1.26,4.14,4.14,0,0,1-1.44-1.74,1.4,1.4,0,0,1,.09-1.13,2.92,2.92,0,0,1,1.73-1.25.84.84,0,0,1,.5,1.6l-.06,0a1.76,1.76,0,0,0-.62.33,3.31,3.31,0,0,0,.85.86,3,3,0,0,0,1.76.89,3.1,3.1,0,0,0,1.52-.84c.27-.21.54-.42.81-.6a.69.69,0,0,0,.26-.25c0-.3-.7-1-1-1.24l-.45-.46a.84.84,0,1,1,1.29-1.08c.1.11.21.22.32.32.63.6,1.58,1.51,1.48,2.61a2,2,0,0,1-1,1.51q-.36.24-.69.51a4.39,4.39,0,0,1-2.46,1.19Z" transform="translate(0 -0.03)"/><path class="f8d9274e-cd8b-4af7-aa9f-30d23bc0c12a" d="M224.16,164.56a6.68,6.68,0,0,0-4.07-.94,6.48,6.48,0,0,0-3.91,1.42h0a.59.59,0,0,1-.82-.08h0a.6.6,0,0,1,0-.76,7.15,7.15,0,0,1,4.62-2.29,6.94,6.94,0,0,1,4.81,1.8.54.54,0,0,1,0,.76.56.56,0,0,1-.67.1Z" transform="translate(0 -0.03)"/></g><path class="b40a1ef2-21e0-42e4-a5a5-80dea847c6f9" d="M236.45,246s-2.41-5.33-.23-9.6,11-8.57,16.4-5.31,6,14.57-.67,17.78S236.45,246,236.45,246Z" transform="translate(0 -0.03)"/><path class="a66eae2d-bdea-42ee-a019-38ab9bdbb805" d="M242.17,235.29c-3.76,1.55-11.38,15.08-15,21.86L231,265c3.89-2.76,19.44-14.2,20.62-21.41C253,235.4,247.2,233.21,242.17,235.29Z" transform="translate(0 -0.03)"/><path class="b40a1ef2-21e0-42e4-a5a5-80dea847c6f9" d="M191.55,246s2.42-5.33.23-9.6-11-8.57-16.4-5.31-6,14.57.68,17.78S191.55,246,191.55,246Z" transform="translate(0 -0.03)"/><path class="a66eae2d-bdea-42ee-a019-38ab9bdbb805" d="M185.59,235.71c3.75,1.57,11.32,15.13,14.93,21.92l-3.91,7.9c-3.88-2.77-19.38-14.28-20.52-21.5C174.78,235.77,180.56,233.61,185.59,235.71Z" transform="translate(0 -0.03)"/>

<g id="news_paper">


<path class="b9aa8dee-73b1-487c-a76f-2d6feebf49ba" d="M196.19,218.84c-3.44-1.47-12.29-9.44-12.29-9.44s1.36,23.52.42,30.87,0,35.52,0,35.52a66.71,66.71,0,0,1,15.14,6.44c7.7,4.51,13.88,7.64,13.88,7.64a1.4,1.4,0,0,0,.5-.14c-1.63-20.53-1.67-41.81-1.67-62.29C210.1,226.27,199.3,220.16,196.19,218.84Z" transform="translate(0 -0.03)"/><path class="b40a1ef2-21e0-42e4-a5a5-80dea847c6f9" d="M246.05,272.35s-4.78-20-5.09-37.83,2.55-27.26,2.55-27.26-18.33,10.53-21.65,13.66a67.89,67.89,0,0,1-9.35,6.72l-.34-.2c0,20.48,0,41.76,1.67,62.29a43.31,43.31,0,0,0,10.91-5.49C231.26,279.86,246.05,272.35,246.05,272.35Z" transform="translate(0 -0.03)"/><polygon class="a2b8b6c1-d405-451c-842b-fdef604d89bc" points="198.15 228.53 187.37 223.02 187.37 219.72 198.15 225.23 198.15 228.53"/><polygon class="a2b8b6c1-d405-451c-842b-fdef604d89bc" points="198.15 234 187.37 228.49 187.37 225.19 198.15 230.71 198.15 234"/><polygon class="a2b8b6c1-d405-451c-842b-fdef604d89bc" points="198.15 239.47 187.37 233.96 187.37 230.67 198.15 236.18 198.15 239.47"/><polygon class="a2b8b6c1-d405-451c-842b-fdef604d89bc" points="192.06 262.59 187.37 260.2 187.37 256.9 192.06 259.3 192.06 262.59"/><polygon class="a2b8b6c1-d405-451c-842b-fdef604d89bc" points="192.06 268.07 187.37 265.67 187.37 262.37 192.06 264.77 192.06 268.07"/><polygon class="a2b8b6c1-d405-451c-842b-fdef604d89bc" points="192.06 273.54 187.37 271.14 187.37 267.85 192.06 270.25 192.06 273.54"/><polygon class="a2b8b6c1-d405-451c-842b-fdef604d89bc" points="207.77 276.1 203.08 273.71 203.08 270.41 207.77 272.81 207.77 276.1"/><polygon class="a2b8b6c1-d405-451c-842b-fdef604d89bc" points="207.77 281.58 203.08 279.18 203.08 275.89 207.77 278.28 207.77 281.58"/><polygon class="a2b8b6c1-d405-451c-842b-fdef604d89bc" points="207.77 260.33 187.37 249.9 187.37 246.78 207.77 257.21 207.77 260.33"/><polygon class="a2b8b6c1-d405-451c-842b-fdef604d89bc" points="207.77 265.52 187.37 255.08 187.37 251.96 207.77 262.4 207.77 265.52"/><polygon class="a2b8b6c1-d405-451c-842b-fdef604d89bc" points="207.77 244.4 199.29 240.06 199.29 225.82 207.77 230.15 207.77 244.4"/><polygon class="a2b8b6c1-d405-451c-842b-fdef604d89bc" points="201.81 278.53 193.33 274.19 193.33 259.95 201.81 264.29 201.81 278.53"/><polygon class="a2b8b6c1-d405-451c-842b-fdef604d89bc" points="207.77 255.27 187.37 244.84 187.37 236.4 207.77 246.83 207.77 255.27"/><polygon class="a2b8b6c1-d405-451c-842b-fdef604d89bc" points="225.61 226.98 237.18 218.93 237 215.72 225.49 223.82 225.61 226.98"/><polygon class="a2b8b6c1-d405-451c-842b-fdef604d89bc" points="225.82 232.3 237.48 224.34 237.3 221.08 225.69 229.09 225.82 232.3"/><polygon class="a2b8b6c1-d405-451c-842b-fdef604d89bc" points="226.03 237.69 237.78 229.83 237.6 226.51 225.9 234.44 226.03 237.69"/><polygon class="a2b8b6c1-d405-451c-842b-fdef604d89bc" points="233.9 260.59 239.32 257.34 239.12 253.77 233.73 257.05 233.9 260.59"/><polygon class="a2b8b6c1-d405-451c-842b-fdef604d89bc" points="234.19 266.54 239.65 263.34 239.45 259.72 234.02 262.95 234.19 266.54"/><polygon class="a2b8b6c1-d405-451c-842b-fdef604d89bc" points="234.48 272.59 239.99 269.45 239.78 265.76 234.31 268.94 234.48 272.59"/><polygon class="a2b8b6c1-d405-451c-842b-fdef604d89bc" points="216.74 270.91 221.71 267.92 221.6 264.45 216.65 267.47 216.74 270.91"/><polygon class="a2b8b6c1-d405-451c-842b-fdef604d89bc" points="216.88 276.69 221.9 273.75 221.78 270.23 216.8 273.2 216.88 276.69"/><polygon class="a2b8b6c1-d405-451c-842b-fdef604d89bc" points="217.03 282.56 222.09 279.67 221.97 276.1 216.94 279.02 217.03 282.56"/><polygon class="a2b8b6c1-d405-451c-842b-fdef604d89bc" points="216.47 260.26 238.7 246.29 238.52 243.01 216.39 257.09 216.47 260.26"/><polygon class="a2b8b6c1-d405-451c-842b-fdef604d89bc" points="216.61 265.58 239.01 251.81 238.82 248.48 216.53 262.37 216.61 265.58"/><polygon class="a2b8b6c1-d405-451c-842b-fdef604d89bc" points="216.07 244.35 224.82 238.5 224.3 224.66 215.73 230.69 216.07 244.35"/><polygon class="a2b8b6c1-d405-451c-842b-fdef604d89bc" points="223.48 278.88 233.01 273.43 232.3 257.93 222.96 263.62 223.48 278.88"/><polygon class="a2b8b6c1-d405-451c-842b-fdef604d89bc" points="216.34 255.13 238.41 240.99 237.92 232.29 216.13 246.74 216.34 255.13"/><polygon class="a2b8b6c1-d405-451c-842b-fdef604d89bc" points="207.77 270.63 203.08 268.23 203.08 264.94 207.77 267.34 207.77 270.63"/>

</g>

<path class="a66eae2d-bdea-42ee-a019-38ab9bdbb805" d="M241.79,262s5-2,4.43-8.63-4.09-10.19-7.46-9.45,2.75,4.58,2.75,4.58-4.35-.57-4.77,1.86,4.76,2.22,4.76,2.22-5.16.52-4.84,2.85,5.59,1.28,5.59,1.28S237.91,261.17,241.79,262Z" transform="translate(0 -0.03)"/><path xmlns="http://www.w3.org/2000/svg" class="fc3173f8-5ad0-4b8d-8317-2cd26a23d8d2" d="M95.88,193.09s2.9-11.06.67-21.92C95,163.5,89.63,141.6,101,140.83c0,0,3.52-7.21,13.85-7.52s22.22,10.05,20.66,24-1.1,20.71,3.59,21.18a10.81,10.81,0,0,0,7.74-2.19s4,14.39-12.59,18.15S95.88,193.09,95.88,193.09Z" transform="translate(0 -0.03)"/><path class="a66eae2d-bdea-42ee-a019-38ab9bdbb805" d="M186.08,262s-5-2-4.44-8.63,4.1-10.19,7.46-9.45-2.74,4.58-2.74,4.58,4.34-.57,4.77,1.86-4.76,2.22-4.76,2.22,5.16.52,4.84,2.85-5.59,1.28-5.59,1.28S190,261.17,186.08,262Z" transform="translate(0 -0.03)"/><path class="ad607b18-bbc0-4506-8bc0-5ba9547ef432" d="M125.75,184.42c-1.12-.32-4.21-2.3-3.17-8.34,1.27-7.42-12.12-.58-12.12-.58l-.26,5.07a5.72,5.72,0,0,1-4.69,5.34c-1.18.22-2.22.45-3,.68-.19,6.77-1.83,14.27,3.61,16.6,11.45,4.4,18.76-8.52,22-18.67Z" transform="translate(0 -0.03)"/><path class="fcac7e14-d049-4fc8-8eef-087ef013f5a0" d="M138.09,238.3c-2.35-10.17.38-24.31,2.1-27.75s.63-19.56-3.91-23.94c-1.23-1.19-4.35-1.83-8.25-2.09-3.19,10.15-10.5,23.07-22,18.67-5.44-2.33-3.8-9.83-3.61-16.6a4.17,4.17,0,0,0-2.08,1,75.75,75.75,0,0,0-6.88,16c-2.08,7.12-.26,12.75,4.75,17.53s8.38,18.78,8.38,18.78S89.34,248.65,83.49,252c-8.86,5.06-14.87,11.64-15.9,16.44s33.33,10.12,33.33,10.12a65.35,65.35,0,0,1,21.91-5c12-.49,22.06-4.66,24.72-12.17S138.09,238.3,138.09,238.3Z" transform="translate(0 -0.03)"/><path class="e16ecde8-be9e-4137-ba9e-40a63582e697" d="M137.77,205.27a54.19,54.19,0,0,0-4.71,22.58,55.5,55.5,0,0,0,1.29,11.49,62.78,62.78,0,0,0,3.65,11,14.36,14.36,0,0,1,1.31,6,7.59,7.59,0,0,1-.91,3.15,9.07,9.07,0,0,1-2.07,2.46,18.63,18.63,0,0,1-5.34,3c-1.87.71-3.72,1.33-5.6,1.93-7.51,2.38-15.18,4.1-22.83,5.83a.58.58,0,0,1-.69-.44.57.57,0,0,1,.42-.69h0c7.62-1.83,15.24-3.64,22.64-6.1,1.84-.61,3.7-1.26,5.48-2a17.24,17.24,0,0,0,4.86-2.77,6.36,6.36,0,0,0,2.37-4.48,12.46,12.46,0,0,0-1.2-5.33,55.85,55.85,0,0,1,.35-46.14.55.55,0,1,1,1,.44Z" transform="translate(0 -0.03)"/><path class="e16ecde8-be9e-4137-ba9e-40a63582e697" d="M100.92,278.56s-.31-13.92-12-15.7-20.23-1.14-21.28,5.58C65.72,280.44,89.34,284.46,100.92,278.56Z" transform="translate(0 -0.03)"/><path class="fcac7e14-d049-4fc8-8eef-087ef013f5a0" d="M94.24,336.44a7.46,7.46,0,0,1,4.1,7.12c-.37,5-1.25,7.41-2.08,7.43s-2.18-3.45-2.18-3.45-4.16,4.75-9.92,5.77c-5.55,1-11.06.55-10.8-1.54.14-1.17,8.62-5.73,10.46-8.23s6.84-5.85,6.84-5.85Z" transform="translate(0 -0.03)"/><path class="a66eae2d-bdea-42ee-a019-38ab9bdbb805" d="M95.21,338.24s3.47-28,.51-42.56-2.17-29.78-8.2-32.77c0,0-8.28-.94-9.84-.86-3.42.19-5.66,3.68-4.94,9.82,1.05,8.91,5.47,21.57,9.41,34.9,3.37,11.41,6.92,31.41,6.92,31.41s-7.77,5.57-5,7.8S94.6,342.92,95.21,338.24Z" transform="translate(0 -0.03)"/><path class="ad607b18-bbc0-4506-8bc0-5ba9547ef432" d="M80.74,269.85C82,285,87.78,301,96.84,310.21c-.14-4-.48-11.38-1.12-14.53-3-14.55-2.17-29.78-8.2-32.77,0,0-8.28-.94-9.84-.86-2.26.13-4,1.7-4.72,4.52C76,265,79.48,265,80.74,269.85Z" transform="translate(0 -0.03)"/><path class="fcac7e14-d049-4fc8-8eef-087ef013f5a0" d="M112.42,334.15a7.48,7.48,0,0,1,4.93,6.57c.23,5-.35,7.52-1.17,7.63s-2.59-3.16-2.59-3.16-3.56,5.22-9.15,6.92c-5.4,1.64-10.91,1.88-10.91-.24,0-1.17,7.87-6.72,9.4-9.42s6.09-6.63,6.09-6.63Z" transform="translate(0 -0.03)"/><path class="a66eae2d-bdea-42ee-a019-38ab9bdbb805" d="M113.59,335.82s.09-28.23-4.6-42.32-10.18-27.63-16.52-29.87-11.26.28-9.15,9,8,20.75,13.53,33.52c4.72,10.92,10.64,30.35,10.64,30.35s-7,6.46-4,8.34S113.56,340.54,113.59,335.82Z" transform="translate(0 -0.03)"/><path class="ad68258c-30b6-40a7-b812-71fee2034ad0" d="M69.35,221.15c-.94.58,8.45,29.71,9,30s11.17,5.23,14.21,6.13a285.38,285.38,0,0,0-8.68-30.62C82,225.78,70.21,220.61,69.35,221.15Z" transform="translate(0 -0.03)"/><path class="ed85b44c-438f-4571-9148-75e759226479" d="M116.69,249.15c-1.5-5.42-8.09-29.05-8.94-29.57s-23.55,7.2-23.55,7.2l-.28-.13a285.38,285.38,0,0,1,8.68,30.62,3.77,3.77,0,0,0,.58.14c1.62.19,18.3-5.32,22.74-6.8A1.19,1.19,0,0,0,116.69,249.15Z" transform="translate(0 -0.03)"/><path class="a66eae2d-bdea-42ee-a019-38ab9bdbb805" d="M136.28,186.61s6.65,2,10.41,11.89,11,34.8,10.56,39.22-35.68,12.6-35.68,12.6-11.33,4.42-16.11.82a24,24,0,0,1-4.47-4.36,2.83,2.83,0,0,1,.49-4,2.77,2.77,0,0,1,.77-.43c4.65-1.73,11.19-4.34,16.66,1.51,0,0,23.38-11.13,25.49-12.35,0,0-6.16-21.22-8.74-26.78S130.1,189.27,136.28,186.61Z" transform="translate(0 -0.03)"/><path class="a66eae2d-bdea-42ee-a019-38ab9bdbb805" d="M78.78,254.9s-5.73-2.08-4.23-8c1-3.85,8.46-4.46,9.86-3.07,2.61,2.58-.92,8.21-.92,8.21Z" transform="translate(0 -0.03)"/><g id="fd96d92c-eede-45d9-836b-b4e52e9201f1" data-name="face1"><path class="a66eae2d-bdea-42ee-a019-38ab9bdbb805" d="M128.43,154.78c-.72-5.13-5.75-17.83-21.8-12.83s-8.2,20.23-7,26.75,3.8,14.33,11.2,14.33c4.31,0,13.1-4.73,15.72-15.2S128.43,154.78,128.43,154.78Z" transform="translate(0 -0.03)"/><path class="f8d9274e-cd8b-4af7-aa9f-30d23bc0c12a" d="M99,161.59a5,5,0,0,1,4.16-1.85,5.17,5.17,0,0,1,2.22.77,6.21,6.21,0,0,1,1.7,1.49.58.58,0,0,1-.1.81.57.57,0,0,1-.74,0h0a6.27,6.27,0,0,0-1.54-1,5.07,5.07,0,0,0-1.67-.38,4.34,4.34,0,0,0-1.68.12,4.74,4.74,0,0,0-1.59.79h0a.54.54,0,0,1-.74-.77Z" transform="translate(0 -0.03)"/><path class="ad607b18-bbc0-4506-8bc0-5ba9547ef432" d="M113,176.51c.15,1-.83,1.94-2.19,2.14s-2.58-.41-2.72-1.38.82-1.93,2.18-2.14S112.84,175.54,113,176.51Z" transform="translate(0 -0.03)"/><path class="a597b407-081a-4062-93ee-1cf6e69b8c81" d="M107.05,176.22a7.6,7.6,0,0,0,1.78.09,9.31,9.31,0,0,0,1.73-.28,7.76,7.76,0,0,0,3.23-1.35h0a.58.58,0,0,1,.77.86,7.49,7.49,0,0,1-3.64,2.17,7.38,7.38,0,0,1-2.15.08,7,7,0,0,1-2-.54.54.54,0,0,1-.28-.7h0a.54.54,0,0,1,.58-.32Z" transform="translate(0 -0.03)"/><path class="ba163fc6-bda4-4303-8130-e4cfa3de456f" d="M112,180.34a2.38,2.38,0,0,1-.51.44,2,2,0,0,1-.63.26,2.53,2.53,0,0,1-1.29-.33.6.6,0,0,1-.23-.82h0a.61.61,0,0,1,.41-.29h.08a4.55,4.55,0,0,0,.8-.23h1a.58.58,0,0,1,.56.58A.62.62,0,0,1,112,180.34Z" transform="translate(0 -0.03)"/><path class="f8d9274e-cd8b-4af7-aa9f-30d23bc0c12a" d="M110.76,161.49a6.62,6.62,0,0,1,9.28-1.24l.09.07a.59.59,0,0,1,.11.81h0a.6.6,0,0,1-.74.15,6.49,6.49,0,0,0-4.1-.71,6.6,6.6,0,0,0-2,.5,6.85,6.85,0,0,0-1.82,1.13h0a.54.54,0,0,1-.75-.05A.54.54,0,0,1,110.76,161.49Z" transform="translate(0 -0.03)"/><path class="a597b407-081a-4062-93ee-1cf6e69b8c81" d="M112.57,164.12a4.28,4.28,0,0,1,1.35-1,4.19,4.19,0,0,1,1.67-.41,4.46,4.46,0,0,1,3,1.42.57.57,0,0,1,0,.81h0a.59.59,0,0,1-.71.06h0a3.82,3.82,0,0,0-2.28-.58,4.17,4.17,0,0,0-1.17.08,4.41,4.41,0,0,0-1.16.44h0a.56.56,0,0,1-.7-.83Z" transform="translate(0 -0.03)"/><path class="a597b407-081a-4062-93ee-1cf6e69b8c81" d="M99.82,165a4.31,4.31,0,0,1,3-1.42,4.48,4.48,0,0,1,3,1.42.57.57,0,0,1-.7.89h0a3.91,3.91,0,0,0-2.29-.59,4.59,4.59,0,0,0-1.17.09,4,4,0,0,0-1.15.44h0a.55.55,0,0,1-.74-.21A.53.53,0,0,1,99.82,165Z" transform="translate(0 -0.03)"/><path class="ba163fc6-bda4-4303-8130-e4cfa3de456f" d="M108.94,165.21a5.53,5.53,0,0,1,.76,2.5,5.84,5.84,0,0,1-.47,2.64,7.2,7.2,0,0,1-.66,1c-.14.26-.14.2-.13.31a.66.66,0,0,0,.46.32,3.35,3.35,0,0,0,1,0,.58.58,0,0,1,.62.54h0a.57.57,0,0,1-.46.6,4.4,4.4,0,0,1-1.35.14,2.07,2.07,0,0,1-1.5-.84,1.68,1.68,0,0,1-.3-1,2.33,2.33,0,0,1,.25-.89,10.41,10.41,0,0,0,.53-1,5.31,5.31,0,0,0,.55-1.91,4.84,4.84,0,0,0-.25-2h0a.53.53,0,0,1,.32-.68h0A.52.52,0,0,1,108.94,165.21Z" transform="translate(0 -0.03)"/></g><path class="fc3173f8-5ad0-4b8d-8317-2cd26a23d8d2" d="M128.23,167.41s-14.06-5.47-22-18.27c0,0-3.89,13.59-9.52,16.87,0,0-3.26-19,3.47-24.06s26.68-6.61,28.66,8.26S128.23,167.41,128.23,167.41Z" transform="translate(0 -0.03)"/><path class="fbc2a8fa-6176-4816-a057-c5745af1ebf5" d="M27.19,327.43V23.92H15.34V327.43a4.11,4.11,0,0,1-4.11,4.1h0a4.11,4.11,0,0,0-4.1,4.11V345H35.41v-9.33a4.11,4.11,0,0,0-4.11-4.11h0A4.11,4.11,0,0,1,27.19,327.43Z" transform="translate(0 -0.03)"/><path class="fbc2a8fa-6176-4816-a057-c5745af1ebf5" d="M430.54,327.43V23.92H418.68V327.43a4.11,4.11,0,0,1-4.1,4.1h0a4.11,4.11,0,0,0-4.11,4.11V345h28.28v-9.33a4.11,4.11,0,0,0-4.11-4.11h0A4.12,4.12,0,0,1,430.54,327.43Z" transform="translate(0 -0.03)"/><rect class="fbc2a8fa-6176-4816-a057-c5745af1ebf5" x="445.88" y="51.19" width="53.43" height="103.65" rx="3.75"/><rect class="b40a1ef2-21e0-42e4-a5a5-80dea847c6f9" x="449.24" y="55.15" width="46.7" height="95.75" rx="0.85"/><rect class="fbc2a8fa-6176-4816-a057-c5745af1ebf5" x="428.3" y="66.06" width="20.46" height="6.44"/><rect class="fbc2a8fa-6176-4816-a057-c5745af1ebf5" x="428.3" y="133.54" width="20.46" height="6.44"/><path class="a4708882-1d5d-460f-9fd0-921c28ab1371" d="M433.34,0H12.54A12.55,12.55,0,0,0,0,12.55H0A12.56,12.56,0,0,0,12.54,25.09h420.8a12.56,12.56,0,0,0,12.54-12.54h0A12.55,12.55,0,0,0,433.34,0Z" transform="translate(0 -0.03)"/><path class="a62c6ffb-a37e-4efb-9fac-5006fa39b8aa" d="M430.75,9.52H15.13a7.79,7.79,0,0,0-7.78,7.79h0a7.8,7.8,0,0,0,7.78,7.78H430.75a7.8,7.8,0,0,0,7.78-7.78h0A7.79,7.79,0,0,0,430.75,9.52Z" transform="translate(0 -0.03)"/><path class="fbc2a8fa-6176-4816-a057-c5745af1ebf5" d="M491.86,74.62h-2.25c-.07-1.43-.18-2.76-.31-3.77A5.24,5.24,0,0,0,485.59,66c-3.24-1.4-7.66-1.93-11.14-2.25a28.82,28.82,0,0,0-7.75.52,35.46,35.46,0,0,0-7.8,2,5.21,5.21,0,0,0-3,4.43c-.09.85-.18,2.28-.26,3.88h-2.32a.9.9,0,0,0-.9.9v7.78a.9.9,0,0,0,.89.91h2V100h0a.58.58,0,0,0,.59.59h2.3v2.58a2.52,2.52,0,0,0,2.27,2.75,2.56,2.56,0,0,0,1-.12,2.4,2.4,0,0,0,1.74-2.37v-2.82H482v3.06a2.36,2.36,0,0,0,2.08,2.22,2.42,2.42,0,0,0,2.73-1.61A4.94,4.94,0,0,0,487,103v-2.41h2.32a.58.58,0,0,0,.59-.57V84.21h2a.91.91,0,0,0,.91-.91h0V75.52a.9.9,0,0,0-.9-.9ZM460.72,95.23a2.6,2.6,0,1,1,2.6-2.61A2.64,2.64,0,0,1,460.72,95.23Zm-.59-11.07c-1.35,0-1.84-.61-1.66-1.92a82,82,0,0,1,.24-9.14,5.58,5.58,0,0,1,.1-.68,1.39,1.39,0,0,1,1.32-1.24h24.53c1.21,0,1.62.32,1.79,1.54a78.36,78.36,0,0,1,.26,9.32c.22,1.7-.19,2.12-1.91,2.12Zm24.33,11.06A2.59,2.59,0,1,1,487,92.58v.07A2.58,2.58,0,0,1,484.46,95.22Z" transform="translate(0 -0.03)"/><path class="e1b48ce3-6667-4905-8b53-9dc007d15f59" d="M490.83,115H454.36a1.94,1.94,0,0,1-1.94-1.94h0a1.94,1.94,0,0,1,1.88-2h36.53a1.94,1.94,0,0,1,1.94,1.94v.06h0a1.94,1.94,0,0,1-1.94,1.94Z" transform="translate(0 -0.03)"/><path class="e1b48ce3-6667-4905-8b53-9dc007d15f59" d="M490.83,122.82H454.36a1.94,1.94,0,0,1-1.94-1.94h0a1.94,1.94,0,0,1,1.93-1.95h36.48a1.94,1.94,0,0,1,1.94,1.94h0a1.94,1.94,0,0,1-1.94,1.94Z" transform="translate(0 -0.03)"/><path class="e1b48ce3-6667-4905-8b53-9dc007d15f59" d="M490.83,130.59H454.36a1.94,1.94,0,0,1-1.94-1.94h0a1.94,1.94,0,0,1,1.94-1.94h36.47a1.94,1.94,0,0,1,1.94,1.94h0a1.94,1.94,0,0,1-1.94,1.94Z" transform="translate(0 -0.03)"/><path class="e1b48ce3-6667-4905-8b53-9dc007d15f59" d="M490.83,138.36H454.36a1.94,1.94,0,0,1-1.94-1.94h0a1.94,1.94,0,0,1,1.94-1.94h36.47a1.94,1.94,0,0,1,1.94,1.94h0a1.94,1.94,0,0,1-1.94,1.94Z" transform="translate(0 -0.03)"/><path class="e1b48ce3-6667-4905-8b53-9dc007d15f59" d="M490.83,146.13H454.36a1.94,1.94,0,0,1-1.94-1.94h0a1.94,1.94,0,0,1,1.94-1.94h36.47a1.94,1.94,0,0,1,1.94,1.94h0a1.94,1.94,0,0,1-1.94,1.94Z" transform="translate(0 -0.03)"/><path class="a66eae2d-bdea-42ee-a019-38ab9bdbb805" d="M303.87,178.83" transform="translate(0 -0.03)"/></svg>