<svg id="Layer_1" data-name="Layer 1" xmlns="http://www.w3.org/2000/svg" viewBox="0 0 1962.77 1529.63"><defs><style>.cls-1{fill:#d59e4c;}.cls-2{fill:#cabfa3;}.cls-3{fill:#968e7c;}.cls-4{fill:#ffce7f;}.cls-5{fill:#db7a49;}.cls-6{fill:#a04935;}.cls-7{fill:#af5b41;}.cls-8{fill:#fd965b;}.cls-9{fill:#333;}.cls-10{fill:#ffffe7;}.cls-11{fill:#edecd6;}.cls-12{fill:#8d978f;}.cls-13{fill:#7e8780;}.cls-14{fill:#914c3a;}.cls-15{fill:#89968c;}.cls-16{fill:#97a098;}.cls-17{fill:#717f74;}.cls-18{fill:#b6bab6;}.cls-19{fill:#9ba59d;}.cls-20{fill:#a3afa5;}.cls-21{fill:#8f9991;}.cls-22{fill:#a07457;}.cls-23{fill:#b78b68;}.cls-24{fill:#7d966c;}.cls-25{fill:#667c55;}.cls-26{fill:#fff;}.cls-27{fill:#f76937;}.cls-28{fill:#40d358;}.cls-29{fill:#609389;}.cls-30{fill:#9ee2d5;}.cls-31{fill:#aaafab;}.cls-32{fill:#3f8989;}.cls-33{fill:#2b2b2b;}.cls-34{fill:#9e9e9e;}.cls-35{fill:#282828;}.cls-36{fill:#e0e0e0;}.cls-37{fill:#303030;}.cls-38{fill:#e2e2e2;}</style></defs><title>domain_hosting</title><path class="cls-1" d="M-833.49,1818.83H-2719.38c-21.23,0-38.44,19.47-38.44,43.49s17.21,43.49,38.44,43.49H-833.49c21.23,0,38.44-19.47,38.44-43.49S-812.26,1818.83-833.49,1818.83Z" transform="translate(2757.82 -577.94)"/><rect class="cls-2" x="61.92" y="1327.87" width="1838.93" height="201.76"/><rect class="cls-3" x="61.92" y="1327.87" width="1838.93" height="29"/><path class="cls-4" d="M-833.49,1818.83H-2719.38c-21.23,0-38.44,19.47-38.44,43.49a48.17,48.17,0,0,0,3.52,18.17c0-.1,0-.19,0-.29h0c0-24,17.21-43.49,38.44-43.49H-830c15.5,0,28.84,10.38,34.93,25.32C-795.19,1838.15-812.34,1818.83-833.49,1818.83Z" transform="translate(2757.82 -577.94)"/><rect class="cls-5" x="931.2" y="692.04" width="91.89" height="125.1"/><path class="cls-6" d="M-1604.4,1166s-9.87-19.31-13.91,7.5,30.38,43.19,30.38,43.19C-1611.31,1190.33-1604.4,1166-1604.4,1166Z" transform="translate(2757.82 -577.94)"/><path class="cls-7" d="M-1633.09,1203.78h0a382.92,382.92,0,0,1-45.1,53.26h0s31.86,19.39-10.6,159.36S-1590.9,1652-1590.9,1652c-43-119.18-22.17-123.34,40.19-248.06S-1633.09,1203.78-1633.09,1203.78Z" transform="translate(2757.82 -577.94)"/><path class="cls-6" d="M-1633.09,1203.78h0a382.92,382.92,0,0,1-45.1,53.26h0s31.86,19.39-10.6,159.36a179.8,179.8,0,0,0-7.87,58.72h0c16.18-99.73,41.09-109.07,88.21-159.08,26-27.65,19-63.81,7.44-90.63A222.35,222.35,0,0,0-1633.09,1203.78Z" transform="translate(2757.82 -577.94)"/><path class="cls-8" d="M-1778.09,896.36c-97.39,0-186.73,63.55-186.73,177.68,0,60.16,29.09,119.66,68.62,163.91,61.48,68.83,174.75,68.83,236.23,0,39.52-44.25,68.62-103.75,68.62-163.91C-1591.35,959.91-1680.69,896.36-1778.09,896.36Z" transform="translate(2757.82 -577.94)"/><circle class="cls-8" cx="1159.5" cy="541.47" r="46.59"/><circle class="cls-8" cx="799.97" cy="541.47" r="46.59"/><path class="cls-7" d="M-1637.1,907.49l-.3-.29c-31.34-33.2-71.46-54.51-115.06-61.35l-1-.13c-3-.46-6.09-.87-9.16-1.19-1.22-.13-2.45-.18-3.68-.29-2.19-.19-4.38-.4-6.59-.51q-5.16-.27-10.36-.27c-2.89,0-5.76.09-8.62.22-1,.05-2.05.09-3.07.15q-3.25.2-6.48.5-2.74.25-5.48.59h-.12c-101.11,12.17-185.44,101.56-187.91,237-9.47,94.73,47.11,207.67,47.11,207.67-33.74-82.41-3.78-189.94-3.78-189.94a69.59,69.59,0,0,1,42.56-34.7,676.35,676.35,0,0,0,93.62-34.58,675.42,675.42,0,0,0,91.48-50.07c50.86,58.07,108.22,95.51,152.37,101.91-1.28-73.38-26.58-133.26-65.56-174.71Z" transform="translate(2757.82 -577.94)"/><path class="cls-7" d="M-1544.6,1329.69l-17.36-.07s-7.45,20.61,15.13,60.42,53.16,28.35,53.16,28.35C-1531.68,1409.19-1544.6,1329.69-1544.6,1329.69Z" transform="translate(2757.82 -577.94)"/><path class="cls-9" d="M-1598.48,1059.59c-10.94-2.45-45.74-9.08-83.93-4.33-46.22,5.76-77.55,13.66-95.68,11.9-18.13,1.76-49.45-6.14-95.68-11.9-38.19-4.75-73,1.88-83.93,4.33a4.53,4.53,0,0,0-3.54,4.44v15a4.49,4.49,0,0,0,2.65,4.13c13.58,5.93,14.83,38.71,18.41,62.41,3.8,25.16,35.06,30,67.58,30.14,21.17.1,37.55-3.22,49.35-8.67,24.12-11.13,28.18-69.16,30.53-74.42s14.63-4.1,14.63-4.1,12.3-1.17,14.64,4.1,6.41,63.29,30.53,74.42c11.8,5.45,28.18,8.77,49.34,8.67,32.53-.16,63.78-5,67.59-30.14,3.58-23.7,4.83-56.48,18.4-62.41a4.49,4.49,0,0,0,2.66-4.13v-15A4.54,4.54,0,0,0-1598.48,1059.59Z" transform="translate(2757.82 -577.94)"/><path class="cls-8" d="M-1833.39,1070.58c-26.81-4.53-50.64-6.27-57.09-6.68l-2.45-.17c-5.59-.44-41.33-1.72-40.52,37.66.88,42.72,4.1,59.1,32.18,63.2s48.28,3.22,62.9-3.81,22.24-12.87,29.55-43.3S-1804.66,1075.43-1833.39,1070.58Z" transform="translate(2757.82 -577.94)"/><path class="cls-8" d="M-1663.24,1063.73l-2.45.17c-6.45.41-30.28,2.15-57.09,6.68-28.74,4.85-31.89,16.48-24.58,46.9s14.92,36.28,29.55,43.3,34.82,7.9,62.9,3.81,31.31-20.48,32.19-63.2C-1621.91,1062-1657.66,1063.29-1663.24,1063.73Z" transform="translate(2757.82 -577.94)"/><path class="cls-9" d="M-1738.9,1331.49c-18.39,37.36-72.92,34.27-86.58-5.07a9.27,9.27,0,0,1-.65-2.41L-1996,1376v427.4h435.76V1377.57l-175-53.56Z" transform="translate(2757.82 -577.94)"/><path class="cls-8" d="M-1954.79,1655.15h-186.64c-1.32,0-3.77,0-5.31-3.44a5.2,5.2,0,0,1-.19-4.64l199.6-174.1a56,56,0,0,0,5.4-79,56,56,0,0,0-79-5.4l-203.56,177.55a56.3,56.3,0,0,0-5.09,5c-31.18,35.17-38.57,83.64-19.29,126.51s60.45,69.49,107.45,69.49h186.64a56,56,0,0,0,56-56A56,56,0,0,0-1954.79,1655.15Z" transform="translate(2757.82 -577.94)"/><path class="cls-9" d="M-2020.94,1388.56l-149.68,130.56c12.16,28.78,35.82,62.25,81.54,77.49L-1947.33,1473a56,56,0,0,0,5.4-79A56,56,0,0,0-2020.94,1388.56Z" transform="translate(2757.82 -577.94)"/><path class="cls-8" d="M-1331.68,1566.11l-203.55-177.55a56,56,0,0,0-79,5.4,56,56,0,0,0,5.39,79l199.61,174.1a5.2,5.2,0,0,1-.19,4.64c-1.54,3.44-4,3.44-5.31,3.44h-186.65a56,56,0,0,0-56,56,56,56,0,0,0,56,56h186.65c47,0,88.17-26.63,107.45-69.49s11.89-91.34-19.3-126.51A53.82,53.82,0,0,0-1331.68,1566.11Z" transform="translate(2757.82 -577.94)"/><path class="cls-9" d="M-1614.24,1394a56,56,0,0,0,5.39,79l141.76,123.64c45.72-15.24,69.37-48.71,81.54-77.49l-149.68-130.56A56,56,0,0,0-1614.24,1394Z" transform="translate(2757.82 -577.94)"/><path class="cls-10" d="M-1445.8,1377.85h-661.27a23.27,23.27,0,0,0-23.26,23.27v417.71h707.8V1401.12A23.27,23.27,0,0,0-1445.8,1377.85Z" transform="translate(2757.82 -577.94)"/><polygon class="cls-11" points="627.48 1136.63 627.49 1240.89 1335.28 1240.89 1335.28 891.9 627.48 1136.63"/><circle class="cls-12" cx="-1776.43" cy="1598.34" r="34.65" transform="translate(-387.93 -938.01) rotate(-82.98)"/><path class="cls-13" d="M-1747.35,1583.25a34.64,34.64,0,0,1-34.64,34.64,34.64,34.64,0,0,1-28.84-15.43,34.66,34.66,0,0,0,34.4,30.53,34.64,34.64,0,0,0,34.64-34.65,34.5,34.5,0,0,0-5.81-19.21A35.06,35.06,0,0,1-1747.35,1583.25Z" transform="translate(2757.82 -577.94)"/><path class="cls-14" d="M-1869.46,1128.83a25.22,25.22,0,0,1-24.25-18.32,25.38,25.38,0,0,0-1,6.9,25.21,25.21,0,0,0,25.21,25.2,25.2,25.2,0,0,0,25.2-25.2,25.38,25.38,0,0,0-1-6.9A25.21,25.21,0,0,1-1869.46,1128.83Z" transform="translate(2757.82 -577.94)"/><path class="cls-14" d="M-1686.71,1128.83a25.2,25.2,0,0,1-24.24-18.32,25,25,0,0,0-1,6.9,25.21,25.21,0,0,0,25.21,25.2,25.21,25.21,0,0,0,25.21-25.2,25,25,0,0,0-1-6.9A25.2,25.2,0,0,1-1686.71,1128.83Z" transform="translate(2757.82 -577.94)"/><ellipse class="cls-14" cx="979.73" cy="651.53" rx="15.09" ry="22.64"/><path class="cls-10" d="M-1778.09,1206.83c-6.59,0-12.18,6.35-14.24,15.19h28.48C-1765.9,1213.18-1771.49,1206.83-1778.09,1206.83Z" transform="translate(2757.82 -577.94)"/><rect class="cls-15" x="-1313.49" y="1543.61" width="509.32" height="30.38" transform="translate(512.22 -482.89) rotate(-73.22)"/><rect class="cls-15" x="-1117.73" y="996.01" width="30.38" height="368.52" transform="translate(1736.79 -1010.73) rotate(-40.16)"/><circle class="cls-16" cx="1769" cy="739.34" r="25.62"/><path class="cls-17" d="M-1010.81,1346.93a25.49,25.49,0,0,0,18.81,8.28,25.52,25.52,0,0,0,11.21-2.61l10-33.23-29.09-8.77Z" transform="translate(2757.82 -577.94)"/><path class="cls-18" d="M-1311.31,924.74a3.81,3.81,0,0,0-5.38-.5l-1.13.93a3.82,3.82,0,0,0-.49,5.38l104.16,125.35a3.82,3.82,0,0,0,5.38.5l1.12-.94a3.82,3.82,0,0,0,.5-5.38Z" transform="translate(2757.82 -577.94)"/><path class="cls-19" d="M-1316.71,932.49l-143,75.16a10.39,10.39,0,0,0-3.16,15.84l65.43,78.73L-1332,1181a10.39,10.39,0,0,0,16.15-.21L-1215.76,1054l-50.47-60.74Z" transform="translate(2757.82 -577.94)"/><path class="cls-17" d="M-1212,1027.12l-15.26,12.87,29.06,35a4.55,4.55,0,0,0,6.41.59,4.55,4.55,0,0,0,.59-6.41l-2.31-2.78,8.59-7.15Z" transform="translate(2757.82 -577.94)"/><polygon class="cls-17" points="1522.61 468.77 1552.11 503.73 1558.49 495.65 1530.57 462.05 1522.61 468.77"/><polygon class="cls-17" points="1613.75 1210.93 1613.75 1212.22 1645.09 1212.22 1658.36 1168.22 1626.63 1168.22 1613.75 1210.93"/><path class="cls-15" d="M-1124.36,1761.49c-61.41,0-115.4,22.84-146.43,57.34h292.86C-1009,1784.33-1062.94,1761.49-1124.36,1761.49Z" transform="translate(2757.82 -577.94)"/><path class="cls-20" d="M-1207.09,1776.5c17.79,10.92,48.19,18.11,82.73,18.11s64.95-7.19,82.73-18.11a229,229,0,0,0-82.73-15A229,229,0,0,0-1207.09,1776.5Z" transform="translate(2757.82 -577.94)"/><circle class="cls-16" cx="1769" cy="739.34" r="25.62"/><path class="cls-15" d="M-1252.24,929.57a37.11,37.11,0,0,0-52.27-4.82l-4,3.33,98.6,118.65,4-3.33a37.13,37.13,0,0,0,4.83-52.28Z" transform="translate(2757.82 -577.94)"/><path class="cls-19" d="M-1304.51,924.75l-4,3.33,23.57,28.37,4-3.31a37.09,37.09,0,0,0,12.87-34.73A37.09,37.09,0,0,0-1304.51,924.75Z" transform="translate(2757.82 -577.94)"/><path class="cls-19" d="M-1316.71,932.49l-143,75.16a10.39,10.39,0,0,0-3.16,15.84l65.43,78.73L-1332,1181a10.39,10.39,0,0,0,16.15-.21L-1215.76,1054l-50.47-60.74Z" transform="translate(2757.82 -577.94)"/><path class="cls-18" d="M-1303,934.86a3.82,3.82,0,0,0-5.38-.49l-1.13.93a3.82,3.82,0,0,0-.49,5.38L-1205.81,1066a3.82,3.82,0,0,0,5.38.49l1.12-.93a3.82,3.82,0,0,0,.5-5.38Z" transform="translate(2757.82 -577.94)"/><path class="cls-21" d="M-1464.65,1020.21a10.56,10.56,0,0,0,1.83,3.28l65.43,78.73L-1332,1181a10.39,10.39,0,0,0,16.15-.21l100-126.65-77.88-93.72Z" transform="translate(2757.82 -577.94)"/><path class="cls-22" d="M-1230.47,1687.09h-131.37a8.76,8.76,0,0,0-8.62,10.32l22,121.42h101.6l22.52-124.44A6.2,6.2,0,0,0-1230.47,1687.09Z" transform="translate(2757.82 -577.94)"/><path class="cls-23" d="M-1364.91,1687.09a6.2,6.2,0,0,0-6.1,7.3l20.92,115.57h79a14.15,14.15,0,0,0,13.92-11.63l20.14-111.24h-127.84Z" transform="translate(2757.82 -577.94)"/><ellipse class="cls-24" cx="1460.38" cy="950.45" rx="22.19" ry="45.46"/><path class="cls-25" d="M-1297.44,1565.42a57.63,57.63,0,0,1-22-41.24c-.1,1.39-.17,2.79-.17,4.21a57.58,57.58,0,0,0,22.19,45.46,57.55,57.55,0,0,0,22.19-45.46c0-1.42-.06-2.82-.17-4.21A57.56,57.56,0,0,1-1297.44,1565.42Z" transform="translate(2757.82 -577.94)"/><path class="cls-24" d="M-1275.27,1577.38a47.8,47.8,0,0,0-20.16,36.82,47.76,47.76,0,0,0,41.43-6.75,47.77,47.77,0,0,0,20.16-36.82A47.77,47.77,0,0,0-1275.27,1577.38Z" transform="translate(2757.82 -577.94)"/><path class="cls-25" d="M-1253.58,1600.89a53.51,53.51,0,0,1-41.83,13.12,1.37,1.37,0,0,0,0,.19,47.76,47.76,0,0,0,41.43-6.75,47.77,47.77,0,0,0,20.16-36.82c-.82-.25-1.64-.47-2.48-.67A53.36,53.36,0,0,1-1253.58,1600.89Z" transform="translate(2757.82 -577.94)"/><path class="cls-24" d="M-1269.33,1634.91a47.82,47.82,0,0,0-28.11,31.18,47.78,47.78,0,0,0,41.88,3,47.81,47.81,0,0,0,28.11-31.17A47.82,47.82,0,0,0-1269.33,1634.91Z" transform="translate(2757.82 -577.94)"/><path class="cls-25" d="M-1253.64,1662.79a53.54,53.54,0,0,1-43.74,3.12l-.06.18a47.78,47.78,0,0,0,41.88,3,47.77,47.77,0,0,0,28.1-31.17q-1.11-.64-2.25-1.23A53.46,53.46,0,0,1-1253.64,1662.79Z" transform="translate(2757.82 -577.94)"/><ellipse class="cls-24" cx="-1330.74" cy="1592.42" rx="18.41" ry="37.72" transform="translate(895.59 -991.56) rotate(-54.72)"/><path class="cls-25" d="M-1341.8,1600.89a53.36,53.36,0,0,1-17.26-30.93c-.83.2-1.66.42-2.48.67a47.77,47.77,0,0,0,20.16,36.82,47.77,47.77,0,0,0,41.43,6.75c0-.06,0-.12,0-.19A53.53,53.53,0,0,1-1341.8,1600.89Z" transform="translate(2757.82 -577.94)"/><path class="cls-24" d="M-1326,1634.91a47.79,47.79,0,0,0-41.87,3,47.76,47.76,0,0,0,28.11,31.17,47.76,47.76,0,0,0,41.87-3A47.77,47.77,0,0,0-1326,1634.91Z" transform="translate(2757.82 -577.94)"/><path class="cls-25" d="M-1341.73,1662.79a53.37,53.37,0,0,1-23.93-26.12c-.76.39-1.52.8-2.26,1.23a47.76,47.76,0,0,0,28.11,31.17,47.76,47.76,0,0,0,41.87-3l-.06-.18A53.52,53.52,0,0,1-1341.73,1662.79Z" transform="translate(2757.82 -577.94)"/><rect class="cls-25" x="1457.06" y="988.66" width="6.66" height="120.49"/><rect class="cls-9" x="1502.13" width="393.72" height="262.96" rx="10.28"/><rect class="cls-26" x="1515.23" y="44.34" width="367.51" height="205.55" rx="7.56"/><path d="M-1130.84,692.34a6.36,6.36,0,0,1-6.68,6.67,6.34,6.34,0,0,1-6.6-6.67,6.33,6.33,0,0,1,6.6-6.61A6.35,6.35,0,0,1-1130.84,692.34Z" transform="translate(2757.82 -577.94)"/><path d="M-1108.55,674.33c-2.85,0-4.66,2.6-4.66,6.55s1.81,6.6,4.66,6.6c2.08,0,3.57-1.16,4.34-3.82l11.79,5.44c-2.59,6.29-8.81,9.91-16.91,9.91-11.27,0-18.59-7.12-18.59-18.07,0-11.14,7.39-18.4,18.72-18.4,7.71,0,13.87,3.76,16.78,10.24L-1104,677.7C-1104.92,675.56-1106.47,674.33-1108.55,674.33Z" transform="translate(2757.82 -577.94)"/><path d="M-1052.17,680.75c0,11.07-7.84,18.26-20,18.26s-20-7.19-20-18.26,7.84-18.21,20-18.21S-1052.17,669.67-1052.17,680.75Zm-25.33.19c0,4.15,2.07,6.87,5.31,6.87s5.31-2.72,5.31-6.87-2.07-6.87-5.31-6.87S-1077.5,676.8-1077.5,680.94Z" transform="translate(2757.82 -577.94)"/><path d="M-986.92,675.89V698.5h-14.57V680.1c0-3-1.62-4.86-4-4.86-2.72,0-4.47,2.27-4.47,5.7V698.5h-14.57V680.1c0-3-1.62-4.86-4-4.86-2.72,0-4.47,2.27-4.47,5.7V698.5h-14.58V663.06H-1033v5a12.22,12.22,0,0,1,10.56-5.64A11.83,11.83,0,0,1-1011,670c2.26-4.79,6.28-7.58,11.59-7.58C-992.1,662.41-986.92,667.73-986.92,675.89Z" transform="translate(2757.82 -577.94)"/><path d="M-1180.82,764.46a6.36,6.36,0,0,1-6.67,6.68,6.35,6.35,0,0,1-6.61-6.68,6.33,6.33,0,0,1,6.61-6.61A6.35,6.35,0,0,1-1180.82,764.46Z" transform="translate(2757.82 -577.94)"/><path d="M-1158.53,746.45c-2.85,0-4.66,2.6-4.66,6.55s1.81,6.6,4.66,6.6c2.08,0,3.57-1.16,4.34-3.82l11.79,5.44c-2.59,6.29-8.81,9.92-16.9,9.92-11.28,0-18.6-7.13-18.6-18.08,0-11.14,7.39-18.4,18.72-18.4,7.71,0,13.87,3.76,16.78,10.24l-11.59,4.92C-1154.9,747.68-1156.45,746.45-1158.53,746.45Z" transform="translate(2757.82 -577.94)"/><path d="M-1102.15,752.87c0,11.07-7.84,18.27-20,18.27s-20-7.2-20-18.27,7.84-18.21,20-18.21S-1102.15,741.79-1102.15,752.87Zm-25.33.19c0,4.15,2.07,6.87,5.31,6.87s5.31-2.72,5.31-6.87-2.07-6.87-5.31-6.87S-1127.48,748.92-1127.48,753.06Z" transform="translate(2757.82 -577.94)"/><path d="M-1036.9,748v22.61h-14.57v-18.4c0-3-1.62-4.86-4-4.86-2.72,0-4.47,2.27-4.47,5.7v17.56h-14.57v-18.4c0-3-1.62-4.86-4-4.86-2.72,0-4.47,2.27-4.47,5.7v17.56h-14.57V735.18H-1083v5a12.22,12.22,0,0,1,10.56-5.64,11.82,11.82,0,0,1,11.47,7.58c2.26-4.79,6.28-7.58,11.59-7.58C-1042.08,734.53-1036.9,739.85-1036.9,748Z" transform="translate(2757.82 -577.94)"/><path d="M-1019,764.46a6.36,6.36,0,0,1-6.67,6.68,6.35,6.35,0,0,1-6.61-6.68,6.33,6.33,0,0,1,6.61-6.61A6.35,6.35,0,0,1-1019,764.46Z" transform="translate(2757.82 -577.94)"/><path d="M-973.37,753.13c0,10.94-6.22,18-15.87,18a12.14,12.14,0,0,1-9.39-4.15v3.63h-14.58V722.55h14.58v16.19a11.48,11.48,0,0,1,9-4.08C-979.78,734.66-973.37,741.92-973.37,753.13Zm-14.7-.39c0-4.15-2.08-6.87-5.32-6.87s-5.24,2.72-5.24,6.87,2.07,6.86,5.24,6.86S-988.07,756.88-988.07,752.74Z" transform="translate(2757.82 -577.94)"/><path d="M-931.56,722.55v48.07h-14.58v-3.57a11.49,11.49,0,0,1-9,4.09c-9.85,0-16.26-7.26-16.26-18.47,0-10.95,6.22-18,15.87-18a12.14,12.14,0,0,1,9.39,4.15V722.55Zm-14.58,30.51c0-4.14-2.07-6.87-5.25-6.87s-5.31,2.73-5.31,6.87,2.08,6.87,5.31,6.87S-946.14,757.21-946.14,753.06Z" transform="translate(2757.82 -577.94)"/><path class="cls-8" d="M-958.48,595.08a7.74,7.74,0,0,0-7.75,7.74,7.75,7.75,0,0,0,7.75,7.75,7.74,7.74,0,0,0,7.74-7.75A7.73,7.73,0,0,0-958.48,595.08Z" transform="translate(2757.82 -577.94)"/><path class="cls-27" d="M-930.18,595.08a7.74,7.74,0,0,0-7.75,7.74,7.75,7.75,0,0,0,7.75,7.75,7.75,7.75,0,0,0,7.74-7.75A7.74,7.74,0,0,0-930.18,595.08Z" transform="translate(2757.82 -577.94)"/><circle class="cls-28" cx="1855.93" cy="24.88" r="7.74"/><rect class="cls-9" x="108.18" y="206.76" width="393.72" height="262.96" rx="10.28"/><rect class="cls-26" x="121.29" y="251.11" width="367.51" height="205.55" rx="7.56"/><path class="cls-8" d="M-2352.43,801.84a7.75,7.75,0,0,0-7.74,7.75,7.75,7.75,0,0,0,7.74,7.74,7.75,7.75,0,0,0,7.75-7.74A7.75,7.75,0,0,0-2352.43,801.84Z" transform="translate(2757.82 -577.94)"/><circle class="cls-27" cx="-2324.13" cy="809.59" r="7.74" transform="translate(570.35 -2225.65) rotate(-67.61)"/><circle class="cls-28" cx="-2295.83" cy="809.59" r="7.74" transform="translate(146.38 -2182.2) rotate(-78.02)"/><path class="cls-8" d="M-2477,942h-125.5a4.37,4.37,0,0,0-4.37,4.37,4.37,4.37,0,0,0,4.37,4.37H-2477a4.37,4.37,0,0,0,4.37-4.37A4.37,4.37,0,0,0-2477,942Z" transform="translate(2757.82 -577.94)"/><rect class="cls-21" x="324.93" y="364.01" width="134.24" height="8.74" rx="3.67"/><path class="cls-8" d="M-2477,970.94h-125.5a4.37,4.37,0,0,0-4.37,4.37,4.37,4.37,0,0,0,4.37,4.37H-2477a4.37,4.37,0,0,0,4.37-4.37A4.37,4.37,0,0,0-2477,970.94Z" transform="translate(2757.82 -577.94)"/><rect class="cls-21" x="324.93" y="393" width="134.24" height="8.74" rx="3.67"/><path class="cls-8" d="M-2477,999.93h-125.5a4.37,4.37,0,0,0-4.37,4.37,4.37,4.37,0,0,0,4.37,4.37H-2477a4.37,4.37,0,0,0,4.37-4.37A4.37,4.37,0,0,0-2477,999.93Z" transform="translate(2757.82 -577.94)"/><rect class="cls-21" x="324.93" y="421.99" width="134.24" height="8.74" rx="3.67"/><rect class="cls-21" x="153.69" y="273.25" width="131.46" height="64.99"/><rect class="cls-24" x="324.93" y="273.25" width="131.46" height="64.99"/><rect class="cls-9" x="1839.65" y="503.73" width="112.39" height="206.06" rx="5.75"/><rect class="cls-26" x="1846.56" y="523.73" width="98.57" height="159.9" rx="1.63"/><path class="cls-29" d="M-851.12,1091.49h-21.71a1.69,1.69,0,0,0-1.73,1.64,1.69,1.69,0,0,0,1.73,1.64h21.71a1.68,1.68,0,0,0,1.73-1.64A1.69,1.69,0,0,0-851.12,1091.49Z" transform="translate(2757.82 -577.94)"/><path class="cls-30" d="M-862,1269.35a6.12,6.12,0,0,0-6.13,6.13,6.12,6.12,0,0,0,6.13,6.12,6.12,6.12,0,0,0,6.12-6.12A6.12,6.12,0,0,0-862,1269.35Z" transform="translate(2757.82 -577.94)"/><path class="cls-24" d="M-814.62,1101.67h-94.7a1.94,1.94,0,0,0-1.94,1.94v18.86h98.57v-18.86A1.93,1.93,0,0,0-814.62,1101.67Z" transform="translate(2757.82 -577.94)"/><rect class="cls-8" x="1862.19" y="559.43" width="68.21" height="47.83"/><rect class="cls-21" x="1862.19" y="618.58" width="68.21" height="47.83"/><rect class="cls-9" x="65.49" y="643.03" width="112.39" height="206.06" rx="5.75"/><path class="cls-26" d="M74,663h95.32a1.63,1.63,0,0,1,1.63,1.63V821.32a1.62,1.62,0,0,1-1.62,1.62H74a1.63,1.63,0,0,1-1.63-1.63V664.67A1.62,1.62,0,0,1,74,663Z"/><path class="cls-29" d="M-2625.28,1230.8H-2647a1.69,1.69,0,0,0-1.73,1.64,1.69,1.69,0,0,0,1.73,1.64h21.71a1.68,1.68,0,0,0,1.73-1.64A1.69,1.69,0,0,0-2625.28,1230.8Z" transform="translate(2757.82 -577.94)"/><circle class="cls-30" cx="121.69" cy="836.84" r="6.13"/><path class="cls-24" d="M-2588.78,1241h-94.7a1.78,1.78,0,0,0-1.94,1.53v14.94h98.57v-14.94A1.77,1.77,0,0,0-2588.78,1241Z" transform="translate(2757.82 -577.94)"/><rect class="cls-21" x="80.56" y="688.08" width="36.89" height="36.89"/><rect class="cls-8" x="125.93" y="688.08" width="36.89" height="36.89"/><rect class="cls-31" x="80.56" y="732.66" width="36.89" height="36.89"/><rect class="cls-32" x="125.93" y="732.66" width="36.89" height="36.89"/><rect class="cls-8" x="80.56" y="777.25" width="36.89" height="36.89"/><rect class="cls-31" x="125.93" y="777.25" width="36.89" height="36.89"/><path class="cls-33" d="M-1328.26,1436.7h-12a8,8,0,0,0-8,8,8,8,0,0,0,8,8h12a8,8,0,0,0,8-8A8,8,0,0,0-1328.26,1436.7Z" transform="translate(2757.82 -577.94)"/><path class="cls-33" d="M-1263.63,1436.7h-21a8,8,0,0,0-8,8,8,8,0,0,0,8,8h21a8,8,0,0,0,8-8A8,8,0,0,0-1263.63,1436.7Z" transform="translate(2757.82 -577.94)"/><path class="cls-33" d="M-1199,1436.7h-21a8,8,0,0,0-8,8,8,8,0,0,0,8,8h21a8,8,0,0,0,8-8A8,8,0,0,0-1199,1436.7Z" transform="translate(2757.82 -577.94)"/><path class="cls-33" d="M-1134.39,1436.7h-21a8,8,0,0,0-8,8,8,8,0,0,0,8,8h21a8,8,0,0,0,8-8A8,8,0,0,0-1134.39,1436.7Z" transform="translate(2757.82 -577.94)"/><path class="cls-33" d="M-1078.73,1424.7a8,8,0,0,0-8,8v4h-4a8,8,0,0,0-8,8,8,8,0,0,0,8,8h12a8,8,0,0,0,8-8v-12A8,8,0,0,0-1078.73,1424.7Z" transform="translate(2757.82 -577.94)"/><path class="cls-33" d="M-1078.73,1281.5a8,8,0,0,0-8,8v23.22a8,8,0,0,0,8,8,8,8,0,0,0,8-8V1289.5A8,8,0,0,0-1078.73,1281.5Z" transform="translate(2757.82 -577.94)"/><path class="cls-33" d="M-1078.73,1353.1a8,8,0,0,0-8,8v23.23a8,8,0,0,0,8,8,8,8,0,0,0,8-8V1361.1A8,8,0,0,0-1078.73,1353.1Z" transform="translate(2757.82 -577.94)"/><path class="cls-33" d="M-1078.73,1209.9a8,8,0,0,0-8,8v23.22a8,8,0,0,0,8,8,8,8,0,0,0,8-8V1217.9A8,8,0,0,0-1078.73,1209.9Z" transform="translate(2757.82 -577.94)"/><path class="cls-33" d="M-1078.73,1138.3a8,8,0,0,0-8,8v23.22a8,8,0,0,0,8,8,8,8,0,0,0,8-8V1146.3A8,8,0,0,0-1078.73,1138.3Z" transform="translate(2757.82 -577.94)"/><path class="cls-33" d="M-1078.73,1066.7a8,8,0,0,0-8,8v23.22a8,8,0,0,0,8,8,8,8,0,0,0,8-8V1074.7A8,8,0,0,0-1078.73,1066.7Z" transform="translate(2757.82 -577.94)"/><path class="cls-33" d="M-1078.73,923.5a8,8,0,0,0-8,8v23.22a8,8,0,0,0,8,8,8,8,0,0,0,8-8V931.5A8,8,0,0,0-1078.73,923.5Z" transform="translate(2757.82 -577.94)"/><path class="cls-33" d="M-1078.73,995.1a8,8,0,0,0-8,8v23.22a8,8,0,0,0,8,8,8,8,0,0,0,8-8V1003.1A8,8,0,0,0-1078.73,995.1Z" transform="translate(2757.82 -577.94)"/><path class="cls-33" d="M-1078.73,863.12a8,8,0,0,0-8,8v12a8,8,0,0,0,8,8,8,8,0,0,0,8-8v-12A8,8,0,0,0-1078.73,863.12Z" transform="translate(2757.82 -577.94)"/><path class="cls-33" d="M-1027.33,1541h-24a8,8,0,0,0-8,8,8,8,0,0,0,8,8h24a8,8,0,0,0,8-8A8,8,0,0,0-1027.33,1541Z" transform="translate(2757.82 -577.94)"/><path class="cls-33" d="M-1101.33,1541h-24a8,8,0,0,0-8,8,8,8,0,0,0,8,8h24a8,8,0,0,0,8-8A8,8,0,0,0-1101.33,1541Z" transform="translate(2757.82 -577.94)"/><path class="cls-33" d="M-1175.33,1541h-24a8,8,0,0,0-8,8,8,8,0,0,0,8,8h24a8,8,0,0,0,8-8A8,8,0,0,0-1175.33,1541Z" transform="translate(2757.82 -577.94)"/><path class="cls-33" d="M-879.33,1541h-24a8,8,0,0,0-8,8,8,8,0,0,0,8,8h24a8,8,0,0,0,8-8A8,8,0,0,0-879.33,1541Z" transform="translate(2757.82 -577.94)"/><path class="cls-33" d="M-862,1484.37a8,8,0,0,0-8,8v24a8,8,0,0,0,8,8,8,8,0,0,0,8-8v-24A8,8,0,0,0-862,1484.37Z" transform="translate(2757.82 -577.94)"/><path class="cls-33" d="M-953.33,1541h-24a8,8,0,0,0-8,8,8,8,0,0,0,8,8h24a8,8,0,0,0,8-8A8,8,0,0,0-953.33,1541Z" transform="translate(2757.82 -577.94)"/><path class="cls-33" d="M-862,1410.37a8,8,0,0,0-8,8v24a8,8,0,0,0,8,8,8,8,0,0,0,8-8v-24A8,8,0,0,0-862,1410.37Z" transform="translate(2757.82 -577.94)"/><path class="cls-33" d="M-862,1336.37a8,8,0,0,0-8,8v24a8,8,0,0,0,8,8,8,8,0,0,0,8-8v-24A8,8,0,0,0-862,1336.37Z" transform="translate(2757.82 -577.94)"/><path class="cls-33" d="M-2555.48,1541h-24a8,8,0,0,0-8,8,8,8,0,0,0,8,8h24a8,8,0,0,0,8-8A8,8,0,0,0-2555.48,1541Z" transform="translate(2757.82 -577.94)"/><path class="cls-33" d="M-2629.48,1541h-2.9v-5.1a8,8,0,0,0-8-8,8,8,0,0,0-8,8V1549a8,8,0,0,0,8,8h10.9a8,8,0,0,0,8-8A8,8,0,0,0-2629.48,1541Z" transform="translate(2757.82 -577.94)"/><path class="cls-33" d="M-2640.38,1493.91a8,8,0,0,0,8-8v-16.07a8,8,0,0,0-8-8,8,8,0,0,0-8,8v16.07A8,8,0,0,0-2640.38,1493.91Z" transform="translate(2757.82 -577.94)"/><path class="cls-33" d="M-2259.48,1541h-24a8,8,0,0,0-8,8,8,8,0,0,0,8,8h24a8,8,0,0,0,8-8A8,8,0,0,0-2259.48,1541Z" transform="translate(2757.82 -577.94)"/><path class="cls-33" d="M-2333.48,1541h-24a8,8,0,0,0-8,8,8,8,0,0,0,8,8h24a8,8,0,0,0,8-8A8,8,0,0,0-2333.48,1541Z" transform="translate(2757.82 -577.94)"/><path class="cls-33" d="M-2407.48,1541h-24a8,8,0,0,0-8,8,8,8,0,0,0,8,8h24a8,8,0,0,0,8-8A8,8,0,0,0-2407.48,1541Z" transform="translate(2757.82 -577.94)"/><path class="cls-33" d="M-2481.48,1541h-24a8,8,0,0,0-8,8,8,8,0,0,0,8,8h24a8,8,0,0,0,8-8A8,8,0,0,0-2481.48,1541Z" transform="translate(2757.82 -577.94)"/><path class="cls-33" d="M-2449.93,1219.57a8,8,0,0,0,8-8v-24a8,8,0,0,0-8-8,8,8,0,0,0-8,8v24A8,8,0,0,0-2449.93,1219.57Z" transform="translate(2757.82 -577.94)"/><path class="cls-33" d="M-2449.93,1293.57a8,8,0,0,0,8-8v-24a8,8,0,0,0-8-8,8,8,0,0,0-8,8v24A8,8,0,0,0-2449.93,1293.57Z" transform="translate(2757.82 -577.94)"/><path class="cls-33" d="M-2449.93,1145.57a8,8,0,0,0,8-8v-24a8,8,0,0,0-8-8,8,8,0,0,0-8,8v24A8,8,0,0,0-2449.93,1145.57Z" transform="translate(2757.82 -577.94)"/><path class="cls-33" d="M-2431.15,1406.78h-11.27a8,8,0,0,0-7.51-5.21,8,8,0,0,0-8,8v5.21a8,8,0,0,0,8,8h18.78a8,8,0,0,0,8-8A8,8,0,0,0-2431.15,1406.78Z" transform="translate(2757.82 -577.94)"/><path class="cls-33" d="M-2209.15,1406.78h-24a8,8,0,0,0-8,8,8,8,0,0,0,8,8h24a8,8,0,0,0,8-8A8,8,0,0,0-2209.15,1406.78Z" transform="translate(2757.82 -577.94)"/><path class="cls-33" d="M-2283.15,1406.78h-24a8,8,0,0,0-8,8,8,8,0,0,0,8,8h24a8,8,0,0,0,8-8A8,8,0,0,0-2283.15,1406.78Z" transform="translate(2757.82 -577.94)"/><path class="cls-33" d="M-2449.93,1367.57a8,8,0,0,0,8-8v-24a8,8,0,0,0-8-8,8,8,0,0,0-8,8v24A8,8,0,0,0-2449.93,1367.57Z" transform="translate(2757.82 -577.94)"/><path class="cls-33" d="M-2357.15,1406.78h-24a8,8,0,0,0-8,8,8,8,0,0,0,8,8h24a8,8,0,0,0,8-8A8,8,0,0,0-2357.15,1406.78Z" transform="translate(2757.82 -577.94)"/><rect class="cls-34" x="146.16" y="914.35" width="390.44" height="82.93" rx="17.18"/><circle class="cls-35" cx="189.16" cy="955.82" r="12.32"/><rect class="cls-35" x="218.16" y="947.02" width="209" height="17.6" rx="8.8"/><rect class="cls-35" x="443.85" y="947.02" width="56.64" height="17.6" rx="8.8"/><rect class="cls-34" x="146.16" y="997.92" width="390.44" height="82.93" rx="17.18"/><circle class="cls-35" cx="189.16" cy="1039.38" r="12.32"/><rect class="cls-35" x="218.16" y="1030.58" width="209" height="17.6" rx="8.8"/><rect class="cls-35" x="443.85" y="1030.58" width="56.64" height="17.6" rx="8.8"/><rect class="cls-34" x="146.16" y="1081.48" width="390.44" height="82.93" rx="17.18"/><circle class="cls-35" cx="189.16" cy="1122.95" r="12.32"/><rect class="cls-35" x="218.16" y="1114.15" width="209" height="17.6" rx="8.8"/><path class="cls-35" d="M-2361.07,1796.72h-44.31v-54.37h-22.11v54.37h-44.31a11.06,11.06,0,0,0-11,11.06,11.05,11.05,0,0,0,11,11h110.73a11.05,11.05,0,0,0,11.05-11A11.06,11.06,0,0,0-2361.07,1796.72Z" transform="translate(2757.82 -577.94)"/><rect class="cls-35" x="443.85" y="1114.15" width="56.64" height="17.6" rx="8.8"/><rect class="cls-36" x="695.27" y="100.26" width="655.63" height="93.72" rx="11.37"/><rect class="cls-37" x="1243.25" y="100.26" width="107.65" height="93.72" rx="11.37"/><path class="cls-38" d="M-1448.24,735.32a21.92,21.92,0,0,0,7.67-16.66,22,22,0,0,0-22-22,22,22,0,0,0-22,22,22,22,0,0,0,22,22,21.81,21.81,0,0,0,11-3l13.18,15.76,3.07-2.57Zm-5.66-.53a18.08,18.08,0,0,1-8.63,2.17,18.31,18.31,0,0,1-18.29-18.3,18.31,18.31,0,0,1,18.29-18.3,18.32,18.32,0,0,1,18.3,18.3,18.25,18.25,0,0,1-6.36,13.85A17.54,17.54,0,0,1-1453.9,734.79Z" transform="translate(2757.82 -577.94)"/><path d="M-1997.23,712.12l-6.61,27.92h-5l-3.09-16.58h-.11l-3.08,16.58h-5l-6.61-27.92h6l3.42,17.34h.11l3.13-17.34h4.41l3,17.34h.11l3.36-17.34Z" transform="translate(2757.82 -577.94)"/><path d="M-1967.71,712.12l-6.61,27.92h-5l-3.08-16.58h-.11l-3.08,16.58h-5l-6.61-27.92h5.95l3.41,17.34h.11l3.14-17.34h4.41l3,17.34h.11l3.36-17.34Z" transform="translate(2757.82 -577.94)"/><path d="M-1938.2,712.12l-6.6,27.92h-5l-3.08-16.58h-.11L-1956,740h-5l-6.61-27.92h5.94l3.42,17.34h.11l3.14-17.34h4.4l3,17.34h.11l3.36-17.34Z" transform="translate(2757.82 -577.94)"/><path d="M-1937.86,740v-5.62h5.61V740Z" transform="translate(2757.82 -577.94)"/><path d="M-1930,712.12h6l3.85,17.4h.11l3.8-17.4h5.78l-8,32.76a9.36,9.36,0,0,1-1.24,3.09,7.62,7.62,0,0,1-1.84,2,6.46,6.46,0,0,1-2.23,1.07,10,10,0,0,1-2.45.31h-1.54V746h1.26a4.19,4.19,0,0,0,1.44-.22,2.36,2.36,0,0,0,1.1-1,9.65,9.65,0,0,0,.82-2.18c.26-.93.55-2.23.88-3.88Z" transform="translate(2757.82 -577.94)"/><path d="M-1909.06,721.48a20.36,20.36,0,0,1,.22-3.14,7.53,7.53,0,0,1,.82-2.53,7.58,7.58,0,0,1,2.84-2.92,8.54,8.54,0,0,1,4.49-1.1,8.53,8.53,0,0,1,4.48,1.1,7.58,7.58,0,0,1,2.84,2.92,7.77,7.77,0,0,1,.83,2.53,21.69,21.69,0,0,1,.22,3.14v9.2a21.54,21.54,0,0,1-.22,3.13,7.83,7.83,0,0,1-.83,2.54,7.65,7.65,0,0,1-2.84,2.92,8.62,8.62,0,0,1-4.48,1.1,8.64,8.64,0,0,1-4.49-1.1,7.65,7.65,0,0,1-2.84-2.92,7.59,7.59,0,0,1-.82-2.54,20.22,20.22,0,0,1-.22-3.13Zm5.61,10.08a3.37,3.37,0,0,0,.75,2.39,2.61,2.61,0,0,0,2,.8,2.64,2.64,0,0,0,2-.8,3.42,3.42,0,0,0,.74-2.39v-11a3.45,3.45,0,0,0-.74-2.4,2.64,2.64,0,0,0-2-.8,2.61,2.61,0,0,0-2,.8,3.4,3.4,0,0,0-.75,2.4Z" transform="translate(2757.82 -577.94)"/><path d="M-1871.4,712.12V740H-1877v-2.7h-.11a8,8,0,0,1-2.12,2.17,5.49,5.49,0,0,1-3.17.86,6.34,6.34,0,0,1-2.09-.36,4.86,4.86,0,0,1-1.88-1.18,6,6,0,0,1-1.32-2.12,9,9,0,0,1-.49-3.17V712.12h5.61v19.33a3.73,3.73,0,0,0,.72,2.42,2.48,2.48,0,0,0,2,.88,2.37,2.37,0,0,0,2.2-1,5.58,5.58,0,0,0,.61-2.86V712.12Z" transform="translate(2757.82 -577.94)"/><path d="M-1866.77,740V712.12h5.62v3a16.81,16.81,0,0,1,3.35-2.42,8.58,8.58,0,0,1,4.08-.88v5.94a4.56,4.56,0,0,0-1.71-.33,6.77,6.77,0,0,0-1.9.31,4.85,4.85,0,0,0-1.84,1,5.13,5.13,0,0,0-1.43,1.87,6.57,6.57,0,0,0-.55,2.86V740Z" transform="translate(2757.82 -577.94)"/><path d="M-1853.39,727.59V722h16.58v5.62Z" transform="translate(2757.82 -577.94)"/><path d="M-1820.9,740V737.5l-1,1.13a5.66,5.66,0,0,1-1.11.91,5.19,5.19,0,0,1-1.37.61,7,7,0,0,1-1.82.22q-3.52,0-4.9-2.65a7.48,7.48,0,0,1-.72-2.31,25.42,25.42,0,0,1-.22-3.69V721.09a42.82,42.82,0,0,1,.17-4.46,5.32,5.32,0,0,1,2.59-4.13,5.62,5.62,0,0,1,3.13-.71,5.75,5.75,0,0,1,3,.74,6.8,6.8,0,0,1,2.23,2.12h.11V700.83h5.62V740Zm-5.56-9.09a5.07,5.07,0,0,0,.66,2.75,2.29,2.29,0,0,0,2.09,1,2.48,2.48,0,0,0,2-1,3.92,3.92,0,0,0,.77-2.51V720.43a3.06,3.06,0,0,0-.8-2.17,2.63,2.63,0,0,0-2-.86,2.28,2.28,0,0,0-2.17,1,4.45,4.45,0,0,0-.58,2.31Z" transform="translate(2757.82 -577.94)"/><path d="M-1811.15,721.48a20.36,20.36,0,0,1,.22-3.14,7.76,7.76,0,0,1,.82-2.53,7.65,7.65,0,0,1,2.84-2.92,8.57,8.57,0,0,1,4.49-1.1,8.57,8.57,0,0,1,4.49,1.1,7.55,7.55,0,0,1,2.83,2.92,7.54,7.54,0,0,1,.83,2.53,20.36,20.36,0,0,1,.22,3.14v9.2a20.22,20.22,0,0,1-.22,3.13,7.59,7.59,0,0,1-.83,2.54,7.62,7.62,0,0,1-2.83,2.92,8.66,8.66,0,0,1-4.49,1.1,8.66,8.66,0,0,1-4.49-1.1,7.72,7.72,0,0,1-2.84-2.92,7.82,7.82,0,0,1-.82-2.54,20.22,20.22,0,0,1-.22-3.13Zm5.62,10.08a3.37,3.37,0,0,0,.74,2.39,2.61,2.61,0,0,0,2,.8,2.64,2.64,0,0,0,2-.8,3.42,3.42,0,0,0,.74-2.39v-11a3.45,3.45,0,0,0-.74-2.4,2.64,2.64,0,0,0-2-.8,2.61,2.61,0,0,0-2,.8,3.4,3.4,0,0,0-.74,2.4Z" transform="translate(2757.82 -577.94)"/><path d="M-1790.28,740V712.12h5.62v2.7h.11a7.74,7.74,0,0,1,2.12-2.18,5.43,5.43,0,0,1,3.16-.85,5,5,0,0,1,3,.88,8.89,8.89,0,0,1,2,1.93,11.49,11.49,0,0,1,2.32-2,6.41,6.41,0,0,1,3.52-.82,7.21,7.21,0,0,1,2.15.35,5.33,5.33,0,0,1,2,1.19,6,6,0,0,1,1.43,2.12,8,8,0,0,1,.55,3.17V740h-5.61V720.71a3.74,3.74,0,0,0-.72-2.43,2.49,2.49,0,0,0-2-.88,2.35,2.35,0,0,0-2.2,1,5.56,5.56,0,0,0-.6,2.86V740h-5.62V720.71a3.74,3.74,0,0,0-.72-2.43,2.49,2.49,0,0,0-2-.88,2.37,2.37,0,0,0-2.21,1,5.56,5.56,0,0,0-.6,2.86V740Z" transform="translate(2757.82 -577.94)"/><path d="M-1747,740v-2.87h-.11a10.5,10.5,0,0,1-2.23,2.37,5.29,5.29,0,0,1-3.17.83,6.78,6.78,0,0,1-2-.31,5.11,5.11,0,0,1-2-1.12,5.44,5.44,0,0,1-1.52-2.23,10.54,10.54,0,0,1-.58-3.78,19.65,19.65,0,0,1,.39-4.15,6.65,6.65,0,0,1,1.43-3,6,6,0,0,1,2.7-1.73,13.66,13.66,0,0,1,4.35-.58h.61a2.77,2.77,0,0,1,.6.06,4.13,4.13,0,0,0,.66.05,6.23,6.23,0,0,1,.83.06v-2.92a4.21,4.21,0,0,0-.61-2.37,2.43,2.43,0,0,0-2.2-.94,3.18,3.18,0,0,0-2,.72,3.38,3.38,0,0,0-1.18,2.09h-5.46a9,9,0,0,1,2.54-6.06,7.91,7.91,0,0,1,2.64-1.73,9.09,9.09,0,0,1,3.47-.63,9.64,9.64,0,0,1,3.3.55,7.48,7.48,0,0,1,2.7,1.65,7.93,7.93,0,0,1,1.76,2.75,10.16,10.16,0,0,1,.67,3.86V740Zm0-12a9.22,9.22,0,0,0-1.54-.16,5.51,5.51,0,0,0-3.11.85,3.44,3.44,0,0,0-1.3,3.11,4.11,4.11,0,0,0,.77,2.59,2.58,2.58,0,0,0,2.15,1,2.78,2.78,0,0,0,2.23-.93,4,4,0,0,0,.8-2.65Z" transform="translate(2757.82 -577.94)"/><path d="M-1737.3,706.45v-5.62h5.61v5.62Zm0,33.59V712.12h5.61V740Z" transform="translate(2757.82 -577.94)"/><path d="M-1727.06,740V712.12h5.62v2.7h.1a7.91,7.91,0,0,1,2.13-2.18,5.43,5.43,0,0,1,3.16-.85,6.59,6.59,0,0,1,2.09.35,4.89,4.89,0,0,1,1.88,1.19,6,6,0,0,1,1.32,2.12,8.91,8.91,0,0,1,.49,3.17V740h-5.61V720.71a3.74,3.74,0,0,0-.72-2.43,2.51,2.51,0,0,0-2-.88,2.35,2.35,0,0,0-2.2,1,5.56,5.56,0,0,0-.6,2.86V740Z" transform="translate(2757.82 -577.94)"/><path d="M-1705.64,740v-5.62h5.62V740Z" transform="translate(2757.82 -577.94)"/><path d="M-1689.45,732a2.69,2.69,0,0,0,.74,2,2.78,2.78,0,0,0,2,.72,2.2,2.2,0,0,0,2.12-.94,5.08,5.08,0,0,0,.64-1.87h5.61a8.07,8.07,0,0,1-2.25,5.95,8,8,0,0,1-2.65,1.82,8.73,8.73,0,0,1-3.47.66,8.66,8.66,0,0,1-4.49-1.1,7.62,7.62,0,0,1-2.83-2.92,7.59,7.59,0,0,1-.83-2.54,21.54,21.54,0,0,1-.22-3.13v-9.2a21.69,21.69,0,0,1,.22-3.14,7.54,7.54,0,0,1,.83-2.53,7.55,7.55,0,0,1,2.83-2.92,8.57,8.57,0,0,1,4.49-1.1,9,9,0,0,1,3.5.66,7.74,7.74,0,0,1,2.67,1.81,9.35,9.35,0,0,1,2.2,6.45h-5.61a3.59,3.59,0,0,0-.75-2.51,2.61,2.61,0,0,0-2-.8,2.64,2.64,0,0,0-2,.8,3.45,3.45,0,0,0-.74,2.4Z" transform="translate(2757.82 -577.94)"/><path d="M-1675.52,721.48a21.69,21.69,0,0,1,.22-3.14,7.54,7.54,0,0,1,.83-2.53,7.55,7.55,0,0,1,2.83-2.92,8.57,8.57,0,0,1,4.49-1.1,8.57,8.57,0,0,1,4.49,1.1,7.58,7.58,0,0,1,2.84,2.92,7.53,7.53,0,0,1,.82,2.53,20.36,20.36,0,0,1,.22,3.14v9.2a20.22,20.22,0,0,1-.22,3.13,7.59,7.59,0,0,1-.82,2.54,7.65,7.65,0,0,1-2.84,2.92,8.66,8.66,0,0,1-4.49,1.1,8.66,8.66,0,0,1-4.49-1.1,7.62,7.62,0,0,1-2.83-2.92,7.59,7.59,0,0,1-.83-2.54,21.54,21.54,0,0,1-.22-3.13Zm5.62,10.08a3.42,3.42,0,0,0,.74,2.39,2.64,2.64,0,0,0,2,.8,2.61,2.61,0,0,0,2-.8,3.37,3.37,0,0,0,.75-2.39v-11a3.4,3.4,0,0,0-.75-2.4,2.61,2.61,0,0,0-2-.8,2.64,2.64,0,0,0-2,.8,3.45,3.45,0,0,0-.74,2.4Z" transform="translate(2757.82 -577.94)"/><path d="M-1654.65,740V712.12h5.62v2.7h.11a7.87,7.87,0,0,1,2.12-2.18,5.46,5.46,0,0,1,3.17-.85,5,5,0,0,1,3,.88,9.33,9.33,0,0,1,2,1.93,11.71,11.71,0,0,1,2.31-2,6.45,6.45,0,0,1,3.53-.82,7.14,7.14,0,0,1,2.14.35,5.29,5.29,0,0,1,2,1.19,6.33,6.33,0,0,1,1.43,2.12,8.22,8.22,0,0,1,.55,3.17V740h-5.62V720.71a3.74,3.74,0,0,0-.72-2.43,2.47,2.47,0,0,0-2-.88,2.37,2.37,0,0,0-2.21,1,5.56,5.56,0,0,0-.6,2.86V740h-5.62V720.71a3.8,3.8,0,0,0-.71-2.43,2.51,2.51,0,0,0-2-.88,2.34,2.34,0,0,0-2.2,1,5.45,5.45,0,0,0-.61,2.86V740Z" transform="translate(2757.82 -577.94)"/></svg>