<svg id="Layer_1" data-name="Layer 1" xmlns="http://www.w3.org/2000/svg" xmlns:xlink="http://www.w3.org/1999/xlink" viewBox="0 0 262.5 172.95"><defs><style>.cls-1{fill:#f9b49b;}.cls-2{fill:#ff7748;}.cls-3{fill:#724138;}.cls-4{fill:#fff;}.cls-5{fill:#7c7b7b;}.cls-6{fill:#9b9b9b;}.cls-7{fill:#f4c09d;}.cls-8{fill:#ef627a;}.cls-9{fill:#c4644b;}.cls-10{fill:#102236;}.cls-11{fill:#e2e2e2;}.cls-12{fill:url(#radial-gradient);}.cls-13{fill:url(#linear-gradient);}.cls-14{fill:url(#linear-gradient-2);}.cls-15{fill:url(#linear-gradient-3);}.cls-16{fill:url(#linear-gradient-4);}.cls-17{fill:url(#linear-gradient-5);}.cls-18{fill:url(#linear-gradient-6);}.cls-19{fill:url(#linear-gradient-7);}.cls-20{fill:#5fa6f0;}.cls-21{fill:#be4933;}.cls-22{fill:#4e598f;}.cls-23{fill:#383f5c;}.cls-24{fill:#ccc;opacity:0.44;isolation:isolate;}.cls-25{fill:#202e3b;}.cls-26{fill:#cacfed;}.cls-27{fill:#4f5977;}.cls-28{fill:#fd7486;}.cls-29{fill:#efb68f;}.cls-30{fill:#22283a;}.cls-31{fill:#f993a5;}.cls-32{fill:#fcfcfc;}.cls-33{fill:#85bbff;}.cls-34{fill:#6138ff;}*{transform-box:fill-box}.meg1{animation:meg1 16s linear 0s infinite;transform:translateX(-200px)}.meg2{animation:meg2 16s linear 0s infinite;transform:translateX(-300px)}.meg3{animation:meg3 16s linear 0s infinite;transform:translateX(300px)}g#b-tree,g#s-tree{transform-origin:bottom}g#b-tree{animation:tree1 2s ease 0s infinite}g#s-tree{animation:tree2 2s ease 0s infinite}.star__{transform-origin:center;animation:star__ 3s ease 0s infinite}@keyframes star__{0%,100%,50%{opacity:1}25%{opacity:.5}75%{opacity:.3}}@keyframes tree1{0%,100%{transform:rotate(0)}50%{transform:rotate(1.5deg)}}@keyframes tree2{0%,100%{transform:rotate(0)}50%{transform:rotate(-1.5deg)}}@keyframes meg1{0%{transform:translateX(-200px)}70%,98%{transform:translateX(400px)}100%,99%{transform:translateX(400px);opacity:0}}@keyframes meg2{0%,30%{transform:translateX(-300px)}98%{transform:translateX(300px)}100%,99%{transform:translateX(300px);opacity:0}}@keyframes margin:3px {0% ,30% {transform :translate X (300px ) }98% {transform :translate X ( -300px ) }100% ,99% {transform :translate X ( -300px ) ;opacity :0 } };0%,30%{transform:translateX(300px)}98%{transform:translateX(-300px)}100%,99%{transform:translateX(-300px);opacity:0}</style><radialGradient id="radial-gradient" cx="-192.69" cy="499.46" r="23.13" gradientTransform="translate(294.22 -367.61)" gradientUnits="userSpaceOnUse"><stop offset="0" stop-color="#f2df35"/><stop offset="0.05" stop-color="#f1da34"/><stop offset="0.12" stop-color="#ec3"/><stop offset="0.18" stop-color="#e9b536"/><stop offset="0.25" stop-color="#e59642"/><stop offset="0.31" stop-color="#e17853"/><stop offset="0.49" stop-color="#da2271"/><stop offset="1" stop-color="#5e22cb"/></radialGradient><linearGradient id="linear-gradient" x1="-188.96" y1="181.64" x2="-224.49" y2="201.62" gradientTransform="matrix(1, 0, 0, -1, 294.22, 304.28)" gradientUnits="userSpaceOnUse"><stop offset="0" stop-color="#a5b3d5" stop-opacity="0"/><stop offset="0.31" stop-color="#93a0ba" stop-opacity="0.3"/><stop offset="0.76" stop-color="#7f8999" stop-opacity="0.76"/><stop offset="1" stop-color="#77808d"/></linearGradient><linearGradient id="linear-gradient-2" x1="-186.53" y1="172.25" x2="-186.53" y2="168.98" gradientTransform="matrix(1, 0, 0, -1, 294.22, 304.28)" gradientUnits="userSpaceOnUse"><stop offset="0" stop-color="#f2df35" stop-opacity="0"/><stop offset="0.31" stop-color="#e6a527" stop-opacity="0.3"/><stop offset="0.63" stop-color="#e0721b" stop-opacity="0.63"/><stop offset="0.87" stop-color="#dd5313" stop-opacity="0.87"/><stop offset="1" stop-color="#dc4711"/></linearGradient><linearGradient id="linear-gradient-3" x1="-187.7" y1="181.5" x2="-192.89" y2="186.69" gradientTransform="matrix(1, 0, 0, -1, 294.22, 304.28)" gradientUnits="userSpaceOnUse"><stop offset="0" stop-color="#733dae" stop-opacity="0"/><stop offset="1" stop-color="#733dae"/></linearGradient><linearGradient id="linear-gradient-4" x1="-182.61" y1="171.58" x2="-185.2" y2="183.79" xlink:href="#linear-gradient-3"/><linearGradient id="linear-gradient-5" x1="-181.63" y1="175.4" x2="-192.04" y2="185.81" xlink:href="#linear-gradient-3"/><linearGradient id="linear-gradient-6" x1="-180.86" y1="181.7" x2="-184.31" y2="185.14" xlink:href="#linear-gradient-3"/><linearGradient id="linear-gradient-7" x1="-182.35" y1="184.42" x2="-190.83" y2="175.93" gradientTransform="matrix(1, 0, 0, -1, 294.22, 304.28)" gradientUnits="userSpaceOnUse"><stop offset="0" stop-color="#733dae"/><stop offset="0.09" stop-color="#863790"/><stop offset="0.29" stop-color="#bc2a47"/><stop offset="0.39" stop-color="#d92322"/><stop offset="0.56" stop-color="#dd6838"/><stop offset="0.69" stop-color="#e49948"/><stop offset="0.75" stop-color="#e8ac4e"/><stop offset="0.78" stop-color="#eab558"/><stop offset="0.87" stop-color="#efc970"/><stop offset="0.94" stop-color="#f3d67f"/><stop offset="1" stop-color="#f4da83"/></linearGradient></defs><title>digital-marketing (1)</title><path class="cls-1" d="M166.43,159.5l-.37,3.2H167l-.12,2.25-1.55-.08V166l4.37,1.35a1.6,1.6,0,0,1,1.14,1.51v.7l-8.94-.6v-.7l.3-3.58h-1.73l.13-2.27h.83l.13-2.93H148.1l-1.44,6.15.5.1-.43,2.22-1.7-.34-.17,1,4.14,1.93a1.58,1.58,0,0,1,.93,1.46v.19l-.14.7L141,171.09l.15-.68.73-3.35-1.5-.3.43-2.23.68.13,1-5.12H26a.32.32,0,0,1-.18.12.36.36,0,0,1-.36-.13H18.4a1.24,1.24,0,0,1-.18-.22l-.28-.37-.28-.38L16.6,157.1l-.52-.78-2.23-3.72q-.33-.6-.63-1.2l-1.76-3.9-.34-.87v-.08l-.57-1.62a.69.69,0,0,0-.05-.13L10,143.26A.83.83,0,0,0,10,143q-.22-.82-.42-1.62l-.4-1.8-.2-1.06-.17-1.06a.33.33,0,0,1,0-.14c0-.25-.08-.5-.1-.76l-.13-1.16-.1-1.26v-.38c0-.43,0-.86-.06-1.3V129.5l.06-1.33V128a12.3,12.3,0,0,1,.12-1.35l.15-1.3a4.58,4.58,0,0,1,.07-.55v-.2a.65.65,0,0,1,.06-.32l.17-1L9.27,122q.08-.41.18-.78l.2-.78.22-.82.38-1.25.3-.9.2-.56.36-1v-.07l.5-1.2.48-1.1.15-.33.48-1L14,109.88l.68-1.1a.86.86,0,0,0,.1-.16l1.05-1.56c.36-.56.7-1,1.05-1.42l.08-.1,1.14-1.4,1.36-1.5,1.37-1.4,1.42-1.32,1.53-1.3,1.6-1.24L27,96.22h0l1.7-1.1a.1.1,0,0,0,.08-.05L30.73,94l1.8-.94,2-.94,1.8-.76.22-.1.26-.1,2-.73L41,89.7l2.12-.6,2.18-.55,2-.43.57-.1,2-.35,4.8-.86L56,86.55l1.85-.4,2.47-.6,1.37-.35a2,2,0,0,0,.53-.15l.53-.13,2.2-.63,2.7-.84,1.93-.64,3-1.06,6.37-2.62a96.16,96.16,0,0,0,13.92-7.67,66.31,66.31,0,0,0,11.28-9.25l.3-.33a96.68,96.68,0,0,1,22.72-18.52c11.8-6.93,27.36-12.5,44.78-9.67,27.28,4.45,29.65,18,32.2,32.76l.24,1.45.24,1.34.27,1.46a59,59,0,0,0,3.48,12.36,34.66,34.66,0,0,0,3,5.56,33.22,33.22,0,0,0,4.16,5.16,29.74,29.74,0,0,0,2.3,2.15,43.62,43.62,0,0,0,4.92,3.63c19.12,12.1,34.42,40.56,24.5,60Z" transform="translate(0.04 0.04)"/><path class="cls-1" d="M61.58,85.2l-1.37.35,1.37-.37a4.56,4.56,0,0,0,.53-.13C61.94,85.11,61.76,85.15,61.58,85.2Zm43.12,74.58H18.58a2.47,2.47,0,0,1-.21-.27h7.07a.36.36,0,0,0,.36.13.32.32,0,0,0,.18-.12H104.3Z" transform="translate(0.04 0.04)"/><g id="b-tree"><path class="cls-2" d="M24,146.64c-.36,0-9.54-.76-10.24-9.25s5.06-10.8,3.2-20.22-6-12,2.82-19.22c0,0,3.93-2.92,4-6.83.07-4.68,8-10.37,13.47-7.43s4.4,7.8,0,15.74.14,9.16,1.1,11.65,3.13,5.07-1.4,11.25,1.35,13.35-2.48,19.25a15.54,15.54,0,0,1-10.49,5.06Z" transform="translate(0.04 0.04)"/><path class="cls-3" d="M31.52,118.8a.4.4,0,0,0,.1-.54.37.37,0,0,0-.53-.11h0c-.18.12-3.92,2.61-6.09,4.39a.13.13,0,0,0,0-.06,201.17,201.17,0,0,1,4.2-25.21s0,0,0,0a.39.39,0,0,0-.26-.49.4.4,0,0,0-.47.28c0,.15-1.48,6-2.83,14.6v0a49.88,49.88,0,0,1-2.74-7.47.39.39,0,0,0-.75.18h0A52.84,52.84,0,0,0,25.41,113s0,0,.05,0c-.47,3.11-.91,6.55-1.27,10.19v.24a145.38,145.38,0,0,0-.56,23.14,82.61,82.61,0,0,0,1.74,12.72.43.43,0,0,0,.46.3.32.32,0,0,0,.18-.12.41.41,0,0,0,.09-.34,81.89,81.89,0,0,1-1.72-12.57,144.8,144.8,0,0,1,.55-23C26.91,121.87,31.47,118.84,31.52,118.8Z" transform="translate(0.04 0.04)"/></g><path class="cls-1 meg1" d="M82.63,11.3c-6.42.08-8.25,2.9-12.95,6.62-3,2.34-5.83,2.34-6.76,1.94a23.42,23.42,0,0,0-2.41-.92C50,15.72,46.66,20.09,43.78,22.57a55.88,55.88,0,0,0-4.2,4.37l73-.34c-2-.7-11.77-2.18-15.47-3.7C91.29,20.52,90.11,11.2,82.63,11.3Z" transform="translate(0.04 0.04)"/><path class="cls-1 meg3" d="M260.09,66.28c-1.47-1.26-3.15-3.5-8.55-1.85-.42.13-.82.3-1.23.47a4,4,0,0,1-3.45-1c-2.4-1.9-3.34-3.34-6.62-3.4-3.83,0-4.43,4.7-7.4,5.93-1.9.78-6.88,1.55-7.9,1.9l37.28.17A27.91,27.91,0,0,0,260.09,66.28Z" transform="translate(0.04 0.04)"/><path class="cls-1 meg2" d="M203.41,7.85h0c-.4-.14-1.32-.32-2.48-.55A40.15,40.15,0,0,1,195.52,6a7,7,0,0,1-2.71-2.69C191.69,1.72,190.41,0,188,0h-.07c-2.85,0-4.06,1.07-5.72,2.5l-1.2,1a3.58,3.58,0,0,1-3,.92,11.64,11.64,0,0,0-1.28-.49c-5.14-1.57-7.14.25-8.6,1.57-.13.13-.28.26-.42.38a28,28,0,0,0-2.2,2.29.51.51,0,0,0-.08.54.5.5,0,0,0,.46.29l37.3-.17a.5.5,0,0,0,.49-.42A.49.49,0,0,0,203.41,7.85ZM167.07,8l1.34-1.35c.15-.12.3-.26.45-.4a5.87,5.87,0,0,1,4.36-1.91,11.06,11.06,0,0,1,3.27.56,12,12,0,0,1,1.18.45,4.4,4.4,0,0,0,4-1.06l1.23-1C184.46,2,185.5,1.07,188,1H188c1.9,0,2.92,1.4,4,2.9a7.75,7.75,0,0,0,3.14,3,24.89,24.89,0,0,0,3.48,1Z" transform="translate(0.04 0.04)"/><path class="cls-4 star__" d="M231.22,125.07l-.38-1.1-.38,1.1a3.85,3.85,0,0,1-2.09,2.21,3.86,3.86,0,0,1,2.12,2.1l.38,1.1.35-1.1a3.76,3.76,0,0,1,2.15-2.1A3.78,3.78,0,0,1,231.22,125.07ZM48.16,100.67l-.38-1.1-.38,1.1a3.83,3.83,0,0,1-2.12,2.15A3.85,3.85,0,0,1,47.4,105l.38,1.1.38-1.1a3.85,3.85,0,0,1,2.12-2.16A3.83,3.83,0,0,1,48.16,100.67ZM174.8,45l-.64-1.83L173.52,45A6.41,6.41,0,0,1,170,48.57a6.4,6.4,0,0,1,3.55,3.61l.64,1.83.64-1.83a6.4,6.4,0,0,1,3.55-3.61A6.41,6.41,0,0,1,174.8,45Z" transform="translate(0.04 0.04)"/><rect class="cls-5" x="61.62" y="43.38" width="92.41" height="115.98" rx="4.98"/><rect class="cls-4" x="64.89" y="48.57" width="86.04" height="97.9" rx="4.24"/><path class="cls-6" d="M107.78,148.9a4.22,4.22,0,1,0,4.22,4.22,4.22,4.22,0,0,0-4.22-4.22Zm0,7.44a3.22,3.22,0,0,1-3.22-3.22h0a3.23,3.23,0,0,1,3.24-3.22,3.22,3.22,0,0,1,0,6.44Z" transform="translate(0.04 0.04)"/><path class="cls-7" d="M177.9,102.1a2.68,2.68,0,0,0,3.78.31h0a2.7,2.7,0,1,0-3.47-4.13h0a2.7,2.7,0,0,0-.36,3.79l0,0Z" transform="translate(0.04 0.04)"/><path class="cls-7" d="M167,110.46a1.79,1.79,0,0,1-.93-.26l-11-6.42L157,100.6l10,5.87,11.26-6.62L180.1,103,168,110.2a1.81,1.81,0,0,1-1,.26Z" transform="translate(0.04 0.04)"/><path class="cls-8" d="M163.44,102.7l-3.5,5.6-4.73-3.47a2.8,2.8,0,0,1-.65-3.91l.07-.09a2.8,2.8,0,0,1,3.44-.8Z" transform="translate(0.04 0.04)"/><path id="I" class="cls-5" d="M215.5,73.5v69a4.27,4.27,0,0,1-4.27,4.27h-34a4.28,4.28,0,0,1-4.28-4.27v-69a4.28,4.28,0,0,1,4.28-4.27h5.64a3.5,3.5,0,0,0,3.49,3.19h15.48a3.5,3.5,0,0,0,3.49-3.19h5.9a4.27,4.27,0,0,1,4.28,4.26Z" transform="translate(0.04 0.04)"/><path class="cls-4" d="M215.5,73.5v69a4.27,4.27,0,0,1-4.27,4.27h-34a4.28,4.28,0,0,1-4.28-4.27v-69a4.28,4.28,0,0,1,4.28-4.27h5.64a3.5,3.5,0,0,0,3.49,3.19h15.48a3.5,3.5,0,0,0,3.49-3.19h5.9a4.27,4.27,0,0,1,4.28,4.26Z" transform="translate(0.04 0.04)"/><path class="cls-5" d="M212.87,66.43h-37.2a4.92,4.92,0,0,0-4.92,4.92V154.6a4.91,4.91,0,0,0,4.91,4.91h37.21a4.92,4.92,0,0,0,4.93-4.91h0V71.35A4.93,4.93,0,0,0,212.87,66.43Zm2.63,76.06a4.27,4.27,0,0,1-4.27,4.27h-34a4.28,4.28,0,0,1-4.28-4.27v-69a4.28,4.28,0,0,1,4.28-4.27h5.64a3.5,3.5,0,0,0,3.49,3.19h15.48a3.5,3.5,0,0,0,3.49-3.19h5.9a4.27,4.27,0,0,1,4.27,4.27h0Z" transform="translate(0.04 0.04)"/><path class="cls-6" d="M194.27,149.22a4.18,4.18,0,1,0,4.18,4.18A4.18,4.18,0,0,0,194.27,149.22Zm0,7.36a3.18,3.18,0,1,1,3.19-3.18A3.2,3.2,0,0,1,194.27,156.58Z" transform="translate(0.04 0.04)"/><g id="s-tree"><path class="cls-9" d="M47.85,148.47c-.36.28-3.58-5.56-4.33-13,0,0-.37-3.65,3.1-1.8,0,0-3.6-16,6-14.78a5,5,0,0,1,3.54,1.62c1.28,1.4,2,3.68.47,6.94-3,6.53-5.7,9.07-4.4,12.53s.82,4.46-4.4,8.48Z" transform="translate(0.04 0.04)"/><path class="cls-3" d="M48.78,158.87a.36.36,0,0,0,.28-.42c-2.2-10.73,1-28.8,1.36-29.6a.32.32,0,0,0-.06-.46l0,0a.37.37,0,0,0-.5.09c-.65.9-3.6,19.73-1.47,30.14a.36.36,0,0,0,.41.28Z" transform="translate(0.04 0.04)"/></g><path class="cls-10" d="M262.46,159.52a.25.25,0,0,1-.24.26H.22a.25.25,0,0,1-.26-.24v0a.25.25,0,0,1,.26-.24h262A.26.26,0,0,1,262.46,159.52Z" transform="translate(0.04 0.04)"/><rect class="cls-11" x="72.48" y="62.25" width="70.61" height="43.65" rx="2.12"/><path class="cls-12" d="M117.84,117.28a3.81,3.81,0,0,0-3.39-3.39,63.18,63.18,0,0,0-13.47,0,3.81,3.81,0,0,0-3.39,3.39,63.18,63.18,0,0,0,0,13.47,3.81,3.81,0,0,0,3.39,3.39,63.18,63.18,0,0,0,13.47,0,3.81,3.81,0,0,0,3.39-3.4A63.09,63.09,0,0,0,117.84,117.28Z" transform="translate(0.04 0.04)"/><path class="cls-13" d="M116.7,118a3.38,3.38,0,0,0-3-3,55.51,55.51,0,0,0-12,0,3.38,3.38,0,0,0-3,3,56,56,0,0,0,0,12,3.38,3.38,0,0,0,3,3,55.51,55.51,0,0,0,12,0,3.38,3.38,0,0,0,3-3A56,56,0,0,0,116.7,118Z" transform="translate(0.04 0.04)"/><path class="cls-14" d="M97.54,130.28a1.24,1.24,0,0,0,0,.43A3.81,3.81,0,0,0,101,134.1a63.18,63.18,0,0,0,13.47,0,3.81,3.81,0,0,0,3.39-3.36v-.43Z" transform="translate(0.04 0.04)"/><path class="cls-15" d="M117.84,130.74a62.48,62.48,0,0,0,.38-7.24l-4.8-4.8a3.48,3.48,0,0,0-2.51-1.15c-2.11-.07-4.23-.07-6.34,0a3.38,3.38,0,0,0-3.3,3l-.14.92v5.1a4.71,4.71,0,0,0,.08.5,3.7,3.7,0,0,0,1.19,2.57l4.88,4.88a61.44,61.44,0,0,0,7.18-.36,3.81,3.81,0,0,0,3.37-3.41Z" transform="translate(0.04 0.04)"/><path class="cls-16" d="M117.84,130.74a3.81,3.81,0,0,1-3.39,3.39,61.44,61.44,0,0,1-7.18.36l-4.87-4.87a3.44,3.44,0,0,0,2.16.83h6.34a3.39,3.39,0,0,0,3.32-3.4q.11-3,0-6.1a3.62,3.62,0,0,0-.85-2.25l4.85,4.8a62.48,62.48,0,0,1-.38,7.24Z" transform="translate(0.04 0.04)"/><path class="cls-17" d="M110.22,121.74a3.35,3.35,0,0,0-5.83,2.25v0a3.36,3.36,0,0,0,1.08,2.47l7.75,7.8,1.23-.12a3.81,3.81,0,0,0,3.39-3.42q.07-.6.12-1.23Z" transform="translate(0.04 0.04)"/><path class="cls-18" d="M118.16,126.28,111.91,120a.8.8,0,0,0-1.44.48h0a.81.81,0,0,0,.32.64l7.26,7.26.1-2.12Z" transform="translate(0.04 0.04)"/><path class="cls-19" d="M101.12,121.46a4.88,4.88,0,0,1,.14-.92,3.38,3.38,0,0,1,3.3-3h6.34a3.4,3.4,0,0,1,3.32,3.42q.11,3,0,6.1a3.39,3.39,0,0,1-3.35,3.4q-3.18.12-6.35,0a3.44,3.44,0,0,1-3.3-3.41,1.12,1.12,0,0,0-.08-.5Zm6.6,7.82h2.9a2.36,2.36,0,0,0,2.48-2.23v-5.9a2.35,2.35,0,0,0-2.21-2.48,1.22,1.22,0,0,0-.27,0h-5.77a2.34,2.34,0,0,0-2.48,2.19v.25q-.08,2.86,0,5.73a2.35,2.35,0,0,0,2.25,2.44h.23C105.81,129.34,106.75,129.28,107.72,129.28Z" transform="translate(0.04 0.04)"/><path class="cls-4" d="M101.12,121.46a4.88,4.88,0,0,1,.14-.92,3.38,3.38,0,0,1,3.3-3h6.34a3.4,3.4,0,0,1,3.32,3.42q.11,3,0,6.1a3.39,3.39,0,0,1-3.35,3.4q-3.18.12-6.35,0a3.44,3.44,0,0,1-3.3-3.41,1.12,1.12,0,0,0-.08-.5Zm6.6,7.82h2.9a2.36,2.36,0,0,0,2.48-2.23v-5.9a2.35,2.35,0,0,0-2.21-2.48,1.22,1.22,0,0,0-.27,0h-5.77a2.34,2.34,0,0,0-2.48,2.19v.25q-.08,2.86,0,5.73a2.35,2.35,0,0,0,2.25,2.44h.23C105.81,129.34,106.75,129.28,107.72,129.28Zm0-8.63a3.35,3.35,0,0,0-3.36,3.34v0a3.35,3.35,0,0,0,3.36,3.36h0a3.36,3.36,0,1,0,0-6.72Zm0,5.56a2.21,2.21,0,1,1,2.2-2.22v0A2.22,2.22,0,0,1,107.72,126.21Zm4.35-5.7a.8.8,0,0,1-1.6,0,.83.83,0,0,1,.23-.57.8.8,0,0,1,1.37.57Z" transform="translate(0.04 0.04)"/><rect class="cls-20" x="122.64" y="113.83" width="20.45" height="20.45" rx="2.12"/><path class="cls-4" d="M139.5,120.14a5.09,5.09,0,0,1-1.48.41,2.57,2.57,0,0,0,1.13-1.42,5,5,0,0,1-1.62.62,2.55,2.55,0,0,0-4.42,1.75,2.86,2.86,0,0,0,.06.58,7.23,7.23,0,0,1-5.27-2.67,2.54,2.54,0,0,0,.79,3.41,2.34,2.34,0,0,1-1.16-.31,2.58,2.58,0,0,0,2,2.51,3,3,0,0,1-.67.08,1.93,1.93,0,0,1-.48,0,2.59,2.59,0,0,0,2.38,1.78A5.09,5.09,0,0,1,127.6,128a3.11,3.11,0,0,1-.61,0,7.31,7.31,0,0,0,11.24-6v-.52a5.18,5.18,0,0,0,1.27-1.33Z" transform="translate(0.04 0.04)"/><rect class="cls-21" x="72.48" y="113.83" width="20.45" height="20.45" rx="1.82"/><path class="cls-4" d="M84.22,126.87a.54.54,0,0,0,0-.22.22.22,0,0,0-.22-.15.38.38,0,0,0-.3.11.18.18,0,0,0-.05.07v2.48a.5.5,0,0,0,.25.15c.18,0,.3,0,.33-.2a.29.29,0,0,0,0-.13c0-.69,0-1.4,0-2.12Zm0,0a.54.54,0,0,0,0-.22.22.22,0,0,0-.22-.15.38.38,0,0,0-.3.11.18.18,0,0,0-.05.07v2.48a.5.5,0,0,0,.25.15c.18,0,.3,0,.33-.2a.29.29,0,0,0,0-.13c0-.69,0-1.4,0-2.12Zm2.7-3.65c-2.87-.07-5.73-.07-8.6,0a1.82,1.82,0,0,0-1.78,1.83v4.48a1.83,1.83,0,0,0,1.78,1.83c2.87.07,5.73.07,8.6,0a1.85,1.85,0,0,0,1.79-1.83v-4.48A1.81,1.81,0,0,0,87,123.22Zm-7.7,6.7H78.4v-4.65h-.86v-.8h2.54v.8h-.86Zm3-1.94v1.94h-.73v-.44l0,.06a1.35,1.35,0,0,1-.57.4.65.65,0,0,1-.34,0,.42.42,0,0,1-.33-.27,1,1,0,0,1-.08-.42V125.9h.73v3.17a.18.18,0,0,0,.18.16l.07,0a.82.82,0,0,0,.36-.28v-3.07h.73Zm2.8,1.56a.61.61,0,0,1-.62.44.82.82,0,0,1-.63-.29l-.07-.07v.3H83v-5.45h.73v1.8a.83.83,0,0,1,.08-.12.79.79,0,0,1,.42-.27.63.63,0,0,1,.76.35,1.42,1.42,0,0,1,.12.61v2.3a1.48,1.48,0,0,1-.12.41Zm2.7-.16a.91.91,0,0,1-.78.64,1.28,1.28,0,0,1-.7-.07,1,1,0,0,1-.55-.71,1.77,1.77,0,0,1,0-.46V127a1.21,1.21,0,0,1,.29-.84,1.1,1.1,0,0,1,.92-.35,1.7,1.7,0,0,1,.31.06.86.86,0,0,1,.61.72,2.67,2.67,0,0,1,0,.4v1h-1.4v1a.33.33,0,0,0,.66,0v-.54h.75a3.86,3.86,0,0,1-.16.9Zm-.67-2.56a.33.33,0,0,0-.33-.33h0a.34.34,0,0,0-.29.34v.55h.66Zm-2.83-.18a.22.22,0,0,0-.22-.15.38.38,0,0,0-.3.11.18.18,0,0,0,0,.07v2.48a.5.5,0,0,0,.25.15c.18,0,.3,0,.33-.2a.29.29,0,0,0,0-.13v-2.16a.55.55,0,0,0,0-.18Zm1.86-8.6v4h-.75v-.42l-.23.23a.92.92,0,0,1-.47.24.47.47,0,0,1-.6-.29v0a.76.76,0,0,1,0-.3V118h.75v3.2a.17.17,0,0,0,.15.17l.08,0a.71.71,0,0,0,.36-.28.09.09,0,0,0,0-.07v-3h.75Zm-6.2.7-.5-2.14h-.86l1,3.14a.21.21,0,0,1,0,.11v2.22h.78v-2.22a.21.21,0,0,1,0-.11l1-3.14h-.86c0,.06-.34,1.47-.5,2.14Zm2.35-.8a1.07,1.07,0,0,0-1,1.08v2.1a1,1,0,1,0,2.07,0V119a1.07,1.07,0,0,0-1.06-1.08Zm.3,3.22a.31.31,0,0,1-.31.31h0a.31.31,0,0,1-.27-.32V119a.31.31,0,0,1,.27-.32.3.3,0,0,1,.35.25v2.23Z" transform="translate(0.04 0.04)"/><rect class="cls-11" x="177.24" y="107" width="34.14" height="27.75" rx="1.95"/><rect class="cls-21" x="177.24" y="95.04" width="34.14" height="7.43" rx="1.95"/><rect class="cls-22" x="177.24" y="83.08" width="34.14" height="7.43" rx="1.95"/><path class="cls-23" d="M159.38,126.52l1.2,4.82L146,132l.37-6,13,.5Z" transform="translate(0.04 0.04)"/><path class="cls-23" d="M168.34,142.8,166,163.18l-4.75,1.53h0l.1-2.26.13-2.93.77-16.4-9.5-13.45,1.22-.34,5.7-1.57,8.64,15Z" transform="translate(0.04 0.04)"/><path class="cls-24" d="M154.18,131.68l3.2-.3-1.43,2.8-1.76-2.5Z" transform="translate(0.04 0.04)"/><path class="cls-23" d="M152.77,129.68l-.17,2-1.14,13.23-3.37,14.4,0,.2-1.92,8.2-1.12-.23-3.13-.65-.85-.17.4-2,4.06-20.33.6-13.17,6.68-1.46Z" transform="translate(0.04 0.04)"/><path class="cls-25" d="M170.8,168.94l-8.94-.6.3-3.58v-.33l.05-.6,1.47.1,1.67.1v2l4.37,1.35a1.6,1.6,0,0,1,1.09,1.51Z" transform="translate(0.04 0.04)"/><path class="cls-26" d="M170.8,168.94l-.05.7-8.94-.6.05-.7Z" transform="translate(0.04 0.04)"/><path class="cls-25" d="M149.9,172v.19l-8.77-1.8.73-3.36v-.2l.2-.87,3.1.64-.15.88v.15l-.17,1,4.14,1.93a1.58,1.58,0,0,1,.94,1.44Z" transform="translate(0.04 0.04)"/><path class="cls-26" d="M149.88,172.2l-.14.7L141,171.08l.15-.68Z" transform="translate(0.04 0.04)"/><path class="cls-27" d="M167,162.76l-.12,2.25-1.55-.08-3.18-.18-.88,0h0l-.85-.05.13-2.26.83,0,5.63.3Zm-19.9,3-.43,2.2-1.7-.33-3.15-.6-1.5-.3.43-2.22.68.13,5.67,1.12Z" transform="translate(0.04 0.04)"/><path class="cls-28" d="M149.68,100.15c-2.17,1.6-3.3,5.74-3.65,10l-1.22,16.54a22.11,22.11,0,0,0,15.27-.56V105.6c0-1.94-1.35-6.22-4.13-6.15a6.41,6.41,0,0,0-6.27.71Z" transform="translate(0.04 0.04)"/><path class="cls-29" d="M151.4,100.9h4.1l.06-8.85-4.1,0-.06,8.85Z" transform="translate(0.04 0.04)"/><path class="cls-7" d="M156.46,98.35a5,5,0,0,0,5.06-4.94v-.06l.06-6.24-10-.1v6.24a5,5,0,0,0,4.88,5.09Z" transform="translate(0.04 0.04)"/><path class="cls-30" d="M151.55,91.63H153a.62.62,0,0,0,.64-.6.49.49,0,0,0,0-.12c-.17-1-.36-2.8.32-3,1-.3,6,1.14,7.82-.15,2.5-1.82.77-4.85-1.44-5s-1.93,2.4-4.5,2.3-6.48-1.17-4.92,5.7Z" transform="translate(0.04 0.04)"/><path class="cls-30" d="M161.72,93.48s-.45,0-1.34-.84-3.07-.87-4.48.37-2.38-2.73-2.38-2.73l-.74,1.22s.34,1.9-1.44,1.94c0,0,.37,5.67,6,5A5.44,5.44,0,0,0,161.72,93.48Z" transform="translate(0.04 0.04)"/><path class="cls-7" d="M149.78,91.88a1.58,1.58,0,0,0,1.56,1.6h0a1.58,1.58,0,0,0,1.59-1.57h0a1.57,1.57,0,0,0-1.51-1.63h0a1.57,1.57,0,0,0-1.59,1.55Z" transform="translate(0.04 0.04)"/><path class="cls-29" d="M151.4,99.2l3.36,2.46.73-2.48-4.1,0Z" transform="translate(0.04 0.04)"/><path class="cls-31" d="M154.76,101.66l-3.36,1.17V99.2Zm0,0,1.67.84-.94-3.32Z" transform="translate(0.04 0.04)"/><path class="cls-7" d="M174.14,105.75a2.88,2.88,0,0,0,4.06.33h0a2.87,2.87,0,0,0,.33-4h0a2.88,2.88,0,0,0-4.39,3.72Z" transform="translate(0.04 0.04)"/><path class="cls-7" d="M162.5,114.68a2,2,0,0,1-1-.27l-11.73-6.87,2-3.4,10.73,6.3,11.94-7.1,2,3.4-12.93,7.7a2,2,0,0,1-1,.27Z" transform="translate(0.04 0.04)"/><path class="cls-31" d="M158.67,106.37l-3.73,5.9-5.1-3.68a3,3,0,0,1-.66-4.19.21.21,0,0,1,0-.06,3,3,0,0,1,3.69-.85Z" transform="translate(0.04 0.04)"/><path class="cls-32" d="M102.36,86.53,102,89.76a.62.62,0,0,1-.61.54H97.9v10H93.54v-10h-2.6a.63.63,0,0,1-.61-.61V86.44a.61.61,0,0,1,.6-.62h2.61V82.7c0-3.6,2.2-5.6,5.44-5.6h2.65a.62.62,0,0,1,.61.62v2.72a.61.61,0,0,1-.61.61H100c-1.76,0-2.1.84-2.1,2.06v2.7h3.86a.62.62,0,0,1,.6.64s0,0,0,.07Z" transform="translate(0.04 0.04)"/><path class="cls-22" d="M107.68,76.07V96.54a3.77,3.77,0,0,1-3.78,3.74h-6v-10h3.46a.62.62,0,0,0,.61-.54l.38-3.23a.63.63,0,0,0-.55-.69H97.88v-2.7c0-1.22.34-2.06,2.1-2.06h1.63a.61.61,0,0,0,.61-.61h0V77.73a.62.62,0,0,0-.61-.62H99c-3.23,0-5.44,2-5.44,5.6v3.12h-2.6a.61.61,0,0,0-.61.61h0v3.23a.63.63,0,0,0,.61.61h2.6v10H83.42a3.77,3.77,0,0,1-3.77-3.77h0V76.07a3.77,3.77,0,0,1,3.75-3.79h20.5a3.78,3.78,0,0,1,3.78,3.78Z" transform="translate(0.04 0.04)"/><path class="cls-33" d="M184.48,112H203.8a1.9,1.9,0,0,1,1.9,1.9v13.8a1.92,1.92,0,0,1-1.91,1.91H184.47a1.9,1.9,0,0,1-1.9-1.9V114a1.92,1.92,0,0,1,1.88-1.94h0Z" transform="translate(0.04 0.04)"/><path class="cls-34" d="M185.13,118.85a4.35,4.35,0,1,0,1.28-3.1A4.38,4.38,0,0,0,185.13,118.85Z" transform="translate(0.04 0.04)"/><path class="cls-4" d="M182.57,126.34v1.38a1.9,1.9,0,0,0,1.89,1.91h19.32a1.92,1.92,0,0,0,1.91-1.91h0v-1.38l-6.9-6.88-4.68,4.67-4.68-4.67ZM130.1,78.64h-11a1,1,0,1,1,0-2h11a1,1,0,1,1,0,2Z" transform="translate(0.04 0.04)"/><path id="J" class="cls-4" d="M137.42,86.28H119.14a1,1,0,0,1,0-2h18.28a1,1,0,0,1,0,2Z" transform="translate(0.04 0.04)"/><path class="cls-4" d="M137.42,93.7H119.14a1,1,0,0,1,0-2h18.28a1,1,0,0,1,0,2Z" transform="translate(0.04 0.04)"/></svg>