<svg id="ae05d2e8-5206-456e-a647-2d7fd4068f02" data-name="Layer 1" xmlns="http://www.w3.org/2000/svg" viewBox="0 0 261.89 187.43"><defs><style>.a848033a-cbba-49f3-b724-54755728b374{fill:#ffece4;}.bdd5fcf9-5659-4094-884d-214e904404f7{fill:#ffcebd;}.edd8b353-cc8f-41ac-ae9c-c27505f7ded3{fill:#df7383;}.f9a6ed9a-a788-4e9c-ba63-9dbb1bf19f36{fill:#dfb48f;}.a072b415-0b7c-45f0-8694-faf220076f12{fill:#e5be9c;}.b50d1862-a81b-4876-a36b-fdb958a37ffc{fill:#282c3c;}.fc68b67d-50e1-4dfd-9e9b-0f111bf42cd2{fill:#fff;}.a77b4a72-92dc-4d46-b924-8b6d3f84ba97{fill:#f9784b;}.b0a41043-6e56-4def-82e6-c8a297ce438b{fill:#722617;}.a238c092-4179-4375-9847-2c319d3f98a3{fill:#1d2738;}.aab0113e-4403-47e1-b7fc-43a7b2c1eb66,.b342b176-f955-4fd9-8ea7-9af26abbdea9{fill:#c8c8c8;}.aab0113e-4403-47e1-b7fc-43a7b2c1eb66{opacity:0.23;}.aab0113e-4403-47e1-b7fc-43a7b2c1eb66,.b342b176-f955-4fd9-8ea7-9af26abbdea9,.f95a77ee-3975-4094-a938-e66222f25d40{isolation:isolate;}.a3f5915f-19db-4276-9baf-c2312f6f457d{fill:#efd1c7;}.ff1b623f-6dc3-4080-9d74-ce64e9b1c392{fill:#fcdbd0;}.bf3d9182-a72d-43d6-a20d-9757bc97695d{fill:#f9cec2;}.bfcc8c3f-2be4-4ac8-b449-7a5cb59403b4{fill:#8b94c8;}.f5b4b097-1c3e-4acc-aec7-0b370e87ecc6{fill:#f2f2f2;}.bed89aeb-2be5-4ae6-9f12-bbae901d6c8c{fill:#ecedfd;}.ec713b87-8d29-4727-8a1b-ab57d1d524f8{fill:#93b7fa;}.e26cbe3f-bd44-4d0c-9748-e17e90c7bdb7{fill:#8992c6;}.bda641fb-c123-4d3f-bb50-c29de45e6d03{fill:#95b9fc;}.b7c4781c-314e-41cd-9c31-ab5f1ba47acc{fill:#583bf9;}.ecb88cf4-7e82-473a-9f2c-d4d52219fa0f{fill:#3d415b;}.f95a77ee-3975-4094-a938-e66222f25d40{fill:#cacaca;}.b342b176-f955-4fd9-8ea7-9af26abbdea9,.f95a77ee-3975-4094-a938-e66222f25d40{opacity:0.44;}.fea6599f-695d-4215-a50f-5d88d9aa2b8a{fill:#29323d;}.a079f1aa-d021-4d9f-bbad-9cc4a118f57f{fill:#c9cdea;}.a8252527-4d06-4e75-8e43-cc2ad5bfda28{fill:#535975;}.ad22ebbf-b123-4db5-84d3-fc96a69ec9ad{fill:#7d6ef4;}.e0998d34-329f-41e2-8270-923bad16c77b{fill:#e2b176;}.e1f40a9f-fe77-4477-a99c-948bb2afd0e4{fill:#d1657b;}.bc08f393-75e8-4dc7-a76e-985c1e524796{fill:#583bf7;}.e6331302-42f0-4dd2-9857-e424640eb86f{fill:#6d67c6;}.a6f17f4b-c4ff-4805-99f7-cb5224768211{fill:#2e3343;}g#_____hand__{transform-origin:left;transform-box:fill-box;animation:hand___ 2s ease 0s infinite}.meg__1{transform:translateX(-14pc);animation:meg__1 16s linear 0s infinite}.meg__2{transform:translateX(14pc);animation:meg__2 16s linear 0s infinite}.settings{transform-origin:center;transform-box:fill-box;animation:setitings___ 2s linear 0s infinite;transform:rotate(0)}g#tree___{transform-box:fill-box;transform-origin:bottom;animation:tree___ 5s ease 0s infinite}@keyframes hand___{0%,100%,50%{transform:rotate(0)}25%{transform:rotate(12deg)}75%{transform:rotate(9deg)}}@keyframes tree___{0%,100%,50%{transform:skew(0deg,0deg)}25%{transform:skew(-7deg,6deg)}75%{transform:skew(-7deg,0deg)}}@keyframes meg__1{0%{transform:translateX(-14pc);opacity:1}80%{transform:translateX(20pc)}82%{transform:translateX(20pc);opacity:0}100%,85%{transform:translateX(-14pc);opacity:0}}@keyframes meg__2{0%{transform:translateX(14pc);opacity:1}80%{transform:translateX(-20pc)}82%{transform:translateX(-20pc);opacity:0}100%,85%{transform:translateX(14pc);opacity:0}}@keyframes setitings___{0%{transform:rotate(0)}100%{transform:rotate(360deg)}}</style></defs><path class="a848033a-cbba-49f3-b724-54755728b374" d="M238.34,148.75c32.59-29.56,27.78-77.26,5.37-89s-47.17-6.06-55.47,10.43-26.46,22.33-26.46,22.33-21.87,10.76-52.93.53S58,87.25,45.49,102.58c-10.1,12.38-15,37.07,4.69,54.2H228.07A92.65,92.65,0,0,0,238.34,148.75Z" transform="translate(-0.03 -0.02)"/><path class="bdd5fcf9-5659-4094-884d-214e904404f7" d="M189.84,114.26c-26.59,22.44-19.28,34.73-5,42.51H50.24C30.56,139.64,35.45,115,45.55,102.58,58,87.26,77.84,82.82,108.91,93s52.93-.53,52.93-.53,13.24-4.25,22.26-15.75C197.65,87.13,206.15,100.49,189.84,114.26Z" transform="translate(-0.03 -0.02)"/><path class="bdd5fcf9-5659-4094-884d-214e904404f7" d="M189.84,114.26c-26.59,22.44-19.28,34.73-5,42.51H50.24C30.56,139.64,35.45,115,45.55,102.58,58,87.26,77.84,82.82,108.91,93s52.93-.53,52.93-.53,13.24-4.25,22.26-15.75C197.65,87.13,206.15,100.49,189.84,114.26Z" transform="translate(-0.03 -0.02)"/><path class="edd8b353-cc8f-41ac-ae9c-c27505f7ded3" d="M149.16,38.07s-5,1.33-4,6.3l1.4,3.65,26.14-.49-5-9.2a7.42,7.42,0,0,0-7.45-3.84L153,35.4Z" transform="translate(-0.03 -0.02)"/><path class="f9a6ed9a-a788-4e9c-ba63-9dbb1bf19f36" d="M155.51,38.64h0a1.87,1.87,0,0,1-2.52-.75l-3-5.48,3.29-1.76,3,5.44a1.88,1.88,0,0,1-.75,2.54Z" transform="translate(-0.03 -0.02)"/><path class="a072b415-0b7c-45f0-8694-faf220076f12" d="M152,37.89h0a4.59,4.59,0,0,1-6.24-1.8h0l-2.76-5,8-4.45,2.76,5A4.59,4.59,0,0,1,152,37.89Z" transform="translate(-0.03 -0.02)"/><path class="b50d1862-a81b-4876-a36b-fdb958a37ffc" d="M152.37,31.38a1.89,1.89,0,0,1-1.92-1.62C150,28,147.7,28.5,147.7,28.5l2.18-2.33s3.45-1.31,3.47,3.43Z" transform="translate(-0.03 -0.02)"/><path class="b50d1862-a81b-4876-a36b-fdb958a37ffc" d="M150.24,28.63l-6,3.37a2.35,2.35,0,0,1-2.57-.16c-.88-.67-1.33-1.64-.62-3.44,1-2.66,2-.73,2-.73s6.4-5.26,7.48-.34Z" transform="translate(-0.03 -0.02)"/><circle class="a072b415-0b7c-45f0-8694-faf220076f12" cx="153.26" cy="30.46" r="1.44"/><path class="fc68b67d-50e1-4dfd-9e9b-0f111bf42cd2" d="M147.84,36.5,151,34.65s.59,1.3-1.2,2.2C148.42,37.55,147.84,36.5,147.84,36.5Z" transform="translate(-0.03 -0.02)"/><path class="a848033a-cbba-49f3-b724-54755728b374 meg__1" d="M63.67,14a49.71,49.71,0,0,1,3.78-3.9C70,7.91,73,4,82.45,6.88a20.84,20.84,0,0,1,2.16.82c.84.35,3.42.36,6.07-1.74C94.89,2.62,96.53.1,102.29,0c6.71-.09,7.77,8.27,13,10.41,3.32,1.36,12.07,2.71,13.88,3.32Z" transform="translate(-0.03 -0.02)"/><g id="tree___" data-name="tree___"><path class="a77b4a72-92dc-4d46-b924-8b6d3f84ba97" d="M244.08,142.94c.49.42,5.48-7.66,7.06-18.17,0,0,.77-5.16-4.28-2.76,0,0,6.2-22.45-7.46-21.42-2.35.18-3.71.64-5.13,2-1.92,1.91-3.08,5.09-1.16,9.84,3.86,9.49,7.46,13.28,5.37,18.11S237,136.85,244.08,142.94Z" transform="translate(-0.03 -0.02)"/><path class="b0a41043-6e56-4def-82e6-c8a297ce438b" d="M242,157.65a.52.52,0,0,1-.36-.61c3.88-15.11.63-41,.11-42.18a.5.5,0,0,1,.15-.68h0a.52.52,0,0,1,.7.16c.86,1.34,3.76,28.29,0,42.95A.51.51,0,0,1,242,157.65Z" transform="translate(-0.03 -0.02)"/></g><path class="a238c092-4179-4375-9847-2c319d3f98a3" d="M261.65,157.18H.24A.21.21,0,0,1,0,157H0a.21.21,0,0,1,.2-.22H261.65a.21.21,0,0,1,.26.17.22.22,0,0,1-.17.26Z" transform="translate(-0.03 -0.02)"/><path class="bdd5fcf9-5659-4094-884d-214e904404f7" d="M138.74,166.53h11.52a.58.58,0,0,1,.57.57h0v12.35a.47.47,0,0,1-.46.46H138.63a.47.47,0,0,1-.46-.46h0V167.1a.58.58,0,0,1,.57-.57Z" transform="translate(-0.03 -0.02)"/><path class="b0a41043-6e56-4def-82e6-c8a297ce438b" d="M147.4,169.62h3.43v7.43H147.4a3.59,3.59,0,0,1-3.59-3.59v-.25A3.59,3.59,0,0,1,147.4,169.62Z" transform="translate(-0.03 -0.02)"/><path class="b0a41043-6e56-4def-82e6-c8a297ce438b" d="M138.17,177.54a.3.3,0,0,1-.18-.06,3.64,3.64,0,0,1-1.65-3c0-2.95,3.75-5.83,3.91-5.95a.31.31,0,0,1,.42.06.3.3,0,0,1,0,.41h0s-3.68,2.81-3.68,5.47a3.06,3.06,0,0,0,1.42,2.47.3.3,0,0,1,.06.42h0A.31.31,0,0,1,138.17,177.54Z" transform="translate(-0.03 -0.02)"/><path class="a848033a-cbba-49f3-b724-54755728b374 meg__2" d="M176.35,22.13a.47.47,0,0,1-.35-.78,20.91,20.91,0,0,1,2-2l.38-.34c1.3-1.18,3.08-2.81,7.68-1.4a9.2,9.2,0,0,1,1.14.43,3.15,3.15,0,0,0,2.6-.82c.4-.31.75-.61,1.07-.89a6.74,6.74,0,0,1,5.07-2.2c2.19,0,3.35,1.56,4.36,3a6.23,6.23,0,0,0,2.4,2.35,34.45,34.45,0,0,0,4.81,1.18c1,.21,1.84.37,2.21.5a.47.47,0,0,1,.31.51.45.45,0,0,1-.46.39l-33.22.16ZM182.84,18a5.19,5.19,0,0,0-3.87,1.7l-.4.35c-.34.3-.79.77-1.17,1.17l27.84-.06a18.42,18.42,0,0,1-2.93-.81,7.08,7.08,0,0,1-2.81-2.67c-.95-1.32-1.85-2.57-3.54-2.57h-.05c-2.21,0-3.08.77-4.51,2-.34.28-.7.59-1.1.91a4,4,0,0,1-3.55,1,9.47,9.47,0,0,0-1.05-.4,10,10,0,0,0-2.86-.58Z" transform="translate(-0.03 -0.02)"/><path class="a77b4a72-92dc-4d46-b924-8b6d3f84ba97" d="M55.79,49.3A11.37,11.37,0,0,0,47,30.65H39a11.39,11.39,0,0,0,0,22.77h8a11.37,11.37,0,0,0,5.08-1.21l5.7,3.12Z" transform="translate(-0.03 -0.02)"/><path class="fc68b67d-50e1-4dfd-9e9b-0f111bf42cd2 settings" d="M48.94,40.32H47.7a5.09,5.09,0,0,0-.4-1l.87-.87a.63.63,0,0,0,0-.88l-1-1a.62.62,0,0,0-.87,0l-.88.88a4.54,4.54,0,0,0-1-.4V35.81a.62.62,0,0,0-.62-.62H42.33a.62.62,0,0,0-.62.62h0v1.24a5.09,5.09,0,0,0-1,.4l-.87-.88a.63.63,0,0,0-.88,0l-1,1a.63.63,0,0,0,0,.88l.88.87a5.09,5.09,0,0,0-.4,1H37.2a.62.62,0,0,0-.62.62h0v1.47a.62.62,0,0,0,.62.62h1.24a4.54,4.54,0,0,0,.4,1l-.88.88a.62.62,0,0,0,0,.87l1,1a.61.61,0,0,0,.86,0l0,0,.87-.87a5.09,5.09,0,0,0,1,.4v1.24a.62.62,0,0,0,.62.62H43.8a.62.62,0,0,0,.62-.62V46.31a4.54,4.54,0,0,0,1-.4l.88.87a.6.6,0,0,0,.85,0l0,0,1-1a.62.62,0,0,0,0-.87L47.3,44a5.09,5.09,0,0,0,.4-1h1.24a.62.62,0,0,0,.62-.62V40.94A.62.62,0,0,0,48.94,40.32Zm-5.88,4a2.6,2.6,0,1,1,2.59-2.61v0a2.59,2.59,0,0,1-2.59,2.54Z" transform="translate(-0.03 -0.02)"/><rect class="a848033a-cbba-49f3-b724-54755728b374" x="123.16" y="136.55" width="23.44" height="14.71"/><path class="aab0113e-4403-47e1-b7fc-43a7b2c1eb66" d="M151.14,151.26H116.78a5.58,5.58,0,0,0-5.54,5.57h45.51a5.57,5.57,0,0,0-5.57-5.57Z" transform="translate(-0.03 -0.02)"/><rect class="a3f5915f-19db-4276-9baf-c2312f6f457d" x="174.59" y="44.65" width="28.2" height="92.89" rx="8.55"/><rect class="ff1b623f-6dc3-4080-9d74-ce64e9b1c392" x="65.24" y="44.65" width="132.69" height="92.89" rx="8.55"/><rect class="fc68b67d-50e1-4dfd-9e9b-0f111bf42cd2" x="74.67" y="53.53" width="114.19" height="72.28"/><rect class="bf3d9182-a72d-43d6-a20d-9757bc97695d" x="74.67" y="53.53" width="1.39" height="72.28"/><path class="bfcc8c3f-2be4-4ac8-b449-7a5cb59403b4" d="M133.59,135.38a3.9,3.9,0,1,1,3.9-3.9h0A3.91,3.91,0,0,1,133.59,135.38Zm0-7.08a3.19,3.19,0,1,0,3.19,3.19h0A3.19,3.19,0,0,0,133.59,128.3Z" transform="translate(-0.03 -0.02)"/><polygon class="aab0113e-4403-47e1-b7fc-43a7b2c1eb66" points="123.16 137.54 146.6 151.26 146.6 137.54 123.16 137.54"/><rect class="f5b4b097-1c3e-4acc-aec7-0b370e87ecc6" x="82.02" y="61.6" width="49.57" height="17.29" rx="1.71"/><path class="bed89aeb-2be5-4ae6-9f12-bbae901d6c8c" d="M115.64,87.58H83.45a1.4,1.4,0,0,1-1.4-1.4h0a1.4,1.4,0,0,1,1.4-1.4h32.19a1.4,1.4,0,0,1,1.4,1.4h0A1.4,1.4,0,0,1,115.64,87.58Z" transform="translate(-0.03 -0.02)"/><path class="bed89aeb-2be5-4ae6-9f12-bbae901d6c8c" d="M104.62,93.84H83.45a1.4,1.4,0,0,1-1.4-1.4h0a1.4,1.4,0,0,1,1.4-1.4h21.17a1.39,1.39,0,0,1,1.4,1.38v0h0A1.4,1.4,0,0,1,104.62,93.84Z" transform="translate(-0.03 -0.02)"/><path class="bed89aeb-2be5-4ae6-9f12-bbae901d6c8c" d="M104.62,100.4H83.45A1.42,1.42,0,0,1,82.05,99h0a1.4,1.4,0,0,1,1.4-1.4h21.17A1.4,1.4,0,0,1,106,99h0a1.4,1.4,0,0,1-1.39,1.41Z" transform="translate(-0.03 -0.02)"/><rect class="f5b4b097-1c3e-4acc-aec7-0b370e87ecc6" x="138.52" y="61.6" width="43.51" height="55.84" rx="2.01"/><circle class="ec713b87-8d29-4727-8a1b-ab57d1d524f8" cx="90.87" cy="70.38" r="5.32"/><path class="e26cbe3f-bd44-4d0c-9748-e17e90c7bdb7" d="M124.71,68.7H102a.32.32,0,0,1-.32-.32h0a.32.32,0,0,1,.31-.33h22.7a.33.33,0,0,1,.32.33.32.32,0,0,1-.32.32Z" transform="translate(-0.03 -0.02)"/><path class="e26cbe3f-bd44-4d0c-9748-e17e90c7bdb7" d="M124.71,72.74H102a.32.32,0,0,1-.32-.32h0a.32.32,0,0,1,.32-.32h22.69a.32.32,0,0,1,.32.32h0A.33.33,0,0,1,124.71,72.74Z" transform="translate(-0.03 -0.02)"/><path class="fc68b67d-50e1-4dfd-9e9b-0f111bf42cd2" d="M162.76,101.41H145.55a1.11,1.11,0,0,1,0-2.22h17.21a1.11,1.11,0,1,1,0,2.22Z" transform="translate(-0.03 -0.02)"/><path class="fc68b67d-50e1-4dfd-9e9b-0f111bf42cd2" d="M174.24,108H145.55a1.11,1.11,0,0,1,0-2.21h28.69a1.11,1.11,0,0,1,0,2.21Z" transform="translate(-0.03 -0.02)"/><path class="bda641fb-c123-4d3f-bb50-c29de45e6d03" d="M144.36,71.49V90a2.56,2.56,0,0,0,2.56,2.56h25.9A2.56,2.56,0,0,0,175.38,90V71.49a2.56,2.56,0,0,0-2.56-2.55h-25.9A2.56,2.56,0,0,0,144.36,71.49Z" transform="translate(-0.03 -0.02)"/><path class="b7c4781c-314e-41cd-9c31-ab5f1ba47acc" d="M147.8,78.13a5.87,5.87,0,1,0,5.87-5.87h0a5.86,5.86,0,0,0-5.86,5.86Z" transform="translate(-0.03 -0.02)"/><path class="fc68b67d-50e1-4dfd-9e9b-0f111bf42cd2" d="M144.36,88.13V90a2.56,2.56,0,0,0,2.56,2.56h25.9A2.56,2.56,0,0,0,175.38,90V88.13l-9.24-9.24-6.27,6.28-6.28-6.28Z" transform="translate(-0.03 -0.02)"/><path class="b7c4781c-314e-41cd-9c31-ab5f1ba47acc" d="M30.4,103.53l-.44.12a5,5,0,0,0-3.62,4l-1.19,17.16c7.11,2.55,15.21-1.91,15.21-1.91l-.21-15.46a3.66,3.66,0,0,0-2.9-3.86h0Z" transform="translate(-0.03 -0.02)"/><polygon class="ecb88cf4-7e82-473a-9f2c-d4d52219fa0f" points="39.88 128.08 40.98 132.43 27.84 133.13 28.28 127.68 39.88 128.08"/><polygon class="ecb88cf4-7e82-473a-9f2c-d4d52219fa0f" points="34.49 130.91 39.88 143.82 41.94 163.32 46.24 161.93 45.37 143.52 40.68 131.26 34.49 130.91"/><polygon class="f95a77ee-3975-4094-a938-e66222f25d40" points="35.24 132.73 38.06 132.46 36.26 135.15 35.24 132.73"/><polygon class="ecb88cf4-7e82-473a-9f2c-d4d52219fa0f" points="27.87 132.24 26.99 144.36 23.29 164.35 27.91 165.3 32.37 144.9 33.91 130.93 27.87 132.24"/><path class="fea6599f-695d-4215-a50f-5d88d9aa2b8a" d="M45.7,163.38l-2.52.29.37,3.62,7.17-.82h0a1.29,1.29,0,0,0-1.12-1L45.94,165Z" transform="translate(-0.03 -0.02)"/><rect class="a079f1aa-d021-4d9f-bbad-9cc4a118f57f" x="43.55" y="166.89" width="7.22" height="0.56" transform="translate(-18.59 6.37) rotate(-6.48)"/><path class="fea6599f-695d-4215-a50f-5d88d9aa2b8a" d="M26.6,164.81l-2.52-.33-.52,3.6,7.16,1h0a1.3,1.3,0,0,0-.84-1.28l-3.44-1.31Z" transform="translate(-0.03 -0.02)"/><rect class="a079f1aa-d021-4d9f-bbad-9cc4a118f57f" x="26.83" y="165.22" width="0.56" height="7.22" transform="matrix(0.13, -0.99, 0.99, 0.13, -143.84, 173.51)"/><rect class="a8252527-4d06-4e75-8e43-cc2ad5bfda28" x="41.5" y="161.69" width="5.85" height="2.04" transform="translate(-28.81 10.74) rotate(-10.45)"/><rect class="a8252527-4d06-4e75-8e43-cc2ad5bfda28" x="24.74" y="161.03" width="2.04" height="5.85" transform="translate(-140.12 157.68) rotate(-78.91)"/><polygon class="f9a6ed9a-a788-4e9c-ba63-9dbb1bf19f36" points="31.56 104.94 35.25 104.92 35.3 96.93 31.61 96.94 31.56 104.94"/><path class="a072b415-0b7c-45f0-8694-faf220076f12" d="M36.15,102.65h0a4.55,4.55,0,0,0,4.58-4.49l.05-5.64-9.07-.08v5.63A4.52,4.52,0,0,0,36.15,102.65Z" transform="translate(-0.03 -0.02)"/><path class="b50d1862-a81b-4876-a36b-fdb958a37ffc" d="M31.72,96.58H33a.56.56,0,0,0,.58-.54.41.41,0,0,0,0-.11c-.16-.93-.32-2.54.29-2.72.87-.26,5.46,1,7.06-.14a2.48,2.48,0,0,0-1.29-4.52c-2-.16-1.75,2.16-4.08,2.08s-5.85-1.06-4.45,5.15Z" transform="translate(-0.03 -0.02)"/><path class="b50d1862-a81b-4876-a36b-fdb958a37ffc" d="M40.91,98.24s-.41,0-1.21-.75a3.36,3.36,0,0,0-4,.33c-1.27,1.12-2.15-2.43-2.15-2.43l-.67,1.11s.3,1.72-1.3,1.74c0,0,.33,5.13,5.42,4.56A4.94,4.94,0,0,0,40.91,98.24Z" transform="translate(-0.03 -0.02)"/><path class="a072b415-0b7c-45f0-8694-faf220076f12" d="M30.12,96.81a1.43,1.43,0,0,0,2.85,0,1.43,1.43,0,0,0-2.85-.24A1,1,0,0,0,30.12,96.81Z" transform="translate(-0.03 -0.02)"/><polygon class="f9a6ed9a-a788-4e9c-ba63-9dbb1bf19f36" points="31.56 103.39 34.59 105.61 35.25 103.37 31.56 103.39"/><polygon class="ad22ebbf-b123-4db5-84d3-fc96a69ec9ad" points="34.59 105.61 31.56 106.67 31.56 103.39 34.59 105.61"/><polygon class="ad22ebbf-b123-4db5-84d3-fc96a69ec9ad" points="34.59 105.61 36.1 106.37 35.25 103.37 34.59 105.61"/><path class="a079f1aa-d021-4d9f-bbad-9cc4a118f57f" d="M11.24,113.65v13.84a2.32,2.32,0,0,0,2.32,2.32H51a2.32,2.32,0,0,0,2.32-2.32h0V113.65A2.32,2.32,0,0,0,51,111.33H13.61a2.32,2.32,0,0,0-2.37,2.27Z" transform="translate(-0.03 -0.02)"/><path class="bda641fb-c123-4d3f-bb50-c29de45e6d03" d="M11.24,113.65v1.29H53.29v-1.29A2.32,2.32,0,0,0,51,111.33H13.61a2.32,2.32,0,0,0-2.37,2.27Z" transform="translate(-0.03 -0.02)"/><path class="fc68b67d-50e1-4dfd-9e9b-0f111bf42cd2" d="M50.8,113.31a.47.47,0,0,0,.47.49h0a.5.5,0,0,0,0-1,.47.47,0,0,0-.48.48Z" transform="translate(-0.03 -0.02)"/><path class="fc68b67d-50e1-4dfd-9e9b-0f111bf42cd2" d="M48.85,113.31a.47.47,0,0,0,.47.49h0a.5.5,0,0,0,0-1,.47.47,0,0,0-.48.48Z" transform="translate(-0.03 -0.02)"/><path class="fc68b67d-50e1-4dfd-9e9b-0f111bf42cd2" d="M46.89,113.31a.49.49,0,1,0,.49-.49.49.49,0,0,0-.49.49Z" transform="translate(-0.03 -0.02)"/><rect class="fc68b67d-50e1-4dfd-9e9b-0f111bf42cd2" x="14.34" y="117.08" width="22.97" height="6.77" rx="0.67"/><path class="fc68b67d-50e1-4dfd-9e9b-0f111bf42cd2" d="M14.88,127H44.24a.51.51,0,0,0,.51-.51h0a.51.51,0,0,0-.51-.51H14.88a.51.51,0,0,0-.52.5h0a.52.52,0,0,0,.52.52Z" transform="translate(-0.03 -0.02)"/><path class="e0998d34-329f-41e2-8270-923bad16c77b" d="M27.24,127.35a2.3,2.3,0,1,0,3.15.83h0A2.3,2.3,0,0,0,27.24,127.35Z" transform="translate(-0.03 -0.02)"/><path class="e0998d34-329f-41e2-8270-923bad16c77b" d="M25.45,126.66l1.21,2.06a1.13,1.13,0,0,0,1.56.42h0a1.15,1.15,0,0,0,.41-1.56l-1.21-2.06a1.14,1.14,0,0,0-1.55-.41h0A1.15,1.15,0,0,0,25.45,126.66Z" transform="translate(-0.03 -0.02)"/><path class="b7c4781c-314e-41cd-9c31-ab5f1ba47acc" d="M25.24,128.21l3.83-1.91-5.25-10.55,6.8-7.89a2.13,2.13,0,0,0-.31-3h0a2.12,2.12,0,0,0-3,.29l0,0-7.68,9a2.14,2.14,0,0,0-.26,2.3Z" transform="translate(-0.03 -0.02)"/><path class="fc68b67d-50e1-4dfd-9e9b-0f111bf42cd2" d="M58,102l-.33-1-.34,1a3.39,3.39,0,0,1-1.87,1.9h0a3.36,3.36,0,0,1,1.87,1.9l.34,1,.33-1a3.39,3.39,0,0,1,1.87-1.9h0A3.39,3.39,0,0,1,58,102Z" transform="translate(-0.03 -0.02)"/><path class="fc68b67d-50e1-4dfd-9e9b-0f111bf42cd2" d="M233,74.05l-.57-1.61-.56,1.61a5.61,5.61,0,0,1-3.13,3.19h0a5.61,5.61,0,0,1,3.13,3.19l.56,1.61.57-1.61a5.61,5.61,0,0,1,3.13-3.19h0A5.61,5.61,0,0,1,233,74.05Z" transform="translate(-0.03 -0.02)"/><path class="e1f40a9f-fe77-4477-a99c-948bb2afd0e4" d="M100,148.85l-7.67-8.62a2.45,2.45,0,0,1-.17-2.72l7-10.09,4.22,2.47-6.16,8.67,6.68,7.31Z" transform="translate(-0.03 -0.02)"/><polygon class="f9a6ed9a-a788-4e9c-ba63-9dbb1bf19f36" points="103.45 126.53 107.34 126.49 107.16 119.05 103.31 119.1 103.45 126.53"/><path class="a072b415-0b7c-45f0-8694-faf220076f12" d="M106.35,123.7h0a4.33,4.33,0,0,0,4.28-4.38h0l-.07-5.38-8.66.11.07,5.38a4.33,4.33,0,0,0,4.38,4.28Z" transform="translate(-0.03 -0.02)"/><path class="b50d1862-a81b-4876-a36b-fdb958a37ffc" d="M108,116.82l0,4a2.79,2.79,0,0,1-2.67,2.9h-.78a4.88,4.88,0,0,1-4.79-5V115.2l8.14-.11Z" transform="translate(-0.03 -0.02)"/><path class="b50d1862-a81b-4876-a36b-fdb958a37ffc" d="M107.64,116.33a18,18,0,0,0,3.28-.18c1.6-.33,2.18-3.49.91-4.52l-.18-.13c-1.51-1-3.49,1.19-3.45,1.32S107.64,116.33,107.64,116.33Z" transform="translate(-0.03 -0.02)"/><path class="b50d1862-a81b-4876-a36b-fdb958a37ffc" d="M109.65,113.58s-3.46-3-7.35-1.06c0,0-1.28.31-2.5,2.65l7.65,1.75Z" transform="translate(-0.03 -0.02)"/><path class="a072b415-0b7c-45f0-8694-faf220076f12" d="M106.71,118.87a1.27,1.27,0,1,0,1.26-1.28h0a1.25,1.25,0,0,0-1.25,1.27Z" transform="translate(-0.03 -0.02)"/><path class="a072b415-0b7c-45f0-8694-faf220076f12" d="M110.08,119.38h.63a.63.63,0,0,0,.63-.63h0a.63.63,0,0,0-.63-.63h-.63Z" transform="translate(-0.03 -0.02)"/><path class="edd8b353-cc8f-41ac-ae9c-c27505f7ded3" d="M108.32,126.07h-6.24c-3.11,0-4.18,2.57-3.64,5.32l1.17,6.68.55,6.32h11.21l1.15-13.83C112.55,128.13,111.65,126.07,108.32,126.07Z" transform="translate(-0.03 -0.02)"/><path class="bc08f393-75e8-4dc7-a76e-985c1e524796" d="M111.37,144.39l4.06,20.7.06,17.58-2.89.09-2.63-17L104.57,151l.32,15.13-4.37,16.72h-3l2.31-16.72L98,153.24s-.46-5.7,2.14-8.8Z" transform="translate(-0.03 -0.02)"/><rect class="bc08f393-75e8-4dc7-a76e-985c1e524796" x="101.61" y="148.78" width="5.28" height="4.01"/><polygon class="a072b415-0b7c-45f0-8694-faf220076f12" points="115.47 182.66 115.6 185.13 112.93 185.13 112.57 182.74 115.47 182.66"/><polygon class="a072b415-0b7c-45f0-8694-faf220076f12" points="100.49 182.78 99.99 185.39 97.16 185.3 97.53 182.78 100.49 182.78"/><path class="b342b176-f955-4fd9-8ea7-9af26abbdea9" d="M104.52,152.82h-2.89s2.65,2.92,3.1,5.84Z" transform="translate(-0.03 -0.02)"/><path class="fea6599f-695d-4215-a50f-5d88d9aa2b8a" d="M115.47,185.13h1.77a2.15,2.15,0,0,1,2.37,1.53l.13.79h-7a3,3,0,0,1,.18-2.32Z" transform="translate(-0.03 -0.02)"/><path class="fea6599f-695d-4215-a50f-5d88d9aa2b8a" d="M99.68,185.13h1.75a2.13,2.13,0,0,1,2.36,1.53l.13.79h-7a3,3,0,0,1,.18-2.32Z" transform="translate(-0.03 -0.02)"/><g id="_____hand__" data-name="_____hand__"><path class="a079f1aa-d021-4d9f-bbad-9cc4a118f57f" d="M127.24,114.13l-1.41-3a1,1,0,0,0-1-.55l-4.59.55a1.55,1.55,0,0,1-1.62-1l-.7-1.73a1.58,1.58,0,0,1,.69-2l1-.57.26.52-1,.56a1,1,0,0,0-.44,1.22l.7,1.73a1,1,0,0,0,1,.61l4.57-.52a1.57,1.57,0,0,1,1.58.88l1.39,2.94Z" transform="translate(-0.03 -0.02)"/><path class="e6331302-42f0-4dd2-9857-e424640eb86f" d="M127.24,101.32l-8.13,3.29a.94.94,0,0,0-.53,1.22l0,0,.63,1.38a.94.94,0,0,0,1.19.49l8.21-3.1a1,1,0,0,0,.53-1.27l-.7-1.56A1,1,0,0,0,127.24,101.32Z" transform="translate(-0.03 -0.02)"/><path class="bfcc8c3f-2be4-4ac8-b449-7a5cb59403b4" d="M126.84,112.61h0a.92.92,0,0,0-.46,1.11l1.73,5a1.37,1.37,0,0,0,1.75.86,1.12,1.12,0,0,0,.25-.11h0a1.37,1.37,0,0,0,.54-1.86v0l-2.59-4.6A.9.9,0,0,0,126.84,112.61Z" transform="translate(-0.03 -0.02)"/><path class="a072b415-0b7c-45f0-8694-faf220076f12" d="M127.1,118.22a2.24,2.24,0,1,0-.23-3.16,2.24,2.24,0,0,0,.23,3.16Z" transform="translate(-0.03 -0.02)"/><path class="a072b415-0b7c-45f0-8694-faf220076f12" d="M127,120l1.53-1.75a1.12,1.12,0,0,0-.12-1.56h0a1.11,1.11,0,0,0-1.56.11l-1.52,1.76a1.11,1.11,0,0,0,.11,1.56h0A1.12,1.12,0,0,0,127,120Z" transform="translate(-0.03 -0.02)"/><path class="edd8b353-cc8f-41ac-ae9c-c27505f7ded3" d="M108.29,131l-.42-4.87,10.4-.9,6.48-7.63,3.73,3.17-7.14,8.4a2.41,2.41,0,0,1-1.65.85Z" transform="translate(-0.03 -0.02)"/></g><polygon class="b342b176-f955-4fd9-8ea7-9af26abbdea9" points="112.49 130.64 109.64 130.82 111.96 136.88 112.49 130.64"/><path class="edd8b353-cc8f-41ac-ae9c-c27505f7ded3" d="M101.72,114.51a1.79,1.79,0,1,1-1.8-1.78h0A1.78,1.78,0,0,1,101.72,114.51Z" transform="translate(-0.03 -0.02)"/><path class="a6f17f4b-c4ff-4805-99f7-cb5224768211" d="M100.47,113.73s-3.92-2.46-5.38,2.74c-1.36,4.87,2.53,10.75,3.28,15.2a1.08,1.08,0,0,0,1.07.89h4.25a1.09,1.09,0,0,0,1.09-1.09v-.09c-.15-2.08-1.22-6.09-4.4-11,0,0-3.39-4.62.07-5.21C100.45,115.18,101.24,114.3,100.47,113.73Z" transform="translate(-0.03 -0.02)"/><path class="bfcc8c3f-2be4-4ac8-b449-7a5cb59403b4" d="M235.37,173.07a.81.81,0,0,1-.79-.56L208.87,68.6a.71.71,0,0,1,.56-.83h.06a.82.82,0,0,1,1,.54l25.72,103.91a.71.71,0,0,1-.58.83h0Z" transform="translate(-0.03 -0.02)"/><path class="bfcc8c3f-2be4-4ac8-b449-7a5cb59403b4" d="M216.53,173.07a.81.81,0,0,1-.79-.56L189.93,68.6a.71.71,0,0,1,.58-.83h0a.82.82,0,0,1,1,.54l25.82,103.91a.71.71,0,0,1-.58.83h0Z" transform="translate(-0.03 -0.02)"/><path class="bfcc8c3f-2be4-4ac8-b449-7a5cb59403b4" d="M211,74.71H192.1a.71.71,0,1,1-.17-1.41H211a.71.71,0,1,1,.17,1.41.49.49,0,0,1-.17,0Z" transform="translate(-0.03 -0.02)"/><path class="bfcc8c3f-2be4-4ac8-b449-7a5cb59403b4" d="M213.09,83H194.16a.71.71,0,1,1-.17-1.41.49.49,0,0,1,.17,0h18.93a.71.71,0,1,1,.17,1.41A.49.49,0,0,1,213.09,83Z" transform="translate(-0.03 -0.02)"/><path class="bfcc8c3f-2be4-4ac8-b449-7a5cb59403b4" d="M215.16,91.33H196.24a.71.71,0,1,1-.17-1.41.49.49,0,0,1,.17,0h18.93a.75.75,0,0,1,.81.7A.77.77,0,0,1,215.16,91.33Z" transform="translate(-0.03 -0.02)"/><path class="bfcc8c3f-2be4-4ac8-b449-7a5cb59403b4" d="M217.24,99.64h-19a.71.71,0,1,1-.17-1.41.49.49,0,0,1,.17,0h19a.71.71,0,0,1,.17,1.41A.49.49,0,0,1,217.24,99.64Z" transform="translate(-0.03 -0.02)"/><path class="bfcc8c3f-2be4-4ac8-b449-7a5cb59403b4" d="M219.24,108H200.35a.71.71,0,1,1-.17-1.41.49.49,0,0,1,.17,0h18.89a.71.71,0,0,1,.17,1.41Z" transform="translate(-0.03 -0.02)"/><path class="bfcc8c3f-2be4-4ac8-b449-7a5cb59403b4" d="M221.34,116.26H202.41a.72.72,0,0,1-.24-1.42,1,1,0,0,1,.24,0h18.93a.72.72,0,1,1,.24,1.42Z" transform="translate(-0.03 -0.02)"/><path class="bfcc8c3f-2be4-4ac8-b449-7a5cb59403b4" d="M223.4,124.57H204.47a.77.77,0,0,1-.81-.71.75.75,0,0,1,.81-.7H223.4a.71.71,0,0,1,.17,1.41A.49.49,0,0,1,223.4,124.57Z" transform="translate(-0.03 -0.02)"/><path class="bfcc8c3f-2be4-4ac8-b449-7a5cb59403b4" d="M225.47,132.87H206.54a.71.71,0,1,1-.17-1.41.49.49,0,0,1,.17,0h18.93a.77.77,0,0,1,.81.71A.75.75,0,0,1,225.47,132.87Z" transform="translate(-0.03 -0.02)"/><path class="bfcc8c3f-2be4-4ac8-b449-7a5cb59403b4" d="M227.53,141.18H208.6a.71.71,0,1,1-.17-1.41.49.49,0,0,1,.17,0h18.93a.71.71,0,0,1,.17,1.41Z" transform="translate(-0.03 -0.02)"/><path class="bfcc8c3f-2be4-4ac8-b449-7a5cb59403b4" d="M229.59,149.49H210.66a.71.71,0,0,1-.17-1.41.49.49,0,0,1,.17,0h18.93a.71.71,0,1,1,.17,1.41Z" transform="translate(-0.03 -0.02)"/><path class="bfcc8c3f-2be4-4ac8-b449-7a5cb59403b4" d="M231.65,157.8H212.72a.71.71,0,0,1-.17-1.41h19.1a.71.71,0,0,1,.17,1.41Z" transform="translate(-0.03 -0.02)"/><path class="fea6599f-695d-4215-a50f-5d88d9aa2b8a" d="M205.24,126.87l3.18-.58,1.42,5.22-9.06.56-.13-.7a1.62,1.62,0,0,1,1-1.67l4.3-.77Z" transform="translate(-0.03 -0.02)"/><polygon class="f9a6ed9a-a788-4e9c-ba63-9dbb1bf19f36" points="217.56 83.28 213.74 83.26 213.68 74.98 217.5 75 217.56 83.28"/><path class="a072b415-0b7c-45f0-8694-faf220076f12" d="M212.85,80.91h0a4.71,4.71,0,0,1-4.74-4.66l-.05-5.84,9.39-.08.06,5.84A4.71,4.71,0,0,1,212.85,80.91Z" transform="translate(-0.03 -0.02)"/><path class="b50d1862-a81b-4876-a36b-fdb958a37ffc" d="M217.45,74.62h-1.34a.58.58,0,0,1-.6-.54.57.57,0,0,1,0-.13c.16-1,.33-2.63-.3-2.82-.9-.27-5.66,1.07-7.32-.14a2.58,2.58,0,0,1,1.34-4.66c2.07-.16,1.81,2.24,4.23,2.15s6.06-1.09,4.6,5.34Z" transform="translate(-0.03 -0.02)"/><path class="a072b415-0b7c-45f0-8694-faf220076f12" d="M219.11,74.85a1.48,1.48,0,1,1-1.5-1.46h0A1.48,1.48,0,0,1,219.11,74.85Z" transform="translate(-0.03 -0.02)"/><path class="fea6599f-695d-4215-a50f-5d88d9aa2b8a" d="M224,136l3.21-.45,1.59,5.51-9.07.19-.1-.71a1.64,1.64,0,0,1,1.06-1.63l4.07-.56Z" transform="translate(-0.03 -0.02)"/><path class="ecb88cf4-7e82-473a-9f2c-d4d52219fa0f" d="M209.86,102l-9.14,2.83a2.73,2.73,0,0,0-2.23,3.14c0,.11,0,.21.08.32l5.72,19.32,5.47-.55-4.9-17.69,13.46-2.92a3.84,3.84,0,0,0,3.49-3.83V102Z" transform="translate(-0.03 -0.02)"/><polygon class="ecb88cf4-7e82-473a-9f2c-d4d52219fa0f" points="219.66 104.28 221.78 117.77 227.89 136.64 223.15 136.97 216.41 118.3 212.38 104.28 219.66 104.28"/><path class="b7c4781c-314e-41cd-9c31-ab5f1ba47acc" d="M213.48,82.44h0a5,5,0,0,0-4.73,5.25v.06L209.86,102l13.07.56-1.12-15.19a4.64,4.64,0,0,0-4.35-4.89Z" transform="translate(-0.03 -0.02)"/><path class="fc68b67d-50e1-4dfd-9e9b-0f111bf42cd2" d="M209.24,77.28h3.41s-.13,1.42-2,1.32a1.34,1.34,0,0,1-1.41-1.27Z" transform="translate(-0.03 -0.02)"/><path class="a072b415-0b7c-45f0-8694-faf220076f12" d="M185.42,89a2.74,2.74,0,1,1,.15-3.87h0a2.72,2.72,0,0,1-.14,3.86Z" transform="translate(-0.03 -0.02)"/><path class="a072b415-0b7c-45f0-8694-faf220076f12" d="M201.8,94.05a2,2,0,0,1-.55-.07l-17.77-5,1.1-3.88,17.07,4.82,12-5.27,1.62,3.68L202.55,93.9A1.93,1.93,0,0,1,201.8,94.05Z" transform="translate(-0.03 -0.02)"/><path class="ad22ebbf-b123-4db5-84d3-fc96a69ec9ad" d="M206.44,86.13l3.07,6.47,5.59-3.12a3,3,0,0,0,1.23-4.06l-.1-.17h0a3,3,0,0,0-3.62-1.3Z" transform="translate(-0.03 -0.02)"/><path class="b50d1862-a81b-4876-a36b-fdb958a37ffc" d="M208.75,76.19a1.78,1.78,0,1,1,1.78-1.78h0A1.78,1.78,0,0,1,208.75,76.19Zm0-3.08a1.31,1.31,0,1,0,1.31,1.31h0a1.32,1.32,0,0,0-1.31-1.28Z" transform="translate(-0.03 -0.02)"/><path class="b50d1862-a81b-4876-a36b-fdb958a37ffc" d="M212.56,76.19a1.78,1.78,0,1,1,1.77-1.79h0A1.78,1.78,0,0,1,212.56,76.19Zm0-3.08a1.31,1.31,0,1,0,1.3,1.32v0a1.31,1.31,0,0,0-1.3-1.28Z" transform="translate(-0.03 -0.02)"/><rect class="b50d1862-a81b-4876-a36b-fdb958a37ffc" x="210.12" y="73.52" width="0.92" height="0.47"/><rect class="b50d1862-a81b-4876-a36b-fdb958a37ffc" x="213.84" y="73.93" width="1.48" height="0.47"/><path class="a072b415-0b7c-45f0-8694-faf220076f12" d="M142.33,44.7s-.56-2-3.87-1.85-4.38,2.3-3.31,3.65,3.87.44,5.67-1.83Z" transform="translate(-0.03 -0.02)"/><path class="a072b415-0b7c-45f0-8694-faf220076f12" d="M165.24,44.7s-.56-2-3.87-1.85-4.38,2.3-3.31,3.65,3.87.44,5.67-1.83Z" transform="translate(-0.03 -0.02)"/></svg>