<svg id="design" xmlns="http://www.w3.org/2000/svg" xmlns:xlink="http://www.w3.org/1999/xlink" viewBox="0 0 550.66 570.62"><defs><style>.cls-1{fill:#fc9c86;}.cls-2{fill:#fadbd1;}.cls-3{fill:#f7c7ba;}.cls-4{clip-path:url(#clip-path);}.cls-5{fill:#f4d87e;}.cls-6{fill:#332f2d;}.cls-7{fill:#e2480c;}.cls-8{fill:#f3590f;}.cls-9{fill:#d1d3d4;}.cls-10{fill:#a7a9ac;}.cls-11{fill:#bcbec0;}.cls-12{fill:#f1f2f2;}.cls-13{fill:#1c1c1d;}.cls-14{fill:#a97c50;}.cls-15{fill:#f9b3a7;}.cls-16{fill:#4f413b;}.cls-17{fill:#f4d37e;}path{transform-box:fill-box}path#big-settings,path#m-settings{transform-origin:center;animation:setting__1_2 2s linear 0s infinite}path#s-settings{transform-origin:center;animation:setting__3 2s linear 0s infinite}g#zoom path{animation:zoom__ 4s ease 0s infinite;transform-origin:center}.chul____{transform-origin:left;animation:chul____ 2s ease 0s infinite}g#_1,g#_2,g#_3{transform-origin:bottom;animation:_____tree 3s ease 0s infinite}@keyframes setting__1_2{0%{transform:rotate(0)}100%{transform:rotate(360deg)}}@keyframes _____tree{0%,100%,50%{transform:rotate(0)}25%{transform:rotate(1deg)}75%{transform:rotate(-.8deg)}}@keyframes setting__3{0%{transform:rotate(0)}100%{transform:rotate(-360deg)}}@keyframes chul____{0%,100%{transform:rotate(0) skewY(0)}40%{transform:rotate(1deg) skewY(0)}70%{transform:rotate(1deg) skewY(-1deg)}}@keyframes zoom__{0%,100%,45%{transform:scale(.5)}25%{transform:scale(.3)}70%{transform:scale(.6)}90%{transform:scale(.4)}}</style><clipPath id="clip-path"><path class="cls-1" d="M429.22,375.8c-27.78,24-44.38,58.36-44.38,95.06H244.32c0-36.58-16.39-71-44.12-94.83a174.87,174.87,0,0,1-61.09-135.59C140.43,148.85,214.77,72,306.26,67.72a175.44,175.44,0,0,1,123,308.08ZM385.56,482.66h-142v22.06h142Zm0,35.56h-142a38.47,38.47,0,0,0,38.47,38.47h65A38.47,38.47,0,0,0,385.56,518.22Z"/></clipPath></defs><title>development copy</title><path class="cls-2" d="M548.25,338.65q-.43-54.37.82-109.06l.06-2.89c.58-32.4-1.55-65.18-11.15-92.82-5.23-15.07-12.68-28.61-23.11-39.73C488.92,66.53,462.34,53.7,431.3,55.32c-31.19,1.64-62.06,1.73-91.47-14-43.12-23.07-103.1-14.79-147,12.15C154.63,76.86,127,123.05,109.73,166.93,91.33,213.58,77.57,276.56,90.35,329c5.79,23.81,19.4,47.35,40,57.22,17.5,8.37,37.82,6.42,56.94,9.05,33.51,4.6,63.59,23.5,89.32,48.22,39.42,37.87,67.53,104.29,117.63,122.7,19.05,7,41.15,5.63,63-3.9,41.24-18,79.71-68.06,90.33-122.22C554,407.44,548.5,371,548.25,338.65Z"/><path id="big-settings" class="cls-3" d="M215.39,162.48h-13a86.57,86.57,0,0,0-9.78-23.62l9.17-9.18a7.78,7.78,0,0,0,0-11l-18.89-18.9a7.81,7.81,0,0,0-11,0l-9.17,9.18a86.72,86.72,0,0,0-23.62-9.79v-13a7.8,7.8,0,0,0-7.8-7.8H104.57a7.8,7.8,0,0,0-7.79,7.8v13a86.59,86.59,0,0,0-23.62,9.79L64,99.76a7.8,7.8,0,0,0-11,0l-18.9,18.9a7.8,7.8,0,0,0,0,11l9.18,9.18a86.26,86.26,0,0,0-9.78,23.62h-13a7.8,7.8,0,0,0-7.8,7.79V197a7.8,7.8,0,0,0,7.8,7.8h13a86.52,86.52,0,0,0,9.78,23.62l-9.18,9.17a7.81,7.81,0,0,0,0,11L53,267.5a7.78,7.78,0,0,0,11,0l9.18-9.17a86.57,86.57,0,0,0,23.62,9.78v13a7.79,7.79,0,0,0,7.79,7.79h26.72a7.8,7.8,0,0,0,7.8-7.79v-13a86.7,86.7,0,0,0,23.62-9.78l9.17,9.17a7.79,7.79,0,0,0,11,0l18.89-18.89a7.79,7.79,0,0,0,0-11l-9.17-9.17a86.83,86.83,0,0,0,9.78-23.62h13a7.8,7.8,0,0,0,7.79-7.8V170.27A7.79,7.79,0,0,0,215.39,162.48Zm-97.46,73.86a52.71,52.71,0,1,1,52.71-52.71A52.71,52.71,0,0,1,117.93,236.34Z"/><path id="m-settings" class="cls-2" d="M123.67,467.15h-5.1a33.89,33.89,0,0,0-3.85-9.28l3.61-3.61a3.05,3.05,0,0,0,0-4.33l-7.42-7.43a3.08,3.08,0,0,0-4.34,0l-3.6,3.61a34.2,34.2,0,0,0-9.28-3.85v-5.09a3.07,3.07,0,0,0-3.07-3.07H80.12a3.06,3.06,0,0,0-3.06,3.07v5.09a34.2,34.2,0,0,0-9.28,3.85l-3.61-3.61a3.07,3.07,0,0,0-4.33,0l-7.43,7.43a3.05,3.05,0,0,0,0,4.33L56,457.87a34.2,34.2,0,0,0-3.85,9.28h-5.1A3.06,3.06,0,0,0,44,470.21v10.5a3.06,3.06,0,0,0,3.06,3.07h5.1A34.2,34.2,0,0,0,56,493.06l-3.61,3.61a3.05,3.05,0,0,0,0,4.33l7.43,7.42a3.05,3.05,0,0,0,4.33,0l3.61-3.6a33.87,33.87,0,0,0,9.28,3.84v5.1a3.07,3.07,0,0,0,3.06,3.07h10.5a3.08,3.08,0,0,0,3.07-3.07v-5.1a33.87,33.87,0,0,0,9.28-3.84l3.6,3.6a3.07,3.07,0,0,0,4.34,0l7.42-7.42a3.05,3.05,0,0,0,0-4.33l-3.61-3.61a33.89,33.89,0,0,0,3.85-9.28h5.1a3.06,3.06,0,0,0,3.06-3.07v-10.5A3.06,3.06,0,0,0,123.67,467.15Zm-38.3,29a20.72,20.72,0,1,1,20.71-20.72A20.72,20.72,0,0,1,85.37,496.18Z"/><path id="s-settings" class="cls-2" d="M74.13,415.13H71a20.75,20.75,0,0,0-2.34-5.66l2.2-2.2a1.86,1.86,0,0,0,0-2.64l-4.53-4.52a1.86,1.86,0,0,0-2.64,0l-2.2,2.19A20.81,20.81,0,0,0,55.86,400v-3.11A1.87,1.87,0,0,0,54,395h-6.4a1.87,1.87,0,0,0-1.87,1.86V400a20.75,20.75,0,0,0-5.66,2.34l-2.19-2.19a1.86,1.86,0,0,0-2.64,0l-4.53,4.52a1.86,1.86,0,0,0,0,2.64l2.2,2.2a20.77,20.77,0,0,0-2.35,5.66h-3.1A1.87,1.87,0,0,0,25.58,417v6.4a1.87,1.87,0,0,0,1.87,1.87h3.1a20.77,20.77,0,0,0,2.35,5.66l-2.2,2.2a1.86,1.86,0,0,0,0,2.64l4.53,4.52a1.86,1.86,0,0,0,2.64,0l2.19-2.2a20.77,20.77,0,0,0,5.66,2.35v3.11a1.87,1.87,0,0,0,1.87,1.86H54a1.87,1.87,0,0,0,1.87-1.86v-3.11a20.84,20.84,0,0,0,5.65-2.35l2.2,2.2a1.86,1.86,0,0,0,2.64,0l4.53-4.52a1.86,1.86,0,0,0,0-2.64l-2.2-2.2A20.75,20.75,0,0,0,71,425.26h3.11A1.87,1.87,0,0,0,76,423.39V417A1.87,1.87,0,0,0,74.13,415.13ZM50.79,432.82a12.63,12.63,0,1,1,12.62-12.63A12.63,12.63,0,0,1,50.79,432.82Z"/><ellipse class="cls-3" cx="187.33" cy="540.61" rx="187.33" ry="21.9"/><path class="cls-1" d="M429.22,375.8c-27.78,24-44.38,58.36-44.38,95.06H244.32c0-36.58-16.39-71-44.12-94.83a174.87,174.87,0,0,1-61.09-135.59C140.43,148.85,214.77,72,306.26,67.72a175.44,175.44,0,0,1,123,308.08ZM385.56,482.66h-142v22.06h142Zm0,35.56h-142a38.47,38.47,0,0,0,38.47,38.47h65A38.47,38.47,0,0,0,385.56,518.22Z"/><g class="cls-4"><path class="cls-5" d="M375.32,369.12l8.18,11.38,5.15,1.81c1.92.67,4.45,3.71,3.76,5.62-3.55,9.78-15.17,36.23-18.11,40.05,0,0-3.92-3.27-2.49-6.6s3.5-28.37,3.5-28.37l-7.81-10.5Z"/><path class="cls-6" d="M394.42,387.06s-5.19-6.08-8.3-5.64a15.21,15.21,0,0,1,1.7,10c-1.54,4.74-5.37,20.22-13.94,16.86-1.47,5.3-3.41,15.94-2.59,21,0,0,2.75.64,4.33-1,0,0,5.84-8.14,7.82-11.25l9.82-24.16,7-.24,1.25-2.82Z"/><path class="cls-6" d="M401.91,272.1S324.17,286.36,314,291.6s-1.56,17.55,12.12,36.23,43.74,62,43.74,62l11.78-13.47-33.74-59.9s81,1.64,89-7.79,7.71-22.13,3.62-37.18Z"/><path class="cls-6" d="M339.8,115.74c-7.7-.18-25.63,31.29,25.54,49,17.47,6.05,50.87-1.38,57.76-10.52,0,0-27.7-60.26-57.12-57.33C341.42,99.33,339.8,115.74,339.8,115.74Z"/><path class="cls-5" d="M279.13,248l11.61-7.45L306,242.89l52.12-10.8,1.76,15.28-52,1.52-5.57,1.26a6.9,6.9,0,0,1-4.78-.66l-7-3.77-10.22,5.89Z"/><path class="cls-7" d="M373.47,165.67c-12,1.55-6.08,19.39-11.27,63.43l-50.8,8.52L314.15,250s55.06-.67,63.46-2.06C386.82,225.1,393.72,163.06,373.47,165.67Z"/><path class="cls-5" d="M395.75,163.26c-5.35,5-4.49,11.11-12.28,10.79-12.15,1.7-11.77-14.27-11.77-14.27-4.67,1.54-13.26,2.31-20.1-8-7.78-11.71-9.94-22.17-11.09-32.09-.74-6.36,1.95-10.47,12.69-13.44s18.69.25,27.48,11.68c7.19,9.39,8.42,31.43,8.42,31.43C391,153.44,395.75,163.26,395.75,163.26Z"/><path class="cls-8" d="M440.55,271.45s-25.35,2.09-38.64.65c-5.06-39.71-11-48.91-11-48.91-13.66-1.7-17.7-6.08-17.7-12.66-2.29-26.54-5.83-41.07-5.83-41.07a8.6,8.6,0,0,1,5.22-3.58s1.33,9.29,10.87,8.17c10.29-1.22,5.63-13,5.63-13,5.49-3.6,11.34-3.88,17.39-2.52s11.27,5.27,15.43,9.88c9.79,10.84,10.24,22.29,11.83,36.81s-1,20-.22,37.73C434.11,255.49,439.75,268.36,440.55,271.45Z"/><path class="cls-5" d="M320.58,267l6.75-11.13a5.56,5.56,0,0,1,3.61-2.18l13.73-2.14L402,241.9l.62,14.69-53.93.87-5.07,3.21a6.6,6.6,0,0,1-5,.86l-8.24-1.78-8,9.77Z"/><path class="cls-8" d="M397.9,167.39c2.32-5.28,4.59-9,10.93-8.73,17.75.64,5.55,27,18,78.26,1.27,5.2,2,19.09-12.73,19.92s-56.78,5.39-56.78,5.39l-5.75-16.92,51.59-7.14S391.89,181.06,397.9,167.39Z"/><path class="cls-9" d="M305.29,264.73H213.18l-16-51.11A6.67,6.67,0,0,1,203.6,205h78.15a6.67,6.67,0,0,1,6.36,4.69Z"/><path class="cls-10" d="M213.18,264.73H352.71a1.83,1.83,0,0,1,1.83,1.83v1.71a1.83,1.83,0,0,1-1.83,1.83H217.19a4,4,0,0,1-4-4v-1.35A0,0,0,0,1,213.18,264.73Z"/><path class="cls-11" d="M213.18,264.73h92.12a0,0,0,0,1,0,0v2.53a2.84,2.84,0,0,1-2.84,2.84H217.27a4.1,4.1,0,0,1-4.1-4.1v-1.27A0,0,0,0,1,213.18,264.73Z"/><path class="cls-12" d="M246.17,228.87a3.81,3.81,0,0,0-.59.07c0,3-1.92,5.48-4.34,5.83,0,0,0,0,0,.08,0,3.3,2.21,6,4.94,6s4.94-2.68,4.94-6S248.9,228.87,246.17,228.87Z"/><path class="cls-5" d="M346,407l1,11.87,1.64,5.21c.61,1.93-.3,5.79-2.24,6.38-9.95,3-38.09,9.61-42.9,9.55,0,0,.26-5.1,3.77-6s24.8-14.23,24.8-14.23l-.09-10.05Z"/><path class="cls-6" d="M348.92,433.21s.47-9.7-.91-12.23a15.71,15.71,0,0,1-7.09,7.92c-4.72,1.62-19.4,7.85-21.85-1-5.12,2-14.8,6.84-18.36,10.55,0,0,1.14,2.57,3.43,2.84,0,0,10-.22,13.68-.51l26.25-5.37,3.38,4.19,3-.69Z"/><path class="cls-6" d="M440.55,271.45c6.92,14.5,20.55,48.69-14.21,50.73-40,2.36-89.89,1.94-89.89,1.94l11.77,87.66-18.83,3.57s-5.06-30.68-12.14-58-22.79-54.17-2-61.67S440.55,271.45,440.55,271.45Z"/><path class="cls-13" d="M339.17,472.23H208.08c-4.37,0-8.18-3-9.94-7.69a14.58,14.58,0,0,1,1.92-13.89l68.69-89.19-61-79.18a4.84,4.84,0,0,1,.23-6,3.21,3.21,0,0,1,5.08.27l60.55,78.62,60.54-78.62a3.22,3.22,0,0,1,5.08-.27,4.84,4.84,0,0,1,.23,6l-61,79.18,68.69,89.19a14.58,14.58,0,0,1,1.92,13.89C347.35,469.28,343.54,472.23,339.17,472.23ZM273.63,367.78l-68.26,88.63a4.91,4.91,0,0,0-.65,4.69,3.73,3.73,0,0,0,3.36,2.6H339.17a3.73,3.73,0,0,0,3.36-2.6,4.91,4.91,0,0,0-.65-4.69Z"/><path class="cls-14" d="M389.93,280.24H157.32a5.07,5.07,0,0,1-5.08-5.07h0a5.07,5.07,0,0,1,5.08-5.08H389.93a5.07,5.07,0,0,1,5.08,5.08h0A5.07,5.07,0,0,1,389.93,280.24Z"/><polygon class="cls-13" points="457.45 458.76 397.46 458.76 411.22 330.87 415.98 331.39 402.8 453.97 452.12 453.97 438.97 331.79 443.74 331.28 457.45 458.76"/><path class="cls-13" d="M443.64,472.58h-60l16.1-148.2h27.81ZM389,467.79h49.31L423.24,329.17H404Z"/><rect class="cls-14" x="380.01" y="321.88" width="75.47" height="10.36"/><polygon class="cls-14" points="459.14 332.24 451.92 332.24 459.14 293.17 466.37 293.17 459.14 332.24"/></g><path class="cls-6 chul____" d="M396.39,163.89c-20.75,6.32-17.76-14.24-17.76-14.24,7.88,1.74,5.73-17.13-2.31-18.2-5.12-.68-4,7.06-4,7.06-18.25,11-40.79-8.65-38.7-22.72,1.12-7.59,3-12.58,11.8-17.89,10.79-6.52,21.46-4.07,31.14-.39,20.8,7.91,21.15,28.92,42.83,29.92,49.2,2.27,37.75,34.84,65.44,42.94,15.91,4.66,36.2,9.06,37.48,35.31,1.56,31.85-54.49,32.83-71.43,29.21-22-4.7-25-41.51-29.52-55.38C415.75,162.41,410.13,159.7,396.39,163.89Z"/><g id="zoom"><path class="cls-6" d="M186.68,226.8c-10.73,0-15,4.44-15,14,0,.88-1.67.88-1.67,0,0-9.53-3.39-14-15-14-.87,0-.87-1.67,0-1.67,11.93,0,15-5.52,15-13.95,0-.88,1.67-.88,1.67,0,0,10,4.06,13.95,15,13.95C187.55,225.13,187.55,226.8,186.68,226.8Z"/><path class="cls-6" d="M134.88,181c-14.95,0-20.86,6.17-20.86,19.47,0,1.22-2.33,1.22-2.33,0,0-13.3-4.73-19.47-20.86-19.47-1.21,0-1.21-2.33,0-2.33,16.63,0,20.86-7.7,20.86-19.45,0-1.22,2.33-1.22,2.33,0,0,14,5.66,19.45,20.86,19.45C136.09,178.68,136.09,181,134.88,181Z"/><path class="cls-6" d="M193.9,91.22c-26.8,0-37.39,11.07-37.39,34.89,0,2.19-4.16,2.19-4.16,0,0-23.82-8.48-34.89-37.4-34.89-2.16,0-2.16-4.17,0-4.17,29.81,0,37.4-13.8,37.4-34.86,0-2.19,4.16-2.19,4.16,0,0,25.08,10.15,34.86,37.39,34.86C196.06,87.05,196.07,91.22,193.9,91.22Z"/></g><path class="cls-2" d="M177.17,547.13c0,3.75-17,6.79-38,6.79s-38-3-38-6.79,17-6.8,38-6.8S177.17,543.37,177.17,547.13Z"/><path class="cls-1" d="M174.68,549c-8.08,2.45-20.6,2.28-29.38,0-2.08-.54-4-1.52-4.42-3.62l-8.35-41.9h54.92l-8.35,41.9C178.68,547.48,176.74,548.38,174.68,549Z"/><ellipse class="cls-6" cx="160.08" cy="503.48" rx="27.37" ry="4.01"/><path class="cls-15" d="M186.31,509.22a94.32,94.32,0,0,1-18.68,12c-1.89.91-3.9,1.83-5.13,3.54s-1.27,4.46.49,5.6c.75.49,1.85.84,1.85,1.73a1.7,1.7,0,0,1-.5,1c-1.86,2.12-4.67,3.13-6.84,4.94s-3.55,5.29-1.65,7.37a8.25,8.25,0,0,0,3.11,2.18c1.55.59,1.89,3.2,2.5,3.2A43.19,43.19,0,0,0,174.68,549a4.51,4.51,0,0,0,4.42-3.62Z"/><g id="_1" data-name="1"><path class="cls-6" d="M150.51,294.56c-1.76-7.24-1.39-13.91-.17-21.27s4.45-14.3,11.79-12.93c7,1.3,9.54,9.84,10,16,.55,8.54-2.19,16.75-3.12,25.15-1.42,12.73,1.5,26.65,4.84,39,2.68,9.92,6,17.94,8.62,29.52a60.87,60.87,0,0,1-.29,26.6c-2.36,9.68-17.74,44.29-20.73,79.79C160,431,151,418.3,148,402.81c-1.24-6.39-2.6-12.73-2-19.21,1.47-16.54,6.05-32.63,8.81-49S154.67,311.7,150.51,294.56Z"/><path class="cls-16" d="M176,388.26a1,1,0,0,0-1.34-.28c-.36.24-7,4.73-10.45,17.81,0-1.11,0-2.21,0-3.31a1,1,0,0,0,0-.17l0-.32c0-10,0-19.85-.08-29.38a.14.14,0,0,1,0-.06c1.72-17.92,7.32-23.23,7.4-23.31a.94.94,0,0,0,.08-1.35,1,1,0,0,0-1.36-.09c-.19.18-3.78,3.47-6.25,13.6-.54-45.07-1.94-80.11-2-80.81a1,1,0,0,0-1.93.08c0,.84,2,50.63,2.17,108-3.38-13.55-9.6-15.75-9.93-15.86a1,1,0,0,0-.6,1.83c.09,0,9,3.42,10.53,27.42,0,5.84-.06,11.72-.12,17.6v0h0c-.33,29.6-1.29,59.27-3.39,83.7a1,1,0,0,0,.87,1h.09a1,1,0,0,0,1-.88c2.1-24.47,3.07-54.17,3.39-83.81,1-22.87,11.52-30.09,11.62-30.16A1,1,0,0,0,176,388.26Z"/></g><g id="_2" data-name="2"><path class="cls-6" d="M99.82,361.49c-2.11-5.23-11.22-25-9.73-31.78,3.91,1.56,14.81,18.45,18.39,26,4.36,8.8,12.84,21.85,18.66,29.85,4.68,6.4,7.33,8.08,10.83,15.28,2.58,5.1,6.6,26.3,6.89,33.93.61,14.23-3.08,17.05,1.08,43.93-8.88-33.8-27.81-53.94-30.87-63.95-3.52-11.43-3.62-16.07-6.32-28.28C105.88,374.3,106.51,377.38,99.82,361.49Z"/><path class="cls-16" d="M137.19,440.53c-3.85-16,1.07-23.19,1.32-23.54a1,1,0,0,0,.07-1.13,1,1,0,0,0-1.33-.3c-.64.4-3.6,5.13-3.45,14.31-.07-.22-.15-.45-.22-.68a1,1,0,0,0-.06-.45q-.26-.64-.51-1.26c-2.34-7-4.71-13.58-7-19.62a1,1,0,0,0,0-.56c-3.43-13-1.33-18.18-1.19-18.49a.94.94,0,0,0,0-.82,1,1,0,0,0-1.25-.54c-.65.27-2,3.76-1.23,11.1-9.5-24.09-19.38-44.78-20.86-45.38a1,1,0,0,0-1,.17,1,1,0,0,0-.09,1.36.88.88,0,0,0,.24.19c2,2.56,14.72,28.93,26.62,62.22-4.62-6.15-8.59-6.74-9.6-6.78l-.06,1-.94.17a1,1,0,0,0,.93.79c.72,0,7,.73,13.22,15.1,8.46,25.14,15.87,53,17.78,77.17a1,1,0,0,0,1,.88h.07a1,1,0,0,0,.89-1C148.93,483.78,143.5,461.13,137.19,440.53Z"/></g><g id="_3" data-name="3"><path class="cls-6" d="M210.25,404.49c2.74-3.18,15.05-14.23,20.53-13.69-.64,3.09-10,14-13.7,18.48-4.68,5.15-9.79,14.87-11.78,21.32-1.64,5.18-1.28,7.39-3.46,12.15-1.66,3.27-10.25,14.45-13.43,18.54-5.95,7.43-12.48,10.12-18.78,28.65,4.2-24.2,7.59-47.77,12.19-54.78,5-7.61,8-9.78,14.71-16.29C203.51,412.58,201.44,413.93,210.25,404.49Z"/><path class="cls-16" d="M216.85,403.33a1,1,0,0,0-.67-.66,1,1,0,0,0-1.15.58c-.19.24-.73.85-1.29,1.49a186.6,186.6,0,0,0-22.19,30.79c-1.41,2.35-2.79,4.81-4.15,7.34.79-6.54-1.75-8.67-1.79-8.69a1,1,0,0,0-1.26.5,1,1,0,0,0,.22,1.08c.22.3,3,4.58-1.71,16.1,0,0,0,.06,0,.09-1.18,2.5-2.34,5-3.45,7.63-.14.26-.27.53-.41.81a1,1,0,0,0-.09.38,233.5,233.5,0,0,0-13.75,43.48,1,1,0,0,0,.75,1.13.65.65,0,0,0,.19,0,1,1,0,0,0,.95-.77,232.31,232.31,0,0,1,14-44c5-9.8,11.59-10.58,12.34-10.63a1,1,0,0,0,.92-.93l-1,0-.1-1c-.95.07-4.52.57-8.39,4.11,2.29-4.8,4.71-9.38,7.19-13.67l0,0c5.27-6.95,9.37-7.81,10.14-7.91a1,1,0,0,0,.88-.78l-1-.19-.18-.94a12.55,12.55,0,0,0-5.76,2.78,187.86,187.86,0,0,1,19-25.41C217,404,217,403.91,216.85,403.33Z"/></g><circle class="cls-6" cx="317.2" cy="66.81" r="22.34"/><path class="cls-17" d="M302.06,65.52l9.22-3.9.84,2.6-6.74,2.62,6.74,2.63-.84,2.6-9.22-3.9Z"/><path class="cls-17" d="M315.92,77.24h-3.28l7.21-20.77h3.24Z"/><path class="cls-17" d="M333.66,68.17l-9.22,3.9-.84-2.6,6.74-2.63-6.74-2.62.84-2.6,9.22,3.9Z"/><circle class="cls-6" cx="277.03" cy="26.55" r="26.55"/><path class="cls-17" d="M263.29,21.82c.12.41.25.88.4,1.39s.3,1.06.46,1.61l.51,1.66c.17.55.33,1.06.49,1.54.14-.52.27-1.07.41-1.68s.26-1.22.38-1.87l.36-1.92c.11-.64.22-1.25.32-1.85h2.45c-.36,1.75-.76,3.53-1.22,5.33s-1,3.5-1.5,5.12H264.2c-.35-1-.69-2-1-3s-.66-2.12-1-3.18c-.32,1.06-.65,2.12-1,3.18s-.66,2.08-1,3h-2.15c-.53-1.62-1-3.32-1.49-5.12s-.87-3.58-1.22-5.33h2.55c.1.6.21,1.21.33,1.85s.25,1.28.38,1.92.27,1.27.4,1.87.28,1.16.42,1.68c.18-.5.36-1,.53-1.57s.33-1.11.5-1.66.31-1.09.44-1.6l.37-1.37Z"/><path class="cls-17" d="M278,21.82c.12.41.25.88.4,1.39s.3,1.06.46,1.61l.51,1.66c.17.55.33,1.06.49,1.54.14-.52.27-1.07.41-1.68s.26-1.22.38-1.87l.36-1.92c.12-.64.22-1.25.32-1.85h2.45c-.36,1.75-.76,3.53-1.22,5.33s-1,3.5-1.5,5.12H278.9c-.35-1-.69-2-1-3s-.66-2.12-1-3.18c-.32,1.06-.64,2.12-1,3.18s-.66,2.08-1,3h-2.15c-.53-1.62-1-3.32-1.49-5.12s-.86-3.58-1.22-5.33h2.55c.1.6.21,1.21.33,1.85s.25,1.28.38,1.92.27,1.27.4,1.87.28,1.16.42,1.68c.18-.5.36-1,.53-1.57s.34-1.11.5-1.66.31-1.09.44-1.6l.37-1.37Z"/><path class="cls-17" d="M292.69,21.82c.12.41.25.88.4,1.39s.3,1.06.47,1.61.33,1.11.5,1.66.34,1.06.5,1.54c.13-.52.26-1.07.4-1.68s.26-1.22.38-1.87.25-1.28.36-1.92.23-1.25.33-1.85h2.44q-.53,2.63-1.22,5.33c-.46,1.8-1,3.5-1.49,5.12H293.6c-.35-1-.69-2-1-3s-.66-2.12-1-3.18l-1,3.18c-.33,1.07-.66,2.08-1,3h-2.15c-.53-1.62-1-3.32-1.49-5.12s-.86-3.58-1.22-5.33h2.55c.1.6.21,1.21.34,1.85s.24,1.28.37,1.92.27,1.27.41,1.87.27,1.16.41,1.68c.18-.5.36-1,.53-1.57s.34-1.11.5-1.66.31-1.09.45-1.6.25-1,.37-1.37Z"/><circle class="cls-3" cx="260.02" cy="104.85" r="15.69" transform="translate(-5.14 195.91) rotate(-40.91)"/><circle class="cls-3" cx="235.44" cy="143.41" r="7.85"/><path class="cls-3" d="M245.84,184.36a3.63,3.63,0,1,0-3.62,3.63A3.62,3.62,0,0,0,245.84,184.36Z"/><circle class="cls-6" cx="291.79" cy="108.01" r="18.85"/><path class="cls-17" d="M283.36,103.78H285v7.31h-1.64V108H280.6v3.1H279v-7.31h1.65v2.8h2.76Z"/><path class="cls-17" d="M292.11,103.78v1.41h-2.2v5.9h-1.65v-5.9h-2.2v-1.41Z"/><path class="cls-17" d="M295,103.78c.13.24.27.52.44.86s.34.71.52,1.11l.53,1.22c.18.41.34.8.5,1.17.15-.37.32-.76.49-1.17s.36-.82.54-1.22l.51-1.11.44-.86h1.5c.07.49.14,1,.2,1.63s.11,1.23.15,1.88.09,1.3.13,2,.07,1.27.1,1.84h-1.6c0-.71-.05-1.48-.09-2.32s-.09-1.68-.15-2.53l-.43,1-.46,1.08c-.15.36-.3.7-.44,1l-.36.84h-1.15q-.14-.34-.36-.84c-.14-.32-.28-.66-.43-1s-.31-.72-.46-1.08l-.43-1c-.07.85-.12,1.7-.16,2.53s-.06,1.61-.08,2.32h-1.6c0-.57.06-1.19.1-1.84l.12-2c.05-.65.1-1.27.16-1.88s.13-1.14.2-1.63Z"/><path class="cls-17" d="M307.4,109.68v1.41h-4.89v-7.31h1.65v5.9Z"/><circle class="cls-6" cx="255" cy="123.78" r="15.03" transform="translate(-22.52 66.09) rotate(-14.15)"/><path class="cls-17" d="M249.38,127.65a3.65,3.65,0,0,1-2.81-1,4.07,4.07,0,0,1-1-2.92,4.62,4.62,0,0,1,.29-1.68,3.75,3.75,0,0,1,.81-1.25,3.61,3.61,0,0,1,1.23-.77,4.52,4.52,0,0,1,1.54-.26,5.68,5.68,0,0,1,.87.07,4.35,4.35,0,0,1,.69.17,3.1,3.1,0,0,1,.5.19l.28.15-.49,1.38a4.12,4.12,0,0,0-.82-.32,3.77,3.77,0,0,0-1.05-.13,2.27,2.27,0,0,0-.77.13,1.73,1.73,0,0,0-.67.42,2.16,2.16,0,0,0-.46.75,3.09,3.09,0,0,0-.18,1.12,4.39,4.39,0,0,0,.11,1,2,2,0,0,0,.38.78,1.76,1.76,0,0,0,.67.52,2.37,2.37,0,0,0,1,.19,4.41,4.41,0,0,0,.66,0c.2,0,.37-.07.53-.11a2.69,2.69,0,0,0,.4-.13l.32-.15.47,1.37a3.62,3.62,0,0,1-1,.39A5.76,5.76,0,0,1,249.38,127.65Z"/><path class="cls-17" d="M255.27,126.19a2.38,2.38,0,0,0,.59-.06,1.12,1.12,0,0,0,.38-.16.6.6,0,0,0,.2-.25,1,1,0,0,0,.05-.31.71.71,0,0,0-.35-.62,4.68,4.68,0,0,0-1.2-.53q-.37-.14-.75-.3a3,3,0,0,1-.66-.43,2,2,0,0,1-.48-.62,1.89,1.89,0,0,1-.19-.89,2.24,2.24,0,0,1,.2-1,2,2,0,0,1,.56-.72,2.75,2.75,0,0,1,.87-.45,3.78,3.78,0,0,1,1.16-.16,4.65,4.65,0,0,1,1.32.17,4.91,4.91,0,0,1,.92.36l-.49,1.34a5.24,5.24,0,0,0-.71-.29,3.18,3.18,0,0,0-.93-.12,1.64,1.64,0,0,0-.88.17.56.56,0,0,0-.27.52.6.6,0,0,0,.1.35.86.86,0,0,0,.28.25,2.25,2.25,0,0,0,.41.21l.52.19c.4.15.74.29,1,.43a3.12,3.12,0,0,1,.73.5,1.75,1.75,0,0,1,.43.67,2.53,2.53,0,0,1,.14.93,2,2,0,0,1-.74,1.64,3.59,3.59,0,0,1-2.24.59,6.22,6.22,0,0,1-.91-.06,5.66,5.66,0,0,1-.72-.15,5.38,5.38,0,0,1-.53-.18l-.38-.19.48-1.36a4,4,0,0,0,.84.34A4.31,4.31,0,0,0,255.27,126.19Z"/><path class="cls-17" d="M261.63,126.19a2.52,2.52,0,0,0,.6-.06,1.21,1.21,0,0,0,.38-.16.51.51,0,0,0,.19-.25.78.78,0,0,0,.06-.31.74.74,0,0,0-.35-.62,5,5,0,0,0-1.21-.53l-.74-.3a3.07,3.07,0,0,1-.67-.43,2.29,2.29,0,0,1-.48-.62,2,2,0,0,1-.18-.89,2.24,2.24,0,0,1,.19-1,2.07,2.07,0,0,1,.56-.72,2.7,2.7,0,0,1,.88-.45,3.72,3.72,0,0,1,1.15-.16,4.72,4.72,0,0,1,1.33.17,4.91,4.91,0,0,1,.92.36l-.5,1.34a5.09,5.09,0,0,0-.7-.29,3.21,3.21,0,0,0-.94-.12,1.67,1.67,0,0,0-.88.17.55.55,0,0,0-.26.52.68.68,0,0,0,.09.35,1,1,0,0,0,.28.25,2.06,2.06,0,0,0,.42.21l.52.19c.39.15.73.29,1,.43a2.86,2.86,0,0,1,.72.5,1.78,1.78,0,0,1,.44.67,2.76,2.76,0,0,1,.14.93,2,2,0,0,1-.75,1.64,3.57,3.57,0,0,1-2.24.59,6.32,6.32,0,0,1-.91-.06,5.14,5.14,0,0,1-.71-.15l-.54-.18-.38-.19.49-1.36a3.85,3.85,0,0,0,.83.34A4.31,4.31,0,0,0,261.63,126.19Z"/><circle class="cls-6" cx="266.83" cy="146.37" r="13.29"/><path class="cls-17" d="M260.21,142.89a4.21,4.21,0,0,1,2.3.52,2.27,2.27,0,0,1,0,3.47,4.19,4.19,0,0,1-2.32.54h-.48v2.24h-1.5v-6.6a10.08,10.08,0,0,1,1-.14Zm.09,1.28H260l-.28,0v1.93h.48a2.62,2.62,0,0,0,1.18-.21.81.81,0,0,0,.39-.79,1,1,0,0,0-.1-.47.74.74,0,0,0-.29-.29,1.38,1.38,0,0,0-.46-.16A5.32,5.32,0,0,0,260.3,144.17Z"/><path class="cls-17" d="M268.46,143H270v6.7h-1.51v-2.84h-2.53v2.84h-1.51V143h1.51v2.56h2.53Z"/><path class="cls-17" d="M273.53,142.89a4.21,4.21,0,0,1,2.3.52,2.27,2.27,0,0,1,0,3.47,4.19,4.19,0,0,1-2.32.54H273v2.24h-1.5v-6.6a10.08,10.08,0,0,1,1-.14Zm.09,1.28h-.32l-.28,0v1.93h.48a2.62,2.62,0,0,0,1.18-.21.81.81,0,0,0,.39-.79,1,1,0,0,0-.1-.47.74.74,0,0,0-.29-.29,1.38,1.38,0,0,0-.46-.16A5.32,5.32,0,0,0,273.62,144.17Z"/><circle class="cls-6" cx="245.05" cy="170.24" r="9.62" transform="translate(-28.21 50.41) rotate(-11.11)"/><path class="cls-17" d="M243.72,171.3a4.44,4.44,0,0,1-.13,1,2,2,0,0,1-.44.86,2.19,2.19,0,0,1-.84.59A3.71,3.71,0,0,1,241,174a4.08,4.08,0,0,1-1.28-.18,3.69,3.69,0,0,1-.89-.42l.57-1.33a7.13,7.13,0,0,0,.68.33,2.3,2.3,0,0,0,.79.14,1.13,1.13,0,0,0,.9-.31,1.53,1.53,0,0,0,.28-1v-5h1.71Z"/><path class="cls-17" d="M247.43,172.55a2.52,2.52,0,0,0,.6-.06,1.12,1.12,0,0,0,.38-.16.56.56,0,0,0,.19-.25.83.83,0,0,0,.06-.32.75.75,0,0,0-.35-.62,5.39,5.39,0,0,0-1.21-.53c-.25-.09-.49-.19-.74-.3a2.74,2.74,0,0,1-.67-.43,2,2,0,0,1-.48-.62,1.93,1.93,0,0,1-.19-.9,2.2,2.2,0,0,1,.2-.94,1.88,1.88,0,0,1,.56-.72,2.58,2.58,0,0,1,.87-.46,4.17,4.17,0,0,1,1.16-.16,4.67,4.67,0,0,1,1.33.17,4.91,4.91,0,0,1,.92.36l-.49,1.35a4.2,4.2,0,0,0-.71-.29,2.88,2.88,0,0,0-.94-.13,1.74,1.74,0,0,0-.88.17.58.58,0,0,0-.27.52.63.63,0,0,0,.1.35,1,1,0,0,0,.28.26,2.06,2.06,0,0,0,.42.21l.52.19c.39.15.74.29,1,.43a3.12,3.12,0,0,1,.73.5,1.83,1.83,0,0,1,.43.67,2.6,2.6,0,0,1,.14.93,2,2,0,0,1-.74,1.65,3.62,3.62,0,0,1-2.25.59,6.22,6.22,0,0,1-.91-.06,5.66,5.66,0,0,1-.72-.15,3.55,3.55,0,0,1-.53-.19,2.74,2.74,0,0,1-.38-.18l.48-1.36a4.91,4.91,0,0,0,.84.33A4.28,4.28,0,0,0,247.43,172.55Z"/><path class="cls-6" d="M260,192a6.48,6.48,0,1,0-6.48,6.47A6.48,6.48,0,0,0,260,192Z"/><path class="cls-17" d="M250.73,191.63a.57.57,0,0,0,.48-.2.76.76,0,0,0,.15-.5v-1.11a1.71,1.71,0,0,1,.08-.57.87.87,0,0,1,.27-.41,1.13,1.13,0,0,1,.5-.26,2.88,2.88,0,0,1,.78-.09h.14v.88H253a.55.55,0,0,0-.45.15.76.76,0,0,0-.11.45v1a2,2,0,0,1-.1.65.46.46,0,0,0,0,.92,2,2,0,0,1,.1.65v1a.82.82,0,0,0,.11.46.59.59,0,0,0,.45.14h.18v.88H253a2.88,2.88,0,0,1-.78-.09,1.13,1.13,0,0,1-.5-.26.87.87,0,0,1-.27-.41,1.67,1.67,0,0,1-.08-.57v-1.11a.78.78,0,0,0-.15-.5.57.57,0,0,0-.48-.19Z"/><path class="cls-17" d="M256.35,192.5a.57.57,0,0,0-.48.19.78.78,0,0,0-.15.5v1.11a1.67,1.67,0,0,1-.08.57.87.87,0,0,1-.27.41,1.13,1.13,0,0,1-.5.26,2.88,2.88,0,0,1-.78.09H254v-.88h.18a.59.59,0,0,0,.45-.14.82.82,0,0,0,.11-.46v-1a1.78,1.78,0,0,1,.1-.65.46.46,0,0,0,0-.92,1.74,1.74,0,0,1-.1-.65v-1a.76.76,0,0,0-.11-.45.55.55,0,0,0-.45-.15H254v-.88h.14a2.88,2.88,0,0,1,.78.09,1.13,1.13,0,0,1,.5.26.87.87,0,0,1,.27.41,1.71,1.71,0,0,1,.08.57v1.11a.76.76,0,0,0,.15.5.57.57,0,0,0,.48.2Z"/></svg>