<svg xmlns="http://www.w3.org/2000/svg" viewBox="0 0 498 413" id="el_bd3hf5LCv"><style>@-webkit-keyframes el_nvQGE8i2mj_2ZAimY7IN_Animation{0%{-webkit-transform: translate(345.89998626708984px, 96.54999542236328px) scale(1, 1) translate(-345.89998626708984px, -96.54999542236328px);transform: translate(345.89998626708984px, 96.54999542236328px) scale(1, 1) translate(-345.89998626708984px, -96.54999542236328px);}100%{-webkit-transform: translate(345.89998626708984px, 96.54999542236328px) scale(0.7, 0.7) translate(-345.89998626708984px, -96.54999542236328px);transform: translate(345.89998626708984px, 96.54999542236328px) scale(0.7, 0.7) translate(-345.89998626708984px, -96.54999542236328px);}}@keyframes el_nvQGE8i2mj_2ZAimY7IN_Animation{0%{-webkit-transform: translate(345.89998626708984px, 96.54999542236328px) scale(1, 1) translate(-345.89998626708984px, -96.54999542236328px);transform: translate(345.89998626708984px, 96.54999542236328px) scale(1, 1) translate(-345.89998626708984px, -96.54999542236328px);}100%{-webkit-transform: translate(345.89998626708984px, 96.54999542236328px) scale(0.7, 0.7) translate(-345.89998626708984px, -96.54999542236328px);transform: translate(345.89998626708984px, 96.54999542236328px) scale(0.7, 0.7) translate(-345.89998626708984px, -96.54999542236328px);}}@-webkit-keyframes el_nvQGE8i2mj_Z-dKAoeeR_Animation{0%{-webkit-transform: translate(345.89998626708984px, 96.54999542236328px) translate(-345.89998626708984px, -96.54999542236328px) translate(0px, 0px);transform: translate(345.89998626708984px, 96.54999542236328px) translate(-345.89998626708984px, -96.54999542236328px) translate(0px, 0px);}100%{-webkit-transform: translate(345.89998626708984px, 96.54999542236328px) translate(-345.89998626708984px, -96.54999542236328px) translate(0px, -30px);transform: translate(345.89998626708984px, 96.54999542236328px) translate(-345.89998626708984px, -96.54999542236328px) translate(0px, -30px);}}@keyframes el_nvQGE8i2mj_Z-dKAoeeR_Animation{0%{-webkit-transform: translate(345.89998626708984px, 96.54999542236328px) translate(-345.89998626708984px, -96.54999542236328px) translate(0px, 0px);transform: translate(345.89998626708984px, 96.54999542236328px) translate(-345.89998626708984px, -96.54999542236328px) translate(0px, 0px);}100%{-webkit-transform: translate(345.89998626708984px, 96.54999542236328px) translate(-345.89998626708984px, -96.54999542236328px) translate(0px, -30px);transform: translate(345.89998626708984px, 96.54999542236328px) translate(-345.89998626708984px, -96.54999542236328px) translate(0px, -30px);}}@-webkit-keyframes el_HX7qMMDLd7_Animation{0%{opacity: 0.4;}10%{opacity: 0.6;}20%{opacity: 0.4;}29.67%{opacity: 0.4;}40.33%{opacity: 0.4;}50%{opacity: 0.6;}60.33%{opacity: 0.4;}70%{opacity: 0.7;}80%{opacity: 0.4;}90%{opacity: 0.8;}100%{opacity: 0.4;}}@keyframes el_HX7qMMDLd7_Animation{0%{opacity: 0.4;}10%{opacity: 0.6;}20%{opacity: 0.4;}29.67%{opacity: 0.4;}40.33%{opacity: 0.4;}50%{opacity: 0.6;}60.33%{opacity: 0.4;}70%{opacity: 0.7;}80%{opacity: 0.4;}90%{opacity: 0.8;}100%{opacity: 0.4;}}@-webkit-keyframes el_HX7qMMDLd7_mi7AxgIrs_Animation{0%{-webkit-transform: translate(225.5399932861328px, 200.35647583007812px) scale(1, 1) translate(-225.5399932861328px, -200.35647583007812px);transform: translate(225.5399932861328px, 200.35647583007812px) scale(1, 1) translate(-225.5399932861328px, -200.35647583007812px);}10%{-webkit-transform: translate(225.5399932861328px, 200.35647583007812px) scale(1.1, 1.1) translate(-225.5399932861328px, -200.35647583007812px);transform: translate(225.5399932861328px, 200.35647583007812px) scale(1.1, 1.1) translate(-225.5399932861328px, -200.35647583007812px);}20%{-webkit-transform: translate(225.5399932861328px, 200.35647583007812px) scale(1, 1) translate(-225.5399932861328px, -200.35647583007812px);transform: translate(225.5399932861328px, 200.35647583007812px) scale(1, 1) translate(-225.5399932861328px, -200.35647583007812px);}29.67%{-webkit-transform: translate(225.5399932861328px, 200.35647583007812px) scale(1.05, 1.05) translate(-225.5399932861328px, -200.35647583007812px);transform: translate(225.5399932861328px, 200.35647583007812px) scale(1.05, 1.05) translate(-225.5399932861328px, -200.35647583007812px);}40.33%{-webkit-transform: translate(225.5399932861328px, 200.35647583007812px) scale(1, 1) translate(-225.5399932861328px, -200.35647583007812px);transform: translate(225.5399932861328px, 200.35647583007812px) scale(1, 1) translate(-225.5399932861328px, -200.35647583007812px);}50%{-webkit-transform: translate(225.5399932861328px, 200.35647583007812px) scale(1.08, 1.08) translate(-225.5399932861328px, -200.35647583007812px);transform: translate(225.5399932861328px, 200.35647583007812px) scale(1.08, 1.08) translate(-225.5399932861328px, -200.35647583007812px);}60.33%{-webkit-transform: translate(225.5399932861328px, 200.35647583007812px) scale(1, 1) translate(-225.5399932861328px, -200.35647583007812px);transform: translate(225.5399932861328px, 200.35647583007812px) scale(1, 1) translate(-225.5399932861328px, -200.35647583007812px);}70%{-webkit-transform: translate(225.5399932861328px, 200.35647583007812px) scale(1.1, 1.1) translate(-225.5399932861328px, -200.35647583007812px);transform: translate(225.5399932861328px, 200.35647583007812px) scale(1.1, 1.1) translate(-225.5399932861328px, -200.35647583007812px);}80%{-webkit-transform: translate(225.5399932861328px, 200.35647583007812px) scale(1, 1) translate(-225.5399932861328px, -200.35647583007812px);transform: translate(225.5399932861328px, 200.35647583007812px) scale(1, 1) translate(-225.5399932861328px, -200.35647583007812px);}90%{-webkit-transform: translate(225.5399932861328px, 200.35647583007812px) scale(1, 1) translate(-225.5399932861328px, -200.35647583007812px);transform: translate(225.5399932861328px, 200.35647583007812px) scale(1, 1) translate(-225.5399932861328px, -200.35647583007812px);}100%{-webkit-transform: translate(225.5399932861328px, 200.35647583007812px) scale(1, 1) translate(-225.5399932861328px, -200.35647583007812px);transform: translate(225.5399932861328px, 200.35647583007812px) scale(1, 1) translate(-225.5399932861328px, -200.35647583007812px);}}@keyframes el_HX7qMMDLd7_mi7AxgIrs_Animation{0%{-webkit-transform: translate(225.5399932861328px, 200.35647583007812px) scale(1, 1) translate(-225.5399932861328px, -200.35647583007812px);transform: translate(225.5399932861328px, 200.35647583007812px) scale(1, 1) translate(-225.5399932861328px, -200.35647583007812px);}10%{-webkit-transform: translate(225.5399932861328px, 200.35647583007812px) scale(1.1, 1.1) translate(-225.5399932861328px, -200.35647583007812px);transform: translate(225.5399932861328px, 200.35647583007812px) scale(1.1, 1.1) translate(-225.5399932861328px, -200.35647583007812px);}20%{-webkit-transform: translate(225.5399932861328px, 200.35647583007812px) scale(1, 1) translate(-225.5399932861328px, -200.35647583007812px);transform: translate(225.5399932861328px, 200.35647583007812px) scale(1, 1) translate(-225.5399932861328px, -200.35647583007812px);}29.67%{-webkit-transform: translate(225.5399932861328px, 200.35647583007812px) scale(1.05, 1.05) translate(-225.5399932861328px, -200.35647583007812px);transform: translate(225.5399932861328px, 200.35647583007812px) scale(1.05, 1.05) translate(-225.5399932861328px, -200.35647583007812px);}40.33%{-webkit-transform: translate(225.5399932861328px, 200.35647583007812px) scale(1, 1) translate(-225.5399932861328px, -200.35647583007812px);transform: translate(225.5399932861328px, 200.35647583007812px) scale(1, 1) translate(-225.5399932861328px, -200.35647583007812px);}50%{-webkit-transform: translate(225.5399932861328px, 200.35647583007812px) scale(1.08, 1.08) translate(-225.5399932861328px, -200.35647583007812px);transform: translate(225.5399932861328px, 200.35647583007812px) scale(1.08, 1.08) translate(-225.5399932861328px, -200.35647583007812px);}60.33%{-webkit-transform: translate(225.5399932861328px, 200.35647583007812px) scale(1, 1) translate(-225.5399932861328px, -200.35647583007812px);transform: translate(225.5399932861328px, 200.35647583007812px) scale(1, 1) translate(-225.5399932861328px, -200.35647583007812px);}70%{-webkit-transform: translate(225.5399932861328px, 200.35647583007812px) scale(1.1, 1.1) translate(-225.5399932861328px, -200.35647583007812px);transform: translate(225.5399932861328px, 200.35647583007812px) scale(1.1, 1.1) translate(-225.5399932861328px, -200.35647583007812px);}80%{-webkit-transform: translate(225.5399932861328px, 200.35647583007812px) scale(1, 1) translate(-225.5399932861328px, -200.35647583007812px);transform: translate(225.5399932861328px, 200.35647583007812px) scale(1, 1) translate(-225.5399932861328px, -200.35647583007812px);}90%{-webkit-transform: translate(225.5399932861328px, 200.35647583007812px) scale(1, 1) translate(-225.5399932861328px, -200.35647583007812px);transform: translate(225.5399932861328px, 200.35647583007812px) scale(1, 1) translate(-225.5399932861328px, -200.35647583007812px);}100%{-webkit-transform: translate(225.5399932861328px, 200.35647583007812px) scale(1, 1) translate(-225.5399932861328px, -200.35647583007812px);transform: translate(225.5399932861328px, 200.35647583007812px) scale(1, 1) translate(-225.5399932861328px, -200.35647583007812px);}}@-webkit-keyframes el_y7NkmhpQMU_Animation{0%{opacity: 0;}5%{opacity: 1;}94.67%{opacity: 1;}100%{opacity: 0;}}@keyframes el_y7NkmhpQMU_Animation{0%{opacity: 0;}5%{opacity: 1;}94.67%{opacity: 1;}100%{opacity: 0;}}@-webkit-keyframes el_y7NkmhpQMU_oLUvCLw2z_Animation{0%{-webkit-transform: translate(364.7799835205078px, 185.17816162109375px) translate(-364.7799835205078px, -185.17816162109375px) translate(0px, 0px);transform: translate(364.7799835205078px, 185.17816162109375px) translate(-364.7799835205078px, -185.17816162109375px) translate(0px, 0px);}100%{-webkit-transform: translate(364.7799835205078px, 185.17816162109375px) translate(-364.7799835205078px, -185.17816162109375px) translate(-300px, 0px);transform: translate(364.7799835205078px, 185.17816162109375px) translate(-364.7799835205078px, -185.17816162109375px) translate(-300px, 0px);}}@keyframes el_y7NkmhpQMU_oLUvCLw2z_Animation{0%{-webkit-transform: translate(364.7799835205078px, 185.17816162109375px) translate(-364.7799835205078px, -185.17816162109375px) translate(0px, 0px);transform: translate(364.7799835205078px, 185.17816162109375px) translate(-364.7799835205078px, -185.17816162109375px) translate(0px, 0px);}100%{-webkit-transform: translate(364.7799835205078px, 185.17816162109375px) translate(-364.7799835205078px, -185.17816162109375px) translate(-300px, 0px);transform: translate(364.7799835205078px, 185.17816162109375px) translate(-364.7799835205078px, -185.17816162109375px) translate(-300px, 0px);}}@-webkit-keyframes el__AL1FJzPNe_Animation{0%{opacity: 0;}5%{opacity: 1;}95%{opacity: 1;}100%{opacity: 0;}}@keyframes el__AL1FJzPNe_Animation{0%{opacity: 0;}5%{opacity: 1;}95%{opacity: 1;}100%{opacity: 0;}}@-webkit-keyframes el__AL1FJzPNe_OwCmUQju-_Animation{0%{-webkit-transform: translate(132.11999893188477px, 75.7503547668457px) translate(-132.11999893188477px, -75.7503547668457px) translate(0px, 0px);transform: translate(132.11999893188477px, 75.7503547668457px) translate(-132.11999893188477px, -75.7503547668457px) translate(0px, 0px);}100%{-webkit-transform: translate(132.11999893188477px, 75.7503547668457px) translate(-132.11999893188477px, -75.7503547668457px) translate(260px, 0px);transform: translate(132.11999893188477px, 75.7503547668457px) translate(-132.11999893188477px, -75.7503547668457px) translate(260px, 0px);}}@keyframes el__AL1FJzPNe_OwCmUQju-_Animation{0%{-webkit-transform: translate(132.11999893188477px, 75.7503547668457px) translate(-132.11999893188477px, -75.7503547668457px) translate(0px, 0px);transform: translate(132.11999893188477px, 75.7503547668457px) translate(-132.11999893188477px, -75.7503547668457px) translate(0px, 0px);}100%{-webkit-transform: translate(132.11999893188477px, 75.7503547668457px) translate(-132.11999893188477px, -75.7503547668457px) translate(260px, 0px);transform: translate(132.11999893188477px, 75.7503547668457px) translate(-132.11999893188477px, -75.7503547668457px) translate(260px, 0px);}}#el_bd3hf5LCv *{-webkit-animation-duration: 10s;animation-duration: 10s;-webkit-animation-iteration-count: infinite;animation-iteration-count: infinite;-webkit-animation-timing-function: cubic-bezier(0, 0, 1, 1);animation-timing-function: cubic-bezier(0, 0, 1, 1);}#el_ed-Kyq9UHB{isolation: isolate;}#el_xEMm8UU7ow{fill: #7fefba;-webkit-transform: translate(-0.84px, -0.23px);transform: translate(-0.84px, -0.23px);}#el_nvQGE8i2mj{fill: #fff57d;}#el__AL1FJzPNe{fill: #fff;-webkit-transform: translate(-0.84px, -0.23px);transform: translate(-0.84px, -0.23px);-webkit-animation-name: el__AL1FJzPNe_Animation;animation-name: el__AL1FJzPNe_Animation;opacity: 0;}#el_y7NkmhpQMU{fill: #fff;-webkit-transform: translate(-0.84px, -0.23px);transform: translate(-0.84px, -0.23px);-webkit-animation-name: el_y7NkmhpQMU_Animation;animation-name: el_y7NkmhpQMU_Animation;opacity: 0;}#el_HX7qMMDLd7{opacity: 0.4;-webkit-animation-name: el_HX7qMMDLd7_Animation;animation-name: el_HX7qMMDLd7_Animation;-webkit-animation-timing-function: cubic-bezier(0, 0, 0.58, 1);animation-timing-function: cubic-bezier(0, 0, 0.58, 1);}#el_KNQ1VS26JI{fill: #fff;-webkit-transform: translate(-0.84px, -0.23px);transform: translate(-0.84px, -0.23px);}#el_PHeIyBv0hF{fill: #fff;-webkit-transform: translate(-0.84px, -0.23px);transform: translate(-0.84px, -0.23px);}#el_xQAE9syzXo{fill: #fff;-webkit-transform: translate(-0.84px, -0.23px);transform: translate(-0.84px, -0.23px);}#el_o0eFrtH7YY{fill: #fff;-webkit-transform: translate(-0.84px, -0.23px);transform: translate(-0.84px, -0.23px);}#el_EgcJhlFnPK{fill: #fff;-webkit-transform: translate(-0.84px, -0.23px);transform: translate(-0.84px, -0.23px);}#el_wMaMGUnm3u{fill: #fff;-webkit-transform: translate(-0.84px, -0.23px);transform: translate(-0.84px, -0.23px);}#el_7SJIBDzCfI{fill: #fff;-webkit-transform: translate(-0.84px, -0.23px);transform: translate(-0.84px, -0.23px);}#el__Tkmfges31W{fill: #fff;-webkit-transform: translate(-0.84px, -0.23px);transform: translate(-0.84px, -0.23px);}#el_bCxyMhUQLTf{fill: #2fac66;-webkit-transform: translate(-0.84px, -0.23px);transform: translate(-0.84px, -0.23px);}#el_Hsex4l-BPOB{fill: #2fac66;-webkit-transform: translate(-0.84px, -0.23px);transform: translate(-0.84px, -0.23px);}#el_Upn_mobNr22{fill: #7fefba;opacity: 0.68;mix-blend-mode: multiply;-webkit-transform: translate(-0.84px, -0.23px);transform: translate(-0.84px, -0.23px);}#el_7F_bB4HlgXH{fill: #36a9e1;-webkit-transform: translate(-0.84px, -0.23px);transform: translate(-0.84px, -0.23px);}#el_64tMo9y3PIG{fill: #1688b5;-webkit-transform: translate(-0.84px, -0.23px);transform: translate(-0.84px, -0.23px);}#el_eY2fbJZKn1U{fill: #fff;}#el_8lxucV_cLUv{fill: #fff;}#el_yRO9vx0SuaM{-webkit-transform: translate(-0.84px, -0.23px);transform: translate(-0.84px, -0.23px);}#el_8bzVvp0eP6Y{-webkit-transform: translate(-0.84px, -0.23px);transform: translate(-0.84px, -0.23px);}#el_6a-DhjAsZfD{fill: #1b364f;-webkit-transform: translate(-0.84px, -0.23px);transform: translate(-0.84px, -0.23px);}#el_utXArbbs0oV{fill: #36a9e1;-webkit-transform: translate(-0.84px, -0.23px);transform: translate(-0.84px, -0.23px);}#el_UUncPldqgtq{fill: #fff;opacity: 0.4;-webkit-transform: translate(-0.84px, -0.23px);transform: translate(-0.84px, -0.23px);}#el_k8v65od0CQZ{fill: #161616;}#el_-xSFKuHqlFh{fill: #161616;-webkit-transform: translate(131.68px, 345.66px) rotate(-81.15deg);transform: translate(131.68px, 345.66px) rotate(-81.15deg);}#el_7Enz1eN7prw{fill: #161616;}#el_Pr2R9_wl56Q{fill: #161616;-webkit-transform: translate(105.94px, 342.86px) rotate(-75.29deg);transform: translate(105.94px, 342.86px) rotate(-75.29deg);}#el_6XnJ8aM2uZZ{fill: #161616;-webkit-transform: translate(-12.77px, 110.53px) rotate(-22.65deg);transform: translate(-12.77px, 110.53px) rotate(-22.65deg);}#el_9LP1_jT9NaX{fill: #1d71b8;}#el_RTDUp4lWAN4{fill: #161616;}#el_4PqUEg9omYB{fill: #161616;-webkit-transform: translate(129.8px, 321.72px) rotate(-80.38deg);transform: translate(129.8px, 321.72px) rotate(-80.38deg);}#el_Vn0gaaVTKNh{fill: #161616;}#el_x3F910Z88nr{fill: #161616;-webkit-transform: translate(99.52px, 322.44px) rotate(-80.75deg);transform: translate(99.52px, 322.44px) rotate(-80.75deg);}#el_w7fjNWhpXjL{fill: #161616;-webkit-transform: translate(-21.15px, 97.27px) rotate(-22.65deg);transform: translate(-21.15px, 97.27px) rotate(-22.65deg);}#el_dP-x0XVhAyF{fill: #161616;}#el_cYFuskfBdBM{fill: #161616;}#el_tINn2MEd57M{fill: #161616;}#el_jFAsQdimnMJ{fill: #ffcfc5;-webkit-transform: translate(-0.84px, -0.23px);transform: translate(-0.84px, -0.23px);}#el_BFG8D_hU0ZE{fill: #fff;-webkit-transform: translate(-0.84px, -0.23px);transform: translate(-0.84px, -0.23px);}#el_OTcrqSMxSr5{fill: #36a9e1;-webkit-transform: translate(-0.84px, -0.23px);transform: translate(-0.84px, -0.23px);}#el_aj8Ku5Nd-wI{fill: #ffcfc5;-webkit-transform: translate(-0.84px, -0.23px);transform: translate(-0.84px, -0.23px);}#el_yqUORnrUzJK{fill: #ededed;-webkit-transform: translate(-0.84px, -0.23px);transform: translate(-0.84px, -0.23px);}#el_5GcHwqtA-SE{fill: #ededed;-webkit-transform: translate(-0.84px, -0.23px);transform: translate(-0.84px, -0.23px);}#el_cU888x06UO1{fill: #fff;-webkit-transform: translate(-0.84px, -0.23px);transform: translate(-0.84px, -0.23px);}#el_ySzH1qhGfRP{fill: #dadada;}#el_7oxmOHg_zob{fill: #fff57d;}#el_U5msGQ4Srqu{fill: #ffcfc5;-webkit-transform: translate(-0.84px, -0.23px);transform: translate(-0.84px, -0.23px);}#el_Kl0et9-Eiy3{fill: #ffcfc5;-webkit-transform: translate(-0.84px, -0.23px);transform: translate(-0.84px, -0.23px);}#el_CblBgI3XRHd{fill: #ffcfc5;-webkit-transform: translate(-0.84px, -0.23px);transform: translate(-0.84px, -0.23px);}#el_pIL4UXPQviG{fill: #ffcfc5;-webkit-transform: translate(-0.84px, -0.23px);transform: translate(-0.84px, -0.23px);}#el_reyyIvECedO{fill: #161616;-webkit-transform: translate(-0.84px, -0.23px);transform: translate(-0.84px, -0.23px);}#el_nIOuJ0ZyRA6{fill: #161616;-webkit-transform: translate(-0.84px, -0.23px);transform: translate(-0.84px, -0.23px);}#el_K71zcq1cRAU{fill: #161616;}#el_EF9DdztR13J{fill: #161616;}#el_NAXso2rpJ3O{fill: #161616;-webkit-transform: translate(1.52px, 210.11px) rotate(-45deg);transform: translate(1.52px, 210.11px) rotate(-45deg);}#el_z-6FHWZXFwU{fill: #161616;}#el_OpOub0CwKbN{fill: #161616;-webkit-transform: translate(-19.27px, 102.41px) rotate(-22.61deg);transform: translate(-19.27px, 102.41px) rotate(-22.61deg);}#el_zt4mtRs8BF1{fill: #161616;-webkit-transform: translate(-23.83px, 103.11px) rotate(-22.65deg);transform: translate(-23.83px, 103.11px) rotate(-22.65deg);}#el_ti2Dkva9H11{fill: #161616;}#el_wTlifTaRYxc{fill: #161616;}#el_-dXGTPjb7XR{fill: #161616;}#el_a-PUB-IQaLj{fill: #161616;}#el_8OL9YGTHGlp{fill: #fff;-webkit-transform: translate(-0.84px, -0.23px);transform: translate(-0.84px, -0.23px);}#el_f1YvvBEQ9LV{fill: #ff6252;}#el_Tk5koY24CqT{fill: #fff;-webkit-transform: translate(-0.84px, -0.23px);transform: translate(-0.84px, -0.23px);}#el_lbfsoA5MG0X{fill: #fff;-webkit-transform: translate(-2.38px, 3.68px) rotate(-0.84deg);transform: translate(-2.38px, 3.68px) rotate(-0.84deg);}#el_hXIn7mHYwO8{fill: #fff;-webkit-transform: translate(-11.48px, 27.66px) rotate(-6.31deg);transform: translate(-11.48px, 27.66px) rotate(-6.31deg);}#el_XxW_SeE9jpZ{fill: #274f6d;opacity: 0.43;-webkit-transform: translate(-0.84px, -0.23px);transform: translate(-0.84px, -0.23px);}#el_wo_5XUevido{fill: #fff;font-size: 112.96px;font-family: Baloo, Baloo;-webkit-transform: translate(148.28px, 332.34px);transform: translate(148.28px, 332.34px);}#el__AL1FJzPNe_OwCmUQju-{-webkit-animation-name: el__AL1FJzPNe_OwCmUQju-_Animation;animation-name: el__AL1FJzPNe_OwCmUQju-_Animation;-webkit-transform: translate(132.11999893188477px, 75.7503547668457px) translate(-132.11999893188477px, -75.7503547668457px) translate(0px, 0px);transform: translate(132.11999893188477px, 75.7503547668457px) translate(-132.11999893188477px, -75.7503547668457px) translate(0px, 0px);}#el_y7NkmhpQMU_oLUvCLw2z{-webkit-transform: translate(364.7799835205078px, 185.17816162109375px) translate(-364.7799835205078px, -185.17816162109375px) translate(0px, 0px);transform: translate(364.7799835205078px, 185.17816162109375px) translate(-364.7799835205078px, -185.17816162109375px) translate(0px, 0px);-webkit-animation-name: el_y7NkmhpQMU_oLUvCLw2z_Animation;animation-name: el_y7NkmhpQMU_oLUvCLw2z_Animation;}#el_HX7qMMDLd7_mi7AxgIrs{-webkit-animation-name: el_HX7qMMDLd7_mi7AxgIrs_Animation;animation-name: el_HX7qMMDLd7_mi7AxgIrs_Animation;-webkit-animation-timing-function: cubic-bezier(0, 0, 0.58, 1);animation-timing-function: cubic-bezier(0, 0, 0.58, 1);}#el_nvQGE8i2mj_Z-dKAoeeR{-webkit-animation-name: el_nvQGE8i2mj_Z-dKAoeeR_Animation;animation-name: el_nvQGE8i2mj_Z-dKAoeeR_Animation;-webkit-animation-timing-function: cubic-bezier(0, 0, 0.58, 1);animation-timing-function: cubic-bezier(0, 0, 0.58, 1);}#el_nvQGE8i2mj_2ZAimY7IN{-webkit-animation-name: el_nvQGE8i2mj_2ZAimY7IN_Animation;animation-name: el_nvQGE8i2mj_2ZAimY7IN_Animation;-webkit-animation-timing-function: cubic-bezier(0, 0, 0.58, 1);animation-timing-function: cubic-bezier(0, 0, 0.58, 1);}</style><defs/><title>email</title><g id="el_ed-Kyq9UHB"><g id="el_TKWl39EXdx"><path d="M359.46,41c-142.09-5.27-173.7-56.66-240-35.74C47.61,27.91,17.21,113,13,124.83c-38.08,107.53,17.77,237.89,104.38,276,6.67,2.94,23.1,9.54,56.81,12.09,88.4,6.69,272.37-15.26,314.71-141.33C516.64,189,486.54,77.66,423.64,47.52,406.16,39.14,397.24,42.35,359.46,41Z" id="el_xEMm8UU7ow"/></g><g id="el_UEovluZc02"><g id="el_nvQGE8i2mj_Z-dKAoeeR" data-animator-group="true" data-animator-type="0"><g id="el_nvQGE8i2mj_2ZAimY7IN" data-animator-group="true" data-animator-type="2"><circle id="el_nvQGE8i2mj" data-name="&lt;Path&gt;" cx="345.9" cy="96.55" r="32.32"/></g></g><g id="el__AL1FJzPNe_OwCmUQju-" data-animator-group="true" data-animator-type="0"><path id="el__AL1FJzPNe" data-name="&lt;Path&gt;" d="M105.62,83.57h58.72s-2.94-7.09-6.61-7.38-4.69,2-5.87,1.74-3.08-6.06-7.78-6.36-6.53,4.09-9.1,4.9-7.63.35-11.6-6-11.48.47-11.67,5.39c-.29,7.56-11.81,3.36-11.81,7.74Z"/></g><g id="el_y7NkmhpQMU_oLUvCLw2z" data-animator-group="true" data-animator-type="0"><path id="el_y7NkmhpQMU" data-name="&lt;Path&gt;" d="M338.29,193H397s-2.93-7.08-6.6-7.38-4.7,2-5.87,1.75-3.09-6.07-7.78-6.36-6.54,4.08-9.1,4.89-7.64.36-11.6-6-11.48.47-11.67,5.39c-.29,7.56-11.82,3.37-11.82,7.74Z"/></g><g id="el_HX7qMMDLd7_mi7AxgIrs" data-animator-group="true" data-animator-type="2"><g id="el_HX7qMMDLd7" data-name="&lt;Group&gt;"><path id="el_KNQ1VS26JI" data-name="&lt;Path&gt;" d="M374.59,224a4.75,4.75,0,0,0,1.35-3.29c0-2.81-2.54-5.09-5.68-5.09s-5.68,2.28-5.68,5.09c0,.12,0,.23,0,.35h0c0-.11,0-.23,0-.35a5.41,5.41,0,0,0-5.67-5.09c-3.14,0-5.68,2.28-5.68,5.09a4.88,4.88,0,0,0,1.92,3.82l9.43,8.59,9.47-8.62a5.35,5.35,0,0,0,.5-.45l.05,0Z"/><path id="el_PHeIyBv0hF" data-name="&lt;Path&gt;" d="M220.91,77.49A4,4,0,0,0,222,74.76a4.75,4.75,0,0,0-9.44,0c0,.09,0,.19,0,.28h0c0-.1,0-.2,0-.29a4.75,4.75,0,0,0-9.44,0,4.06,4.06,0,0,0,1.6,3.17l7.84,7.14,7.87-7.17a4.72,4.72,0,0,0,.41-.37l0,0Z"/><path id="el_xQAE9syzXo" data-name="&lt;Path&gt;" d="M126,201.49a4,4,0,0,0,1.12-2.74,4.75,4.75,0,0,0-9.44,0,2.83,2.83,0,0,0,0,.29h0c0-.1,0-.19,0-.29a4.74,4.74,0,0,0-9.43,0,4.08,4.08,0,0,0,1.59,3.17l7.84,7.14,7.87-7.16a3.79,3.79,0,0,0,.42-.38l0,0Z"/><path id="el_o0eFrtH7YY" data-name="&lt;Path&gt;" d="M350.51,160.21a4,4,0,0,0,1.12-2.74,4.75,4.75,0,0,0-9.44,0,2.83,2.83,0,0,0,0,.29h0c0-.09,0-.19,0-.29a4.74,4.74,0,0,0-9.43,0,4,4,0,0,0,1.59,3.17l7.84,7.15,7.87-7.17a5,5,0,0,0,.42-.37l0,0Z"/><path id="el_EgcJhlFnPK" data-name="&lt;Path&gt;" d="M350.76,277a2,2,0,0,0,.53-1.32,2.29,2.29,0,0,0-4.55,0s0,.09,0,.14h0v-.14a2.29,2.29,0,0,0-4.55,0,2,2,0,0,0,.77,1.53l3.78,3.44,3.8-3.45.2-.18,0,0Z"/><path id="el_wMaMGUnm3u" data-name="&lt;Path&gt;" d="M85.38,327a1.91,1.91,0,0,0,.54-1.32,2.29,2.29,0,0,0-4.55,0s0,.09,0,.13h0a.71.71,0,0,0,0-.14,2.29,2.29,0,0,0-4.55,0,2,2,0,0,0,.77,1.53l3.78,3.44,3.8-3.46a1.07,1.07,0,0,0,.19-.18Z"/><path id="el_7SJIBDzCfI" data-name="&lt;Path&gt;" d="M127.43,110.06a2.76,2.76,0,0,0,.78-1.91,3.31,3.31,0,0,0-6.59,0c0,.07,0,.13,0,.2h0c0-.06,0-.13,0-.2a3.31,3.31,0,0,0-6.59,0,2.82,2.82,0,0,0,1.11,2.21l5.48,5,5.5-5,.29-.26,0,0Z"/><path id="el__Tkmfges31W" data-name="&lt;Path&gt;" d="M140.86,259.15a1.91,1.91,0,0,0,.53-1.32,2.29,2.29,0,0,0-4.55,0c0,.05,0,.1,0,.14h0v-.14a2.29,2.29,0,0,0-4.55,0,2,2,0,0,0,.77,1.53l3.78,3.45,3.8-3.46.2-.18,0,0Z"/></g></g><path id="el_bCxyMhUQLTf" data-name="&lt;Path&gt;" d="M308.14,353.16a3.81,3.81,0,0,1,3.89-1.87c2.84.28,2.1-2.29,5.28-2.7s3.77.52,7.64-2.73,7.1,2.56,10,.15,4.95-6.3,9.84-4.8,2.82,5.35,5.72,6.8,5.9,1.92,7.13,5.23Z"/><path id="el_Hsex4l-BPOB" data-name="&lt;Path&gt;" d="M166.13,371.54a3.8,3.8,0,0,0-3.88-1.87c-2.85.28-2.1-2.29-5.29-2.71s-3.76.53-7.64-2.73-7.09,2.56-10,.15-5-6.3-9.83-4.79-2.83,5.35-5.72,6.8-5.91,1.92-7.13,5.23Z"/><path id="el_Upn_mobNr22" data-name="&lt;Path&gt;" d="M349.26,361.22c0,4.4-46.2,8-103.18,8s-103.18-3.57-103.18-8,46.19-8,103.18-8S349.26,356.81,349.26,361.22Z"/><path id="el_7F_bB4HlgXH" data-name="&lt;Path&gt;" d="M290,156s-16.48-10.18-30.34-12.3-28,10.5-31.72,21.81,46.9,7.3,46.9,7.3Z"/><g id="el_t4ymWljrXBk" data-name="&lt;Group&gt;"><g id="el_nNqAR_4p4Mw" data-name="&lt;Group&gt;"><path id="el_64tMo9y3PIG" data-name="&lt;Path&gt;" d="M221.83,248.71s1.14,5.48,27.1,2.82,38.13,2.26,39.39,2.52,8.81,1.63,9.12-3-28-12.34-28-12.34l-26.22-4.36-13.68,2.79-7.72,5.82Z"/><g id="el_66eOg_0W0kC" data-name="&lt;Group&gt;"><polygon id="el_eY2fbJZKn1U" data-name="&lt;Path&gt;" points="244.52 342.5 246.39 350.68 251.72 350.05 251.72 340.65 244.52 342.5"/><polygon id="el_8lxucV_cLUv" data-name="&lt;Path&gt;" points="270.7 341.96 268.83 350.68 263.49 350.01 263.49 339.98 270.7 341.96"/><path id="el_yRO9vx0SuaM" data-name="&lt;Path&gt;" d="M252.56,349.62s3.18,3.68,1.92,6.92c-1.09,2.78-17.48,2.56-22.07,2.44a2.1,2.1,0,0,1-2-1.56.92.92,0,0,1,.54-1.19l10.7-3.94s4.52-2.44,6.86-2.06A8.46,8.46,0,0,0,252.56,349.62Z"/><path id="el_8bzVvp0eP6Y" data-name="&lt;Path&gt;" d="M264.39,349.62s-3.18,3.68-1.91,6.92,23.37,1.69,23.37,1.69,1.67-1.37.18-2l-10.7-3.94s-4.52-2.44-6.85-2.06A8.48,8.48,0,0,1,264.39,349.62Z"/><path id="el_6a-DhjAsZfD" data-name="&lt;Path&gt;" d="M228.48,238.67s-2.27,19.18,2.33,54,13.27,51.48,13.27,51.48l8.95-1.61,4.06-68.8,6.64,68.37H275s21-72.89,10.75-103.48Z"/></g><path id="el_utXArbbs0oV" data-name="&lt;Path&gt;" d="M231,167.86s-20.74,28.84-9.2,80.85c0,0-4.64-17.09,64.18-1.34,3.05.7,10.21.38,11.43,3.64,0,0,5.48-56-12.91-82.61l-12.88-3.21a73.57,73.57,0,0,0-35.89,1.3Z"/></g></g><path id="el_UUncPldqgtq" data-name="&lt;Path&gt;" d="M275.91,184.47a8.4,8.4,0,0,0,2.37-5.8c0-5-4.48-9-10-9s-10,4-10,9c0,.21,0,.41,0,.61h-.06c0-.21,0-.41,0-.62,0-5-4.48-9-10-9s-10,4-10,9a8.58,8.58,0,0,0,3.38,6.72l16.63,15.15L275,185.34a9.38,9.38,0,0,0,.87-.79l.08-.08Z"/><circle id="el_k8v65od0CQZ" data-name="&lt;Path&gt;" cx="273.67" cy="106.6" r="7.58"/><circle id="el_-xSFKuHqlFh" data-name="&lt;Path&gt;" cx="268.21" cy="95.57" r="7.58"/><circle id="el_7Enz1eN7prw" data-name="&lt;Path&gt;" cx="274.95" cy="93.36" r="7.58"/><circle id="el_Pr2R9_wl56Q" data-name="&lt;Path&gt;" cx="275.8" cy="102.32" r="7.58"/><circle id="el_6XnJ8aM2uZZ" data-name="&lt;Path&gt;" cx="270.54" cy="85.16" r="7.58"/><ellipse id="el_9LP1_jT9NaX" data-name="&lt;Path&gt;" cx="256.53" cy="148.78" rx="11.92" ry="7.08"/><circle id="el_RTDUp4lWAN4" data-name="&lt;Path&gt;" cx="255.05" cy="90.47" r="7.58"/><circle id="el_4PqUEg9omYB" data-name="&lt;Path&gt;" cx="255.89" cy="83.64" r="7.58"/><circle id="el_Vn0gaaVTKNh" data-name="&lt;Path&gt;" cx="246.03" cy="93.75" r="7.58"/><circle id="el_x3F910Z88nr" data-name="&lt;Path&gt;" cx="239.91" cy="102.32" r="7.58"/><circle id="el_w7fjNWhpXjL" data-name="&lt;Path&gt;" cx="233.26" cy="99.44" r="7.58"/><circle id="el_dP-x0XVhAyF" data-name="&lt;Path&gt;" cx="236.1" cy="111.41" r="7.58"/><circle id="el_cYFuskfBdBM" data-name="&lt;Path&gt;" cx="239.07" cy="122.77" r="7.58"/><circle id="el_tINn2MEd57M" data-name="&lt;Path&gt;" cx="246.03" cy="134.2" r="7.58"/><path id="el_jFAsQdimnMJ" data-name="&lt;Path&gt;" d="M254.32,153.49c1.22.18,2.4.34,3.56.42a8.08,8.08,0,0,0,8.66-8.49c-.05-.69.08-1.28,0-2.37-.1-4.37,9.94-6.16,13-13.78s-3.64-32.58-17-33.6-23.51,5.93-19.46,24c3.42,15.29,5.69,19.79,5.92,27.84A6.49,6.49,0,0,0,254.32,153.49Z"/><g id="el_nv4dcQAdxih" data-name="&lt;Group&gt;"><g id="el_A4y0IiPUfoS" data-name="&lt;Group&gt;"><path id="el_BFG8D_hU0ZE" data-name="&lt;Path&gt;" d="M266,126.56a8.9,8.9,0,0,0-3.66-1c-1.66,0-3.26.72-3.51,2.83s1.86,3.58,4.41,4.76c1.51.7,6.53,1.36,9.19,0s4-2.5,4.55-4.35-1-3.66-2.46-4.13a4,4,0,0,0-3.61.87A4.65,4.65,0,0,1,266,126.56Z"/></g></g><path id="el_OTcrqSMxSr5" data-name="&lt;Path&gt;" d="M276.54,168.38l8.3,18.2,20.29-3.15s-5-30-24.17-30C281,153.42,270.88,156,276.54,168.38Z"/><g id="el_M3a0I2X6Ayo" data-name="&lt;Group&gt;"><path id="el_aj8Ku5Nd-wI" data-name="&lt;Path&gt;" d="M298.38,167.83s7.84,14.4.26,33.41c-5.61,14-31.15,16.21-52.52-10.7l6.82-1.92s12.27,7.64,20.26,8.15c10.88.69,14.15-10.5,13.07-15.52-.55-2.54-1.77-9.86-2.22-10.58Z"/></g><g id="el_pciKw3bUFxq" data-name="&lt;Group&gt;"><path id="el_yqUORnrUzJK" data-name="&lt;Path&gt;" d="M164.39,158.19l36.17-36.77a7.12,7.12,0,0,1,10.14,0l36.17,36.77V197.4H164.39Z"/><path id="el_5GcHwqtA-SE" data-name="&lt;Path&gt;" d="M246.87,158.19v52.14a4.65,4.65,0,0,1-4.65,4.64l-76.57-.86Z"/><path id="el_cU888x06UO1" data-name="&lt;Path&gt;" d="M164.39,158.19v53.19A3.59,3.59,0,0,0,168,215h74.24Z"/><polygon id="el_ySzH1qhGfRP" data-name="&lt;Path&gt;" points="203.59 187.17 246.03 157.95 192.07 178.76 203.59 187.17"/><rect id="el_7oxmOHg_zob" data-name="&lt;Rectangle&gt;" x="171.16" y="199.19" width="23.32" height="9.38"/></g><path id="el_U5msGQ4Srqu" data-name="&lt;Path&gt;" d="M248.56,184.17s-8.75-9.37-9.82-9.83-1.63.86-.05,2.39a51.45,51.45,0,0,1,4,4.84s-6.12-5.5-6.89-5.39-1.17,1.12,0,2,5.49,5.16,5.49,5.16a53.87,53.87,0,0,0-5.65-3.23c-1.32-.46-.45,1.33.73,2.06s4.64,3.58,4.64,3.58-3.76-1.24-4.52-1-.46.81.08,1.11,5.87,2,5.87,2,3.42,4,6.85,3.74,3.85-2.27,3.63-2.78-3.47-8.63-4.49-9.72-2-.34-.8,1.8S249.33,184.22,248.56,184.17Z"/><path id="el_Kl0et9-Eiy3" data-name="&lt;Path&gt;" d="M164,208.19s12-4.56,13.14-4.49,1.09,1.49-1,2.16a52.71,52.71,0,0,0-5.76,2.57s7.92-2.24,8.56-1.81.56,1.52-.91,1.78-7.2,2.21-7.2,2.21a51.46,51.46,0,0,1,6.49-.41c1.38.17-.18,1.39-1.57,1.53s-5.58.89-5.58.89,3.48-.05,4.07.48.06.92-.55,1-5.86,0-5.86,0-4.85,2.11-7.8.34-2.45-3.74-2-4.09,6.91-6.22,8.31-6.75,1.91.56-.08,2S163.32,207.9,164,208.19Z"/><path id="el_CblBgI3XRHd" data-name="&lt;Path&gt;" d="M164.38,193s-7.95,8.64-6.61,18.74c.31,2.34,6.61,0,6.61,0Z"/><path id="el_pIL4UXPQviG" data-name="&lt;Path&gt;" d="M246.08,115.32s-2.59-4.48-6.86-2.1-1.79,11.58,1.39,13.66,4.47-.89,4.47-.89Z"/><path id="el_reyyIvECedO" data-name="&lt;Path&gt;" d="M262.23,111.48c.16,1-.16,1.79-.7,1.88s-1.1-.61-1.26-1.56.16-1.8.7-1.89S262.08,110.53,262.23,111.48Z"/><path id="el_nIOuJ0ZyRA6" data-name="&lt;Path&gt;" d="M272.55,110.63c.15,1-.16,1.8-.71,1.88s-1.1-.61-1.26-1.56.16-1.79.7-1.88S272.39,109.68,272.55,110.63Z"/><circle id="el_K71zcq1cRAU" data-name="&lt;Path&gt;" cx="267.66" cy="98.9" r="5.54"/><circle id="el_EF9DdztR13J" data-name="&lt;Path&gt;" cx="260.41" cy="96.01" r="5.54"/><circle id="el_NAXso2rpJ3O" data-name="&lt;Path&gt;" cx="255.09" cy="102.32" r="5.54"/><circle id="el_z-6FHWZXFwU" data-name="&lt;Path&gt;" cx="254.24" cy="98.05" r="5.54"/><circle id="el_OpOub0CwKbN" data-name="&lt;Path&gt;" cx="247.5" cy="97.4" r="5.54"/><circle id="el_zt4mtRs8BF1" data-name="&lt;Path&gt;" cx="246.56" cy="109.06" r="7.28"/><circle id="el_ti2Dkva9H11" data-name="&lt;Path&gt;" cx="264.95" cy="86.97" r="5.54"/><circle id="el_wTlifTaRYxc" data-name="&lt;Path&gt;" cx="246.66" cy="85.48" r="5.54"/><circle id="el_-dXGTPjb7XR" data-name="&lt;Path&gt;" cx="237.41" cy="90.47" r="5.54"/><circle id="el_a-PUB-IQaLj" data-name="&lt;Path&gt;" cx="240.66" cy="84.21" r="5.54"/><path d="M274,122.73c-4.11,0-7.46-3.93-7.46-8.76s3.35-8.77,7.46-8.77,7.46,3.94,7.46,8.77S278.16,122.73,274,122.73Zm0-15.53c-3,0-5.46,3-5.46,6.77s2.45,6.76,5.46,6.76,5.46-3,5.46-6.76S277.05,107.2,274,107.2Z" id="el_8OL9YGTHGlp"/><polygon id="el_f1YvvBEQ9LV" data-name="&lt;Path&gt;" points="264.95 107.07 271.94 121.53 265.12 122.12 264.95 107.07"/><path d="M259.5,123.35c-4.11,0-7.46-3.93-7.46-8.76s3.35-8.76,7.46-8.76,7.46,3.93,7.46,8.76S263.62,123.35,259.5,123.35Zm0-15.52c-3,0-5.46,3-5.46,6.76s2.45,6.76,5.46,6.76,5.46-3,5.46-6.76S262.51,107.83,259.5,107.83Z" id="el_Tk5koY24CqT"/><rect x="261.71" y="106.23" width="9.23" height="2" id="el_lbfsoA5MG0X"/><rect x="241.13" y="109.48" width="13.37" height="2" id="el_hXIn7mHYwO8"/><path id="el_XxW_SeE9jpZ" data-name="&lt;Path&gt;" d="M258.21,275.39s1.54-12,13.33-12.58,8.26,16.71,4.25,22.91-2.56,14.71-.61,18.85-.75,22.51-13.5,16.42Z"/><g id="el_sojOz7edP2C" data-name="&lt;Group&gt;"><text id="el_wo_5XUevido">@</text></g></g></g></svg>