<svg id="a040a828-3500-4c1a-a19f-fba081aa469c" data-name="OBJECT" xmlns="http://www.w3.org/2000/svg" viewBox="0 0 446.64 340.75"><defs><style>.e02250ab-ddfa-4947-9cd1-9d19adef595d{fill:#fcac90;}.a106dc2a-4934-4da8-a937-9d03fc444cd1{fill:#ff7d55;}.fd318e8e-362e-44d4-88f3-8590f54ae994{fill:#e7dfdf;}.a8a1e4c5-10dd-4f17-94a4-1e15779ddd7f{fill:#fff;}.f803d80e-ab9c-4c9a-a4ac-3d0728129f8b{fill:#bdbdbd;}.a06d02fc-0069-4fde-a0a5-d44cab24cce1{fill:#a5a5a5;}.a0a96e7a-2e27-4593-b097-d9e568451b6f{fill:#d7dbd8;}.ad91bd00-d19e-4d08-8ea4-e7a383931a09{fill:#e6e7e8;}.f0e18842-8571-4dfe-94ab-ef1c9c4ef761{fill:#f93838;}.a31d3995-8820-407f-8c3b-e61e21491b9b{fill:#19cc36;}.ba8ce65e-5397-4309-8ce0-68dbfaef9088{fill:#f9d1bb;}.a3cf12cc-d8a4-4c9b-9072-1fbf5f319164{fill:#30282b;}.a7d14aba-19be-4a68-ae2b-1046d8219097{fill:#d1d3d4;}.a49e736f-29f8-4656-a8db-cf0f61e23acc{fill:#f1f2f2;}.f39e7fb7-009c-42f1-86d4-c059aaccbf3a{fill:#fbab38;}.b2e53350-3782-4859-ac81-20c5c201de0d{fill:#ffb83e;}.a01119fd-2425-4e71-9181-e72af81247ae{fill:#f7aa39;}.b59df1ad-f9a4-44ee-b035-e668b26aa93b{fill:#b5e7ef;}.f02b3db0-347f-4ce7-9795-1fa1e153bbcf{fill:#facf5b;}.bdebc608-9a64-4693-a6ab-70ae28ad9abf{fill:#f46240;}.aa2abc9a-74e2-4eb0-97ee-8c9f100aff49{fill:#ef3407;}.bcd9868b-c38e-403f-b946-aeff6ae3c3a1{fill:#e02905;}.e3d63f16-63c4-4371-b934-79ec5a8a8688{fill:#fd754c;}.bcf20ead-dfb7-48d1-8d3e-0cbc9092f34a{fill:#231f20;opacity:0.15;}</style></defs><title>office-management</title><rect class="e02250ab-ddfa-4947-9cd1-9d19adef595d" x="89.17" y="30.25" width="103" height="38.11"/><rect class="e02250ab-ddfa-4947-9cd1-9d19adef595d" x="198.17" y="5.43" width="103" height="74.48"/><rect class="e02250ab-ddfa-4947-9cd1-9d19adef595d" x="309.17" y="25.21" width="77.77" height="54.7"/><rect class="e02250ab-ddfa-4947-9cd1-9d19adef595d" x="100.67" y="23.75" width="83" height="18.5"/><polygon class="e02250ab-ddfa-4947-9cd1-9d19adef595d" points="379.61 32.25 318.75 32.25 318.75 13.75 379.61 0 379.61 32.25"/><ellipse class="a106dc2a-4934-4da8-a937-9d03fc444cd1" cx="55" cy="332" rx="55" ry="8.75"/><ellipse class="a106dc2a-4934-4da8-a937-9d03fc444cd1" cx="403.25" cy="332" rx="43.39" ry="8.75"/><ellipse class="a106dc2a-4934-4da8-a937-9d03fc444cd1" cx="238.75" cy="278.5" rx="173.75" ry="17.25"/><rect class="fd318e8e-362e-44d4-88f3-8590f54ae994" x="93.17" y="68.36" width="296.35" height="211" rx="16.76"/><rect class="a8a1e4c5-10dd-4f17-94a4-1e15779ddd7f" x="85.83" y="63.92" width="296.35" height="215.44" rx="16.93"/><path class="f803d80e-ab9c-4c9a-a4ac-3d0728129f8b" d="M161.57,160.05a3,3,0,1,1-3-3A3,3,0,0,1,161.57,160.05Z" transform="translate(-26.68 -79.63)"/><path class="a06d02fc-0069-4fde-a0a5-d44cab24cce1" d="M158.51,163.08l.14,0a3,3,0,0,1,.72-5.87,2.72,2.72,0,0,0-.86-.14,3,3,0,1,0,0,6Z" transform="translate(-26.68 -79.63)"/><path class="f803d80e-ab9c-4c9a-a4ac-3d0728129f8b" d="M226.69,160.05a3,3,0,1,1-3-3A3,3,0,0,1,226.69,160.05Z" transform="translate(-26.68 -79.63)"/><path class="a06d02fc-0069-4fde-a0a5-d44cab24cce1" d="M223.64,163.08l.14,0a3,3,0,0,1,.71-5.87,2.66,2.66,0,0,0-.85-.14,3,3,0,1,0,0,6Z" transform="translate(-26.68 -79.63)"/><path class="f803d80e-ab9c-4c9a-a4ac-3d0728129f8b" d="M291.44,160.05a3,3,0,1,1-3-3A3,3,0,0,1,291.44,160.05Z" transform="translate(-26.68 -79.63)"/><path class="a06d02fc-0069-4fde-a0a5-d44cab24cce1" d="M288.39,163.08l.14,0a3,3,0,0,1,.71-5.87,2.66,2.66,0,0,0-.85-.14,3,3,0,1,0,0,6Z" transform="translate(-26.68 -79.63)"/><path class="f803d80e-ab9c-4c9a-a4ac-3d0728129f8b" d="M358.53,160.05a3,3,0,1,1-3-3A3,3,0,0,1,358.53,160.05Z" transform="translate(-26.68 -79.63)"/><path class="a06d02fc-0069-4fde-a0a5-d44cab24cce1" d="M355.47,163.08l.14,0a3,3,0,0,1,.72-5.87,2.77,2.77,0,0,0-.86-.14,3,3,0,1,0,0,6Z" transform="translate(-26.68 -79.63)"/><path class="a0a96e7a-2e27-4593-b097-d9e568451b6f" d="M158.14,130.1a14.18,14.18,0,0,1,14.13,13.44h3a17.16,17.16,0,1,0-17.13,17.9,1.5,1.5,0,0,0,0-3,14.17,14.17,0,0,1,0-28.34Z" transform="translate(-26.68 -79.63)"/><path class="a0a96e7a-2e27-4593-b097-d9e568451b6f" d="M223.64,130.1a14.18,14.18,0,0,1,14.13,13.44h3a17.16,17.16,0,1,0-17.13,17.9,1.5,1.5,0,0,0,0-3,14.17,14.17,0,1,1,0-28.34Z" transform="translate(-26.68 -79.63)"/><path class="a0a96e7a-2e27-4593-b097-d9e568451b6f" d="M288.89,130.1A14.18,14.18,0,0,1,303,143.54h3a17.16,17.16,0,1,0-17.13,17.9,1.5,1.5,0,0,0,0-3,14.17,14.17,0,1,1,0-28.34Z" transform="translate(-26.68 -79.63)"/><path class="a0a96e7a-2e27-4593-b097-d9e568451b6f" d="M355.64,130.1a14.18,14.18,0,0,1,14.13,13.44h3a17.16,17.16,0,1,0-17.13,17.9,1.5,1.5,0,0,0,0-3,14.17,14.17,0,1,1,0-28.34Z" transform="translate(-26.68 -79.63)"/><path class="ad91bd00-d19e-4d08-8ea4-e7a383931a09" d="M396.93,200.38h-265a.76.76,0,0,1-.75-.76h0a.75.75,0,0,1,.75-.74h265a.75.75,0,0,1,.75.74h0A.76.76,0,0,1,396.93,200.38Z" transform="translate(-26.68 -79.63)"/><path class="ad91bd00-d19e-4d08-8ea4-e7a383931a09" d="M161.68,327.27V192.62a.75.75,0,0,1,.75-.74h0a.75.75,0,0,1,.75.74V327.27a.76.76,0,0,1-.75.75h0A.76.76,0,0,1,161.68,327.27Z" transform="translate(-26.68 -79.63)"/><path class="ad91bd00-d19e-4d08-8ea4-e7a383931a09" d="M203.13,327.27V192.62a.75.75,0,0,1,.75-.74h0a.75.75,0,0,1,.75.74V327.27a.76.76,0,0,1-.75.75h0A.76.76,0,0,1,203.13,327.27Z" transform="translate(-26.68 -79.63)"/><path class="ad91bd00-d19e-4d08-8ea4-e7a383931a09" d="M244.58,327.27V192.62a.75.75,0,0,1,.75-.74h0a.75.75,0,0,1,.75.74V327.27a.76.76,0,0,1-.75.75h0A.76.76,0,0,1,244.58,327.27Z" transform="translate(-26.68 -79.63)"/><path class="ad91bd00-d19e-4d08-8ea4-e7a383931a09" d="M286,327.27V192.62a.75.75,0,0,1,.75-.74h0a.75.75,0,0,1,.75.74V327.27a.76.76,0,0,1-.75.75h0A.76.76,0,0,1,286,327.27Z" transform="translate(-26.68 -79.63)"/><path class="ad91bd00-d19e-4d08-8ea4-e7a383931a09" d="M327.48,327.27V192.62a.75.75,0,0,1,.75-.74h0a.75.75,0,0,1,.75.74V327.27a.76.76,0,0,1-.75.75h0A.76.76,0,0,1,327.48,327.27Z" transform="translate(-26.68 -79.63)"/><path class="ad91bd00-d19e-4d08-8ea4-e7a383931a09" d="M368.93,327.27V192.62a.75.75,0,0,1,.75-.74h0a.75.75,0,0,1,.75.74V327.27a.76.76,0,0,1-.75.75h0A.76.76,0,0,1,368.93,327.27Z" transform="translate(-26.68 -79.63)"/><path class="ad91bd00-d19e-4d08-8ea4-e7a383931a09" d="M396.93,231.88h-265a.76.76,0,0,1-.75-.76h0a.75.75,0,0,1,.75-.74h265a.75.75,0,0,1,.75.74h0A.76.76,0,0,1,396.93,231.88Z" transform="translate(-26.68 -79.63)"/><path class="ad91bd00-d19e-4d08-8ea4-e7a383931a09" d="M396.93,260.38h-265a.76.76,0,0,1-.75-.76h0a.75.75,0,0,1,.75-.74h265a.75.75,0,0,1,.75.74h0A.76.76,0,0,1,396.93,260.38Z" transform="translate(-26.68 -79.63)"/><path class="ad91bd00-d19e-4d08-8ea4-e7a383931a09" d="M396.93,292.38h-265a.76.76,0,0,1-.75-.76h0a.75.75,0,0,1,.75-.74h265a.75.75,0,0,1,.75.74h0A.76.76,0,0,1,396.93,292.38Z" transform="translate(-26.68 -79.63)"/><path class="ad91bd00-d19e-4d08-8ea4-e7a383931a09" d="M396.93,321.38h-265a.76.76,0,0,1-.75-.76h0a.75.75,0,0,1,.75-.74h265a.75.75,0,0,1,.75.74h0A.76.76,0,0,1,396.93,321.38Z" transform="translate(-26.68 -79.63)"/><path class="f803d80e-ab9c-4c9a-a4ac-3d0728129f8b" d="M155.56,195.62H137.93a2.51,2.51,0,0,1-2.5-2.5h0a2.51,2.51,0,0,1,2.5-2.5h17.63a2.51,2.51,0,0,1,2.5,2.5h0A2.51,2.51,0,0,1,155.56,195.62Z" transform="translate(-26.68 -79.63)"/><path class="f803d80e-ab9c-4c9a-a4ac-3d0728129f8b" d="M192.49,195.62H174.87a2.5,2.5,0,0,1-2.5-2.5h0a2.51,2.51,0,0,1,2.5-2.5h17.62a2.51,2.51,0,0,1,2.5,2.5h0A2.5,2.5,0,0,1,192.49,195.62Z" transform="translate(-26.68 -79.63)"/><path class="f803d80e-ab9c-4c9a-a4ac-3d0728129f8b" d="M233.74,195.62H216.12a2.5,2.5,0,0,1-2.5-2.5h0a2.51,2.51,0,0,1,2.5-2.5h17.62a2.51,2.51,0,0,1,2.5,2.5h0A2.5,2.5,0,0,1,233.74,195.62Z" transform="translate(-26.68 -79.63)"/><path class="f803d80e-ab9c-4c9a-a4ac-3d0728129f8b" d="M274.74,195.62H257.12a2.5,2.5,0,0,1-2.5-2.5h0a2.51,2.51,0,0,1,2.5-2.5h17.62a2.51,2.51,0,0,1,2.5,2.5h0A2.5,2.5,0,0,1,274.74,195.62Z" transform="translate(-26.68 -79.63)"/><path class="f803d80e-ab9c-4c9a-a4ac-3d0728129f8b" d="M316.74,195.62H299.12a2.5,2.5,0,0,1-2.5-2.5h0a2.51,2.51,0,0,1,2.5-2.5h17.62a2.51,2.51,0,0,1,2.5,2.5h0A2.5,2.5,0,0,1,316.74,195.62Z" transform="translate(-26.68 -79.63)"/><path class="f803d80e-ab9c-4c9a-a4ac-3d0728129f8b" d="M356.49,195.62H338.87a2.5,2.5,0,0,1-2.5-2.5h0a2.51,2.51,0,0,1,2.5-2.5h17.62a2.51,2.51,0,0,1,2.5,2.5h0A2.5,2.5,0,0,1,356.49,195.62Z" transform="translate(-26.68 -79.63)"/><path class="f0e18842-8571-4dfe-94ab-ef1c9c4ef761" d="M393.74,195.62H376.12a2.5,2.5,0,0,1-2.5-2.5h0a2.51,2.51,0,0,1,2.5-2.5h17.62a2.51,2.51,0,0,1,2.5,2.5h0A2.5,2.5,0,0,1,393.74,195.62Z" transform="translate(-26.68 -79.63)"/><path class="ad91bd00-d19e-4d08-8ea4-e7a383931a09" d="M198.52,211.79H169.68a1.41,1.41,0,0,1-1.41-1.41h0a1.42,1.42,0,0,1,1.41-1.42h28.84a1.42,1.42,0,0,1,1.41,1.42h0A1.42,1.42,0,0,1,198.52,211.79Z" transform="translate(-26.68 -79.63)"/><path class="ad91bd00-d19e-4d08-8ea4-e7a383931a09" d="M198.52,217.29H169.68a1.41,1.41,0,0,1-1.41-1.41h0a1.42,1.42,0,0,1,1.41-1.42h28.84a1.42,1.42,0,0,1,1.41,1.42h0A1.42,1.42,0,0,1,198.52,217.29Z" transform="translate(-26.68 -79.63)"/><path class="ad91bd00-d19e-4d08-8ea4-e7a383931a09" d="M186.81,222.71H169.68a1.42,1.42,0,0,1-1.41-1.42h0a1.41,1.41,0,0,1,1.41-1.41h17.13a1.42,1.42,0,0,1,1.42,1.41h0A1.43,1.43,0,0,1,186.81,222.71Z" transform="translate(-26.68 -79.63)"/><path class="ad91bd00-d19e-4d08-8ea4-e7a383931a09" d="M280.77,241.79H251.93a1.41,1.41,0,0,1-1.41-1.41h0a1.42,1.42,0,0,1,1.41-1.42h28.84a1.42,1.42,0,0,1,1.41,1.42h0A1.42,1.42,0,0,1,280.77,241.79Z" transform="translate(-26.68 -79.63)"/><path class="ad91bd00-d19e-4d08-8ea4-e7a383931a09" d="M280.77,247.29H251.93a1.41,1.41,0,0,1-1.41-1.41h0a1.42,1.42,0,0,1,1.41-1.42h28.84a1.42,1.42,0,0,1,1.41,1.42h0A1.42,1.42,0,0,1,280.77,247.29Z" transform="translate(-26.68 -79.63)"/><path class="ad91bd00-d19e-4d08-8ea4-e7a383931a09" d="M269.06,252.71H251.93a1.42,1.42,0,0,1-1.41-1.42h0a1.41,1.41,0,0,1,1.41-1.41h17.13a1.42,1.42,0,0,1,1.42,1.41h0A1.43,1.43,0,0,1,269.06,252.71Z" transform="translate(-26.68 -79.63)"/><path class="ad91bd00-d19e-4d08-8ea4-e7a383931a09" d="M239.27,303.29H210.43a1.41,1.41,0,0,1-1.41-1.41h0a1.42,1.42,0,0,1,1.41-1.42h28.84a1.42,1.42,0,0,1,1.41,1.42h0A1.42,1.42,0,0,1,239.27,303.29Z" transform="translate(-26.68 -79.63)"/><path class="ad91bd00-d19e-4d08-8ea4-e7a383931a09" d="M239.27,308.79H210.43a1.41,1.41,0,0,1-1.41-1.41h0a1.42,1.42,0,0,1,1.41-1.42h28.84a1.42,1.42,0,0,1,1.41,1.42h0A1.42,1.42,0,0,1,239.27,308.79Z" transform="translate(-26.68 -79.63)"/><path class="ad91bd00-d19e-4d08-8ea4-e7a383931a09" d="M227.56,314.21H210.43a1.42,1.42,0,0,1-1.41-1.42h0a1.41,1.41,0,0,1,1.41-1.41h17.13a1.42,1.42,0,0,1,1.42,1.41h0A1.43,1.43,0,0,1,227.56,314.21Z" transform="translate(-26.68 -79.63)"/><path class="ad91bd00-d19e-4d08-8ea4-e7a383931a09" d="M158.18,274.38H129.35a1.43,1.43,0,0,1-1.42-1.42h0a1.43,1.43,0,0,1,1.42-1.42h28.83A1.43,1.43,0,0,1,159.6,273h0A1.43,1.43,0,0,1,158.18,274.38Z" transform="translate(-26.68 -79.63)"/><path class="ad91bd00-d19e-4d08-8ea4-e7a383931a09" d="M158.18,279.88H129.35a1.43,1.43,0,0,1-1.42-1.42h0a1.43,1.43,0,0,1,1.42-1.42h28.83a1.43,1.43,0,0,1,1.42,1.42h0A1.43,1.43,0,0,1,158.18,279.88Z" transform="translate(-26.68 -79.63)"/><path class="ad91bd00-d19e-4d08-8ea4-e7a383931a09" d="M322.52,275H293.68a1.42,1.42,0,0,1-1.41-1.42h0a1.41,1.41,0,0,1,1.41-1.41h28.84a1.42,1.42,0,0,1,1.41,1.41h0A1.42,1.42,0,0,1,322.52,275Z" transform="translate(-26.68 -79.63)"/><path class="ad91bd00-d19e-4d08-8ea4-e7a383931a09" d="M322.52,280.54H293.68a1.42,1.42,0,0,1-1.41-1.42h0a1.41,1.41,0,0,1,1.41-1.41h28.84a1.42,1.42,0,0,1,1.41,1.41h0A1.42,1.42,0,0,1,322.52,280.54Z" transform="translate(-26.68 -79.63)"/><path class="ad91bd00-d19e-4d08-8ea4-e7a383931a09" d="M321.52,213.71H292.68a1.42,1.42,0,0,1-1.41-1.42h0a1.41,1.41,0,0,1,1.41-1.41h28.84a1.41,1.41,0,0,1,1.41,1.41h0A1.42,1.42,0,0,1,321.52,213.71Z" transform="translate(-26.68 -79.63)"/><path class="ad91bd00-d19e-4d08-8ea4-e7a383931a09" d="M321.52,219.21H292.68a1.42,1.42,0,0,1-1.41-1.42h0a1.41,1.41,0,0,1,1.41-1.41h28.84a1.41,1.41,0,0,1,1.41,1.41h0A1.42,1.42,0,0,1,321.52,219.21Z" transform="translate(-26.68 -79.63)"/><path class="a31d3995-8820-407f-8c3b-e61e21491b9b" d="M191.91,239.57h0a2.09,2.09,0,0,0-2.93,0l-7.59,7.58-3.84-3.84a2.08,2.08,0,0,0-2.93,2.94l5.31,5.31a2.09,2.09,0,0,0,2.93,0l9-9.05A2.08,2.08,0,0,0,191.91,239.57Z" transform="translate(-26.68 -79.63)"/><path class="a31d3995-8820-407f-8c3b-e61e21491b9b" d="M273.91,270.57h0a2.09,2.09,0,0,0-2.93,0l-7.59,7.58-3.84-3.84a2.08,2.08,0,0,0-2.93,2.94l5.31,5.31a2.09,2.09,0,0,0,2.93,0l9.05-9.05A2.08,2.08,0,0,0,273.91,270.57Z" transform="translate(-26.68 -79.63)"/><path class="a31d3995-8820-407f-8c3b-e61e21491b9b" d="M192.58,300.57h0a2.1,2.1,0,0,0-2.94,0l-7.58,7.58-3.84-3.84a2.08,2.08,0,1,0-2.94,2.94l5.31,5.31a2.1,2.1,0,0,0,2.94,0l9.05-9.05A2.1,2.1,0,0,0,192.58,300.57Z" transform="translate(-26.68 -79.63)"/><path class="a31d3995-8820-407f-8c3b-e61e21491b9b" d="M316.24,301.91h0a2.07,2.07,0,0,0-2.93,0l-7.58,7.58-3.84-3.84a2.08,2.08,0,1,0-2.94,2.93l5.31,5.31a2.1,2.1,0,0,0,2.94,0l9-9.05A2.07,2.07,0,0,0,316.24,301.91Z" transform="translate(-26.68 -79.63)"/><path class="a31d3995-8820-407f-8c3b-e61e21491b9b" d="M233.24,209.91h0a2.07,2.07,0,0,0-2.93,0l-7.58,7.58-3.84-3.84a2.08,2.08,0,1,0-2.94,2.93l5.31,5.31a2.1,2.1,0,0,0,2.94,0l9-9A2.07,2.07,0,0,0,233.24,209.91Z" transform="translate(-26.68 -79.63)"/><path class="a31d3995-8820-407f-8c3b-e61e21491b9b" d="M274.24,209.91h0a2.07,2.07,0,0,0-2.93,0l-7.58,7.58-3.84-3.84a2.08,2.08,0,1,0-2.94,2.93l5.31,5.31a2.1,2.1,0,0,0,2.94,0l9-9A2.07,2.07,0,0,0,274.24,209.91Z" transform="translate(-26.68 -79.63)"/><path class="f0e18842-8571-4dfe-94ab-ef1c9c4ef761" d="M353.78,311.33h0a1.51,1.51,0,0,1-2.12,0l-6.54-6.54a1.51,1.51,0,0,1,0-2.12h0a1.51,1.51,0,0,1,2.12,0l6.54,6.54A1.49,1.49,0,0,1,353.78,311.33Z" transform="translate(-26.68 -79.63)"/><path class="f0e18842-8571-4dfe-94ab-ef1c9c4ef761" d="M345.18,311.33h0a1.52,1.52,0,0,0,2.13,0l6.54-6.54a1.51,1.51,0,0,0,0-2.12h0a1.52,1.52,0,0,0-2.13,0l-6.54,6.54A1.51,1.51,0,0,0,345.18,311.33Z" transform="translate(-26.68 -79.63)"/><path class="f0e18842-8571-4dfe-94ab-ef1c9c4ef761" d="M389.12,280.87h0a1.49,1.49,0,0,1-2.12,0l-6.55-6.54a1.51,1.51,0,0,1,0-2.12h0a1.52,1.52,0,0,1,2.13,0l6.54,6.54A1.51,1.51,0,0,1,389.12,280.87Z" transform="translate(-26.68 -79.63)"/><path class="f0e18842-8571-4dfe-94ab-ef1c9c4ef761" d="M380.52,280.87h0a1.49,1.49,0,0,0,2.12,0l6.54-6.54a1.51,1.51,0,0,0,0-2.12h0a1.51,1.51,0,0,0-2.12,0l-6.54,6.54A1.49,1.49,0,0,0,380.52,280.87Z" transform="translate(-26.68 -79.63)"/><path class="f0e18842-8571-4dfe-94ab-ef1c9c4ef761" d="M389.78,221.54h0a1.51,1.51,0,0,1-2.12,0L381.12,215a1.51,1.51,0,0,1,0-2.12h0a1.49,1.49,0,0,1,2.12,0l6.54,6.54A1.49,1.49,0,0,1,389.78,221.54Z" transform="translate(-26.68 -79.63)"/><path class="f0e18842-8571-4dfe-94ab-ef1c9c4ef761" d="M381.18,221.54h0a1.52,1.52,0,0,0,2.13,0l6.54-6.54a1.51,1.51,0,0,0,0-2.12h0a1.5,1.5,0,0,0-2.13,0l-6.54,6.54A1.51,1.51,0,0,0,381.18,221.54Z" transform="translate(-26.68 -79.63)"/><path class="ad91bd00-d19e-4d08-8ea4-e7a383931a09" d="M243.93,341.12H162.68a2.51,2.51,0,0,1-2.5-2.5h0a2.51,2.51,0,0,1,2.5-2.5h81.25a2.51,2.51,0,0,1,2.5,2.5h0A2.5,2.5,0,0,1,243.93,341.12Z" transform="translate(-26.68 -79.63)"/><path class="ad91bd00-d19e-4d08-8ea4-e7a383931a09" d="M214.82,349.88H162.68a2.51,2.51,0,0,1-2.5-2.5h0a2.51,2.51,0,0,1,2.5-2.5h52.14a2.51,2.51,0,0,1,2.5,2.5h0A2.51,2.51,0,0,1,214.82,349.88Z" transform="translate(-26.68 -79.63)"/><rect class="ba8ce65e-5397-4309-8ce0-68dbfaef9088" x="72.97" y="315.4" width="4.18" height="11.68" rx="2.03"/><path class="a3cf12cc-d8a4-4c9b-9072-1fbf5f319164" d="M98.61,402.24v7.88l22.64-.12a.73.73,0,0,0,.3-1.4L105,401.85Z" transform="translate(-26.68 -79.63)"/><path class="a7d14aba-19be-4a68-ae2b-1046d8219097" d="M121.89,410.48H98.62a.35.35,0,0,1-.34-.35h0a.34.34,0,0,1,.34-.34h23.27a.34.34,0,0,1,.34.34h0A.35.35,0,0,1,121.89,410.48Z" transform="translate(-26.68 -79.63)"/><rect class="ba8ce65e-5397-4309-8ce0-68dbfaef9088" x="37.45" y="377.41" width="4.18" height="11.68" rx="2.03" transform="translate(324.37 76.91) rotate(59.84)"/><path class="a3cf12cc-d8a4-4c9b-9072-1fbf5f319164" d="M36.77,381.22l-6.81,4L41.44,404.7a.73.73,0,0,0,1.36-.45l-2.46-17.66Z" transform="translate(-26.68 -79.63)"/><path class="a7d14aba-19be-4a68-ae2b-1046d8219097" d="M41.35,405.49,29.66,385.38a.35.35,0,0,1,.12-.48h0a.37.37,0,0,1,.48.13l11.68,20.11a.34.34,0,0,1-.12.47h0A.34.34,0,0,1,41.35,405.49Z" transform="translate(-26.68 -79.63)"/><path class="ba8ce65e-5397-4309-8ce0-68dbfaef9088" d="M128.88,270.9l-5.6,3.86a1.56,1.56,0,0,1-2.16-.39h0a1.56,1.56,0,0,1,.39-2.16l5.6-3.87a1.56,1.56,0,0,1,2.16.39h0A1.57,1.57,0,0,1,128.88,270.9Z" transform="translate(-26.68 -79.63)"/><path class="ba8ce65e-5397-4309-8ce0-68dbfaef9088" d="M124.25,269.92l-1.74,3.67a.92.92,0,0,1-1.23.44h0a.92.92,0,0,1-.44-1.23l1.74-3.68a.92.92,0,0,1,1.23-.44h0A.94.94,0,0,1,124.25,269.92Z" transform="translate(-26.68 -79.63)"/><polygon class="a7d14aba-19be-4a68-ae2b-1046d8219097" points="69.13 246.85 86.45 283.07 79.62 320.34 70.7 320.34 73.85 287.27 41.83 246.85 69.13 246.85"/><polygon class="a49e736f-29f8-4656-a8db-cf0f61e23acc" points="63.88 246.85 46.03 289.37 16.63 309.32 12.95 297.24 37.1 278.87 40.78 245.27 63.88 246.85"/><path class="f39e7fb7-009c-42f1-86d4-c059aaccbf3a" d="M107.9,278.31a37.09,37.09,0,0,0,5.81-3.07q3.77-2.31,7.55-4.6c.84,1,1.65,2,2.44,3.09a1.64,1.64,0,0,1,.42.94,1.71,1.71,0,0,1-.66,1.1c-9.34,8.88-19.53,18.19-32.28,20.11a4.91,4.91,0,0,1-3.76-.54,4.79,4.79,0,0,1-1.33-2.12,32.58,32.58,0,0,1-2.25-13.1,2.14,2.14,0,0,1,.65-1.76,1.91,1.91,0,0,1,1.27-.24C93.3,278.5,100.39,281.19,107.9,278.31Z" transform="translate(-26.68 -79.63)"/><path class="b2e53350-3782-4859-ac81-20c5c201de0d" d="M82.33,267.15s-21.52,15.22-16.8,60.37L97,327S96.51,275,82.33,267.15Z" transform="translate(-26.68 -79.63)"/><path class="a01119fd-2425-4e71-9181-e72af81247ae" d="M83.59,268a9.86,9.86,0,0,0-1.26-.84s-21.52,15.22-16.8,60.37l2.28,0C63.72,288.32,79.38,271.7,83.59,268Z" transform="translate(-26.68 -79.63)"/><path class="ba8ce65e-5397-4309-8ce0-68dbfaef9088" d="M83.86,271.87h0a7.67,7.67,0,0,1-7.65-7.65v-7.66a7.68,7.68,0,0,1,7.65-7.66h0a7.69,7.69,0,0,1,7.66,7.66v7.66A7.68,7.68,0,0,1,83.86,271.87Z" transform="translate(-26.68 -79.63)"/><path class="a3cf12cc-d8a4-4c9b-9072-1fbf5f319164" d="M79.27,259.28c.65-1.89,2-4,4-3.86,1,.08,1.84.74,2.82.87,1.26.15,2.42-.58,3.62-1a10.36,10.36,0,0,0,3.18-1.17c1.36-1,1.57-3,1.65-4.66a3.5,3.5,0,0,0-.16-1.61c-.52-1.23-2.15-1.48-3.49-1.47a34.79,34.79,0,0,0-13,2.61,5.26,5.26,0,0,0-1.82,1.09,4.72,4.72,0,0,0-1,1.64,19.47,19.47,0,0,0-1.37,9.45C74.38,267.23,78.34,262,79.27,259.28Z" transform="translate(-26.68 -79.63)"/><path class="ba8ce65e-5397-4309-8ce0-68dbfaef9088" d="M80.58,259.36a1.53,1.53,0,1,1-1.53-1.53A1.52,1.52,0,0,1,80.58,259.36Z" transform="translate(-26.68 -79.63)"/><path class="b59df1ad-f9a4-44ee-b035-e668b26aa93b" d="M222.89,275.48l-95.43,35a8.68,8.68,0,0,1-11.14-5.16L102.9,268.68a8.68,8.68,0,0,1,5.16-11.14l95.43-35a8.68,8.68,0,0,1,11.14,5.16l13.42,36.63A8.67,8.67,0,0,1,222.89,275.48Z" transform="translate(-26.68 -79.63)"/><path class="a8a1e4c5-10dd-4f17-94a4-1e15779ddd7f" d="M201.26,244l-76.37,28a4.66,4.66,0,0,1-6-2.77h0a4.67,4.67,0,0,1,2.77-6l76.37-28a4.67,4.67,0,0,1,6,2.77h0A4.67,4.67,0,0,1,201.26,244Z" transform="translate(-26.68 -79.63)"/><path class="a8a1e4c5-10dd-4f17-94a4-1e15779ddd7f" d="M206.08,257.18l-76.37,28a4.69,4.69,0,0,1-6-2.78h0a4.68,4.68,0,0,1,2.78-6l76.36-28a4.69,4.69,0,0,1,6,2.78h0A4.69,4.69,0,0,1,206.08,257.18Z" transform="translate(-26.68 -79.63)"/><path class="a8a1e4c5-10dd-4f17-94a4-1e15779ddd7f" d="M186.14,278.69l-51.84,19a4.69,4.69,0,0,1-6-2.78h0a4.69,4.69,0,0,1,2.78-6l51.84-19a4.68,4.68,0,0,1,6,2.78h0A4.68,4.68,0,0,1,186.14,278.69Z" transform="translate(-26.68 -79.63)"/><path class="ba8ce65e-5397-4309-8ce0-68dbfaef9088" d="M134.12,309.2l-6.75.84a1.57,1.57,0,0,1-1.73-1.36h0A1.57,1.57,0,0,1,127,307l6.75-.83a1.58,1.58,0,0,1,1.74,1.35h0A1.56,1.56,0,0,1,134.12,309.2Z" transform="translate(-26.68 -79.63)"/><path class="ba8ce65e-5397-4309-8ce0-68dbfaef9088" d="M130.48,306.19l-3.24,2.45a.93.93,0,0,1-1.3-.18h0a.93.93,0,0,1,.18-1.3l3.25-2.45a.94.94,0,0,1,1.3.18h0A.94.94,0,0,1,130.48,306.19Z" transform="translate(-26.68 -79.63)"/><path class="f02b3db0-347f-4ce7-9795-1fa1e153bbcf" d="M108.06,302.32a33.86,33.86,0,0,0,6.19,1.66,109.69,109.69,0,0,0,13.25,1.74c1.29,1.45.57,3.91-1,5.1s-3.57,1.45-5.5,1.63a68.54,68.54,0,0,1-18.6-.34c-10-1.84-19-7.09-27.6-12.54a4.59,4.59,0,0,1-2.14-2.17c-.51-1.54.69-3.08,1.79-4.27q4.38-4.68,8.74-9.37c6.33-6.78,8.23,2.05,11.61,6.92S102.4,300.09,108.06,302.32Z" transform="translate(-26.68 -79.63)"/><rect class="ba8ce65e-5397-4309-8ce0-68dbfaef9088" x="424.57" y="394.14" width="4.18" height="11.68" rx="2.03" transform="translate(826.65 720.34) rotate(180)"/><path class="a3cf12cc-d8a4-4c9b-9072-1fbf5f319164" d="M429.8,401.36v7.87l-22.64-.11a.73.73,0,0,1-.3-1.4L423.37,401Z" transform="translate(-26.68 -79.63)"/><path class="a7d14aba-19be-4a68-ae2b-1046d8219097" d="M406.52,409.6h23.27a.35.35,0,0,0,.34-.35h0a.34.34,0,0,0-.34-.34H406.52a.34.34,0,0,0-.34.34h0A.35.35,0,0,0,406.52,409.6Z" transform="translate(-26.68 -79.63)"/><rect class="ba8ce65e-5397-4309-8ce0-68dbfaef9088" x="450.43" y="384.7" width="4.18" height="11.68" rx="2.03" transform="translate(1003.14 465.88) rotate(154.23)"/><path class="a3cf12cc-d8a4-4c9b-9072-1fbf5f319164" d="M455.94,390.42l3.42,7.09-20.44,9.74a.74.74,0,0,1-.88-1.14L450,392.86Z" transform="translate(-26.68 -79.63)"/><path class="a7d14aba-19be-4a68-ae2b-1046d8219097" d="M438.55,408l21-10.11a.34.34,0,0,0,.16-.46h0a.35.35,0,0,0-.46-.16l-20.95,10.11a.34.34,0,0,0-.17.46h0A.35.35,0,0,0,438.55,408Z" transform="translate(-26.68 -79.63)"/><path class="ba8ce65e-5397-4309-8ce0-68dbfaef9088" d="M399.53,270l5.6,3.87a1.56,1.56,0,0,0,2.16-.39h0a1.56,1.56,0,0,0-.39-2.16l-5.6-3.87a1.56,1.56,0,0,0-2.16.39h0A1.55,1.55,0,0,0,399.53,270Z" transform="translate(-26.68 -79.63)"/><path class="ba8ce65e-5397-4309-8ce0-68dbfaef9088" d="M404.16,269l1.74,3.67a.92.92,0,0,0,1.23.44h0a.92.92,0,0,0,.44-1.23l-1.74-3.68a.92.92,0,0,0-1.23-.44h0A.94.94,0,0,0,404.16,269Z" transform="translate(-26.68 -79.63)"/><polygon class="f39e7fb7-009c-42f1-86d4-c059aaccbf3a" points="405.92 245.97 388.6 282.19 395.42 319.46 404.35 319.46 401.2 286.39 433.22 245.97 405.92 245.97"/><polygon class="f02b3db0-347f-4ce7-9795-1fa1e153bbcf" points="415.41 235.3 406.36 280.52 419.52 313.52 429.33 305.58 419.63 276.83 435.42 246.95 415.41 235.3"/><path class="bdebc608-9a64-4693-a6ab-70ae28ad9abf" d="M420.51,277.43a37.09,37.09,0,0,1-5.81-3.07q-3.76-2.31-7.55-4.6c-.84,1-1.65,2-2.44,3.09a1.64,1.64,0,0,0-.42.94,1.67,1.67,0,0,0,.66,1.09c9.34,8.88,19.53,18.19,32.28,20.11a4.83,4.83,0,0,0,3.76-.54,4.71,4.71,0,0,0,1.33-2.11,32.58,32.58,0,0,0,2.25-13.1,2.14,2.14,0,0,0-.65-1.76,1.91,1.91,0,0,0-1.27-.24C435.11,277.62,428,280.31,420.51,277.43Z" transform="translate(-26.68 -79.63)"/><path class="aa2abc9a-74e2-4eb0-97ee-8c9f100aff49" d="M446.08,266.27s21.52,15.22,16.8,60.37l-31.5-.53S431.9,274.14,446.08,266.27Z" transform="translate(-26.68 -79.63)"/><path class="bcd9868b-c38e-403f-b946-aeff6ae3c3a1" d="M444.82,267.11a9.86,9.86,0,0,1,1.26-.84s21.52,15.22,16.8,60.37l-2.28,0C464.69,287.44,449,270.82,444.82,267.11Z" transform="translate(-26.68 -79.63)"/><rect class="ba8ce65e-5397-4309-8ce0-68dbfaef9088" x="436.89" y="248.02" width="15.31" height="22.97" rx="7.66" transform="translate(862.41 439.39) rotate(180)"/><path class="a3cf12cc-d8a4-4c9b-9072-1fbf5f319164" d="M436,250.93a2.4,2.4,0,0,0,.18,2.65c.79.89,2.2.82,3.42.78a20.3,20.3,0,0,1,8.3,1.46,2.14,2.14,0,0,1,1.33,1,1.93,1.93,0,0,1,0,1c-.38,1.89-1.63,3.48-2.66,5.12s-1.88,3.6-1.35,5.45a2.32,2.32,0,0,0,.58,1,3.19,3.19,0,0,0,2.09.64,45.89,45.89,0,0,0,11.92-.84,3.88,3.88,0,0,0,2.26-1c.79-.93.54-2.33,0-3.42a8.9,8.9,0,0,0-2.94-3.5,25,25,0,0,1-3.56-2.41c-2.87-2.89-1.67-8.21-4.57-11.07C447.25,244.17,438.33,246.36,436,250.93Z" transform="translate(-26.68 -79.63)"/><path class="ba8ce65e-5397-4309-8ce0-68dbfaef9088" d="M447.2,257a1.53,1.53,0,1,0,1.53-1.53A1.53,1.53,0,0,0,447.2,257Z" transform="translate(-26.68 -79.63)"/><rect class="a7d14aba-19be-4a68-ae2b-1046d8219097" x="323.57" y="226.01" width="93.96" height="54.76" rx="12.36" transform="translate(117.54 -213.9) rotate(25.36)"/><circle class="a8a1e4c5-10dd-4f17-94a4-1e15779ddd7f" cx="351.41" cy="236.18" r="11.65" transform="translate(-37.9 375.11) rotate(-64.98)"/><path class="a8a1e4c5-10dd-4f17-94a4-1e15779ddd7f" d="M398.68,263.35l-29.82-14.13a4.68,4.68,0,0,1-2.22-6.22h0a4.68,4.68,0,0,1,6.22-2.21l29.82,14.13a4.67,4.67,0,0,1,2.22,6.21h0A4.68,4.68,0,0,1,398.68,263.35Z" transform="translate(-26.68 -79.63)"/><path class="a8a1e4c5-10dd-4f17-94a4-1e15779ddd7f" d="M387.85,280.72l-50.59-24a4.68,4.68,0,0,1-2.22-6.22h0a4.68,4.68,0,0,1,6.22-2.22l50.59,24a4.67,4.67,0,0,1,2.22,6.21h0A4.68,4.68,0,0,1,387.85,280.72Z" transform="translate(-26.68 -79.63)"/><path class="ba8ce65e-5397-4309-8ce0-68dbfaef9088" d="M393.64,278.46l4.94,4.67a1.56,1.56,0,0,0,2.2-.06h0a1.56,1.56,0,0,0-.07-2.2l-4.94-4.67a1.55,1.55,0,0,0-2.19.06h0A1.56,1.56,0,0,0,393.64,278.46Z" transform="translate(-26.68 -79.63)"/><path class="ba8ce65e-5397-4309-8ce0-68dbfaef9088" d="M398.35,278.19l1.17,3.9a.92.92,0,0,0,1.15.62h0a.93.93,0,0,0,.62-1.16l-1.16-3.89A.92.92,0,0,0,399,277h0A.93.93,0,0,0,398.35,278.19Z" transform="translate(-26.68 -79.63)"/><path class="e3d63f16-63c4-4371-b934-79ec5a8a8688" d="M418.71,288.37a34.68,34.68,0,0,1-6-2.33,110,110,0,0,1-11.7-6.47c-1.9.41-2.78,2.81-2.25,4.68s2,3.28,3.46,4.57a68.12,68.12,0,0,0,15.18,10.76c9.14,4.46,19.51,5.57,29.65,6.28a4.6,4.6,0,0,0,3-.49c1.33-.94,1.28-2.88,1.09-4.49q-.74-6.37-1.48-12.73c-1.07-9.22-7.84-3.23-13.45-1.32S424.58,289.93,418.71,288.37Z" transform="translate(-26.68 -79.63)"/><rect class="bcf20ead-dfb7-48d1-8d3e-0cbc9092f34a" x="310.28" y="133.17" width="93.5" height="44.29" rx="6.82" transform="translate(-58.33 52.74) rotate(-20.13)"/><rect class="f02b3db0-347f-4ce7-9795-1fa1e153bbcf" x="309.56" y="131.74" width="93.5" height="44.29" rx="6.82" transform="translate(-58.39 65.29) rotate(-22.04)"/><path class="a8a1e4c5-10dd-4f17-94a4-1e15779ddd7f" d="M383.82,135.29l-59.24,24a3.68,3.68,0,0,1-4.77-2h0a3.68,3.68,0,0,1,2-4.78l59.24-24a3.68,3.68,0,0,1,4.77,2h0A3.66,3.66,0,0,1,383.82,135.29Z" transform="translate(-26.68 -79.63)"/><path class="a8a1e4c5-10dd-4f17-94a4-1e15779ddd7f" d="M388,145.49l-59.24,24a3.68,3.68,0,0,1-4.77-2h0a3.66,3.66,0,0,1,2-4.77l59.24-24a3.68,3.68,0,0,1,4.77,2h0A3.68,3.68,0,0,1,388,145.49Z" transform="translate(-26.68 -79.63)"/><path class="a8a1e4c5-10dd-4f17-94a4-1e15779ddd7f" d="M372.85,162.9l-40.21,16.28a3.68,3.68,0,0,1-4.77-2h0a3.67,3.67,0,0,1,2-4.77L370.1,156.1a3.69,3.69,0,0,1,4.78,2h0A3.68,3.68,0,0,1,372.85,162.9Z" transform="translate(-26.68 -79.63)"/><rect class="bcf20ead-dfb7-48d1-8d3e-0cbc9092f34a" x="253.39" y="327.65" width="85.43" height="40.46" rx="6.23" transform="translate(-51.25 -57.11) rotate(-4.18)"/><rect class="a31d3995-8820-407f-8c3b-e61e21491b9b" x="253.12" y="326.21" width="85.43" height="40.46" rx="6.23" transform="translate(-61.74 -46.31) rotate(-6.09)"/><path class="a8a1e4c5-10dd-4f17-94a4-1e15779ddd7f" d="M324.67,337l-58.05,6.19a3.36,3.36,0,0,1-3.69-3h0a3.36,3.36,0,0,1,3-3.69l58-6.19a3.36,3.36,0,0,1,3.69,3h0A3.36,3.36,0,0,1,324.67,337Z" transform="translate(-26.68 -79.63)"/><path class="a8a1e4c5-10dd-4f17-94a4-1e15779ddd7f" d="M325.74,347l-58.06,6.19a3.36,3.36,0,0,1-3.69-3h0a3.36,3.36,0,0,1,3-3.68L325,340.35a3.36,3.36,0,0,1,3.69,3h0A3.36,3.36,0,0,1,325.74,347Z" transform="translate(-26.68 -79.63)"/><path class="a8a1e4c5-10dd-4f17-94a4-1e15779ddd7f" d="M278.29,361.69a5.25,5.25,0,1,1-3.6-6.49A5.24,5.24,0,0,1,278.29,361.69Z" transform="translate(-26.68 -79.63)"/><path class="a8a1e4c5-10dd-4f17-94a4-1e15779ddd7f" d="M291.26,360.65a5.25,5.25,0,1,1-3.61-6.5A5.24,5.24,0,0,1,291.26,360.65Z" transform="translate(-26.68 -79.63)"/><path class="a8a1e4c5-10dd-4f17-94a4-1e15779ddd7f" d="M304.17,359.27a5.26,5.26,0,1,1-3.61-6.5A5.25,5.25,0,0,1,304.17,359.27Z" transform="translate(-26.68 -79.63)"/><circle class="bcf20ead-dfb7-48d1-8d3e-0cbc9092f34a" cx="119.33" cy="185.97" r="25.33" transform="translate(-120.71 48.86) rotate(-42.23)"/><circle class="a31d3995-8820-407f-8c3b-e61e21491b9b" cx="118" cy="183.64" r="25.33" transform="matrix(0.16, -0.99, 0.99, 0.16, -108.45, 192.01)"/><circle class="a8a1e4c5-10dd-4f17-94a4-1e15779ddd7f" cx="118" cy="183.64" r="21.3" transform="translate(-123.93 67.73) rotate(-47.71)"/><path class="a31d3995-8820-407f-8c3b-e61e21491b9b" d="M130.32,176.06h0a2.78,2.78,0,0,0-3.91,0l-10.08,10.08L111.22,181a2.76,2.76,0,0,0-3.9,3.91l7.06,7.05a2.75,2.75,0,0,0,3.9,0l12-12A2.77,2.77,0,0,0,130.32,176.06Z" transform="translate(-26.68 -79.63)"/></svg>