<svg xmlns="http://www.w3.org/2000/svg" viewBox="0 0 459.75 357.45"><defs><style>.cls-1{isolation:isolate;}.cls-2{fill:#e5e9ed;}.cls-3{fill:#bec8d2;}.cls-4{fill:#174159;}.cls-5{fill:#f2f2f2;}.cls-6{fill:#fae54e;}.cls-7{fill:#2d80ea;}.cls-8{fill:#e148be;}.cls-9{fill:#5620d8;}.cls-10{fill:#bba6ef;}.cls-11{opacity:0.2;mix-blend-mode:multiply;}.cls-12{fill:#2e546a;}.cls-13{fill:#428dec;}.cls-14{fill:#784de0;}.cls-15{fill:#5799ee;}.cls-16{fill:#fff;}

g,path{
	transform-box: fill-box;
}
path#b-setting, path#m-setting{
	animation: settings1_2 3s linear 0s infinite;
	transform-origin: center;
}
path#s-setting{
	animation: settings3 3s linear 0s infinite;
	transform-origin: center;
}
.tree____1{
	animation: tree____1 3s ease 0s infinite;
	transform-origin: bottom;
}
.tree____2{
	animation: tree____2 3s ease 0s infinite;
	transform-origin: bottom;
}
@keyframes settings1_2{
	0%{transform: rotate(0deg)}
	100%{transform: rotate(360deg)}
}
@keyframes settings3{
	0%{transform: rotate(0deg)}
	100%{transform: rotate(-360deg)}
}
@keyframes tree____1{
	0%{transform: rotate(0deg)}
	25%{transform: rotate(-1deg)}
	50%{transform: rotate(0deg)}
	75%{transform: rotate(1deg)}
	100%{transform: rotate(0deg)}
}
@keyframes tree____2{
	0%{transform: rotate(0deg)}
	25%{transform: rotate(1deg)}
	50%{transform: rotate(0deg)}
	75%{transform: rotate(-1deg)}
	100%{transform: rotate(0deg)}
}


</style></defs><title>graphicdesign</title><g class="cls-1"><g id="OBJECTS"><path class="cls-2" d="M419.7,353.72c0,2.35-85.1,4.24-190.07,4.24s-190.08-1.89-190.08-4.24,85.1-4.23,190.08-4.23S419.7,351.38,419.7,353.72Z" transform="translate(0.25 -0.51)"/><path class="cls-3 tree____2" d="M459.4,238.8c-.52-4.18-3.11-7.9-7.9-11.36-17-12.26-20.31-27.58-22.7-38.76-2.15-10-3.72-17.28-13.28-17.53v0h-1v0c-9.55.25-11.13,7.52-13.27,17.53-2.4,11.18-5.67,26.5-22.7,38.76-4.8,3.46-7.38,7.18-7.91,11.36-1,8.08,6.11,16.57,13,24.77,9.54,11.38,18.55,22.12,9.32,32.49-14.13,15.85-2.31,28.54,9.12,40.81,5.08,5.45,9.88,10.61,12.45,16v2.09l.5-1.05.5,1.05v-2.09c2.58-5.37,7.37-10.53,12.45-16,11.43-12.27,23.25-25,9.13-40.81-9.23-10.37-.22-21.11,9.32-32.49C453.3,255.37,460.41,246.88,459.4,238.8Zm-8.49-10.54c4.56,3.28,7,6.77,7.5,10.67a.13.13,0,0,0,0,.06c-8.43-.47-18.87,4.06-27.48,11.95A50.41,50.41,0,0,0,415.52,277V234.44c0-24.18,10.57-38,13.28-41.09C431.3,204.08,435.74,217.33,450.91,228.26Zm-23.09-39.37c.22,1.06.46,2.14.71,3.26-1.4,1.52-10,11.5-13,29.71V172.13C424.29,172.37,425.7,179,427.82,188.89Zm-13.3-16.76v49.73c-3-18.21-11.6-28.19-13-29.71.25-1.12.48-2.2.7-3.26C404.35,179,405.76,172.37,414.52,172.13Zm-35.39,56.13c15.17-10.93,19.61-24.18,22.11-34.91,2.71,3.13,13.28,16.89,13.28,41.09V277a50.45,50.45,0,0,0-15.42-26.08c-8.6-7.89-19.05-12.42-27.47-11.95v-.06C372.12,235,374.57,231.54,379.13,228.26Zm14.56,68.46c9.81-11,.1-22.59-9.3-33.79-6.43-7.67-13.05-15.59-12.82-22.94,8.18-.51,18.41,3.94,26.86,11.69,10.23,9.38,16.09,21.91,16.09,34.37v46.47c-4.58-17-23.73-21.79-26.93-22.48C387.74,305.82,389.52,301.41,393.69,296.72Zm9.11,39.47c-7.41-8-15-16.1-15.21-25.13,4.1.91,26.93,7,26.93,29.17v10.45C411.76,345.8,407.4,341.12,402.8,336.19Zm24.44,0c-4.59,4.93-9,9.61-11.72,14.49V340.23c0-22.17,22.84-28.25,26.94-29.17C442.22,320.09,434.65,328.23,427.24,336.19Zm9.11-39.47c4.17,4.69,6,9.1,6.11,13.32-3.21.69-22.35,5.49-26.94,22.48V286.05c0-12.46,5.87-25,16.1-34.37,8.45-7.75,18.68-12.18,26.86-11.68.23,7.34-6.4,15.26-12.83,22.93C436.26,274.13,426.54,285.72,436.35,296.72Z" transform="translate(0.25 -0.51)"/><path class="cls-3 tree____1" d="M88.61,238.8c-.52-4.18-3.11-7.9-7.91-11.36-17-12.26-20.3-27.58-22.69-38.76-2.15-10-3.73-17.28-13.28-17.53v0h-1v0c-9.55.25-11.13,7.52-13.28,17.53-2.39,11.18-5.66,26.5-22.69,38.76C3,230.9.37,234.62-.15,238.8c-1,8.08,6.1,16.57,13,24.77,9.55,11.38,18.56,22.12,9.33,32.49C8,311.91,19.85,324.6,31.28,336.87c5.08,5.45,9.87,10.6,12.45,16v2.09l.5-1.05.5,1.05v-2.09c2.58-5.38,7.37-10.53,12.45-16,11.43-12.27,23.25-25,9.13-40.81-9.24-10.37-.22-21.11,9.32-32.49C82.51,255.37,89.62,246.88,88.61,238.8Zm-8.49-10.54c4.56,3.28,7,6.77,7.5,10.67V239c-8.41-.47-18.87,4.06-27.47,11.95A50.41,50.41,0,0,0,44.73,277V234.44c0-24.18,10.57-38,13.28-41.09C60.51,204.08,65,217.33,80.12,228.26ZM57,188.89c.22,1.06.46,2.14.71,3.26-1.41,1.52-10.05,11.5-13,29.71V172.13C53.49,172.37,54.91,179,57,188.89Zm-13.3-16.76v49.73c-3-18.21-11.6-28.19-13-29.71.25-1.12.49-2.2.71-3.26C33.55,179,35,172.37,43.73,172.13ZM8.34,228.26C23.51,217.33,28,204.08,30.45,193.35c2.71,3.13,13.28,16.89,13.28,41.09V277a50.45,50.45,0,0,0-15.42-26.08c-8.6-7.89-19-12.42-27.47-11.95v-.06C1.33,235,3.78,231.54,8.34,228.26ZM22.9,296.72c9.81-11,.09-22.59-9.3-33.79C7.17,255.26.55,247.34.78,240c8.16-.51,18.4,3.94,26.85,11.69,10.23,9.38,16.1,21.91,16.1,34.37v46.47C39.15,315.53,20,310.73,16.8,310,17,305.82,18.73,301.41,22.9,296.72ZM32,336.19c-7.41-8-15-16.1-15.21-25.13,4.1.92,26.93,7,26.93,29.17v10.45C41,345.8,36.6,341.12,32,336.19Zm24.44,0c-4.59,4.93-9,9.61-11.72,14.49V340.23c0-22.17,22.83-28.25,26.93-29.17C71.43,320.09,63.86,328.23,56.45,336.19Zm9.11-39.47c4.17,4.69,6,9.1,6.11,13.32-3.21.69-22.35,5.49-26.94,22.48V286.05c0-12.46,5.87-25,16.1-34.37,8.45-7.75,18.69-12.18,26.85-11.69.23,7.35-6.39,15.27-12.82,22.94C65.47,274.13,55.75,285.72,65.56,296.72Z" transform="translate(0.25 -0.51)"/><path id="s-setting" class="cls-3" d="M83.44,159.44H71.36a3.17,3.17,0,0,1-3.17-3.17v-5a2.15,2.15,0,0,0-1.4-2,31.33,31.33,0,0,1-9.66-5.58,2.16,2.16,0,0,0-2.46-.21L50.37,146a3.11,3.11,0,0,1-2.4.32A3.16,3.16,0,0,1,46,144.82l-6-10.46A3.17,3.17,0,0,1,41.16,130l4.3-2.48a2.17,2.17,0,0,0,1-2.23,31.33,31.33,0,0,1,0-11.15,2.17,2.17,0,0,0-1-2.23l-4.3-2.48A3.18,3.18,0,0,1,40,105.13l6-10.47a3.17,3.17,0,0,1,4.33-1.15L54.67,96a2.14,2.14,0,0,0,2.46-.21,31.33,31.33,0,0,1,9.66-5.58,2.13,2.13,0,0,0,1.4-2v-5a3.17,3.17,0,0,1,3.17-3.17H83.44a3.17,3.17,0,0,1,3.17,3.17v5a2.13,2.13,0,0,0,1.4,2,31.45,31.45,0,0,1,9.66,5.58,2.14,2.14,0,0,0,2.45.21l4.31-2.48a3.16,3.16,0,0,1,4.32,1.15l6,10.47a3.18,3.18,0,0,1-1.16,4.33l-4.3,2.48a2.14,2.14,0,0,0-1,2.23,31.33,31.33,0,0,1,0,11.15,2.14,2.14,0,0,0,1,2.23l4.3,2.48a3.18,3.18,0,0,1,1.16,4.33l-6,10.46a3.15,3.15,0,0,1-4.32,1.16l-4.31-2.48a2.14,2.14,0,0,0-2.45.21A31.45,31.45,0,0,1,88,149.29a2.13,2.13,0,0,0-1.4,2v5A3.17,3.17,0,0,1,83.44,159.44ZM55.76,142.21a3.17,3.17,0,0,1,2,.73,30.15,30.15,0,0,0,9.34,5.41,3.14,3.14,0,0,1,2.07,3v5a2.17,2.17,0,0,0,2.17,2.17H83.44a2.17,2.17,0,0,0,2.17-2.17v-5a3.14,3.14,0,0,1,2.06-3A30.2,30.2,0,0,0,97,142.94a3.15,3.15,0,0,1,3.6-.31l4.31,2.49a2.18,2.18,0,0,0,3-.8l6-10.46a2.17,2.17,0,0,0-.79-3l-4.3-2.48a3.15,3.15,0,0,1-1.53-3.28,30.56,30.56,0,0,0,0-10.79,3.15,3.15,0,0,1,1.53-3.28l4.3-2.48a2.17,2.17,0,0,0,.79-3l-6-10.47a2.19,2.19,0,0,0-3-.79l-4.31,2.49a3.15,3.15,0,0,1-3.6-.31,30.2,30.2,0,0,0-9.35-5.41,3.14,3.14,0,0,1-2.06-3v-5a2.17,2.17,0,0,0-2.17-2.17H71.36a2.17,2.17,0,0,0-2.17,2.17v5a3.14,3.14,0,0,1-2.07,3,30.26,30.26,0,0,0-9.34,5.41,3.17,3.17,0,0,1-3.61.31l-4.3-2.49a2.18,2.18,0,0,0-3,.79l-6,10.47a2.17,2.17,0,0,0,.79,3l4.3,2.48a3.16,3.16,0,0,1,1.53,3.28,30.56,30.56,0,0,0,0,10.79A3.16,3.16,0,0,1,46,128.42l-4.3,2.48a2.16,2.16,0,0,0-.79,3l6,10.46a2.18,2.18,0,0,0,3,.8l4.3-2.49A3.23,3.23,0,0,1,55.76,142.21Zm21.65-5.32a17.15,17.15,0,0,1-17-19.37,17.15,17.15,0,1,1,19.24,19.24h0A18.6,18.6,0,0,1,77.41,136.89Zm0-33.3a16.43,16.43,0,0,0-2.09.14,16.1,16.1,0,1,0,2.09-.14Z" transform="translate(0.25 -0.51)"/><path id="m-setting" class="cls-3" d="M135.42,91a3.9,3.9,0,0,1-1-.14,3.68,3.68,0,0,1-2.21-1.75L129.31,84a2.67,2.67,0,0,0-2.75-1.34,37.21,37.21,0,0,1-13.27-.17,2.67,2.67,0,0,0-2.78,1.26l-3,5.09a3.64,3.64,0,0,1-2.26,1.68,3.69,3.69,0,0,1-2.79-.4L90,82.69a3.69,3.69,0,0,1-1.28-5l3-5.09a2.67,2.67,0,0,0-.21-3A37.26,37.26,0,0,1,85.1,57.92a2.67,2.67,0,0,0-2.48-1.78l-5.93-.08A3.68,3.68,0,0,1,74.1,55a3.63,3.63,0,0,1-1-2.62l.19-14.42a3.67,3.67,0,0,1,1.12-2.59,3.76,3.76,0,0,1,2.62-1l5.92.08a2.64,2.64,0,0,0,2.52-1.71,38.2,38.2,0,0,1,2.89-6,36.91,36.91,0,0,1,3.91-5.4,2.66,2.66,0,0,0,.3-3L89.64,13a3.69,3.69,0,0,1,1.41-5l12.59-7a3.68,3.68,0,0,1,5,1.42l2.9,5.17a2.66,2.66,0,0,0,2.74,1.34,37.27,37.27,0,0,1,13.28.17,2.66,2.66,0,0,0,2.77-1.26l3-5.09a3.69,3.69,0,0,1,2.26-1.68,3.63,3.63,0,0,1,2.79.4l12.39,7.38a3.67,3.67,0,0,1,1.28,5.05l-3,5.09a2.65,2.65,0,0,0,.22,3,37.44,37.44,0,0,1,6.47,11.59,2.67,2.67,0,0,0,2.48,1.78l5.93.08a3.67,3.67,0,0,1,3.63,3.73l-.19,14.42a3.68,3.68,0,0,1-1.11,2.59,3.86,3.86,0,0,1-2.62,1L158,57.16a2.69,2.69,0,0,0-2.53,1.71,36.52,36.52,0,0,1-2.89,6,37.46,37.46,0,0,1-3.91,5.4,2.67,2.67,0,0,0-.29,3l2.89,5.16a3.69,3.69,0,0,1-1.42,5l-12.59,7A3.65,3.65,0,0,1,135.42,91ZM127,81.58a3.68,3.68,0,0,1,3.19,1.88l2.89,5.17a2.69,2.69,0,0,0,3.66,1l12.58-7a2.68,2.68,0,0,0,1-3.65l-2.89-5.17a3.67,3.67,0,0,1,.42-4.18,36.14,36.14,0,0,0,3.8-5.25h0a35.76,35.76,0,0,0,2.81-5.85A3.69,3.69,0,0,1,158,56.16l5.92.08a2.71,2.71,0,0,0,1.91-.76,2.68,2.68,0,0,0,.81-1.88l.19-14.42a2.69,2.69,0,0,0-.75-1.91,2.64,2.64,0,0,0-1.89-.81l-5.93-.08a3.64,3.64,0,0,1-3.41-2.46,36.12,36.12,0,0,0-6.31-11.28,3.66,3.66,0,0,1-.3-4.19l3-5.08a2.68,2.68,0,0,0-.93-3.68L137.91,2.31a2.7,2.7,0,0,0-3.68.93l-3,5.09a3.65,3.65,0,0,1-3.82,1.73,36.19,36.19,0,0,0-12.92-.17,3.67,3.67,0,0,1-3.79-1.83l-2.89-5.18a2.68,2.68,0,0,0-3.65-1L91.54,8.9a2.6,2.6,0,0,0-1.27,1.61,2.65,2.65,0,0,0,.24,2l2.89,5.16A3.67,3.67,0,0,1,93,21.9a36.14,36.14,0,0,0-3.8,5.25A36.59,36.59,0,0,0,86.37,33a3.72,3.72,0,0,1-3.48,2.36L77,35.28a2.71,2.71,0,0,0-1.91.76,2.68,2.68,0,0,0-.81,1.88l-.19,14.42a2.68,2.68,0,0,0,2.64,2.72l5.93.08a3.67,3.67,0,0,1,3.42,2.46,36.3,36.3,0,0,0,6.3,11.28,3.65,3.65,0,0,1,.3,4.18l-3,5.09a2.69,2.69,0,0,0,.93,3.68l12.39,7.38a2.69,2.69,0,0,0,2,.29,2.66,2.66,0,0,0,1.64-1.22l3-5.09a3.66,3.66,0,0,1,3.83-1.73,36.18,36.18,0,0,0,12.92.17A2.88,2.88,0,0,1,127,81.58Zm-6.66-15.46a19.77,19.77,0,0,1-8-1.65h0a20.44,20.44,0,1,1,8,1.65Zm.19-39.72a19.37,19.37,0,0,0-7.76,37.16h0A19.38,19.38,0,0,0,128.09,28,18.84,18.84,0,0,0,120.52,26.4Z" transform="translate(0.25 -0.51)"/><path id="b-setting" class="cls-3" d="M390.11,148H373.59a4.15,4.15,0,0,1-4.14-4.15v-6.78a3.12,3.12,0,0,0-2-2.94,42.35,42.35,0,0,1-13.15-7.6,3.11,3.11,0,0,0-3.56-.3l-5.89,3.4a4.15,4.15,0,0,1-5.66-1.52l-8.26-14.31a4.15,4.15,0,0,1,1.52-5.66l5.87-3.39a3.12,3.12,0,0,0,1.52-3.24,42.7,42.7,0,0,1,0-15.18,3.11,3.11,0,0,0-1.52-3.24l-5.87-3.4a4.15,4.15,0,0,1-1.52-5.66l8.26-14.31a4.14,4.14,0,0,1,5.66-1.51l5.89,3.39a3.11,3.11,0,0,0,3.56-.3,42.55,42.55,0,0,1,13.15-7.6,3.12,3.12,0,0,0,2-2.94V44a4.15,4.15,0,0,1,4.14-4.14h16.52A4.15,4.15,0,0,1,394.26,44V50.8a3.12,3.12,0,0,0,2,2.94,42.38,42.38,0,0,1,13.14,7.6,3.12,3.12,0,0,0,3.57.3l5.88-3.39a4.15,4.15,0,0,1,5.67,1.51l8.26,14.31a4.15,4.15,0,0,1-1.52,5.66l-5.87,3.4a3.1,3.1,0,0,0-1.52,3.24,42.7,42.7,0,0,1,0,15.18,3.11,3.11,0,0,0,1.52,3.24l5.87,3.39a4.15,4.15,0,0,1,1.52,5.66l-8.26,14.31a4.16,4.16,0,0,1-5.67,1.52l-5.88-3.4a3.12,3.12,0,0,0-3.57.3,42.19,42.19,0,0,1-13.14,7.6,3.12,3.12,0,0,0-2,2.94v6.78A4.15,4.15,0,0,1,390.11,148Zm-37.84-23.19a4.11,4.11,0,0,1,2.64,1,41.27,41.27,0,0,0,12.84,7.42,4.13,4.13,0,0,1,2.7,3.88v6.78a3.15,3.15,0,0,0,3.14,3.15h16.52a3.15,3.15,0,0,0,3.15-3.15v-6.78a4.13,4.13,0,0,1,2.7-3.88,41.38,41.38,0,0,0,12.84-7.42,4.14,4.14,0,0,1,4.71-.41l5.88,3.4a3.17,3.17,0,0,0,2.39.32,3.14,3.14,0,0,0,1.91-1.47L432,113.34a3.14,3.14,0,0,0-1.15-4.29l-5.87-3.4a4.12,4.12,0,0,1-2-4.28,41.37,41.37,0,0,0,0-14.83,4.12,4.12,0,0,1,2-4.28l5.87-3.39a3.15,3.15,0,0,0,1.15-4.3l-8.26-14.31a3.16,3.16,0,0,0-1.91-1.46,3.12,3.12,0,0,0-2.39.31l-5.88,3.4a4.12,4.12,0,0,1-4.71-.41A41.58,41.58,0,0,0,396,54.68a4.13,4.13,0,0,1-2.7-3.88V44a3.15,3.15,0,0,0-3.15-3.14H373.59A3.15,3.15,0,0,0,370.45,44V50.8a4.13,4.13,0,0,1-2.7,3.88,41.46,41.46,0,0,0-12.84,7.42,4.1,4.1,0,0,1-4.71.41l-5.89-3.4A3.14,3.14,0,0,0,340,60.26l-8.26,14.31a3.15,3.15,0,0,0,1.15,4.3l5.87,3.39a4.12,4.12,0,0,1,2,4.28,41.37,41.37,0,0,0,0,14.83,4.12,4.12,0,0,1-2,4.28l-5.87,3.4a3.14,3.14,0,0,0-1.15,4.29L340,127.65a3.14,3.14,0,0,0,4.29,1.15l5.89-3.4A4.14,4.14,0,0,1,352.27,124.85Zm29.59-7.63a23.28,23.28,0,0,1-23.08-26.28A23.27,23.27,0,1,1,384.88,117h0A25.64,25.64,0,0,1,381.86,117.22Zm0-45.52a23.32,23.32,0,0,0-2.88.18A22.27,22.27,0,0,0,384.75,116h0A22.27,22.27,0,0,0,397.6,78.22,22.14,22.14,0,0,0,381.84,71.7Z" transform="translate(0.25 -0.51)"/><rect class="cls-2" x="77.65" y="119.21" width="304.46" height="195.16"/><rect class="cls-3" x="77.65" y="127.03" width="304.46" height="17.11"/><path class="cls-4" d="M95.52,134.09l1.7,1.8v2.42H93.81v-2.42l1.71-1.8m0-1.21a.6.6,0,0,0-.42.19L93,135.26a.84.84,0,0,0-.22.59v2.68a.72.72,0,0,0,.63.78h4.15a.72.72,0,0,0,.63-.78v-2.68a.84.84,0,0,0-.22-.59l-2.07-2.19a.6.6,0,0,0-.41-.19Z" transform="translate(0.25 -0.51)"/><path class="cls-4" d="M103.57,138.44a.48.48,0,0,1-.42-.23.49.49,0,0,1,.15-.69l2.21-1.42-2.21-1.43a.5.5,0,1,1,.54-.84l2.39,1.54a.82.82,0,0,1,0,1.45l-2.39,1.54A.47.47,0,0,1,103.57,138.44Z" transform="translate(0.25 -0.51)"/><path class="cls-4" d="M87.46,138.44a.47.47,0,0,1-.27-.08l-2.39-1.54a.82.82,0,0,1,0-1.45l2.39-1.54a.5.5,0,0,1,.54.84l-2.21,1.42,2.21,1.43a.49.49,0,0,1,.15.69A.48.48,0,0,1,87.46,138.44Z" transform="translate(0.25 -0.51)"/><rect class="cls-5" x="114" y="130.27" width="235.48" height="10.63" rx="2.6"/><rect class="cls-3" x="192.95" y="133.98" width="77.59" height="3.21"/><path class="cls-3" d="M120.43,138.86a2.77,2.77,0,1,1,2-.81A2.76,2.76,0,0,1,120.43,138.86Zm0-4.53a1.77,1.77,0,1,0,1.25.51A1.79,1.79,0,0,0,120.43,134.33Z" transform="translate(0.25 -0.51)"/><path class="cls-3" d="M123.4,139.57a.51.51,0,0,1-.36-.15l-1.36-1.37a.48.48,0,0,1,0-.7.5.5,0,0,1,.71,0l1.36,1.36a.5.5,0,0,1,0,.71A.5.5,0,0,1,123.4,139.57Z" transform="translate(0.25 -0.51)"/><path class="cls-3" d="M343.44,138.87a2.78,2.78,0,0,1,0-5.55.5.5,0,0,1,.5.5.5.5,0,0,1-.5.5,1.78,1.78,0,1,0,1.77,1.78.5.5,0,1,1,1,0A2.78,2.78,0,0,1,343.44,138.87Z" transform="translate(0.25 -0.51)"/><path class="cls-3" d="M343.44,135.32a.46.46,0,0,1-.23-.06.48.48,0,0,1-.27-.44v-1.63a.5.5,0,0,1,.27-.44.47.47,0,0,1,.51,0l1.21.81a.5.5,0,0,1,0,.83l-1.21.82A.54.54,0,0,1,343.44,135.32Z" transform="translate(0.25 -0.51)"/><path class="cls-4" d="M356.92,139.82a.53.53,0,0,1-.29-.1.5.5,0,0,1-.18-.56l.69-2.11-1.8-1.31a.49.49,0,0,1-.18-.56.47.47,0,0,1,.47-.34h2.22l.69-2.12a.5.5,0,0,1,.48-.34h0a.48.48,0,0,1,.47.34l.69,2.12h2.22a.5.5,0,0,1,.48.34.5.5,0,0,1-.18.56l-1.8,1.31.69,2.11a.51.51,0,0,1-.19.56.48.48,0,0,1-.58,0l-1.8-1.31-1.8,1.31A.54.54,0,0,1,356.92,139.82Zm.25-4,.85.61a.5.5,0,0,1,.18.56l-.32,1,.84-.62a.49.49,0,0,1,.59,0l.85.62-.32-1a.49.49,0,0,1,.18-.56l.84-.61h-1a.5.5,0,0,1-.48-.35l-.32-1-.33,1a.49.49,0,0,1-.47.35Z" transform="translate(0.25 -0.51)"/><path class="cls-4" d="M376.32,133.9h-8.45a.51.51,0,0,1-.5-.5.5.5,0,0,1,.5-.5h8.45a.5.5,0,0,1,.5.5A.5.5,0,0,1,376.32,133.9Z" transform="translate(0.25 -0.51)"/><path class="cls-4" d="M376.32,136.6h-8.45a.51.51,0,0,1-.5-.5.5.5,0,0,1,.5-.5h8.45a.5.5,0,0,1,.5.5A.5.5,0,0,1,376.32,136.6Z" transform="translate(0.25 -0.51)"/><path class="cls-4" d="M376.32,139.29h-8.45a.5.5,0,0,1-.5-.5.51.51,0,0,1,.5-.5h8.45a.5.5,0,0,1,.5.5A.5.5,0,0,1,376.32,139.29Z" transform="translate(0.25 -0.51)"/><polygon class="cls-4" points="382.48 314.75 77.64 314.75 77.64 314 381.73 314 381.73 119.21 382.48 119.21 382.48 314.75"/><rect class="cls-4" x="77.65" y="119.21" width="304.46" height="7.82"/><circle class="cls-6" cx="83.75" cy="123.12" r="1.83"/><circle class="cls-7" cx="88.77" cy="123.12" r="1.83"/><path class="cls-8" d="M95.38,123.63a1.83,1.83,0,1,1-1.83-1.83A1.83,1.83,0,0,1,95.38,123.63Z" transform="translate(0.25 -0.51)"/><rect class="cls-9" x="253.4" y="290.93" width="105.25" height="11.9"/><circle class="cls-9" cx="114.69" cy="166.29" r="13.87"/><rect class="cls-10" x="135.46" y="160.47" width="54.24" height="4.71"/><rect class="cls-10" x="135.46" y="167.41" width="39.87" height="4.71"/><rect class="cls-3" x="263.83" y="160.47" width="27.12" height="4.71"/><rect class="cls-3" x="297.68" y="160.47" width="27.12" height="4.71"/><rect class="cls-4" x="101.35" y="184.88" width="257.05" height="1"/><rect class="cls-10" x="101.35" y="245.03" width="88.36" height="7.11"/><rect class="cls-3" x="101.35" y="258.95" width="122.95" height="3.15"/><rect class="cls-3" x="101.35" y="265.04" width="112.22" height="3.15"/><rect class="cls-3" x="101.35" y="271.13" width="103.14" height="3.15"/><rect class="cls-3" x="101.35" y="277.22" width="122.95" height="3.15"/><g class="cls-11"><rect x="102.35" y="291.93" width="42.57" height="11.9" rx="5.95"/></g><rect class="cls-6" x="101.35" y="290.93" width="42.57" height="11.9" rx="5.95"/><g class="cls-11"><rect x="151.38" y="291.93" width="42.57" height="11.9" rx="5.95"/></g><rect class="cls-4" x="150.38" y="290.93" width="42.57" height="11.9" rx="5.95"/><rect class="cls-9" x="101.35" y="197.17" width="17.95" height="17.95"/><polygon class="cls-5" points="119.48 197.35 119.12 197 110.32 205.79 101.53 197 101.17 197.35 109.97 206.15 101.17 214.95 101.53 215.3 110.32 206.5 119.12 215.3 119.48 214.95 110.68 206.15 119.48 197.35"/><rect class="cls-9" x="126.49" y="197.17" width="17.95" height="17.95"/><polygon class="cls-5" points="144.62 197.35 144.26 197 135.47 205.79 126.67 197 126.31 197.35 135.11 206.15 126.31 214.95 126.67 215.3 135.47 206.5 144.26 215.3 144.62 214.95 135.82 206.15 144.62 197.35"/><rect class="cls-9" x="151.63" y="197.17" width="17.95" height="17.95"/><polygon class="cls-5" points="169.76 197.35 169.41 197 160.61 205.79 151.81 197 151.45 197.35 160.25 206.15 151.45 214.95 151.81 215.3 160.61 206.5 169.41 215.3 169.76 214.95 160.96 206.15 169.76 197.35"/><g class="cls-11"><rect x="144.65" y="183.17" width="15.85" height="93.36" transform="translate(-79.43 378.23) rotate(-89.09)"/></g><rect class="cls-9" x="142.65" y="182.17" width="15.85" height="93.36" transform="translate(-80.4 375.25) rotate(-89.09)"/><g class="cls-11"><rect x="219.61" y="185.46" width="174.32" height="102.84" transform="translate(-29.15 43.46) rotate(-7.83)"/><path d="M396.93,252.68l-10.8-78.61L213.42,197.8,227,296.42l.45,3.27L400.13,276Zm-179-51.46,164.78-22.64,9.71,70.68-44.33-33.62-43.95,57.95-38-28.82L230.4,291.91Z" transform="translate(0.25 -0.51)"/><circle cx="296.44" cy="217.62" r="14.51" transform="translate(-58.67 311.73) rotate(-51.19)"/></g><rect class="cls-10" x="209.61" y="168.46" width="174.32" height="102.84" transform="translate(-26.93 41.94) rotate(-7.83)"/><path class="cls-9" d="M386.93,235.68l-10.8-78.61L203.42,180.8,217,279.42l.45,3.27L390.13,259Zm-179-51.46,164.78-22.64,9.71,70.68-44.33-33.62-43.95,57.95-38-28.82L220.4,274.91Z" transform="translate(0.25 -0.51)"/><circle class="cls-5" cx="286.44" cy="200.62" r="14.51" transform="translate(-49.16 297.59) rotate(-51.19)"/><path class="cls-4" d="M352.81,277.47c-3.27,14.86-2,34,5.22,45.11,5.7,8.8,15.84,11.52,24.88,18.48l-.42,4.35,4-4.75s-5-5-19.58-20c-3.56-3.68-1-18.22-.09-21.86,4.53-6,0-12.35-3-21.31Z" transform="translate(0.25 -0.51)"/><path class="cls-7" d="M382.91,341.06l-.42,4.35,4-4.75-1.69-1.7A1.94,1.94,0,0,1,382.91,341.06Z" transform="translate(0.25 -0.51)"/><path class="cls-12" d="M348.63,277.47c-9.54,18.83-9.15,30.91,4.67,74.89l-4.42,2.73h6.73S355.32,308.61,358,298c4.52-6,4.59-11.58,1.6-20.54Z" transform="translate(0.25 -0.51)"/><path class="cls-7" d="M348.88,355.09h6.73v-2.73s-1.45.85-2.31,0Z" transform="translate(0.25 -0.51)"/><path class="cls-5" d="M359,234.08c-1.68,5.14-6.41,7.64-8.88,7.18s-3.74-4.66-2.86-9.38,3.58-7.4,6.07-7.71C356.88,223.73,361.31,227,359,234.08Z" transform="translate(0.25 -0.51)"/><rect class="cls-5" x="353.54" y="234.99" width="4.63" height="11.63"/><path class="cls-7" d="M354.21,244.38c-6.08,1.11-10.17,11.08-10.77,14.66-.36,2.11-.13,4.17,2.22,8.29,3.28,5.74,3,10.14,3,10.14h15.24c0-4.56,2.93-9.67,4.66-16.78S364.52,242.5,354.21,244.38Z" transform="translate(0.25 -0.51)"/><path class="cls-13" d="M359.42,244.61s8.84,1.07,12.48-.23c8.58-3.06,12.3-10.43,12.59-18h2.32s3.11,22.44-18.12,30.45Z" transform="translate(0.25 -0.51)"/><path class="cls-5" d="M384.49,226.35c-1.55-1.71-.57-3.11-1.18-4.46s.14-2.88,1.82.79l-.7-5.14s2,1,2.38,8.81Z" transform="translate(0.25 -0.51)"/><path class="cls-13" d="M353.82,245.57c4.55.89,4,9.13-1.21,13.9-4.91,4.5-18.77,8.45-37.42,10.86l-.61-2.05a65.24,65.24,0,0,0,19.51-7.43C343.17,255.34,347.25,244.28,353.82,245.57Z" transform="translate(0.25 -0.51)"/><path class="cls-5" d="M314.58,268.28c-2-.94-3.06.26-4.48.06s-2.11.75,1.76,1.33l-5.32.77s1.25,1.48,8.65-.11Z" transform="translate(0.25 -0.51)"/><path class="cls-6" d="M348,224.79c-2.34,4.1,5.35,3.09,5.35,7.11s-8.43,4.77-10,10c-1.79,6,10.43,4.4,8.59,10.61-2.7,9.13-20.59,9.9-13.78,19.58,5,7,17.06,3,15.69,14.55-1.32,11.17,19.08,8.92,20.84-.25,1.16-6.09-10.21-9.79-3.84-14.39,7.79-5.63,17.65-13.18,9.22-19.57-4.27-3.22-15.8-5.22-17-10.41s5.64-13.15-2.46-18.45C352.28,218.15,348,224.79,348,224.79Z" transform="translate(0.25 -0.51)"/><path class="cls-4" d="M143.36,103.5s4,16.21,12.45,16.21c19.4,0,24.95-7.43,32.72-6.92,4.11.27,14.44,6.92,14.44,6.92h5.82l-4.09-2.55s-11.17-14.63-18.65-15.54c-9.48-1.14-22,8.26-28.77,1.88Z" transform="translate(0.25 -0.51)"/><path class="cls-7" d="M203,119.71l-1.3-.82s2.28.14,3-1.73l4.09,2.55Z" transform="translate(0.25 -0.51)"/><path class="cls-3" d="M380.14,183.22l-20.42-24.55a.49.49,0,0,0-.7-.06.5.5,0,0,0-.07.7l2.65,3.18L358,158.41l0,0,0,0-56.86-44a5.76,5.76,0,0,0,.89-1,6.19,6.19,0,0,0,1.22-4.11v-.13a1.3,1.3,0,0,0-2.6.13,3.49,3.49,0,0,1-2,3.14A4.07,4.07,0,0,0,297,112a3.94,3.94,0,0,0-1.64.32l-.14-.07a3.53,3.53,0,0,1-1.56-1.87,3.37,3.37,0,0,1,0-2.48c1.86-3.73,5.55-6.1,5.55-9.83a6.81,6.81,0,0,0-1.7-13.23V12.45a9,9,0,0,0-9-9,8.92,8.92,0,0,0-4.64,1.3h0l-.23.14-.17.11L193.72,61.63,180.61,74.12v43a.5.5,0,0,0,.5.5.5.5,0,0,0,.5-.5V74.55l12.72-12.14L280.8,7.87a9,9,0,1,0,15.78,8.69V84.87a6.8,6.8,0,0,0-2,13.13c-.24,2.62-3.28,5-4.56,8.48a7.16,7.16,0,0,0,.15,5.1,7.06,7.06,0,0,0,2.36,3l-76.47,64,0,0-.06.08a.35.35,0,0,0,0,.08l0,0L212.29,189l2.84-9.63a.5.5,0,1,0-.95-.28l-7.82,26.42a.51.51,0,0,0,.32.62.47.47,0,0,0,.16,0,.48.48,0,0,0,.47-.33l9.53-26.53,76.61-64.14.05,0a6.84,6.84,0,0,0,4.66.58,6.65,6.65,0,0,0,2-.86l57,44.18,22.15,24.75a.48.48,0,0,0,.37.17.52.52,0,0,0,.33-.12A.5.5,0,0,0,380.14,183.22ZM288.56,20.47A8,8,0,0,1,284,5.83l.22-.14a7.91,7.91,0,0,1,4.3-1.26,8,8,0,0,1,0,16Zm5.7,71.19a2.81,2.81,0,0,1,2.32-2.77v1.67a.5.5,0,0,0,.5.5.51.51,0,0,0,.5-.5V88.89A2.81,2.81,0,0,1,298.69,94a2.34,2.34,0,0,0-3.23,0A2.82,2.82,0,0,1,294.26,91.66Z" transform="translate(0.25 -0.51)"/><path class="cls-3" d="M288.56,8.8a3.65,3.65,0,1,0,3.64,3.65A3.66,3.66,0,0,0,288.56,8.8Zm0,6.3a2.65,2.65,0,1,1,2.64-2.65A2.65,2.65,0,0,1,288.56,15.1Z" transform="translate(0.25 -0.51)"/><path class="cls-3" d="M178.82,76c.81-1.36,2.66-4,3.59-2.26.59,1.12.35,3.1-.18,3.29a11.11,11.11,0,0,1-1.92.32Z" transform="translate(0.25 -0.51)"/><path class="cls-7" d="M140.91,73.36c7.39-4.16,19.34,9.17,23,9.85,5.86,1.12,14.21-6.58,14.95-7.18l1.49,1.35s-9.15,13.12-17.8,13.37S131.5,78.68,140.91,73.36Z" transform="translate(0.25 -0.51)"/><path class="cls-5" d="M178.82,76a3,3,0,0,1,1.76-2.42c1.4-.75,1.1-1.49,1.57-1.49s1,1.36-.22,1.84c0,0,0,2.43-2,3Z" transform="translate(0.25 -0.51)"/><path class="cls-5" d="M182.41,73.77c.06.51-.5.43-1,.41-.74,0-1.49-.14-1.37.83.2,1.51,0,2.37.7,2.41s1.24.2,1.72,0S183.14,74.92,182.41,73.77Z" transform="translate(0.25 -0.51)"/><path class="cls-12" d="M158,99.31c9.53,18.81,16.9,38.09,34.55,54.78l5-1.44-4.5,5s-36.92-21.6-46.94-34.85c-4.52-6-5.65-10.36-2.66-19.31Z" transform="translate(0.25 -0.51)"/><path class="cls-7" d="M193,157.64l4.5-5-5,1.44a2.19,2.19,0,0,1-1.56,2.33Z" transform="translate(0.25 -0.51)"/><path class="cls-5" d="M136.9,64.13c2.75,4.1,7.53,5.13,9.58,4.11s2.14-5,.19-9-5-5.62-7.25-5.27C136.17,54.5,133.08,58.43,136.9,64.13Z" transform="translate(0.25 -0.51)"/><polygon class="cls-5" points="138.85 75.52 145.38 73.68 142.49 63.45 135.43 59.38 138.85 75.52"/><path class="cls-13" d="M169.73,104.82c-4.4,16.42-26.17,14.88-26.17,14.88s-7.19-.08-9.92-21.67c-2.94-23.19,3-25.16,9.92-26l47.85-10,1.13,2.6S171.16,78.43,156.83,84.2c.23.73.44,1.51.64,2.32A34.12,34.12,0,0,0,169.73,104.82Z" transform="translate(0.25 -0.51)"/><path class="cls-5" d="M196.56,63.23c-.64,1-4,1.33-4,1.33L191.41,62s2-2.71,3.14-2.53S197.21,62.22,196.56,63.23Z" transform="translate(0.25 -0.51)"/><path class="cls-4" d="M137.51,70.89a5.52,5.52,0,0,0,3.39-5.42s-1.68.88-2.16-2.77c-.22-1.67,1.41-2,2.17-.17,1.05.39,2.48-.33,2.26-2.26-.35-3.13,3.55-2.61,3.69-6.31.18-4.8-9.39-11.1-11.2-6.73-1.49,3.58-1,5.73-5.58,5.77C121.74,53.08,130.28,72.56,137.51,70.89Z" transform="translate(0.25 -0.51)"/><path class="cls-4" d="M109.72,277.47c3.27,14.86,2,34-5.22,45.11-5.7,8.8-15.84,11.52-24.88,18.48l.42,4.35-4-4.75s5-5,19.58-20c3.56-3.68,1-18.22.08-21.86-4.52-6,0-12.35,3-21.31Z" transform="translate(0.25 -0.51)"/><path class="cls-7" d="M79.62,341.06l.42,4.35-4-4.75,1.69-1.7A1.94,1.94,0,0,0,79.62,341.06Z" transform="translate(0.25 -0.51)"/><path class="cls-12" d="M113.9,277.47c9.54,18.83,9.15,30.91-4.67,74.89l4.41,2.73h-6.72s.28-46.48-2.42-57.08c-4.53-6-4.59-11.58-1.6-20.54Z" transform="translate(0.25 -0.51)"/><path class="cls-7" d="M113.64,355.09h-6.72v-2.73s1.44.85,2.31,0Z" transform="translate(0.25 -0.51)"/><path class="cls-5" d="M103.55,234.08c1.68,5.14,6.41,7.64,8.87,7.18s3.75-4.66,2.86-9.38-3.58-7.4-6.06-7.71C105.65,223.73,101.22,227,103.55,234.08Z" transform="translate(0.25 -0.51)"/><rect class="cls-5" x="101.1" y="235.5" width="8.13" height="11.63" transform="translate(210.58 482.12) rotate(180)"/><path class="cls-5" d="M78,226.35c1.55-1.71.57-3.11,1.19-4.46s-.14-2.88-1.82.79v-5.14s-1.31,1-1.69,8.81Z" transform="translate(0.25 -0.51)"/><path class="cls-8" d="M108.65,237.27c1.41,2.47-6.65,4.63-8.8,2.15s-9.37-4.43-4.06-14.11c2.31-4.21,3.19-10.39,6.62-11,8.23-1.43,12.18,4.89,12,8.61-.26,5.15-2.26,8.24-4.33,9.26C108.67,232.89,106.47,233.44,108.65,237.27Z" transform="translate(0.25 -0.51)"/><path class="cls-13" d="M150.44,241.31c-1.67,4.46-10,10.12-18.28,9.33-7.15-.67-14.41-6.06-24.21-6h0c-3.16-.53-6.31.1-12.79.38a15.89,15.89,0,0,1-4.53-.63c-8.58-3.06-12.3-10.43-12.6-18H75.71s-2.76,20.06,14.88,29c.34,9.13,3.15,23.31,3.15,38.49,0,0,8.21,4.77,28.65,0,0,0-.37-19.63-3.36-33.78a44.73,44.73,0,0,0,13.49-2.17c16-5.26,21.66-17.24,21.66-17.24Z" transform="translate(0.25 -0.51)"/><path class="cls-5" d="M150.44,241.31c-1.18-1.75.61-3.55.86-4.86s.93-2.29,1.58-2.42c1.11-.24.78,1.31.42,2.79a.19.19,0,0,0,.26.23,10.74,10.74,0,0,1,4.81-1.14c.58.05.94.69-1.42,1.88a5.15,5.15,0,0,0-2.77,2.87Z" transform="translate(0.25 -0.51)"/><g class="cls-11"><rect x="150.75" y="310.2" width="111.25" height="29.63"/><rect x="158.23" y="316.03" width="17.95" height="17.95"/><rect x="166.7" y="312.83" width="0.5" height="25.39" transform="translate(-181.03 212.88) rotate(-45)"/><rect x="154.26" y="325.27" width="25.39" height="0.5" transform="translate(-181.03 212.89) rotate(-45)"/><rect x="182.43" y="320.01" width="67.05" height="2.11"/><rect x="182.43" y="327.9" width="67.05" height="2.11"/><rect x="182.43" y="323.95" width="59.82" height="2.11"/></g><rect class="cls-9" x="149.75" y="309.2" width="111.25" height="29.63"/><rect class="cls-14" x="157.23" y="315.03" width="17.95" height="17.95"/><rect class="cls-9" x="165.7" y="311.83" width="0.5" height="25.39" transform="translate(-180.62 211.88) rotate(-45)"/><rect class="cls-9" x="153.26" y="324.27" width="25.39" height="0.5" transform="translate(-180.62 211.89) rotate(-45)"/><rect class="cls-15" x="181.43" y="319.01" width="67.05" height="2.11"/><rect class="cls-15" x="181.43" y="326.9" width="67.05" height="2.11"/><rect class="cls-15" x="181.43" y="322.95" width="59.82" height="2.11"/><g class="cls-11"><rect x="132.08" y="322.95" width="111.25" height="29.63"/><rect x="139.55" y="328.79" width="17.95" height="17.95"/><rect x="148.03" y="325.58" width="0.5" height="25.39" transform="translate(-195.52 203.41) rotate(-45)"/><rect x="135.58" y="338.03" width="25.39" height="0.5" transform="translate(-195.52 203.42) rotate(-45)"/><rect x="163.75" y="332.76" width="67.05" height="2.11"/><rect x="163.75" y="340.66" width="67.05" height="2.11"/><rect x="163.75" y="336.71" width="59.82" height="2.11"/></g><rect class="cls-7" x="131.08" y="321.95" width="111.25" height="29.63"/><rect class="cls-9" x="138.55" y="327.79" width="17.95" height="17.95"/><rect class="cls-7" x="147.03" y="324.58" width="0.5" height="25.39" transform="translate(-195.11 202.41) rotate(-45)"/><rect class="cls-7" x="134.58" y="337.03" width="25.39" height="0.5" transform="translate(-195.11 202.42) rotate(-45)"/><rect class="cls-15" x="162.75" y="331.76" width="67.05" height="2.11"/><rect class="cls-15" x="162.75" y="339.66" width="67.05" height="2.11"/><rect class="cls-15" x="162.75" y="335.71" width="59.82" height="2.11"/><path class="cls-3" d="M233.26,105.78a3.42,3.42,0,1,1,3.42-3.42A3.42,3.42,0,0,1,233.26,105.78Zm0-5.84a2.42,2.42,0,1,0,2.42,2.42A2.43,2.43,0,0,0,233.26,99.94Z" transform="translate(0.25 -0.51)"/><path class="cls-3" d="M222.7,89.47a6.23,6.23,0,1,1,6.23-6.23A6.24,6.24,0,0,1,222.7,89.47Zm0-11.45a5.23,5.23,0,1,0,5.23,5.22A5.23,5.23,0,0,0,222.7,78Z" transform="translate(0.25 -0.51)"/><path class="cls-3" d="M251.51,92a3.78,3.78,0,1,1,3.78-3.78A3.78,3.78,0,0,1,251.51,92Zm0-6.56a2.78,2.78,0,1,0,2.78,2.78A2.78,2.78,0,0,0,251.51,85.47Z" transform="translate(0.25 -0.51)"/><path class="cls-3" d="M38.85,63.78A5.12,5.12,0,1,0,44,68.9,5.13,5.13,0,0,0,38.85,63.78Zm0,9.24A4.12,4.12,0,1,1,43,68.9,4.13,4.13,0,0,1,38.85,73Z" transform="translate(0.25 -0.51)"/><circle class="cls-16" cx="39.09" cy="68.39" r="4.12"/><path class="cls-3" d="M50.25,50a4.47,4.47,0,1,0,4.47,4.47A4.47,4.47,0,0,0,50.25,50Zm0,7.94a3.47,3.47,0,1,1,3.47-3.47A3.47,3.47,0,0,1,50.25,58Z" transform="translate(0.25 -0.51)"/><path class="cls-3" d="M411.51,152.18a4,4,0,1,1,4-4A4,4,0,0,1,411.51,152.18Zm0-7a3,3,0,1,0,3,3A3,3,0,0,0,411.51,145.15Z" transform="translate(0.25 -0.51)"/><path class="cls-3" d="M436.48,152.18a8.14,8.14,0,1,1,8.15-8.14A8.15,8.15,0,0,1,436.48,152.18Zm0-15.28a7.14,7.14,0,1,0,7.15,7.14A7.15,7.15,0,0,0,436.48,136.9Z" transform="translate(0.25 -0.51)"/></g></g></svg>